<?xml version="1.0" encoding="utf-8" standalone="no"?>
<!DOCTYPE svg PUBLIC "-//W3C//DTD SVG 1.1//EN"
  "http://www.w3.org/Graphics/SVG/1.1/DTD/svg11.dtd">
<!-- Created with matplotlib (https://matplotlib.org/) -->
<svg height="345.6pt" version="1.1" viewBox="0 0 460.8 345.6" width="460.8pt" xmlns="http://www.w3.org/2000/svg" xmlns:xlink="http://www.w3.org/1999/xlink">
 <defs>
  <style type="text/css">
*{stroke-linecap:butt;stroke-linejoin:round;}
  </style>
 </defs>
 <g id="figure_1">
  <g id="patch_1">
   <path d="M 0 345.6 
L 460.8 345.6 
L 460.8 0 
L 0 0 
z
" style="fill:#ffffff;"/>
  </g>
  <g id="axes_1">
   <g id="patch_2">
    <path d="M 57.6 307.584 
L 414.72 307.584 
L 414.72 41.472 
L 57.6 41.472 
z
" style="fill:#ffffff;"/>
   </g>
   <g id="matplotlib.axis_1">
    <g id="xtick_1">
     <g id="line2d_1">
      <path clip-path="url(#pde7c36b8fb)" d="M 57.6 307.584 
L 57.6 41.472 
" style="fill:none;stroke:#b0b0b0;stroke-linecap:square;stroke-width:0.8;"/>
     </g>
     <g id="line2d_2">
      <defs>
       <path d="M 0 0 
L 0 3.5 
" id="ma16c2ad522" style="stroke:#000000;stroke-width:0.8;"/>
      </defs>
      <g>
       <use style="stroke:#000000;stroke-width:0.8;" x="57.6" xlink:href="#ma16c2ad522" y="307.584"/>
      </g>
     </g>
     <g id="text_1">
      <!-- 0.00 -->
      <defs>
       <path d="M 31.78125 66.40625 
Q 24.171875 66.40625 20.328125 58.90625 
Q 16.5 51.421875 16.5 36.375 
Q 16.5 21.390625 20.328125 13.890625 
Q 24.171875 6.390625 31.78125 6.390625 
Q 39.453125 6.390625 43.28125 13.890625 
Q 47.125 21.390625 47.125 36.375 
Q 47.125 51.421875 43.28125 58.90625 
Q 39.453125 66.40625 31.78125 66.40625 
z
M 31.78125 74.21875 
Q 44.046875 74.21875 50.515625 64.515625 
Q 56.984375 54.828125 56.984375 36.375 
Q 56.984375 17.96875 50.515625 8.265625 
Q 44.046875 -1.421875 31.78125 -1.421875 
Q 19.53125 -1.421875 13.0625 8.265625 
Q 6.59375 17.96875 6.59375 36.375 
Q 6.59375 54.828125 13.0625 64.515625 
Q 19.53125 74.21875 31.78125 74.21875 
z
" id="DejaVuSans-48"/>
       <path d="M 10.6875 12.40625 
L 21 12.40625 
L 21 0 
L 10.6875 0 
z
" id="DejaVuSans-46"/>
      </defs>
      <g transform="translate(46.467188 322.182437)scale(0.1 -0.1)">
       <use xlink:href="#DejaVuSans-48"/>
       <use x="63.623047" xlink:href="#DejaVuSans-46"/>
       <use x="95.410156" xlink:href="#DejaVuSans-48"/>
       <use x="159.033203" xlink:href="#DejaVuSans-48"/>
      </g>
     </g>
    </g>
    <g id="xtick_2">
     <g id="line2d_3">
      <path clip-path="url(#pde7c36b8fb)" d="M 122.530909 307.584 
L 122.530909 41.472 
" style="fill:none;stroke:#b0b0b0;stroke-linecap:square;stroke-width:0.8;"/>
     </g>
     <g id="line2d_4">
      <g>
       <use style="stroke:#000000;stroke-width:0.8;" x="122.530909" xlink:href="#ma16c2ad522" y="307.584"/>
      </g>
     </g>
     <g id="text_2">
      <!-- 0.04 -->
      <defs>
       <path d="M 37.796875 64.3125 
L 12.890625 25.390625 
L 37.796875 25.390625 
z
M 35.203125 72.90625 
L 47.609375 72.90625 
L 47.609375 25.390625 
L 58.015625 25.390625 
L 58.015625 17.1875 
L 47.609375 17.1875 
L 47.609375 0 
L 37.796875 0 
L 37.796875 17.1875 
L 4.890625 17.1875 
L 4.890625 26.703125 
z
" id="DejaVuSans-52"/>
      </defs>
      <g transform="translate(111.398097 322.182437)scale(0.1 -0.1)">
       <use xlink:href="#DejaVuSans-48"/>
       <use x="63.623047" xlink:href="#DejaVuSans-46"/>
       <use x="95.410156" xlink:href="#DejaVuSans-48"/>
       <use x="159.033203" xlink:href="#DejaVuSans-52"/>
      </g>
     </g>
    </g>
    <g id="xtick_3">
     <g id="line2d_5">
      <path clip-path="url(#pde7c36b8fb)" d="M 187.461818 307.584 
L 187.461818 41.472 
" style="fill:none;stroke:#b0b0b0;stroke-linecap:square;stroke-width:0.8;"/>
     </g>
     <g id="line2d_6">
      <g>
       <use style="stroke:#000000;stroke-width:0.8;" x="187.461818" xlink:href="#ma16c2ad522" y="307.584"/>
      </g>
     </g>
     <g id="text_3">
      <!-- 0.08 -->
      <defs>
       <path d="M 31.78125 34.625 
Q 24.75 34.625 20.71875 30.859375 
Q 16.703125 27.09375 16.703125 20.515625 
Q 16.703125 13.921875 20.71875 10.15625 
Q 24.75 6.390625 31.78125 6.390625 
Q 38.8125 6.390625 42.859375 10.171875 
Q 46.921875 13.96875 46.921875 20.515625 
Q 46.921875 27.09375 42.890625 30.859375 
Q 38.875 34.625 31.78125 34.625 
z
M 21.921875 38.8125 
Q 15.578125 40.375 12.03125 44.71875 
Q 8.5 49.078125 8.5 55.328125 
Q 8.5 64.0625 14.71875 69.140625 
Q 20.953125 74.21875 31.78125 74.21875 
Q 42.671875 74.21875 48.875 69.140625 
Q 55.078125 64.0625 55.078125 55.328125 
Q 55.078125 49.078125 51.53125 44.71875 
Q 48 40.375 41.703125 38.8125 
Q 48.828125 37.15625 52.796875 32.3125 
Q 56.78125 27.484375 56.78125 20.515625 
Q 56.78125 9.90625 50.3125 4.234375 
Q 43.84375 -1.421875 31.78125 -1.421875 
Q 19.734375 -1.421875 13.25 4.234375 
Q 6.78125 9.90625 6.78125 20.515625 
Q 6.78125 27.484375 10.78125 32.3125 
Q 14.796875 37.15625 21.921875 38.8125 
z
M 18.3125 54.390625 
Q 18.3125 48.734375 21.84375 45.5625 
Q 25.390625 42.390625 31.78125 42.390625 
Q 38.140625 42.390625 41.71875 45.5625 
Q 45.3125 48.734375 45.3125 54.390625 
Q 45.3125 60.0625 41.71875 63.234375 
Q 38.140625 66.40625 31.78125 66.40625 
Q 25.390625 66.40625 21.84375 63.234375 
Q 18.3125 60.0625 18.3125 54.390625 
z
" id="DejaVuSans-56"/>
      </defs>
      <g transform="translate(176.329006 322.182437)scale(0.1 -0.1)">
       <use xlink:href="#DejaVuSans-48"/>
       <use x="63.623047" xlink:href="#DejaVuSans-46"/>
       <use x="95.410156" xlink:href="#DejaVuSans-48"/>
       <use x="159.033203" xlink:href="#DejaVuSans-56"/>
      </g>
     </g>
    </g>
    <g id="xtick_4">
     <g id="line2d_7">
      <path clip-path="url(#pde7c36b8fb)" d="M 252.392727 307.584 
L 252.392727 41.472 
" style="fill:none;stroke:#b0b0b0;stroke-linecap:square;stroke-width:0.8;"/>
     </g>
     <g id="line2d_8">
      <g>
       <use style="stroke:#000000;stroke-width:0.8;" x="252.392727" xlink:href="#ma16c2ad522" y="307.584"/>
      </g>
     </g>
     <g id="text_4">
      <!-- 0.12 -->
      <defs>
       <path d="M 12.40625 8.296875 
L 28.515625 8.296875 
L 28.515625 63.921875 
L 10.984375 60.40625 
L 10.984375 69.390625 
L 28.421875 72.90625 
L 38.28125 72.90625 
L 38.28125 8.296875 
L 54.390625 8.296875 
L 54.390625 0 
L 12.40625 0 
z
" id="DejaVuSans-49"/>
       <path d="M 19.1875 8.296875 
L 53.609375 8.296875 
L 53.609375 0 
L 7.328125 0 
L 7.328125 8.296875 
Q 12.9375 14.109375 22.625 23.890625 
Q 32.328125 33.6875 34.8125 36.53125 
Q 39.546875 41.84375 41.421875 45.53125 
Q 43.3125 49.21875 43.3125 52.78125 
Q 43.3125 58.59375 39.234375 62.25 
Q 35.15625 65.921875 28.609375 65.921875 
Q 23.96875 65.921875 18.8125 64.3125 
Q 13.671875 62.703125 7.8125 59.421875 
L 7.8125 69.390625 
Q 13.765625 71.78125 18.9375 73 
Q 24.125 74.21875 28.421875 74.21875 
Q 39.75 74.21875 46.484375 68.546875 
Q 53.21875 62.890625 53.21875 53.421875 
Q 53.21875 48.921875 51.53125 44.890625 
Q 49.859375 40.875 45.40625 35.40625 
Q 44.1875 33.984375 37.640625 27.21875 
Q 31.109375 20.453125 19.1875 8.296875 
z
" id="DejaVuSans-50"/>
      </defs>
      <g transform="translate(241.259915 322.182437)scale(0.1 -0.1)">
       <use xlink:href="#DejaVuSans-48"/>
       <use x="63.623047" xlink:href="#DejaVuSans-46"/>
       <use x="95.410156" xlink:href="#DejaVuSans-49"/>
       <use x="159.033203" xlink:href="#DejaVuSans-50"/>
      </g>
     </g>
    </g>
    <g id="xtick_5">
     <g id="line2d_9">
      <path clip-path="url(#pde7c36b8fb)" d="M 317.323636 307.584 
L 317.323636 41.472 
" style="fill:none;stroke:#b0b0b0;stroke-linecap:square;stroke-width:0.8;"/>
     </g>
     <g id="line2d_10">
      <g>
       <use style="stroke:#000000;stroke-width:0.8;" x="317.323636" xlink:href="#ma16c2ad522" y="307.584"/>
      </g>
     </g>
     <g id="text_5">
      <!-- 0.16 -->
      <defs>
       <path d="M 33.015625 40.375 
Q 26.375 40.375 22.484375 35.828125 
Q 18.609375 31.296875 18.609375 23.390625 
Q 18.609375 15.53125 22.484375 10.953125 
Q 26.375 6.390625 33.015625 6.390625 
Q 39.65625 6.390625 43.53125 10.953125 
Q 47.40625 15.53125 47.40625 23.390625 
Q 47.40625 31.296875 43.53125 35.828125 
Q 39.65625 40.375 33.015625 40.375 
z
M 52.59375 71.296875 
L 52.59375 62.3125 
Q 48.875 64.0625 45.09375 64.984375 
Q 41.3125 65.921875 37.59375 65.921875 
Q 27.828125 65.921875 22.671875 59.328125 
Q 17.53125 52.734375 16.796875 39.40625 
Q 19.671875 43.65625 24.015625 45.921875 
Q 28.375 48.1875 33.59375 48.1875 
Q 44.578125 48.1875 50.953125 41.515625 
Q 57.328125 34.859375 57.328125 23.390625 
Q 57.328125 12.15625 50.6875 5.359375 
Q 44.046875 -1.421875 33.015625 -1.421875 
Q 20.359375 -1.421875 13.671875 8.265625 
Q 6.984375 17.96875 6.984375 36.375 
Q 6.984375 53.65625 15.1875 63.9375 
Q 23.390625 74.21875 37.203125 74.21875 
Q 40.921875 74.21875 44.703125 73.484375 
Q 48.484375 72.75 52.59375 71.296875 
z
" id="DejaVuSans-54"/>
      </defs>
      <g transform="translate(306.190824 322.182437)scale(0.1 -0.1)">
       <use xlink:href="#DejaVuSans-48"/>
       <use x="63.623047" xlink:href="#DejaVuSans-46"/>
       <use x="95.410156" xlink:href="#DejaVuSans-49"/>
       <use x="159.033203" xlink:href="#DejaVuSans-54"/>
      </g>
     </g>
    </g>
    <g id="xtick_6">
     <g id="line2d_11">
      <path clip-path="url(#pde7c36b8fb)" d="M 382.254545 307.584 
L 382.254545 41.472 
" style="fill:none;stroke:#b0b0b0;stroke-linecap:square;stroke-width:0.8;"/>
     </g>
     <g id="line2d_12">
      <g>
       <use style="stroke:#000000;stroke-width:0.8;" x="382.254545" xlink:href="#ma16c2ad522" y="307.584"/>
      </g>
     </g>
     <g id="text_6">
      <!-- 0.20 -->
      <g transform="translate(371.121733 322.182437)scale(0.1 -0.1)">
       <use xlink:href="#DejaVuSans-48"/>
       <use x="63.623047" xlink:href="#DejaVuSans-46"/>
       <use x="95.410156" xlink:href="#DejaVuSans-50"/>
       <use x="159.033203" xlink:href="#DejaVuSans-48"/>
      </g>
     </g>
    </g>
    <g id="xtick_7">
     <g id="line2d_13">
      <path clip-path="url(#pde7c36b8fb)" d="M 414.72 307.584 
L 414.72 41.472 
" style="fill:none;stroke:#b0b0b0;stroke-linecap:square;stroke-width:0.8;"/>
     </g>
     <g id="line2d_14">
      <g>
       <use style="stroke:#000000;stroke-width:0.8;" x="414.72" xlink:href="#ma16c2ad522" y="307.584"/>
      </g>
     </g>
     <g id="text_7">
      <!-- 0.22 -->
      <g transform="translate(403.587188 322.182437)scale(0.1 -0.1)">
       <use xlink:href="#DejaVuSans-48"/>
       <use x="63.623047" xlink:href="#DejaVuSans-46"/>
       <use x="95.410156" xlink:href="#DejaVuSans-50"/>
       <use x="159.033203" xlink:href="#DejaVuSans-50"/>
      </g>
     </g>
    </g>
    <g id="text_8">
     <!-- Displacement (mm) -->
     <defs>
      <path d="M 19.671875 64.796875 
L 19.671875 8.109375 
L 31.59375 8.109375 
Q 46.6875 8.109375 53.6875 14.9375 
Q 60.6875 21.78125 60.6875 36.53125 
Q 60.6875 51.171875 53.6875 57.984375 
Q 46.6875 64.796875 31.59375 64.796875 
z
M 9.8125 72.90625 
L 30.078125 72.90625 
Q 51.265625 72.90625 61.171875 64.09375 
Q 71.09375 55.28125 71.09375 36.53125 
Q 71.09375 17.671875 61.125 8.828125 
Q 51.171875 0 30.078125 0 
L 9.8125 0 
z
" id="DejaVuSans-68"/>
      <path d="M 9.421875 54.6875 
L 18.40625 54.6875 
L 18.40625 0 
L 9.421875 0 
z
M 9.421875 75.984375 
L 18.40625 75.984375 
L 18.40625 64.59375 
L 9.421875 64.59375 
z
" id="DejaVuSans-105"/>
      <path d="M 44.28125 53.078125 
L 44.28125 44.578125 
Q 40.484375 46.53125 36.375 47.5 
Q 32.28125 48.484375 27.875 48.484375 
Q 21.1875 48.484375 17.84375 46.4375 
Q 14.5 44.390625 14.5 40.28125 
Q 14.5 37.15625 16.890625 35.375 
Q 19.28125 33.59375 26.515625 31.984375 
L 29.59375 31.296875 
Q 39.15625 29.25 43.1875 25.515625 
Q 47.21875 21.78125 47.21875 15.09375 
Q 47.21875 7.46875 41.1875 3.015625 
Q 35.15625 -1.421875 24.609375 -1.421875 
Q 20.21875 -1.421875 15.453125 -0.5625 
Q 10.6875 0.296875 5.421875 2 
L 5.421875 11.28125 
Q 10.40625 8.6875 15.234375 7.390625 
Q 20.0625 6.109375 24.8125 6.109375 
Q 31.15625 6.109375 34.5625 8.28125 
Q 37.984375 10.453125 37.984375 14.40625 
Q 37.984375 18.0625 35.515625 20.015625 
Q 33.0625 21.96875 24.703125 23.78125 
L 21.578125 24.515625 
Q 13.234375 26.265625 9.515625 29.90625 
Q 5.8125 33.546875 5.8125 39.890625 
Q 5.8125 47.609375 11.28125 51.796875 
Q 16.75 56 26.8125 56 
Q 31.78125 56 36.171875 55.265625 
Q 40.578125 54.546875 44.28125 53.078125 
z
" id="DejaVuSans-115"/>
      <path d="M 18.109375 8.203125 
L 18.109375 -20.796875 
L 9.078125 -20.796875 
L 9.078125 54.6875 
L 18.109375 54.6875 
L 18.109375 46.390625 
Q 20.953125 51.265625 25.265625 53.625 
Q 29.59375 56 35.59375 56 
Q 45.5625 56 51.78125 48.09375 
Q 58.015625 40.1875 58.015625 27.296875 
Q 58.015625 14.40625 51.78125 6.484375 
Q 45.5625 -1.421875 35.59375 -1.421875 
Q 29.59375 -1.421875 25.265625 0.953125 
Q 20.953125 3.328125 18.109375 8.203125 
z
M 48.6875 27.296875 
Q 48.6875 37.203125 44.609375 42.84375 
Q 40.53125 48.484375 33.40625 48.484375 
Q 26.265625 48.484375 22.1875 42.84375 
Q 18.109375 37.203125 18.109375 27.296875 
Q 18.109375 17.390625 22.1875 11.75 
Q 26.265625 6.109375 33.40625 6.109375 
Q 40.53125 6.109375 44.609375 11.75 
Q 48.6875 17.390625 48.6875 27.296875 
z
" id="DejaVuSans-112"/>
      <path d="M 9.421875 75.984375 
L 18.40625 75.984375 
L 18.40625 0 
L 9.421875 0 
z
" id="DejaVuSans-108"/>
      <path d="M 34.28125 27.484375 
Q 23.390625 27.484375 19.1875 25 
Q 14.984375 22.515625 14.984375 16.5 
Q 14.984375 11.71875 18.140625 8.90625 
Q 21.296875 6.109375 26.703125 6.109375 
Q 34.1875 6.109375 38.703125 11.40625 
Q 43.21875 16.703125 43.21875 25.484375 
L 43.21875 27.484375 
z
M 52.203125 31.203125 
L 52.203125 0 
L 43.21875 0 
L 43.21875 8.296875 
Q 40.140625 3.328125 35.546875 0.953125 
Q 30.953125 -1.421875 24.3125 -1.421875 
Q 15.921875 -1.421875 10.953125 3.296875 
Q 6 8.015625 6 15.921875 
Q 6 25.140625 12.171875 29.828125 
Q 18.359375 34.515625 30.609375 34.515625 
L 43.21875 34.515625 
L 43.21875 35.40625 
Q 43.21875 41.609375 39.140625 45 
Q 35.0625 48.390625 27.6875 48.390625 
Q 23 48.390625 18.546875 47.265625 
Q 14.109375 46.140625 10.015625 43.890625 
L 10.015625 52.203125 
Q 14.9375 54.109375 19.578125 55.046875 
Q 24.21875 56 28.609375 56 
Q 40.484375 56 46.34375 49.84375 
Q 52.203125 43.703125 52.203125 31.203125 
z
" id="DejaVuSans-97"/>
      <path d="M 48.78125 52.59375 
L 48.78125 44.1875 
Q 44.96875 46.296875 41.140625 47.34375 
Q 37.3125 48.390625 33.40625 48.390625 
Q 24.65625 48.390625 19.8125 42.84375 
Q 14.984375 37.3125 14.984375 27.296875 
Q 14.984375 17.28125 19.8125 11.734375 
Q 24.65625 6.203125 33.40625 6.203125 
Q 37.3125 6.203125 41.140625 7.25 
Q 44.96875 8.296875 48.78125 10.40625 
L 48.78125 2.09375 
Q 45.015625 0.34375 40.984375 -0.53125 
Q 36.96875 -1.421875 32.421875 -1.421875 
Q 20.0625 -1.421875 12.78125 6.34375 
Q 5.515625 14.109375 5.515625 27.296875 
Q 5.515625 40.671875 12.859375 48.328125 
Q 20.21875 56 33.015625 56 
Q 37.15625 56 41.109375 55.140625 
Q 45.0625 54.296875 48.78125 52.59375 
z
" id="DejaVuSans-99"/>
      <path d="M 56.203125 29.59375 
L 56.203125 25.203125 
L 14.890625 25.203125 
Q 15.484375 15.921875 20.484375 11.0625 
Q 25.484375 6.203125 34.421875 6.203125 
Q 39.59375 6.203125 44.453125 7.46875 
Q 49.3125 8.734375 54.109375 11.28125 
L 54.109375 2.78125 
Q 49.265625 0.734375 44.1875 -0.34375 
Q 39.109375 -1.421875 33.890625 -1.421875 
Q 20.796875 -1.421875 13.15625 6.1875 
Q 5.515625 13.8125 5.515625 26.8125 
Q 5.515625 40.234375 12.765625 48.109375 
Q 20.015625 56 32.328125 56 
Q 43.359375 56 49.78125 48.890625 
Q 56.203125 41.796875 56.203125 29.59375 
z
M 47.21875 32.234375 
Q 47.125 39.59375 43.09375 43.984375 
Q 39.0625 48.390625 32.421875 48.390625 
Q 24.90625 48.390625 20.390625 44.140625 
Q 15.875 39.890625 15.1875 32.171875 
z
" id="DejaVuSans-101"/>
      <path d="M 52 44.1875 
Q 55.375 50.25 60.0625 53.125 
Q 64.75 56 71.09375 56 
Q 79.640625 56 84.28125 50.015625 
Q 88.921875 44.046875 88.921875 33.015625 
L 88.921875 0 
L 79.890625 0 
L 79.890625 32.71875 
Q 79.890625 40.578125 77.09375 44.375 
Q 74.3125 48.1875 68.609375 48.1875 
Q 61.625 48.1875 57.5625 43.546875 
Q 53.515625 38.921875 53.515625 30.90625 
L 53.515625 0 
L 44.484375 0 
L 44.484375 32.71875 
Q 44.484375 40.625 41.703125 44.40625 
Q 38.921875 48.1875 33.109375 48.1875 
Q 26.21875 48.1875 22.15625 43.53125 
Q 18.109375 38.875 18.109375 30.90625 
L 18.109375 0 
L 9.078125 0 
L 9.078125 54.6875 
L 18.109375 54.6875 
L 18.109375 46.1875 
Q 21.1875 51.21875 25.484375 53.609375 
Q 29.78125 56 35.6875 56 
Q 41.65625 56 45.828125 52.96875 
Q 50 49.953125 52 44.1875 
z
" id="DejaVuSans-109"/>
      <path d="M 54.890625 33.015625 
L 54.890625 0 
L 45.90625 0 
L 45.90625 32.71875 
Q 45.90625 40.484375 42.875 44.328125 
Q 39.84375 48.1875 33.796875 48.1875 
Q 26.515625 48.1875 22.3125 43.546875 
Q 18.109375 38.921875 18.109375 30.90625 
L 18.109375 0 
L 9.078125 0 
L 9.078125 54.6875 
L 18.109375 54.6875 
L 18.109375 46.1875 
Q 21.34375 51.125 25.703125 53.5625 
Q 30.078125 56 35.796875 56 
Q 45.21875 56 50.046875 50.171875 
Q 54.890625 44.34375 54.890625 33.015625 
z
" id="DejaVuSans-110"/>
      <path d="M 18.3125 70.21875 
L 18.3125 54.6875 
L 36.8125 54.6875 
L 36.8125 47.703125 
L 18.3125 47.703125 
L 18.3125 18.015625 
Q 18.3125 11.328125 20.140625 9.421875 
Q 21.96875 7.515625 27.59375 7.515625 
L 36.8125 7.515625 
L 36.8125 0 
L 27.59375 0 
Q 17.1875 0 13.234375 3.875 
Q 9.28125 7.765625 9.28125 18.015625 
L 9.28125 47.703125 
L 2.6875 47.703125 
L 2.6875 54.6875 
L 9.28125 54.6875 
L 9.28125 70.21875 
z
" id="DejaVuSans-116"/>
      <path id="DejaVuSans-32"/>
      <path d="M 31 75.875 
Q 24.46875 64.65625 21.28125 53.65625 
Q 18.109375 42.671875 18.109375 31.390625 
Q 18.109375 20.125 21.3125 9.0625 
Q 24.515625 -2 31 -13.1875 
L 23.1875 -13.1875 
Q 15.875 -1.703125 12.234375 9.375 
Q 8.59375 20.453125 8.59375 31.390625 
Q 8.59375 42.28125 12.203125 53.3125 
Q 15.828125 64.359375 23.1875 75.875 
z
" id="DejaVuSans-40"/>
      <path d="M 8.015625 75.875 
L 15.828125 75.875 
Q 23.140625 64.359375 26.78125 53.3125 
Q 30.421875 42.28125 30.421875 31.390625 
Q 30.421875 20.453125 26.78125 9.375 
Q 23.140625 -1.703125 15.828125 -13.1875 
L 8.015625 -13.1875 
Q 14.5 -2 17.703125 9.0625 
Q 20.90625 20.125 20.90625 31.390625 
Q 20.90625 42.671875 17.703125 53.65625 
Q 14.5 64.65625 8.015625 75.875 
z
" id="DejaVuSans-41"/>
     </defs>
     <g transform="translate(186.556094 335.860562)scale(0.1 -0.1)">
      <use xlink:href="#DejaVuSans-68"/>
      <use x="77.001953" xlink:href="#DejaVuSans-105"/>
      <use x="104.785156" xlink:href="#DejaVuSans-115"/>
      <use x="156.884766" xlink:href="#DejaVuSans-112"/>
      <use x="220.361328" xlink:href="#DejaVuSans-108"/>
      <use x="248.144531" xlink:href="#DejaVuSans-97"/>
      <use x="309.423828" xlink:href="#DejaVuSans-99"/>
      <use x="364.404297" xlink:href="#DejaVuSans-101"/>
      <use x="425.927734" xlink:href="#DejaVuSans-109"/>
      <use x="523.339844" xlink:href="#DejaVuSans-101"/>
      <use x="584.863281" xlink:href="#DejaVuSans-110"/>
      <use x="648.242188" xlink:href="#DejaVuSans-116"/>
      <use x="687.451172" xlink:href="#DejaVuSans-32"/>
      <use x="719.238281" xlink:href="#DejaVuSans-40"/>
      <use x="758.251953" xlink:href="#DejaVuSans-109"/>
      <use x="855.664062" xlink:href="#DejaVuSans-109"/>
      <use x="953.076172" xlink:href="#DejaVuSans-41"/>
     </g>
    </g>
   </g>
   <g id="matplotlib.axis_2">
    <g id="ytick_1">
     <g id="line2d_15">
      <path clip-path="url(#pde7c36b8fb)" d="M 57.6 307.584 
L 414.72 307.584 
" style="fill:none;stroke:#b0b0b0;stroke-linecap:square;stroke-width:0.8;"/>
     </g>
     <g id="line2d_16">
      <defs>
       <path d="M 0 0 
L -3.5 0 
" id="m1904ba2bab" style="stroke:#000000;stroke-width:0.8;"/>
      </defs>
      <g>
       <use style="stroke:#000000;stroke-width:0.8;" x="57.6" xlink:href="#m1904ba2bab" y="307.584"/>
      </g>
     </g>
     <g id="text_9">
      <!-- 0.0 -->
      <g transform="translate(34.696875 311.383219)scale(0.1 -0.1)">
       <use xlink:href="#DejaVuSans-48"/>
       <use x="63.623047" xlink:href="#DejaVuSans-46"/>
       <use x="95.410156" xlink:href="#DejaVuSans-48"/>
      </g>
     </g>
    </g>
    <g id="ytick_2">
     <g id="line2d_17">
      <path clip-path="url(#pde7c36b8fb)" d="M 57.6 263.232 
L 414.72 263.232 
" style="fill:none;stroke:#b0b0b0;stroke-linecap:square;stroke-width:0.8;"/>
     </g>
     <g id="line2d_18">
      <g>
       <use style="stroke:#000000;stroke-width:0.8;" x="57.6" xlink:href="#m1904ba2bab" y="263.232"/>
      </g>
     </g>
     <g id="text_10">
      <!-- 0.5 -->
      <defs>
       <path d="M 10.796875 72.90625 
L 49.515625 72.90625 
L 49.515625 64.59375 
L 19.828125 64.59375 
L 19.828125 46.734375 
Q 21.96875 47.46875 24.109375 47.828125 
Q 26.265625 48.1875 28.421875 48.1875 
Q 40.625 48.1875 47.75 41.5 
Q 54.890625 34.8125 54.890625 23.390625 
Q 54.890625 11.625 47.5625 5.09375 
Q 40.234375 -1.421875 26.90625 -1.421875 
Q 22.3125 -1.421875 17.546875 -0.640625 
Q 12.796875 0.140625 7.71875 1.703125 
L 7.71875 11.625 
Q 12.109375 9.234375 16.796875 8.0625 
Q 21.484375 6.890625 26.703125 6.890625 
Q 35.15625 6.890625 40.078125 11.328125 
Q 45.015625 15.765625 45.015625 23.390625 
Q 45.015625 31 40.078125 35.4375 
Q 35.15625 39.890625 26.703125 39.890625 
Q 22.75 39.890625 18.8125 39.015625 
Q 14.890625 38.140625 10.796875 36.28125 
z
" id="DejaVuSans-53"/>
      </defs>
      <g transform="translate(34.696875 267.031219)scale(0.1 -0.1)">
       <use xlink:href="#DejaVuSans-48"/>
       <use x="63.623047" xlink:href="#DejaVuSans-46"/>
       <use x="95.410156" xlink:href="#DejaVuSans-53"/>
      </g>
     </g>
    </g>
    <g id="ytick_3">
     <g id="line2d_19">
      <path clip-path="url(#pde7c36b8fb)" d="M 57.6 218.88 
L 414.72 218.88 
" style="fill:none;stroke:#b0b0b0;stroke-linecap:square;stroke-width:0.8;"/>
     </g>
     <g id="line2d_20">
      <g>
       <use style="stroke:#000000;stroke-width:0.8;" x="57.6" xlink:href="#m1904ba2bab" y="218.88"/>
      </g>
     </g>
     <g id="text_11">
      <!-- 1.0 -->
      <g transform="translate(34.696875 222.679219)scale(0.1 -0.1)">
       <use xlink:href="#DejaVuSans-49"/>
       <use x="63.623047" xlink:href="#DejaVuSans-46"/>
       <use x="95.410156" xlink:href="#DejaVuSans-48"/>
      </g>
     </g>
    </g>
    <g id="ytick_4">
     <g id="line2d_21">
      <path clip-path="url(#pde7c36b8fb)" d="M 57.6 174.528 
L 414.72 174.528 
" style="fill:none;stroke:#b0b0b0;stroke-linecap:square;stroke-width:0.8;"/>
     </g>
     <g id="line2d_22">
      <g>
       <use style="stroke:#000000;stroke-width:0.8;" x="57.6" xlink:href="#m1904ba2bab" y="174.528"/>
      </g>
     </g>
     <g id="text_12">
      <!-- 1.5 -->
      <g transform="translate(34.696875 178.327219)scale(0.1 -0.1)">
       <use xlink:href="#DejaVuSans-49"/>
       <use x="63.623047" xlink:href="#DejaVuSans-46"/>
       <use x="95.410156" xlink:href="#DejaVuSans-53"/>
      </g>
     </g>
    </g>
    <g id="ytick_5">
     <g id="line2d_23">
      <path clip-path="url(#pde7c36b8fb)" d="M 57.6 130.176 
L 414.72 130.176 
" style="fill:none;stroke:#b0b0b0;stroke-linecap:square;stroke-width:0.8;"/>
     </g>
     <g id="line2d_24">
      <g>
       <use style="stroke:#000000;stroke-width:0.8;" x="57.6" xlink:href="#m1904ba2bab" y="130.176"/>
      </g>
     </g>
     <g id="text_13">
      <!-- 2.0 -->
      <g transform="translate(34.696875 133.975219)scale(0.1 -0.1)">
       <use xlink:href="#DejaVuSans-50"/>
       <use x="63.623047" xlink:href="#DejaVuSans-46"/>
       <use x="95.410156" xlink:href="#DejaVuSans-48"/>
      </g>
     </g>
    </g>
    <g id="ytick_6">
     <g id="line2d_25">
      <path clip-path="url(#pde7c36b8fb)" d="M 57.6 85.824 
L 414.72 85.824 
" style="fill:none;stroke:#b0b0b0;stroke-linecap:square;stroke-width:0.8;"/>
     </g>
     <g id="line2d_26">
      <g>
       <use style="stroke:#000000;stroke-width:0.8;" x="57.6" xlink:href="#m1904ba2bab" y="85.824"/>
      </g>
     </g>
     <g id="text_14">
      <!-- 2.5 -->
      <g transform="translate(34.696875 89.623219)scale(0.1 -0.1)">
       <use xlink:href="#DejaVuSans-50"/>
       <use x="63.623047" xlink:href="#DejaVuSans-46"/>
       <use x="95.410156" xlink:href="#DejaVuSans-53"/>
      </g>
     </g>
    </g>
    <g id="ytick_7">
     <g id="line2d_27">
      <path clip-path="url(#pde7c36b8fb)" d="M 57.6 41.472 
L 414.72 41.472 
" style="fill:none;stroke:#b0b0b0;stroke-linecap:square;stroke-width:0.8;"/>
     </g>
     <g id="line2d_28">
      <g>
       <use style="stroke:#000000;stroke-width:0.8;" x="57.6" xlink:href="#m1904ba2bab" y="41.472"/>
      </g>
     </g>
     <g id="text_15">
      <!-- 3.0 -->
      <defs>
       <path d="M 40.578125 39.3125 
Q 47.65625 37.796875 51.625 33 
Q 55.609375 28.21875 55.609375 21.1875 
Q 55.609375 10.40625 48.1875 4.484375 
Q 40.765625 -1.421875 27.09375 -1.421875 
Q 22.515625 -1.421875 17.65625 -0.515625 
Q 12.796875 0.390625 7.625 2.203125 
L 7.625 11.71875 
Q 11.71875 9.328125 16.59375 8.109375 
Q 21.484375 6.890625 26.8125 6.890625 
Q 36.078125 6.890625 40.9375 10.546875 
Q 45.796875 14.203125 45.796875 21.1875 
Q 45.796875 27.640625 41.28125 31.265625 
Q 36.765625 34.90625 28.71875 34.90625 
L 20.21875 34.90625 
L 20.21875 43.015625 
L 29.109375 43.015625 
Q 36.375 43.015625 40.234375 45.921875 
Q 44.09375 48.828125 44.09375 54.296875 
Q 44.09375 59.90625 40.109375 62.90625 
Q 36.140625 65.921875 28.71875 65.921875 
Q 24.65625 65.921875 20.015625 65.03125 
Q 15.375 64.15625 9.8125 62.3125 
L 9.8125 71.09375 
Q 15.4375 72.65625 20.34375 73.4375 
Q 25.25 74.21875 29.59375 74.21875 
Q 40.828125 74.21875 47.359375 69.109375 
Q 53.90625 64.015625 53.90625 55.328125 
Q 53.90625 49.265625 50.4375 45.09375 
Q 46.96875 40.921875 40.578125 39.3125 
z
" id="DejaVuSans-51"/>
      </defs>
      <g transform="translate(34.696875 45.271219)scale(0.1 -0.1)">
       <use xlink:href="#DejaVuSans-51"/>
       <use x="63.623047" xlink:href="#DejaVuSans-46"/>
       <use x="95.410156" xlink:href="#DejaVuSans-48"/>
      </g>
     </g>
    </g>
    <g id="text_16">
     <!-- Load (N) -->
     <defs>
      <path d="M 9.8125 72.90625 
L 19.671875 72.90625 
L 19.671875 8.296875 
L 55.171875 8.296875 
L 55.171875 0 
L 9.8125 0 
z
" id="DejaVuSans-76"/>
      <path d="M 30.609375 48.390625 
Q 23.390625 48.390625 19.1875 42.75 
Q 14.984375 37.109375 14.984375 27.296875 
Q 14.984375 17.484375 19.15625 11.84375 
Q 23.34375 6.203125 30.609375 6.203125 
Q 37.796875 6.203125 41.984375 11.859375 
Q 46.1875 17.53125 46.1875 27.296875 
Q 46.1875 37.015625 41.984375 42.703125 
Q 37.796875 48.390625 30.609375 48.390625 
z
M 30.609375 56 
Q 42.328125 56 49.015625 48.375 
Q 55.71875 40.765625 55.71875 27.296875 
Q 55.71875 13.875 49.015625 6.21875 
Q 42.328125 -1.421875 30.609375 -1.421875 
Q 18.84375 -1.421875 12.171875 6.21875 
Q 5.515625 13.875 5.515625 27.296875 
Q 5.515625 40.765625 12.171875 48.375 
Q 18.84375 56 30.609375 56 
z
" id="DejaVuSans-111"/>
      <path d="M 45.40625 46.390625 
L 45.40625 75.984375 
L 54.390625 75.984375 
L 54.390625 0 
L 45.40625 0 
L 45.40625 8.203125 
Q 42.578125 3.328125 38.25 0.953125 
Q 33.9375 -1.421875 27.875 -1.421875 
Q 17.96875 -1.421875 11.734375 6.484375 
Q 5.515625 14.40625 5.515625 27.296875 
Q 5.515625 40.1875 11.734375 48.09375 
Q 17.96875 56 27.875 56 
Q 33.9375 56 38.25 53.625 
Q 42.578125 51.265625 45.40625 46.390625 
z
M 14.796875 27.296875 
Q 14.796875 17.390625 18.875 11.75 
Q 22.953125 6.109375 30.078125 6.109375 
Q 37.203125 6.109375 41.296875 11.75 
Q 45.40625 17.390625 45.40625 27.296875 
Q 45.40625 37.203125 41.296875 42.84375 
Q 37.203125 48.484375 30.078125 48.484375 
Q 22.953125 48.484375 18.875 42.84375 
Q 14.796875 37.203125 14.796875 27.296875 
z
" id="DejaVuSans-100"/>
      <path d="M 9.8125 72.90625 
L 23.09375 72.90625 
L 55.421875 11.921875 
L 55.421875 72.90625 
L 64.984375 72.90625 
L 64.984375 0 
L 51.703125 0 
L 19.390625 60.984375 
L 19.390625 0 
L 9.8125 0 
z
" id="DejaVuSans-78"/>
     </defs>
     <g transform="translate(28.617187 195.842062)rotate(-90)scale(0.1 -0.1)">
      <use xlink:href="#DejaVuSans-76"/>
      <use x="55.697266" xlink:href="#DejaVuSans-111"/>
      <use x="116.878906" xlink:href="#DejaVuSans-97"/>
      <use x="178.158203" xlink:href="#DejaVuSans-100"/>
      <use x="241.634766" xlink:href="#DejaVuSans-32"/>
      <use x="273.421875" xlink:href="#DejaVuSans-40"/>
      <use x="312.435547" xlink:href="#DejaVuSans-78"/>
      <use x="387.240234" xlink:href="#DejaVuSans-41"/>
     </g>
    </g>
   </g>
   <g id="line2d_29">
    <path clip-path="url(#pde7c36b8fb)" d="M 57.6 307.584 
L 61.495855 275.650528 
L 65.391709 243.717056 
L 69.287564 211.783584 
L 73.183418 179.850112 
L 77.079273 147.91664 
L 80.975127 115.983168 
L 84.870982 84.049696 
L 88.766836 52.116225 
L 92.662691 73.670822 
L 96.558545 105.153639 
L 100.4544 127.175646 
L 104.350255 144.250521 
L 108.246109 158.148549 
L 112.141964 169.837949 
L 116.037818 179.972444 
L 119.933673 188.817614 
L 123.829527 196.637062 
L 127.725382 203.638682 
L 131.621236 210.033805 
L 135.517091 215.814426 
L 139.412945 221.077248 
L 143.3088 225.904962 
L 147.204655 230.389352 
L 151.100509 234.562082 
L 154.996364 238.421451 
L 158.892218 242.006251 
L 162.788073 245.350129 
L 166.683927 248.485055 
L 170.579782 251.426718 
L 174.475636 254.226354 
L 178.371491 256.856499 
L 182.267345 259.330367 
L 186.1632 261.662357 
L 190.059055 263.864431 
L 193.954909 265.947774 
L 197.850764 267.92201 
L 201.746618 269.797188 
L 205.642473 271.590827 
L 209.538327 273.302777 
L 213.434182 274.928351 
L 217.330036 276.473422 
L 221.225891 277.943461 
L 225.121745 279.343067 
L 229.0176 280.676519 
L 232.913455 281.947751 
L 236.809309 283.160226 
L 240.705164 284.317193 
L 244.601018 285.421754 
L 248.496873 286.477271 
L 252.392727 287.484866 
L 256.288582 288.449566 
L 260.184436 289.377185 
L 264.080291 290.262579 
L 267.976145 291.108402 
L 271.872 291.916969 
L 275.767855 292.690263 
L 279.663709 293.430319 
L 283.559564 294.138921 
L 287.455418 294.817159 
L 291.351273 295.466389 
L 295.247127 296.087379 
L 299.142982 296.680858 
L 303.038836 297.247626 
L 306.934691 297.78799 
L 310.830545 298.302967 
L 314.7264 298.793161 
L 318.622255 299.259556 
L 322.518109 299.702926 
L 326.413964 300.12363 
L 330.309818 300.522434 
L 334.205673 300.899821 
L 338.101527 301.256958 
L 341.997382 301.592176 
L 345.893236 301.907625 
L 349.789091 302.202533 
L 353.684945 302.477158 
L 357.5808 302.730901 
L 361.476655 302.966664 
L 365.372509 303.184108 
L 369.268364 303.383183 
L 373.164218 303.567195 
L 377.060073 303.735889 
L 380.955927 303.889725 
L 384.851782 304.031755 
L 388.747636 304.161918 
L 392.643491 304.280321 
L 396.539345 304.390016 
L 400.4352 304.490771 
L 404.331055 304.582353 
L 408.226909 304.667781 
" style="fill:none;stroke:#000000;stroke-linecap:square;stroke-width:2;"/>
    <defs>
     <path d="M 0 2.5 
C 0.663008 2.5 1.29895 2.236584 1.767767 1.767767 
C 2.236584 1.29895 2.5 0.663008 2.5 0 
C 2.5 -0.663008 2.236584 -1.29895 1.767767 -1.767767 
C 1.29895 -2.236584 0.663008 -2.5 0 -2.5 
C -0.663008 -2.5 -1.29895 -2.236584 -1.767767 -1.767767 
C -2.236584 -1.29895 -2.5 -0.663008 -2.5 0 
C -2.5 0.663008 -2.236584 1.29895 -1.767767 1.767767 
C -1.29895 2.236584 -0.663008 2.5 0 2.5 
z
" id="m2b19f519be" style="stroke:#000000;"/>
    </defs>
    <g clip-path="url(#pde7c36b8fb)">
     <use style="fill:#ff0000;stroke:#000000;" x="57.6" xlink:href="#m2b19f519be" y="307.584"/>
     <use style="fill:#ff0000;stroke:#000000;" x="61.495855" xlink:href="#m2b19f519be" y="275.650528"/>
     <use style="fill:#ff0000;stroke:#000000;" x="65.391709" xlink:href="#m2b19f519be" y="243.717056"/>
     <use style="fill:#ff0000;stroke:#000000;" x="69.287564" xlink:href="#m2b19f519be" y="211.783584"/>
     <use style="fill:#ff0000;stroke:#000000;" x="73.183418" xlink:href="#m2b19f519be" y="179.850112"/>
     <use style="fill:#ff0000;stroke:#000000;" x="77.079273" xlink:href="#m2b19f519be" y="147.91664"/>
     <use style="fill:#ff0000;stroke:#000000;" x="80.975127" xlink:href="#m2b19f519be" y="115.983168"/>
     <use style="fill:#ff0000;stroke:#000000;" x="84.870982" xlink:href="#m2b19f519be" y="84.049696"/>
     <use style="fill:#ff0000;stroke:#000000;" x="88.766836" xlink:href="#m2b19f519be" y="52.116225"/>
     <use style="fill:#ff0000;stroke:#000000;" x="92.662691" xlink:href="#m2b19f519be" y="73.670822"/>
     <use style="fill:#ff0000;stroke:#000000;" x="96.558545" xlink:href="#m2b19f519be" y="105.153639"/>
     <use style="fill:#ff0000;stroke:#000000;" x="100.4544" xlink:href="#m2b19f519be" y="127.175646"/>
     <use style="fill:#ff0000;stroke:#000000;" x="104.350255" xlink:href="#m2b19f519be" y="144.250521"/>
     <use style="fill:#ff0000;stroke:#000000;" x="108.246109" xlink:href="#m2b19f519be" y="158.148549"/>
     <use style="fill:#ff0000;stroke:#000000;" x="112.141964" xlink:href="#m2b19f519be" y="169.837949"/>
     <use style="fill:#ff0000;stroke:#000000;" x="116.037818" xlink:href="#m2b19f519be" y="179.972444"/>
     <use style="fill:#ff0000;stroke:#000000;" x="119.933673" xlink:href="#m2b19f519be" y="188.817614"/>
     <use style="fill:#ff0000;stroke:#000000;" x="123.829527" xlink:href="#m2b19f519be" y="196.637062"/>
     <use style="fill:#ff0000;stroke:#000000;" x="127.725382" xlink:href="#m2b19f519be" y="203.638682"/>
     <use style="fill:#ff0000;stroke:#000000;" x="131.621236" xlink:href="#m2b19f519be" y="210.033805"/>
     <use style="fill:#ff0000;stroke:#000000;" x="135.517091" xlink:href="#m2b19f519be" y="215.814426"/>
     <use style="fill:#ff0000;stroke:#000000;" x="139.412945" xlink:href="#m2b19f519be" y="221.077248"/>
     <use style="fill:#ff0000;stroke:#000000;" x="143.3088" xlink:href="#m2b19f519be" y="225.904962"/>
     <use style="fill:#ff0000;stroke:#000000;" x="147.204655" xlink:href="#m2b19f519be" y="230.389352"/>
     <use style="fill:#ff0000;stroke:#000000;" x="151.100509" xlink:href="#m2b19f519be" y="234.562082"/>
     <use style="fill:#ff0000;stroke:#000000;" x="154.996364" xlink:href="#m2b19f519be" y="238.421451"/>
     <use style="fill:#ff0000;stroke:#000000;" x="158.892218" xlink:href="#m2b19f519be" y="242.006251"/>
     <use style="fill:#ff0000;stroke:#000000;" x="162.788073" xlink:href="#m2b19f519be" y="245.350129"/>
     <use style="fill:#ff0000;stroke:#000000;" x="166.683927" xlink:href="#m2b19f519be" y="248.485055"/>
     <use style="fill:#ff0000;stroke:#000000;" x="170.579782" xlink:href="#m2b19f519be" y="251.426718"/>
     <use style="fill:#ff0000;stroke:#000000;" x="174.475636" xlink:href="#m2b19f519be" y="254.226354"/>
     <use style="fill:#ff0000;stroke:#000000;" x="178.371491" xlink:href="#m2b19f519be" y="256.856499"/>
     <use style="fill:#ff0000;stroke:#000000;" x="182.267345" xlink:href="#m2b19f519be" y="259.330367"/>
     <use style="fill:#ff0000;stroke:#000000;" x="186.1632" xlink:href="#m2b19f519be" y="261.662357"/>
     <use style="fill:#ff0000;stroke:#000000;" x="190.059055" xlink:href="#m2b19f519be" y="263.864431"/>
     <use style="fill:#ff0000;stroke:#000000;" x="193.954909" xlink:href="#m2b19f519be" y="265.947774"/>
     <use style="fill:#ff0000;stroke:#000000;" x="197.850764" xlink:href="#m2b19f519be" y="267.92201"/>
     <use style="fill:#ff0000;stroke:#000000;" x="201.746618" xlink:href="#m2b19f519be" y="269.797188"/>
     <use style="fill:#ff0000;stroke:#000000;" x="205.642473" xlink:href="#m2b19f519be" y="271.590827"/>
     <use style="fill:#ff0000;stroke:#000000;" x="209.538327" xlink:href="#m2b19f519be" y="273.302777"/>
     <use style="fill:#ff0000;stroke:#000000;" x="213.434182" xlink:href="#m2b19f519be" y="274.928351"/>
     <use style="fill:#ff0000;stroke:#000000;" x="217.330036" xlink:href="#m2b19f519be" y="276.473422"/>
     <use style="fill:#ff0000;stroke:#000000;" x="221.225891" xlink:href="#m2b19f519be" y="277.943461"/>
     <use style="fill:#ff0000;stroke:#000000;" x="225.121745" xlink:href="#m2b19f519be" y="279.343067"/>
     <use style="fill:#ff0000;stroke:#000000;" x="229.0176" xlink:href="#m2b19f519be" y="280.676519"/>
     <use style="fill:#ff0000;stroke:#000000;" x="232.913455" xlink:href="#m2b19f519be" y="281.947751"/>
     <use style="fill:#ff0000;stroke:#000000;" x="236.809309" xlink:href="#m2b19f519be" y="283.160226"/>
     <use style="fill:#ff0000;stroke:#000000;" x="240.705164" xlink:href="#m2b19f519be" y="284.317193"/>
     <use style="fill:#ff0000;stroke:#000000;" x="244.601018" xlink:href="#m2b19f519be" y="285.421754"/>
     <use style="fill:#ff0000;stroke:#000000;" x="248.496873" xlink:href="#m2b19f519be" y="286.477271"/>
     <use style="fill:#ff0000;stroke:#000000;" x="252.392727" xlink:href="#m2b19f519be" y="287.484866"/>
     <use style="fill:#ff0000;stroke:#000000;" x="256.288582" xlink:href="#m2b19f519be" y="288.449566"/>
     <use style="fill:#ff0000;stroke:#000000;" x="260.184436" xlink:href="#m2b19f519be" y="289.377185"/>
     <use style="fill:#ff0000;stroke:#000000;" x="264.080291" xlink:href="#m2b19f519be" y="290.262579"/>
     <use style="fill:#ff0000;stroke:#000000;" x="267.976145" xlink:href="#m2b19f519be" y="291.108402"/>
     <use style="fill:#ff0000;stroke:#000000;" x="271.872" xlink:href="#m2b19f519be" y="291.916969"/>
     <use style="fill:#ff0000;stroke:#000000;" x="275.767855" xlink:href="#m2b19f519be" y="292.690263"/>
     <use style="fill:#ff0000;stroke:#000000;" x="279.663709" xlink:href="#m2b19f519be" y="293.430319"/>
     <use style="fill:#ff0000;stroke:#000000;" x="283.559564" xlink:href="#m2b19f519be" y="294.138921"/>
     <use style="fill:#ff0000;stroke:#000000;" x="287.455418" xlink:href="#m2b19f519be" y="294.817159"/>
     <use style="fill:#ff0000;stroke:#000000;" x="291.351273" xlink:href="#m2b19f519be" y="295.466389"/>
     <use style="fill:#ff0000;stroke:#000000;" x="295.247127" xlink:href="#m2b19f519be" y="296.087379"/>
     <use style="fill:#ff0000;stroke:#000000;" x="299.142982" xlink:href="#m2b19f519be" y="296.680858"/>
     <use style="fill:#ff0000;stroke:#000000;" x="303.038836" xlink:href="#m2b19f519be" y="297.247626"/>
     <use style="fill:#ff0000;stroke:#000000;" x="306.934691" xlink:href="#m2b19f519be" y="297.78799"/>
     <use style="fill:#ff0000;stroke:#000000;" x="310.830545" xlink:href="#m2b19f519be" y="298.302967"/>
     <use style="fill:#ff0000;stroke:#000000;" x="314.7264" xlink:href="#m2b19f519be" y="298.793161"/>
     <use style="fill:#ff0000;stroke:#000000;" x="318.622255" xlink:href="#m2b19f519be" y="299.259556"/>
     <use style="fill:#ff0000;stroke:#000000;" x="322.518109" xlink:href="#m2b19f519be" y="299.702926"/>
     <use style="fill:#ff0000;stroke:#000000;" x="326.413964" xlink:href="#m2b19f519be" y="300.12363"/>
     <use style="fill:#ff0000;stroke:#000000;" x="330.309818" xlink:href="#m2b19f519be" y="300.522434"/>
     <use style="fill:#ff0000;stroke:#000000;" x="334.205673" xlink:href="#m2b19f519be" y="300.899821"/>
     <use style="fill:#ff0000;stroke:#000000;" x="338.101527" xlink:href="#m2b19f519be" y="301.256958"/>
     <use style="fill:#ff0000;stroke:#000000;" x="341.997382" xlink:href="#m2b19f519be" y="301.592176"/>
     <use style="fill:#ff0000;stroke:#000000;" x="345.893236" xlink:href="#m2b19f519be" y="301.907625"/>
     <use style="fill:#ff0000;stroke:#000000;" x="349.789091" xlink:href="#m2b19f519be" y="302.202533"/>
     <use style="fill:#ff0000;stroke:#000000;" x="353.684945" xlink:href="#m2b19f519be" y="302.477158"/>
     <use style="fill:#ff0000;stroke:#000000;" x="357.5808" xlink:href="#m2b19f519be" y="302.730901"/>
     <use style="fill:#ff0000;stroke:#000000;" x="361.476655" xlink:href="#m2b19f519be" y="302.966664"/>
     <use style="fill:#ff0000;stroke:#000000;" x="365.372509" xlink:href="#m2b19f519be" y="303.184108"/>
     <use style="fill:#ff0000;stroke:#000000;" x="369.268364" xlink:href="#m2b19f519be" y="303.383183"/>
     <use style="fill:#ff0000;stroke:#000000;" x="373.164218" xlink:href="#m2b19f519be" y="303.567195"/>
     <use style="fill:#ff0000;stroke:#000000;" x="377.060073" xlink:href="#m2b19f519be" y="303.735889"/>
     <use style="fill:#ff0000;stroke:#000000;" x="380.955927" xlink:href="#m2b19f519be" y="303.889725"/>
     <use style="fill:#ff0000;stroke:#000000;" x="384.851782" xlink:href="#m2b19f519be" y="304.031755"/>
     <use style="fill:#ff0000;stroke:#000000;" x="388.747636" xlink:href="#m2b19f519be" y="304.161918"/>
     <use style="fill:#ff0000;stroke:#000000;" x="392.643491" xlink:href="#m2b19f519be" y="304.280321"/>
     <use style="fill:#ff0000;stroke:#000000;" x="396.539345" xlink:href="#m2b19f519be" y="304.390016"/>
     <use style="fill:#ff0000;stroke:#000000;" x="400.4352" xlink:href="#m2b19f519be" y="304.490771"/>
     <use style="fill:#ff0000;stroke:#000000;" x="404.331055" xlink:href="#m2b19f519be" y="304.582353"/>
     <use style="fill:#ff0000;stroke:#000000;" x="408.226909" xlink:href="#m2b19f519be" y="304.667781"/>
    </g>
   </g>
   <g id="line2d_30">
    <path clip-path="url(#pde7c36b8fb)" d="M 57.6 307.584 
L 61.495855 275.650528 
L 65.391709 243.717056 
L 69.287564 211.783584 
L 73.183418 179.850112 
L 77.079273 147.91664 
L 80.975127 115.983168 
L 84.870982 84.049696 
L 88.766836 52.116225 
L 92.662691 73.825413 
L 96.558545 105.19677 
L 100.4544 127.180329 
L 104.350255 144.201463 
L 108.246109 158.133609 
L 112.141964 169.868097 
L 116.037818 179.968341 
L 119.933673 188.804816 
L 123.829527 196.631622 
L 127.725382 203.635096 
L 131.621236 210.000698 
L 135.517091 215.792221 
L 139.412945 221.085154 
L 143.3088 225.944955 
L 147.204655 230.42503 
L 151.100509 234.572833 
L 154.996364 238.424763 
L 158.892218 242.012631 
L 162.788073 245.362306 
L 166.683927 248.499568 
L 170.579782 251.443034 
L 174.475636 254.230574 
L 178.371491 256.858678 
L 182.267345 259.337066 
L 186.1632 261.677762 
L 190.059055 263.891431 
L 193.954909 265.987588 
L 197.850764 267.974749 
L 201.746618 269.860563 
L 205.642473 271.651917 
L 209.538327 273.355035 
L 213.434182 274.975547 
L 217.330036 276.518566 
L 221.225891 277.988738 
L 225.121745 279.390297 
L 229.0176 280.727104 
L 232.913455 282.002685 
L 236.809309 283.219114 
L 240.705164 284.381659 
L 244.601018 285.49186 
L 248.496873 286.552188 
L 252.392727 287.564912 
L 256.288582 288.532921 
L 260.184436 289.461075 
L 264.080291 290.346867 
L 267.976145 291.191972 
L 271.872 291.997912 
L 275.767855 292.766097 
L 279.663709 293.497839 
L 283.559564 294.194373 
L 287.455418 294.856867 
L 291.351273 295.486442 
L 295.247127 296.084186 
L 299.142982 296.651164 
L 303.038836 297.187417 
L 306.934691 297.696141 
L 310.830545 298.177288 
L 314.7264 298.63193 
L 318.622255 299.061156 
L 322.518109 299.466066 
L 326.413964 299.846779 
L 330.309818 300.206502 
L 334.205673 300.545219 
L 338.101527 300.864021 
L 341.997382 301.163985 
L 345.893236 301.54885 
L 349.789091 301.947311 
L 353.684945 302.350844 
L 357.5808 302.745472 
L 361.476655 303.120647 
L 365.372509 303.465197 
L 369.268364 303.773831 
L 373.164218 304.04733 
L 377.060073 304.286923 
L 380.955927 304.496181 
L 384.851782 304.679107 
L 388.747636 304.839517 
L 392.643491 304.980782 
L 396.539345 305.105759 
L 400.4352 305.21783 
L 404.331055 305.317194 
L 408.226909 305.407266 
" style="fill:none;stroke:#000000;stroke-linecap:square;stroke-width:2;"/>
    <defs>
     <path d="M 0 -2.5 
L -2.5 2.5 
L 2.5 2.5 
z
" id="m3399e6f8e1" style="stroke:#000000;stroke-linejoin:miter;"/>
    </defs>
    <g clip-path="url(#pde7c36b8fb)">
     <use style="fill:#ff0000;stroke:#000000;stroke-linejoin:miter;" x="57.6" xlink:href="#m3399e6f8e1" y="307.584"/>
     <use style="fill:#ff0000;stroke:#000000;stroke-linejoin:miter;" x="61.495855" xlink:href="#m3399e6f8e1" y="275.650528"/>
     <use style="fill:#ff0000;stroke:#000000;stroke-linejoin:miter;" x="65.391709" xlink:href="#m3399e6f8e1" y="243.717056"/>
     <use style="fill:#ff0000;stroke:#000000;stroke-linejoin:miter;" x="69.287564" xlink:href="#m3399e6f8e1" y="211.783584"/>
     <use style="fill:#ff0000;stroke:#000000;stroke-linejoin:miter;" x="73.183418" xlink:href="#m3399e6f8e1" y="179.850112"/>
     <use style="fill:#ff0000;stroke:#000000;stroke-linejoin:miter;" x="77.079273" xlink:href="#m3399e6f8e1" y="147.91664"/>
     <use style="fill:#ff0000;stroke:#000000;stroke-linejoin:miter;" x="80.975127" xlink:href="#m3399e6f8e1" y="115.983168"/>
     <use style="fill:#ff0000;stroke:#000000;stroke-linejoin:miter;" x="84.870982" xlink:href="#m3399e6f8e1" y="84.049696"/>
     <use style="fill:#ff0000;stroke:#000000;stroke-linejoin:miter;" x="88.766836" xlink:href="#m3399e6f8e1" y="52.116225"/>
     <use style="fill:#ff0000;stroke:#000000;stroke-linejoin:miter;" x="92.662691" xlink:href="#m3399e6f8e1" y="73.825413"/>
     <use style="fill:#ff0000;stroke:#000000;stroke-linejoin:miter;" x="96.558545" xlink:href="#m3399e6f8e1" y="105.19677"/>
     <use style="fill:#ff0000;stroke:#000000;stroke-linejoin:miter;" x="100.4544" xlink:href="#m3399e6f8e1" y="127.180329"/>
     <use style="fill:#ff0000;stroke:#000000;stroke-linejoin:miter;" x="104.350255" xlink:href="#m3399e6f8e1" y="144.201463"/>
     <use style="fill:#ff0000;stroke:#000000;stroke-linejoin:miter;" x="108.246109" xlink:href="#m3399e6f8e1" y="158.133609"/>
     <use style="fill:#ff0000;stroke:#000000;stroke-linejoin:miter;" x="112.141964" xlink:href="#m3399e6f8e1" y="169.868097"/>
     <use style="fill:#ff0000;stroke:#000000;stroke-linejoin:miter;" x="116.037818" xlink:href="#m3399e6f8e1" y="179.968341"/>
     <use style="fill:#ff0000;stroke:#000000;stroke-linejoin:miter;" x="119.933673" xlink:href="#m3399e6f8e1" y="188.804816"/>
     <use style="fill:#ff0000;stroke:#000000;stroke-linejoin:miter;" x="123.829527" xlink:href="#m3399e6f8e1" y="196.631622"/>
     <use style="fill:#ff0000;stroke:#000000;stroke-linejoin:miter;" x="127.725382" xlink:href="#m3399e6f8e1" y="203.635096"/>
     <use style="fill:#ff0000;stroke:#000000;stroke-linejoin:miter;" x="131.621236" xlink:href="#m3399e6f8e1" y="210.000698"/>
     <use style="fill:#ff0000;stroke:#000000;stroke-linejoin:miter;" x="135.517091" xlink:href="#m3399e6f8e1" y="215.792221"/>
     <use style="fill:#ff0000;stroke:#000000;stroke-linejoin:miter;" x="139.412945" xlink:href="#m3399e6f8e1" y="221.085154"/>
     <use style="fill:#ff0000;stroke:#000000;stroke-linejoin:miter;" x="143.3088" xlink:href="#m3399e6f8e1" y="225.944955"/>
     <use style="fill:#ff0000;stroke:#000000;stroke-linejoin:miter;" x="147.204655" xlink:href="#m3399e6f8e1" y="230.42503"/>
     <use style="fill:#ff0000;stroke:#000000;stroke-linejoin:miter;" x="151.100509" xlink:href="#m3399e6f8e1" y="234.572833"/>
     <use style="fill:#ff0000;stroke:#000000;stroke-linejoin:miter;" x="154.996364" xlink:href="#m3399e6f8e1" y="238.424763"/>
     <use style="fill:#ff0000;stroke:#000000;stroke-linejoin:miter;" x="158.892218" xlink:href="#m3399e6f8e1" y="242.012631"/>
     <use style="fill:#ff0000;stroke:#000000;stroke-linejoin:miter;" x="162.788073" xlink:href="#m3399e6f8e1" y="245.362306"/>
     <use style="fill:#ff0000;stroke:#000000;stroke-linejoin:miter;" x="166.683927" xlink:href="#m3399e6f8e1" y="248.499568"/>
     <use style="fill:#ff0000;stroke:#000000;stroke-linejoin:miter;" x="170.579782" xlink:href="#m3399e6f8e1" y="251.443034"/>
     <use style="fill:#ff0000;stroke:#000000;stroke-linejoin:miter;" x="174.475636" xlink:href="#m3399e6f8e1" y="254.230574"/>
     <use style="fill:#ff0000;stroke:#000000;stroke-linejoin:miter;" x="178.371491" xlink:href="#m3399e6f8e1" y="256.858678"/>
     <use style="fill:#ff0000;stroke:#000000;stroke-linejoin:miter;" x="182.267345" xlink:href="#m3399e6f8e1" y="259.337066"/>
     <use style="fill:#ff0000;stroke:#000000;stroke-linejoin:miter;" x="186.1632" xlink:href="#m3399e6f8e1" y="261.677762"/>
     <use style="fill:#ff0000;stroke:#000000;stroke-linejoin:miter;" x="190.059055" xlink:href="#m3399e6f8e1" y="263.891431"/>
     <use style="fill:#ff0000;stroke:#000000;stroke-linejoin:miter;" x="193.954909" xlink:href="#m3399e6f8e1" y="265.987588"/>
     <use style="fill:#ff0000;stroke:#000000;stroke-linejoin:miter;" x="197.850764" xlink:href="#m3399e6f8e1" y="267.974749"/>
     <use style="fill:#ff0000;stroke:#000000;stroke-linejoin:miter;" x="201.746618" xlink:href="#m3399e6f8e1" y="269.860563"/>
     <use style="fill:#ff0000;stroke:#000000;stroke-linejoin:miter;" x="205.642473" xlink:href="#m3399e6f8e1" y="271.651917"/>
     <use style="fill:#ff0000;stroke:#000000;stroke-linejoin:miter;" x="209.538327" xlink:href="#m3399e6f8e1" y="273.355035"/>
     <use style="fill:#ff0000;stroke:#000000;stroke-linejoin:miter;" x="213.434182" xlink:href="#m3399e6f8e1" y="274.975547"/>
     <use style="fill:#ff0000;stroke:#000000;stroke-linejoin:miter;" x="217.330036" xlink:href="#m3399e6f8e1" y="276.518566"/>
     <use style="fill:#ff0000;stroke:#000000;stroke-linejoin:miter;" x="221.225891" xlink:href="#m3399e6f8e1" y="277.988738"/>
     <use style="fill:#ff0000;stroke:#000000;stroke-linejoin:miter;" x="225.121745" xlink:href="#m3399e6f8e1" y="279.390297"/>
     <use style="fill:#ff0000;stroke:#000000;stroke-linejoin:miter;" x="229.0176" xlink:href="#m3399e6f8e1" y="280.727104"/>
     <use style="fill:#ff0000;stroke:#000000;stroke-linejoin:miter;" x="232.913455" xlink:href="#m3399e6f8e1" y="282.002685"/>
     <use style="fill:#ff0000;stroke:#000000;stroke-linejoin:miter;" x="236.809309" xlink:href="#m3399e6f8e1" y="283.219114"/>
     <use style="fill:#ff0000;stroke:#000000;stroke-linejoin:miter;" x="240.705164" xlink:href="#m3399e6f8e1" y="284.381659"/>
     <use style="fill:#ff0000;stroke:#000000;stroke-linejoin:miter;" x="244.601018" xlink:href="#m3399e6f8e1" y="285.49186"/>
     <use style="fill:#ff0000;stroke:#000000;stroke-linejoin:miter;" x="248.496873" xlink:href="#m3399e6f8e1" y="286.552188"/>
     <use style="fill:#ff0000;stroke:#000000;stroke-linejoin:miter;" x="252.392727" xlink:href="#m3399e6f8e1" y="287.564912"/>
     <use style="fill:#ff0000;stroke:#000000;stroke-linejoin:miter;" x="256.288582" xlink:href="#m3399e6f8e1" y="288.532921"/>
     <use style="fill:#ff0000;stroke:#000000;stroke-linejoin:miter;" x="260.184436" xlink:href="#m3399e6f8e1" y="289.461075"/>
     <use style="fill:#ff0000;stroke:#000000;stroke-linejoin:miter;" x="264.080291" xlink:href="#m3399e6f8e1" y="290.346867"/>
     <use style="fill:#ff0000;stroke:#000000;stroke-linejoin:miter;" x="267.976145" xlink:href="#m3399e6f8e1" y="291.191972"/>
     <use style="fill:#ff0000;stroke:#000000;stroke-linejoin:miter;" x="271.872" xlink:href="#m3399e6f8e1" y="291.997912"/>
     <use style="fill:#ff0000;stroke:#000000;stroke-linejoin:miter;" x="275.767855" xlink:href="#m3399e6f8e1" y="292.766097"/>
     <use style="fill:#ff0000;stroke:#000000;stroke-linejoin:miter;" x="279.663709" xlink:href="#m3399e6f8e1" y="293.497839"/>
     <use style="fill:#ff0000;stroke:#000000;stroke-linejoin:miter;" x="283.559564" xlink:href="#m3399e6f8e1" y="294.194373"/>
     <use style="fill:#ff0000;stroke:#000000;stroke-linejoin:miter;" x="287.455418" xlink:href="#m3399e6f8e1" y="294.856867"/>
     <use style="fill:#ff0000;stroke:#000000;stroke-linejoin:miter;" x="291.351273" xlink:href="#m3399e6f8e1" y="295.486442"/>
     <use style="fill:#ff0000;stroke:#000000;stroke-linejoin:miter;" x="295.247127" xlink:href="#m3399e6f8e1" y="296.084186"/>
     <use style="fill:#ff0000;stroke:#000000;stroke-linejoin:miter;" x="299.142982" xlink:href="#m3399e6f8e1" y="296.651164"/>
     <use style="fill:#ff0000;stroke:#000000;stroke-linejoin:miter;" x="303.038836" xlink:href="#m3399e6f8e1" y="297.187417"/>
     <use style="fill:#ff0000;stroke:#000000;stroke-linejoin:miter;" x="306.934691" xlink:href="#m3399e6f8e1" y="297.696141"/>
     <use style="fill:#ff0000;stroke:#000000;stroke-linejoin:miter;" x="310.830545" xlink:href="#m3399e6f8e1" y="298.177288"/>
     <use style="fill:#ff0000;stroke:#000000;stroke-linejoin:miter;" x="314.7264" xlink:href="#m3399e6f8e1" y="298.63193"/>
     <use style="fill:#ff0000;stroke:#000000;stroke-linejoin:miter;" x="318.622255" xlink:href="#m3399e6f8e1" y="299.061156"/>
     <use style="fill:#ff0000;stroke:#000000;stroke-linejoin:miter;" x="322.518109" xlink:href="#m3399e6f8e1" y="299.466066"/>
     <use style="fill:#ff0000;stroke:#000000;stroke-linejoin:miter;" x="326.413964" xlink:href="#m3399e6f8e1" y="299.846779"/>
     <use style="fill:#ff0000;stroke:#000000;stroke-linejoin:miter;" x="330.309818" xlink:href="#m3399e6f8e1" y="300.206502"/>
     <use style="fill:#ff0000;stroke:#000000;stroke-linejoin:miter;" x="334.205673" xlink:href="#m3399e6f8e1" y="300.545219"/>
     <use style="fill:#ff0000;stroke:#000000;stroke-linejoin:miter;" x="338.101527" xlink:href="#m3399e6f8e1" y="300.864021"/>
     <use style="fill:#ff0000;stroke:#000000;stroke-linejoin:miter;" x="341.997382" xlink:href="#m3399e6f8e1" y="301.163985"/>
     <use style="fill:#ff0000;stroke:#000000;stroke-linejoin:miter;" x="345.893236" xlink:href="#m3399e6f8e1" y="301.54885"/>
     <use style="fill:#ff0000;stroke:#000000;stroke-linejoin:miter;" x="349.789091" xlink:href="#m3399e6f8e1" y="301.947311"/>
     <use style="fill:#ff0000;stroke:#000000;stroke-linejoin:miter;" x="353.684945" xlink:href="#m3399e6f8e1" y="302.350844"/>
     <use style="fill:#ff0000;stroke:#000000;stroke-linejoin:miter;" x="357.5808" xlink:href="#m3399e6f8e1" y="302.745472"/>
     <use style="fill:#ff0000;stroke:#000000;stroke-linejoin:miter;" x="361.476655" xlink:href="#m3399e6f8e1" y="303.120647"/>
     <use style="fill:#ff0000;stroke:#000000;stroke-linejoin:miter;" x="365.372509" xlink:href="#m3399e6f8e1" y="303.465197"/>
     <use style="fill:#ff0000;stroke:#000000;stroke-linejoin:miter;" x="369.268364" xlink:href="#m3399e6f8e1" y="303.773831"/>
     <use style="fill:#ff0000;stroke:#000000;stroke-linejoin:miter;" x="373.164218" xlink:href="#m3399e6f8e1" y="304.04733"/>
     <use style="fill:#ff0000;stroke:#000000;stroke-linejoin:miter;" x="377.060073" xlink:href="#m3399e6f8e1" y="304.286923"/>
     <use style="fill:#ff0000;stroke:#000000;stroke-linejoin:miter;" x="380.955927" xlink:href="#m3399e6f8e1" y="304.496181"/>
     <use style="fill:#ff0000;stroke:#000000;stroke-linejoin:miter;" x="384.851782" xlink:href="#m3399e6f8e1" y="304.679107"/>
     <use style="fill:#ff0000;stroke:#000000;stroke-linejoin:miter;" x="388.747636" xlink:href="#m3399e6f8e1" y="304.839517"/>
     <use style="fill:#ff0000;stroke:#000000;stroke-linejoin:miter;" x="392.643491" xlink:href="#m3399e6f8e1" y="304.980782"/>
     <use style="fill:#ff0000;stroke:#000000;stroke-linejoin:miter;" x="396.539345" xlink:href="#m3399e6f8e1" y="305.105759"/>
     <use style="fill:#ff0000;stroke:#000000;stroke-linejoin:miter;" x="400.4352" xlink:href="#m3399e6f8e1" y="305.21783"/>
     <use style="fill:#ff0000;stroke:#000000;stroke-linejoin:miter;" x="404.331055" xlink:href="#m3399e6f8e1" y="305.317194"/>
     <use style="fill:#ff0000;stroke:#000000;stroke-linejoin:miter;" x="408.226909" xlink:href="#m3399e6f8e1" y="305.407266"/>
    </g>
   </g>
   <g id="line2d_31">
    <path clip-path="url(#pde7c36b8fb)" d="M 57.6 307.584 
L 61.495855 275.650528 
L 65.391709 243.717056 
L 69.287564 211.783584 
L 73.183418 179.850112 
L 77.079273 147.91664 
L 80.975127 115.983168 
L 84.870982 84.049696 
L 88.766836 52.116225 
L 92.662691 74.021765 
L 96.558545 105.266437 
L 100.4544 127.205552 
L 104.350255 144.199521 
L 108.246109 158.124849 
L 112.141964 169.856954 
L 116.037818 179.958344 
L 119.933673 188.795087 
L 123.829527 196.622594 
L 127.725382 203.627095 
L 131.621236 209.990189 
L 135.517091 215.783758 
L 139.412945 221.078552 
L 143.3088 225.938735 
L 147.204655 230.421676 
L 151.100509 234.570956 
L 154.996364 238.424288 
L 158.892218 242.013506 
L 162.788073 245.364501 
L 166.683927 248.503055 
L 170.579782 251.447828 
L 174.475636 254.235715 
L 178.371491 256.865272 
L 182.267345 259.345082 
L 186.1632 261.687185 
L 190.059055 263.902261 
L 193.954909 265.999835 
L 197.850764 267.988433 
L 201.746618 269.875712 
L 205.642473 271.668568 
L 209.538327 273.373232 
L 213.434182 274.995342 
L 217.330036 276.540017 
L 221.225891 278.011912 
L 225.121745 279.415265 
L 229.0176 280.753945 
L 232.913455 282.031485 
L 236.809309 283.249955 
L 240.705164 284.414645 
L 244.601018 285.527092 
L 248.496873 286.589774 
L 252.392727 287.604961 
L 256.288582 288.575267 
L 260.184436 289.506113 
L 264.080291 290.394705 
L 267.976145 291.24272 
L 271.872 292.051674 
L 275.767855 292.822972 
L 279.663709 293.557918 
L 283.559564 294.257733 
L 287.455418 294.923574 
L 291.351273 295.556546 
L 295.247127 296.15772 
L 299.142982 296.728147 
L 303.038836 297.267812 
L 306.934691 297.779966 
L 310.830545 298.264508 
L 314.7264 298.722495 
L 318.622255 299.155004 
L 322.518109 299.563122 
L 326.413964 299.946923 
L 330.309818 300.309684 
L 334.205673 300.651345 
L 338.101527 300.972993 
L 341.997382 301.275704 
L 345.893236 301.559467 
L 349.789091 301.827583 
L 353.684945 302.079822 
L 357.5808 302.469379 
L 361.476655 302.881728 
L 365.372509 303.299302 
L 369.268364 303.700917 
L 373.164218 304.067595 
L 377.060073 304.387977 
L 380.955927 304.661908 
L 384.851782 304.894154 
L 388.747636 305.092075 
L 392.643491 305.26046 
L 396.539345 305.406238 
L 400.4352 305.532933 
L 404.331055 305.643938 
L 408.226909 305.742857 
" style="fill:none;stroke:#000000;stroke-linecap:square;stroke-width:2;"/>
    <defs>
     <path d="M -2.5 2.5 
L 2.5 2.5 
L 2.5 -2.5 
L -2.5 -2.5 
z
" id="m4e0b3cce8e" style="stroke:#000000;stroke-linejoin:miter;"/>
    </defs>
    <g clip-path="url(#pde7c36b8fb)">
     <use style="fill:#ff0000;stroke:#000000;stroke-linejoin:miter;" x="57.6" xlink:href="#m4e0b3cce8e" y="307.584"/>
     <use style="fill:#ff0000;stroke:#000000;stroke-linejoin:miter;" x="61.495855" xlink:href="#m4e0b3cce8e" y="275.650528"/>
     <use style="fill:#ff0000;stroke:#000000;stroke-linejoin:miter;" x="65.391709" xlink:href="#m4e0b3cce8e" y="243.717056"/>
     <use style="fill:#ff0000;stroke:#000000;stroke-linejoin:miter;" x="69.287564" xlink:href="#m4e0b3cce8e" y="211.783584"/>
     <use style="fill:#ff0000;stroke:#000000;stroke-linejoin:miter;" x="73.183418" xlink:href="#m4e0b3cce8e" y="179.850112"/>
     <use style="fill:#ff0000;stroke:#000000;stroke-linejoin:miter;" x="77.079273" xlink:href="#m4e0b3cce8e" y="147.91664"/>
     <use style="fill:#ff0000;stroke:#000000;stroke-linejoin:miter;" x="80.975127" xlink:href="#m4e0b3cce8e" y="115.983168"/>
     <use style="fill:#ff0000;stroke:#000000;stroke-linejoin:miter;" x="84.870982" xlink:href="#m4e0b3cce8e" y="84.049696"/>
     <use style="fill:#ff0000;stroke:#000000;stroke-linejoin:miter;" x="88.766836" xlink:href="#m4e0b3cce8e" y="52.116225"/>
     <use style="fill:#ff0000;stroke:#000000;stroke-linejoin:miter;" x="92.662691" xlink:href="#m4e0b3cce8e" y="74.021765"/>
     <use style="fill:#ff0000;stroke:#000000;stroke-linejoin:miter;" x="96.558545" xlink:href="#m4e0b3cce8e" y="105.266437"/>
     <use style="fill:#ff0000;stroke:#000000;stroke-linejoin:miter;" x="100.4544" xlink:href="#m4e0b3cce8e" y="127.205552"/>
     <use style="fill:#ff0000;stroke:#000000;stroke-linejoin:miter;" x="104.350255" xlink:href="#m4e0b3cce8e" y="144.199521"/>
     <use style="fill:#ff0000;stroke:#000000;stroke-linejoin:miter;" x="108.246109" xlink:href="#m4e0b3cce8e" y="158.124849"/>
     <use style="fill:#ff0000;stroke:#000000;stroke-linejoin:miter;" x="112.141964" xlink:href="#m4e0b3cce8e" y="169.856954"/>
     <use style="fill:#ff0000;stroke:#000000;stroke-linejoin:miter;" x="116.037818" xlink:href="#m4e0b3cce8e" y="179.958344"/>
     <use style="fill:#ff0000;stroke:#000000;stroke-linejoin:miter;" x="119.933673" xlink:href="#m4e0b3cce8e" y="188.795087"/>
     <use style="fill:#ff0000;stroke:#000000;stroke-linejoin:miter;" x="123.829527" xlink:href="#m4e0b3cce8e" y="196.622594"/>
     <use style="fill:#ff0000;stroke:#000000;stroke-linejoin:miter;" x="127.725382" xlink:href="#m4e0b3cce8e" y="203.627095"/>
     <use style="fill:#ff0000;stroke:#000000;stroke-linejoin:miter;" x="131.621236" xlink:href="#m4e0b3cce8e" y="209.990189"/>
     <use style="fill:#ff0000;stroke:#000000;stroke-linejoin:miter;" x="135.517091" xlink:href="#m4e0b3cce8e" y="215.783758"/>
     <use style="fill:#ff0000;stroke:#000000;stroke-linejoin:miter;" x="139.412945" xlink:href="#m4e0b3cce8e" y="221.078552"/>
     <use style="fill:#ff0000;stroke:#000000;stroke-linejoin:miter;" x="143.3088" xlink:href="#m4e0b3cce8e" y="225.938735"/>
     <use style="fill:#ff0000;stroke:#000000;stroke-linejoin:miter;" x="147.204655" xlink:href="#m4e0b3cce8e" y="230.421676"/>
     <use style="fill:#ff0000;stroke:#000000;stroke-linejoin:miter;" x="151.100509" xlink:href="#m4e0b3cce8e" y="234.570956"/>
     <use style="fill:#ff0000;stroke:#000000;stroke-linejoin:miter;" x="154.996364" xlink:href="#m4e0b3cce8e" y="238.424288"/>
     <use style="fill:#ff0000;stroke:#000000;stroke-linejoin:miter;" x="158.892218" xlink:href="#m4e0b3cce8e" y="242.013506"/>
     <use style="fill:#ff0000;stroke:#000000;stroke-linejoin:miter;" x="162.788073" xlink:href="#m4e0b3cce8e" y="245.364501"/>
     <use style="fill:#ff0000;stroke:#000000;stroke-linejoin:miter;" x="166.683927" xlink:href="#m4e0b3cce8e" y="248.503055"/>
     <use style="fill:#ff0000;stroke:#000000;stroke-linejoin:miter;" x="170.579782" xlink:href="#m4e0b3cce8e" y="251.447828"/>
     <use style="fill:#ff0000;stroke:#000000;stroke-linejoin:miter;" x="174.475636" xlink:href="#m4e0b3cce8e" y="254.235715"/>
     <use style="fill:#ff0000;stroke:#000000;stroke-linejoin:miter;" x="178.371491" xlink:href="#m4e0b3cce8e" y="256.865272"/>
     <use style="fill:#ff0000;stroke:#000000;stroke-linejoin:miter;" x="182.267345" xlink:href="#m4e0b3cce8e" y="259.345082"/>
     <use style="fill:#ff0000;stroke:#000000;stroke-linejoin:miter;" x="186.1632" xlink:href="#m4e0b3cce8e" y="261.687185"/>
     <use style="fill:#ff0000;stroke:#000000;stroke-linejoin:miter;" x="190.059055" xlink:href="#m4e0b3cce8e" y="263.902261"/>
     <use style="fill:#ff0000;stroke:#000000;stroke-linejoin:miter;" x="193.954909" xlink:href="#m4e0b3cce8e" y="265.999835"/>
     <use style="fill:#ff0000;stroke:#000000;stroke-linejoin:miter;" x="197.850764" xlink:href="#m4e0b3cce8e" y="267.988433"/>
     <use style="fill:#ff0000;stroke:#000000;stroke-linejoin:miter;" x="201.746618" xlink:href="#m4e0b3cce8e" y="269.875712"/>
     <use style="fill:#ff0000;stroke:#000000;stroke-linejoin:miter;" x="205.642473" xlink:href="#m4e0b3cce8e" y="271.668568"/>
     <use style="fill:#ff0000;stroke:#000000;stroke-linejoin:miter;" x="209.538327" xlink:href="#m4e0b3cce8e" y="273.373232"/>
     <use style="fill:#ff0000;stroke:#000000;stroke-linejoin:miter;" x="213.434182" xlink:href="#m4e0b3cce8e" y="274.995342"/>
     <use style="fill:#ff0000;stroke:#000000;stroke-linejoin:miter;" x="217.330036" xlink:href="#m4e0b3cce8e" y="276.540017"/>
     <use style="fill:#ff0000;stroke:#000000;stroke-linejoin:miter;" x="221.225891" xlink:href="#m4e0b3cce8e" y="278.011912"/>
     <use style="fill:#ff0000;stroke:#000000;stroke-linejoin:miter;" x="225.121745" xlink:href="#m4e0b3cce8e" y="279.415265"/>
     <use style="fill:#ff0000;stroke:#000000;stroke-linejoin:miter;" x="229.0176" xlink:href="#m4e0b3cce8e" y="280.753945"/>
     <use style="fill:#ff0000;stroke:#000000;stroke-linejoin:miter;" x="232.913455" xlink:href="#m4e0b3cce8e" y="282.031485"/>
     <use style="fill:#ff0000;stroke:#000000;stroke-linejoin:miter;" x="236.809309" xlink:href="#m4e0b3cce8e" y="283.249955"/>
     <use style="fill:#ff0000;stroke:#000000;stroke-linejoin:miter;" x="240.705164" xlink:href="#m4e0b3cce8e" y="284.414645"/>
     <use style="fill:#ff0000;stroke:#000000;stroke-linejoin:miter;" x="244.601018" xlink:href="#m4e0b3cce8e" y="285.527092"/>
     <use style="fill:#ff0000;stroke:#000000;stroke-linejoin:miter;" x="248.496873" xlink:href="#m4e0b3cce8e" y="286.589774"/>
     <use style="fill:#ff0000;stroke:#000000;stroke-linejoin:miter;" x="252.392727" xlink:href="#m4e0b3cce8e" y="287.604961"/>
     <use style="fill:#ff0000;stroke:#000000;stroke-linejoin:miter;" x="256.288582" xlink:href="#m4e0b3cce8e" y="288.575267"/>
     <use style="fill:#ff0000;stroke:#000000;stroke-linejoin:miter;" x="260.184436" xlink:href="#m4e0b3cce8e" y="289.506113"/>
     <use style="fill:#ff0000;stroke:#000000;stroke-linejoin:miter;" x="264.080291" xlink:href="#m4e0b3cce8e" y="290.394705"/>
     <use style="fill:#ff0000;stroke:#000000;stroke-linejoin:miter;" x="267.976145" xlink:href="#m4e0b3cce8e" y="291.24272"/>
     <use style="fill:#ff0000;stroke:#000000;stroke-linejoin:miter;" x="271.872" xlink:href="#m4e0b3cce8e" y="292.051674"/>
     <use style="fill:#ff0000;stroke:#000000;stroke-linejoin:miter;" x="275.767855" xlink:href="#m4e0b3cce8e" y="292.822972"/>
     <use style="fill:#ff0000;stroke:#000000;stroke-linejoin:miter;" x="279.663709" xlink:href="#m4e0b3cce8e" y="293.557918"/>
     <use style="fill:#ff0000;stroke:#000000;stroke-linejoin:miter;" x="283.559564" xlink:href="#m4e0b3cce8e" y="294.257733"/>
     <use style="fill:#ff0000;stroke:#000000;stroke-linejoin:miter;" x="287.455418" xlink:href="#m4e0b3cce8e" y="294.923574"/>
     <use style="fill:#ff0000;stroke:#000000;stroke-linejoin:miter;" x="291.351273" xlink:href="#m4e0b3cce8e" y="295.556546"/>
     <use style="fill:#ff0000;stroke:#000000;stroke-linejoin:miter;" x="295.247127" xlink:href="#m4e0b3cce8e" y="296.15772"/>
     <use style="fill:#ff0000;stroke:#000000;stroke-linejoin:miter;" x="299.142982" xlink:href="#m4e0b3cce8e" y="296.728147"/>
     <use style="fill:#ff0000;stroke:#000000;stroke-linejoin:miter;" x="303.038836" xlink:href="#m4e0b3cce8e" y="297.267812"/>
     <use style="fill:#ff0000;stroke:#000000;stroke-linejoin:miter;" x="306.934691" xlink:href="#m4e0b3cce8e" y="297.779966"/>
     <use style="fill:#ff0000;stroke:#000000;stroke-linejoin:miter;" x="310.830545" xlink:href="#m4e0b3cce8e" y="298.264508"/>
     <use style="fill:#ff0000;stroke:#000000;stroke-linejoin:miter;" x="314.7264" xlink:href="#m4e0b3cce8e" y="298.722495"/>
     <use style="fill:#ff0000;stroke:#000000;stroke-linejoin:miter;" x="318.622255" xlink:href="#m4e0b3cce8e" y="299.155004"/>
     <use style="fill:#ff0000;stroke:#000000;stroke-linejoin:miter;" x="322.518109" xlink:href="#m4e0b3cce8e" y="299.563122"/>
     <use style="fill:#ff0000;stroke:#000000;stroke-linejoin:miter;" x="326.413964" xlink:href="#m4e0b3cce8e" y="299.946923"/>
     <use style="fill:#ff0000;stroke:#000000;stroke-linejoin:miter;" x="330.309818" xlink:href="#m4e0b3cce8e" y="300.309684"/>
     <use style="fill:#ff0000;stroke:#000000;stroke-linejoin:miter;" x="334.205673" xlink:href="#m4e0b3cce8e" y="300.651345"/>
     <use style="fill:#ff0000;stroke:#000000;stroke-linejoin:miter;" x="338.101527" xlink:href="#m4e0b3cce8e" y="300.972993"/>
     <use style="fill:#ff0000;stroke:#000000;stroke-linejoin:miter;" x="341.997382" xlink:href="#m4e0b3cce8e" y="301.275704"/>
     <use style="fill:#ff0000;stroke:#000000;stroke-linejoin:miter;" x="345.893236" xlink:href="#m4e0b3cce8e" y="301.559467"/>
     <use style="fill:#ff0000;stroke:#000000;stroke-linejoin:miter;" x="349.789091" xlink:href="#m4e0b3cce8e" y="301.827583"/>
     <use style="fill:#ff0000;stroke:#000000;stroke-linejoin:miter;" x="353.684945" xlink:href="#m4e0b3cce8e" y="302.079822"/>
     <use style="fill:#ff0000;stroke:#000000;stroke-linejoin:miter;" x="357.5808" xlink:href="#m4e0b3cce8e" y="302.469379"/>
     <use style="fill:#ff0000;stroke:#000000;stroke-linejoin:miter;" x="361.476655" xlink:href="#m4e0b3cce8e" y="302.881728"/>
     <use style="fill:#ff0000;stroke:#000000;stroke-linejoin:miter;" x="365.372509" xlink:href="#m4e0b3cce8e" y="303.299302"/>
     <use style="fill:#ff0000;stroke:#000000;stroke-linejoin:miter;" x="369.268364" xlink:href="#m4e0b3cce8e" y="303.700917"/>
     <use style="fill:#ff0000;stroke:#000000;stroke-linejoin:miter;" x="373.164218" xlink:href="#m4e0b3cce8e" y="304.067595"/>
     <use style="fill:#ff0000;stroke:#000000;stroke-linejoin:miter;" x="377.060073" xlink:href="#m4e0b3cce8e" y="304.387977"/>
     <use style="fill:#ff0000;stroke:#000000;stroke-linejoin:miter;" x="380.955927" xlink:href="#m4e0b3cce8e" y="304.661908"/>
     <use style="fill:#ff0000;stroke:#000000;stroke-linejoin:miter;" x="384.851782" xlink:href="#m4e0b3cce8e" y="304.894154"/>
     <use style="fill:#ff0000;stroke:#000000;stroke-linejoin:miter;" x="388.747636" xlink:href="#m4e0b3cce8e" y="305.092075"/>
     <use style="fill:#ff0000;stroke:#000000;stroke-linejoin:miter;" x="392.643491" xlink:href="#m4e0b3cce8e" y="305.26046"/>
     <use style="fill:#ff0000;stroke:#000000;stroke-linejoin:miter;" x="396.539345" xlink:href="#m4e0b3cce8e" y="305.406238"/>
     <use style="fill:#ff0000;stroke:#000000;stroke-linejoin:miter;" x="400.4352" xlink:href="#m4e0b3cce8e" y="305.532933"/>
     <use style="fill:#ff0000;stroke:#000000;stroke-linejoin:miter;" x="404.331055" xlink:href="#m4e0b3cce8e" y="305.643938"/>
     <use style="fill:#ff0000;stroke:#000000;stroke-linejoin:miter;" x="408.226909" xlink:href="#m4e0b3cce8e" y="305.742857"/>
    </g>
   </g>
   <g id="line2d_32">
    <path clip-path="url(#pde7c36b8fb)" d="M 57.6 307.584 
L 61.495855 275.650528 
L 65.391709 243.717056 
L 69.287564 211.783584 
L 73.183418 179.850112 
L 77.079273 147.91664 
L 80.975127 115.983168 
L 84.870982 84.049696 
L 88.766836 52.116225 
L 92.662691 74.299378 
L 96.558545 105.413908 
L 100.4544 127.285429 
L 104.350255 144.225377 
L 108.246109 158.131267 
L 112.141964 169.853463 
L 116.037818 179.947892 
L 119.933673 188.780608 
L 123.829527 196.607585 
L 127.725382 203.609485 
L 131.621236 209.968179 
L 135.517091 215.764316 
L 139.412945 221.058872 
L 143.3088 225.921903 
L 147.204655 230.406188 
L 151.100509 234.556822 
L 154.996364 238.411506 
L 158.892218 242.000785 
L 162.788073 245.354432 
L 166.683927 248.494293 
L 170.579782 251.440377 
L 174.475636 254.228446 
L 178.371491 256.859466 
L 182.267345 259.340687 
L 186.1632 261.684163 
L 190.059055 263.900582 
L 193.954909 265.999477 
L 197.850764 267.989382 
L 201.746618 269.877959 
L 205.642473 271.672112 
L 209.538327 273.378077 
L 213.434182 275.001499 
L 217.330036 276.547501 
L 221.225891 278.020744 
L 225.121745 279.425472 
L 229.0176 280.765559 
L 232.913455 282.043372 
L 236.809309 283.264497 
L 240.705164 284.430719 
L 244.601018 285.544745 
L 248.496873 286.609058 
L 252.392727 287.625933 
L 256.288582 288.597768 
L 260.184436 289.53043 
L 264.080291 290.420897 
L 267.976145 291.270844 
L 271.872 292.081788 
L 275.767855 292.855128 
L 279.663709 293.592164 
L 283.559564 294.294112 
L 287.455418 294.962121 
L 291.351273 295.597287 
L 295.247127 296.200671 
L 299.142982 296.773313 
L 303.038836 297.315171 
L 306.934691 297.829521 
L 310.830545 298.316234 
L 314.7264 298.776359 
L 318.622255 299.210962 
L 322.518109 299.621125 
L 326.413964 300.006895 
L 330.309818 300.37159 
L 334.205673 300.715123 
L 338.101527 301.03858 
L 341.997382 301.343036 
L 345.893236 301.629545 
L 349.789091 301.898198 
L 353.684945 302.151995 
L 357.5808 302.390816 
L 361.476655 302.615577 
L 365.372509 303.020728 
L 369.268364 303.459316 
L 373.164218 303.903237 
L 377.060073 304.316649 
L 380.955927 304.673045 
L 384.851782 304.96875 
L 388.747636 305.212082 
L 392.643491 305.412885 
L 396.539345 305.58061 
L 400.4352 305.723344 
L 404.331055 305.845856 
L 408.226909 305.952257 
" style="fill:none;stroke:#000000;stroke-linecap:square;stroke-width:2;"/>
    <defs>
     <path d="M -2.5 2.5 
L 2.5 -2.5 
M -2.5 -2.5 
L 2.5 2.5 
" id="m24ed9a22cc" style="stroke:#000000;"/>
    </defs>
    <g clip-path="url(#pde7c36b8fb)">
     <use style="fill:#ff0000;stroke:#000000;" x="57.6" xlink:href="#m24ed9a22cc" y="307.584"/>
     <use style="fill:#ff0000;stroke:#000000;" x="61.495855" xlink:href="#m24ed9a22cc" y="275.650528"/>
     <use style="fill:#ff0000;stroke:#000000;" x="65.391709" xlink:href="#m24ed9a22cc" y="243.717056"/>
     <use style="fill:#ff0000;stroke:#000000;" x="69.287564" xlink:href="#m24ed9a22cc" y="211.783584"/>
     <use style="fill:#ff0000;stroke:#000000;" x="73.183418" xlink:href="#m24ed9a22cc" y="179.850112"/>
     <use style="fill:#ff0000;stroke:#000000;" x="77.079273" xlink:href="#m24ed9a22cc" y="147.91664"/>
     <use style="fill:#ff0000;stroke:#000000;" x="80.975127" xlink:href="#m24ed9a22cc" y="115.983168"/>
     <use style="fill:#ff0000;stroke:#000000;" x="84.870982" xlink:href="#m24ed9a22cc" y="84.049696"/>
     <use style="fill:#ff0000;stroke:#000000;" x="88.766836" xlink:href="#m24ed9a22cc" y="52.116225"/>
     <use style="fill:#ff0000;stroke:#000000;" x="92.662691" xlink:href="#m24ed9a22cc" y="74.299378"/>
     <use style="fill:#ff0000;stroke:#000000;" x="96.558545" xlink:href="#m24ed9a22cc" y="105.413908"/>
     <use style="fill:#ff0000;stroke:#000000;" x="100.4544" xlink:href="#m24ed9a22cc" y="127.285429"/>
     <use style="fill:#ff0000;stroke:#000000;" x="104.350255" xlink:href="#m24ed9a22cc" y="144.225377"/>
     <use style="fill:#ff0000;stroke:#000000;" x="108.246109" xlink:href="#m24ed9a22cc" y="158.131267"/>
     <use style="fill:#ff0000;stroke:#000000;" x="112.141964" xlink:href="#m24ed9a22cc" y="169.853463"/>
     <use style="fill:#ff0000;stroke:#000000;" x="116.037818" xlink:href="#m24ed9a22cc" y="179.947892"/>
     <use style="fill:#ff0000;stroke:#000000;" x="119.933673" xlink:href="#m24ed9a22cc" y="188.780608"/>
     <use style="fill:#ff0000;stroke:#000000;" x="123.829527" xlink:href="#m24ed9a22cc" y="196.607585"/>
     <use style="fill:#ff0000;stroke:#000000;" x="127.725382" xlink:href="#m24ed9a22cc" y="203.609485"/>
     <use style="fill:#ff0000;stroke:#000000;" x="131.621236" xlink:href="#m24ed9a22cc" y="209.968179"/>
     <use style="fill:#ff0000;stroke:#000000;" x="135.517091" xlink:href="#m24ed9a22cc" y="215.764316"/>
     <use style="fill:#ff0000;stroke:#000000;" x="139.412945" xlink:href="#m24ed9a22cc" y="221.058872"/>
     <use style="fill:#ff0000;stroke:#000000;" x="143.3088" xlink:href="#m24ed9a22cc" y="225.921903"/>
     <use style="fill:#ff0000;stroke:#000000;" x="147.204655" xlink:href="#m24ed9a22cc" y="230.406188"/>
     <use style="fill:#ff0000;stroke:#000000;" x="151.100509" xlink:href="#m24ed9a22cc" y="234.556822"/>
     <use style="fill:#ff0000;stroke:#000000;" x="154.996364" xlink:href="#m24ed9a22cc" y="238.411506"/>
     <use style="fill:#ff0000;stroke:#000000;" x="158.892218" xlink:href="#m24ed9a22cc" y="242.000785"/>
     <use style="fill:#ff0000;stroke:#000000;" x="162.788073" xlink:href="#m24ed9a22cc" y="245.354432"/>
     <use style="fill:#ff0000;stroke:#000000;" x="166.683927" xlink:href="#m24ed9a22cc" y="248.494293"/>
     <use style="fill:#ff0000;stroke:#000000;" x="170.579782" xlink:href="#m24ed9a22cc" y="251.440377"/>
     <use style="fill:#ff0000;stroke:#000000;" x="174.475636" xlink:href="#m24ed9a22cc" y="254.228446"/>
     <use style="fill:#ff0000;stroke:#000000;" x="178.371491" xlink:href="#m24ed9a22cc" y="256.859466"/>
     <use style="fill:#ff0000;stroke:#000000;" x="182.267345" xlink:href="#m24ed9a22cc" y="259.340687"/>
     <use style="fill:#ff0000;stroke:#000000;" x="186.1632" xlink:href="#m24ed9a22cc" y="261.684163"/>
     <use style="fill:#ff0000;stroke:#000000;" x="190.059055" xlink:href="#m24ed9a22cc" y="263.900582"/>
     <use style="fill:#ff0000;stroke:#000000;" x="193.954909" xlink:href="#m24ed9a22cc" y="265.999477"/>
     <use style="fill:#ff0000;stroke:#000000;" x="197.850764" xlink:href="#m24ed9a22cc" y="267.989382"/>
     <use style="fill:#ff0000;stroke:#000000;" x="201.746618" xlink:href="#m24ed9a22cc" y="269.877959"/>
     <use style="fill:#ff0000;stroke:#000000;" x="205.642473" xlink:href="#m24ed9a22cc" y="271.672112"/>
     <use style="fill:#ff0000;stroke:#000000;" x="209.538327" xlink:href="#m24ed9a22cc" y="273.378077"/>
     <use style="fill:#ff0000;stroke:#000000;" x="213.434182" xlink:href="#m24ed9a22cc" y="275.001499"/>
     <use style="fill:#ff0000;stroke:#000000;" x="217.330036" xlink:href="#m24ed9a22cc" y="276.547501"/>
     <use style="fill:#ff0000;stroke:#000000;" x="221.225891" xlink:href="#m24ed9a22cc" y="278.020744"/>
     <use style="fill:#ff0000;stroke:#000000;" x="225.121745" xlink:href="#m24ed9a22cc" y="279.425472"/>
     <use style="fill:#ff0000;stroke:#000000;" x="229.0176" xlink:href="#m24ed9a22cc" y="280.765559"/>
     <use style="fill:#ff0000;stroke:#000000;" x="232.913455" xlink:href="#m24ed9a22cc" y="282.043372"/>
     <use style="fill:#ff0000;stroke:#000000;" x="236.809309" xlink:href="#m24ed9a22cc" y="283.264497"/>
     <use style="fill:#ff0000;stroke:#000000;" x="240.705164" xlink:href="#m24ed9a22cc" y="284.430719"/>
     <use style="fill:#ff0000;stroke:#000000;" x="244.601018" xlink:href="#m24ed9a22cc" y="285.544745"/>
     <use style="fill:#ff0000;stroke:#000000;" x="248.496873" xlink:href="#m24ed9a22cc" y="286.609058"/>
     <use style="fill:#ff0000;stroke:#000000;" x="252.392727" xlink:href="#m24ed9a22cc" y="287.625933"/>
     <use style="fill:#ff0000;stroke:#000000;" x="256.288582" xlink:href="#m24ed9a22cc" y="288.597768"/>
     <use style="fill:#ff0000;stroke:#000000;" x="260.184436" xlink:href="#m24ed9a22cc" y="289.53043"/>
     <use style="fill:#ff0000;stroke:#000000;" x="264.080291" xlink:href="#m24ed9a22cc" y="290.420897"/>
     <use style="fill:#ff0000;stroke:#000000;" x="267.976145" xlink:href="#m24ed9a22cc" y="291.270844"/>
     <use style="fill:#ff0000;stroke:#000000;" x="271.872" xlink:href="#m24ed9a22cc" y="292.081788"/>
     <use style="fill:#ff0000;stroke:#000000;" x="275.767855" xlink:href="#m24ed9a22cc" y="292.855128"/>
     <use style="fill:#ff0000;stroke:#000000;" x="279.663709" xlink:href="#m24ed9a22cc" y="293.592164"/>
     <use style="fill:#ff0000;stroke:#000000;" x="283.559564" xlink:href="#m24ed9a22cc" y="294.294112"/>
     <use style="fill:#ff0000;stroke:#000000;" x="287.455418" xlink:href="#m24ed9a22cc" y="294.962121"/>
     <use style="fill:#ff0000;stroke:#000000;" x="291.351273" xlink:href="#m24ed9a22cc" y="295.597287"/>
     <use style="fill:#ff0000;stroke:#000000;" x="295.247127" xlink:href="#m24ed9a22cc" y="296.200671"/>
     <use style="fill:#ff0000;stroke:#000000;" x="299.142982" xlink:href="#m24ed9a22cc" y="296.773313"/>
     <use style="fill:#ff0000;stroke:#000000;" x="303.038836" xlink:href="#m24ed9a22cc" y="297.315171"/>
     <use style="fill:#ff0000;stroke:#000000;" x="306.934691" xlink:href="#m24ed9a22cc" y="297.829521"/>
     <use style="fill:#ff0000;stroke:#000000;" x="310.830545" xlink:href="#m24ed9a22cc" y="298.316234"/>
     <use style="fill:#ff0000;stroke:#000000;" x="314.7264" xlink:href="#m24ed9a22cc" y="298.776359"/>
     <use style="fill:#ff0000;stroke:#000000;" x="318.622255" xlink:href="#m24ed9a22cc" y="299.210962"/>
     <use style="fill:#ff0000;stroke:#000000;" x="322.518109" xlink:href="#m24ed9a22cc" y="299.621125"/>
     <use style="fill:#ff0000;stroke:#000000;" x="326.413964" xlink:href="#m24ed9a22cc" y="300.006895"/>
     <use style="fill:#ff0000;stroke:#000000;" x="330.309818" xlink:href="#m24ed9a22cc" y="300.37159"/>
     <use style="fill:#ff0000;stroke:#000000;" x="334.205673" xlink:href="#m24ed9a22cc" y="300.715123"/>
     <use style="fill:#ff0000;stroke:#000000;" x="338.101527" xlink:href="#m24ed9a22cc" y="301.03858"/>
     <use style="fill:#ff0000;stroke:#000000;" x="341.997382" xlink:href="#m24ed9a22cc" y="301.343036"/>
     <use style="fill:#ff0000;stroke:#000000;" x="345.893236" xlink:href="#m24ed9a22cc" y="301.629545"/>
     <use style="fill:#ff0000;stroke:#000000;" x="349.789091" xlink:href="#m24ed9a22cc" y="301.898198"/>
     <use style="fill:#ff0000;stroke:#000000;" x="353.684945" xlink:href="#m24ed9a22cc" y="302.151995"/>
     <use style="fill:#ff0000;stroke:#000000;" x="357.5808" xlink:href="#m24ed9a22cc" y="302.390816"/>
     <use style="fill:#ff0000;stroke:#000000;" x="361.476655" xlink:href="#m24ed9a22cc" y="302.615577"/>
     <use style="fill:#ff0000;stroke:#000000;" x="365.372509" xlink:href="#m24ed9a22cc" y="303.020728"/>
     <use style="fill:#ff0000;stroke:#000000;" x="369.268364" xlink:href="#m24ed9a22cc" y="303.459316"/>
     <use style="fill:#ff0000;stroke:#000000;" x="373.164218" xlink:href="#m24ed9a22cc" y="303.903237"/>
     <use style="fill:#ff0000;stroke:#000000;" x="377.060073" xlink:href="#m24ed9a22cc" y="304.316649"/>
     <use style="fill:#ff0000;stroke:#000000;" x="380.955927" xlink:href="#m24ed9a22cc" y="304.673045"/>
     <use style="fill:#ff0000;stroke:#000000;" x="384.851782" xlink:href="#m24ed9a22cc" y="304.96875"/>
     <use style="fill:#ff0000;stroke:#000000;" x="388.747636" xlink:href="#m24ed9a22cc" y="305.212082"/>
     <use style="fill:#ff0000;stroke:#000000;" x="392.643491" xlink:href="#m24ed9a22cc" y="305.412885"/>
     <use style="fill:#ff0000;stroke:#000000;" x="396.539345" xlink:href="#m24ed9a22cc" y="305.58061"/>
     <use style="fill:#ff0000;stroke:#000000;" x="400.4352" xlink:href="#m24ed9a22cc" y="305.723344"/>
     <use style="fill:#ff0000;stroke:#000000;" x="404.331055" xlink:href="#m24ed9a22cc" y="305.845856"/>
     <use style="fill:#ff0000;stroke:#000000;" x="408.226909" xlink:href="#m24ed9a22cc" y="305.952257"/>
    </g>
   </g>
   <g id="patch_3">
    <path d="M 57.6 307.584 
L 57.6 41.472 
" style="fill:none;stroke:#000000;stroke-linecap:square;stroke-linejoin:miter;stroke-width:0.8;"/>
   </g>
   <g id="patch_4">
    <path d="M 414.72 307.584 
L 414.72 41.472 
" style="fill:none;stroke:#000000;stroke-linecap:square;stroke-linejoin:miter;stroke-width:0.8;"/>
   </g>
   <g id="patch_5">
    <path d="M 57.6 307.584 
L 414.72 307.584 
" style="fill:none;stroke:#000000;stroke-linecap:square;stroke-linejoin:miter;stroke-width:0.8;"/>
   </g>
   <g id="patch_6">
    <path d="M 57.6 41.472 
L 414.72 41.472 
" style="fill:none;stroke:#000000;stroke-linecap:square;stroke-linejoin:miter;stroke-width:0.8;"/>
   </g>
   <g id="text_17">
    <!-- b/h = 10 -->
    <defs>
     <path d="M 48.6875 27.296875 
Q 48.6875 37.203125 44.609375 42.84375 
Q 40.53125 48.484375 33.40625 48.484375 
Q 26.265625 48.484375 22.1875 42.84375 
Q 18.109375 37.203125 18.109375 27.296875 
Q 18.109375 17.390625 22.1875 11.75 
Q 26.265625 6.109375 33.40625 6.109375 
Q 40.53125 6.109375 44.609375 11.75 
Q 48.6875 17.390625 48.6875 27.296875 
z
M 18.109375 46.390625 
Q 20.953125 51.265625 25.265625 53.625 
Q 29.59375 56 35.59375 56 
Q 45.5625 56 51.78125 48.09375 
Q 58.015625 40.1875 58.015625 27.296875 
Q 58.015625 14.40625 51.78125 6.484375 
Q 45.5625 -1.421875 35.59375 -1.421875 
Q 29.59375 -1.421875 25.265625 0.953125 
Q 20.953125 3.328125 18.109375 8.203125 
L 18.109375 0 
L 9.078125 0 
L 9.078125 75.984375 
L 18.109375 75.984375 
z
" id="DejaVuSans-98"/>
     <path d="M 25.390625 72.90625 
L 33.6875 72.90625 
L 8.296875 -9.28125 
L 0 -9.28125 
z
" id="DejaVuSans-47"/>
     <path d="M 54.890625 33.015625 
L 54.890625 0 
L 45.90625 0 
L 45.90625 32.71875 
Q 45.90625 40.484375 42.875 44.328125 
Q 39.84375 48.1875 33.796875 48.1875 
Q 26.515625 48.1875 22.3125 43.546875 
Q 18.109375 38.921875 18.109375 30.90625 
L 18.109375 0 
L 9.078125 0 
L 9.078125 75.984375 
L 18.109375 75.984375 
L 18.109375 46.1875 
Q 21.34375 51.125 25.703125 53.5625 
Q 30.078125 56 35.796875 56 
Q 45.21875 56 50.046875 50.171875 
Q 54.890625 44.34375 54.890625 33.015625 
z
" id="DejaVuSans-104"/>
     <path d="M 10.59375 45.40625 
L 73.1875 45.40625 
L 73.1875 37.203125 
L 10.59375 37.203125 
z
M 10.59375 25.484375 
L 73.1875 25.484375 
L 73.1875 17.1875 
L 10.59375 17.1875 
z
" id="DejaVuSans-61"/>
    </defs>
    <g transform="translate(210.050625 35.472)scale(0.12 -0.12)">
     <use xlink:href="#DejaVuSans-98"/>
     <use x="63.476562" xlink:href="#DejaVuSans-47"/>
     <use x="97.167969" xlink:href="#DejaVuSans-104"/>
     <use x="160.546875" xlink:href="#DejaVuSans-32"/>
     <use x="192.333984" xlink:href="#DejaVuSans-61"/>
     <use x="276.123047" xlink:href="#DejaVuSans-32"/>
     <use x="307.910156" xlink:href="#DejaVuSans-49"/>
     <use x="371.533203" xlink:href="#DejaVuSans-48"/>
    </g>
   </g>
   <g id="legend_1">
    <g id="patch_7">
     <path d="M 333.287188 109.297 
L 407.72 109.297 
Q 409.72 109.297 409.72 107.297 
L 409.72 48.472 
Q 409.72 46.472 407.72 46.472 
L 333.287188 46.472 
Q 331.287188 46.472 331.287188 48.472 
L 331.287188 107.297 
Q 331.287188 109.297 333.287188 109.297 
z
" style="fill:#ffffff;opacity:0.8;stroke:#cccccc;stroke-linejoin:miter;"/>
    </g>
    <g id="line2d_33">
     <path d="M 335.287188 54.570437 
L 355.287188 54.570437 
" style="fill:none;stroke:#000000;stroke-linecap:square;stroke-width:2;"/>
    </g>
    <g id="line2d_34">
     <g>
      <use style="fill:#ff0000;stroke:#000000;" x="345.287188" xlink:href="#m2b19f519be" y="54.570437"/>
     </g>
    </g>
    <g id="text_18">
     <!-- C_10_5 -->
     <defs>
      <path d="M 64.40625 67.28125 
L 64.40625 56.890625 
Q 59.421875 61.53125 53.78125 63.8125 
Q 48.140625 66.109375 41.796875 66.109375 
Q 29.296875 66.109375 22.65625 58.46875 
Q 16.015625 50.828125 16.015625 36.375 
Q 16.015625 21.96875 22.65625 14.328125 
Q 29.296875 6.6875 41.796875 6.6875 
Q 48.140625 6.6875 53.78125 8.984375 
Q 59.421875 11.28125 64.40625 15.921875 
L 64.40625 5.609375 
Q 59.234375 2.09375 53.4375 0.328125 
Q 47.65625 -1.421875 41.21875 -1.421875 
Q 24.65625 -1.421875 15.125 8.703125 
Q 5.609375 18.84375 5.609375 36.375 
Q 5.609375 53.953125 15.125 64.078125 
Q 24.65625 74.21875 41.21875 74.21875 
Q 47.75 74.21875 53.53125 72.484375 
Q 59.328125 70.75 64.40625 67.28125 
z
" id="DejaVuSans-67"/>
      <path d="M 50.984375 -16.609375 
L 50.984375 -23.578125 
L -0.984375 -23.578125 
L -0.984375 -16.609375 
z
" id="DejaVuSans-95"/>
     </defs>
     <g transform="translate(363.287188 58.070437)scale(0.1 -0.1)">
      <use xlink:href="#DejaVuSans-67"/>
      <use x="69.824219" xlink:href="#DejaVuSans-95"/>
      <use x="119.824219" xlink:href="#DejaVuSans-49"/>
      <use x="183.447266" xlink:href="#DejaVuSans-48"/>
      <use x="247.070312" xlink:href="#DejaVuSans-95"/>
      <use x="297.070312" xlink:href="#DejaVuSans-53"/>
     </g>
    </g>
    <g id="line2d_35">
     <path d="M 335.287188 69.526687 
L 355.287188 69.526687 
" style="fill:none;stroke:#000000;stroke-linecap:square;stroke-width:2;"/>
    </g>
    <g id="line2d_36">
     <g>
      <use style="fill:#ff0000;stroke:#000000;stroke-linejoin:miter;" x="345.287188" xlink:href="#m3399e6f8e1" y="69.526687"/>
     </g>
    </g>
    <g id="text_19">
     <!-- C_10_10 -->
     <g transform="translate(363.287188 73.026687)scale(0.1 -0.1)">
      <use xlink:href="#DejaVuSans-67"/>
      <use x="69.824219" xlink:href="#DejaVuSans-95"/>
      <use x="119.824219" xlink:href="#DejaVuSans-49"/>
      <use x="183.447266" xlink:href="#DejaVuSans-48"/>
      <use x="247.070312" xlink:href="#DejaVuSans-95"/>
      <use x="297.070312" xlink:href="#DejaVuSans-49"/>
      <use x="360.693359" xlink:href="#DejaVuSans-48"/>
     </g>
    </g>
    <g id="line2d_37">
     <path d="M 335.287188 84.482937 
L 355.287188 84.482937 
" style="fill:none;stroke:#000000;stroke-linecap:square;stroke-width:2;"/>
    </g>
    <g id="line2d_38">
     <g>
      <use style="fill:#ff0000;stroke:#000000;stroke-linejoin:miter;" x="345.287188" xlink:href="#m4e0b3cce8e" y="84.482937"/>
     </g>
    </g>
    <g id="text_20">
     <!-- C_10_20 -->
     <g transform="translate(363.287188 87.982937)scale(0.1 -0.1)">
      <use xlink:href="#DejaVuSans-67"/>
      <use x="69.824219" xlink:href="#DejaVuSans-95"/>
      <use x="119.824219" xlink:href="#DejaVuSans-49"/>
      <use x="183.447266" xlink:href="#DejaVuSans-48"/>
      <use x="247.070312" xlink:href="#DejaVuSans-95"/>
      <use x="297.070312" xlink:href="#DejaVuSans-50"/>
      <use x="360.693359" xlink:href="#DejaVuSans-48"/>
     </g>
    </g>
    <g id="line2d_39">
     <path d="M 335.287188 99.439187 
L 355.287188 99.439187 
" style="fill:none;stroke:#000000;stroke-linecap:square;stroke-width:2;"/>
    </g>
    <g id="line2d_40">
     <g>
      <use style="fill:#ff0000;stroke:#000000;" x="345.287188" xlink:href="#m24ed9a22cc" y="99.439187"/>
     </g>
    </g>
    <g id="text_21">
     <!-- C_10_50 -->
     <g transform="translate(363.287188 102.939187)scale(0.1 -0.1)">
      <use xlink:href="#DejaVuSans-67"/>
      <use x="69.824219" xlink:href="#DejaVuSans-95"/>
      <use x="119.824219" xlink:href="#DejaVuSans-49"/>
      <use x="183.447266" xlink:href="#DejaVuSans-48"/>
      <use x="247.070312" xlink:href="#DejaVuSans-95"/>
      <use x="297.070312" xlink:href="#DejaVuSans-53"/>
      <use x="360.693359" xlink:href="#DejaVuSans-48"/>
     </g>
    </g>
   </g>
  </g>
 </g>
 <defs>
  <clipPath id="pde7c36b8fb">
   <rect height="266.112" width="357.12" x="57.6" y="41.472"/>
  </clipPath>
 </defs>
</svg>
