<?xml version="1.0" encoding="utf-8" standalone="no"?>
<!DOCTYPE svg PUBLIC "-//W3C//DTD SVG 1.1//EN"
  "http://www.w3.org/Graphics/SVG/1.1/DTD/svg11.dtd">
<!-- Created with matplotlib (https://matplotlib.org/) -->
<svg height="345.6pt" version="1.1" viewBox="0 0 460.8 345.6" width="460.8pt" xmlns="http://www.w3.org/2000/svg" xmlns:xlink="http://www.w3.org/1999/xlink">
 <defs>
  <style type="text/css">
*{stroke-linecap:butt;stroke-linejoin:round;}
  </style>
 </defs>
 <g id="figure_1">
  <g id="patch_1">
   <path d="M 0 345.6 
L 460.8 345.6 
L 460.8 0 
L 0 0 
z
" style="fill:#ffffff;"/>
  </g>
  <g id="axes_1">
   <g id="patch_2">
    <path d="M 57.6 307.584 
L 414.72 307.584 
L 414.72 41.472 
L 57.6 41.472 
z
" style="fill:#ffffff;"/>
   </g>
   <g id="matplotlib.axis_1">
    <g id="xtick_1">
     <g id="line2d_1">
      <path clip-path="url(#p7d754157d2)" d="M 57.6 307.584 
L 57.6 41.472 
" style="fill:none;stroke:#b0b0b0;stroke-linecap:square;stroke-width:0.8;"/>
     </g>
     <g id="line2d_2">
      <defs>
       <path d="M 0 0 
L 0 3.5 
" id="mf0e3f22462" style="stroke:#000000;stroke-width:0.8;"/>
      </defs>
      <g>
       <use style="stroke:#000000;stroke-width:0.8;" x="57.6" xlink:href="#mf0e3f22462" y="307.584"/>
      </g>
     </g>
     <g id="text_1">
      <!-- 0.00 -->
      <defs>
       <path d="M 31.78125 66.40625 
Q 24.171875 66.40625 20.328125 58.90625 
Q 16.5 51.421875 16.5 36.375 
Q 16.5 21.390625 20.328125 13.890625 
Q 24.171875 6.390625 31.78125 6.390625 
Q 39.453125 6.390625 43.28125 13.890625 
Q 47.125 21.390625 47.125 36.375 
Q 47.125 51.421875 43.28125 58.90625 
Q 39.453125 66.40625 31.78125 66.40625 
z
M 31.78125 74.21875 
Q 44.046875 74.21875 50.515625 64.515625 
Q 56.984375 54.828125 56.984375 36.375 
Q 56.984375 17.96875 50.515625 8.265625 
Q 44.046875 -1.421875 31.78125 -1.421875 
Q 19.53125 -1.421875 13.0625 8.265625 
Q 6.59375 17.96875 6.59375 36.375 
Q 6.59375 54.828125 13.0625 64.515625 
Q 19.53125 74.21875 31.78125 74.21875 
z
" id="DejaVuSans-48"/>
       <path d="M 10.6875 12.40625 
L 21 12.40625 
L 21 0 
L 10.6875 0 
z
" id="DejaVuSans-46"/>
      </defs>
      <g transform="translate(46.467188 322.182437)scale(0.1 -0.1)">
       <use xlink:href="#DejaVuSans-48"/>
       <use x="63.623047" xlink:href="#DejaVuSans-46"/>
       <use x="95.410156" xlink:href="#DejaVuSans-48"/>
       <use x="159.033203" xlink:href="#DejaVuSans-48"/>
      </g>
     </g>
    </g>
    <g id="xtick_2">
     <g id="line2d_3">
      <path clip-path="url(#p7d754157d2)" d="M 122.530909 307.584 
L 122.530909 41.472 
" style="fill:none;stroke:#b0b0b0;stroke-linecap:square;stroke-width:0.8;"/>
     </g>
     <g id="line2d_4">
      <g>
       <use style="stroke:#000000;stroke-width:0.8;" x="122.530909" xlink:href="#mf0e3f22462" y="307.584"/>
      </g>
     </g>
     <g id="text_2">
      <!-- 0.04 -->
      <defs>
       <path d="M 37.796875 64.3125 
L 12.890625 25.390625 
L 37.796875 25.390625 
z
M 35.203125 72.90625 
L 47.609375 72.90625 
L 47.609375 25.390625 
L 58.015625 25.390625 
L 58.015625 17.1875 
L 47.609375 17.1875 
L 47.609375 0 
L 37.796875 0 
L 37.796875 17.1875 
L 4.890625 17.1875 
L 4.890625 26.703125 
z
" id="DejaVuSans-52"/>
      </defs>
      <g transform="translate(111.398097 322.182437)scale(0.1 -0.1)">
       <use xlink:href="#DejaVuSans-48"/>
       <use x="63.623047" xlink:href="#DejaVuSans-46"/>
       <use x="95.410156" xlink:href="#DejaVuSans-48"/>
       <use x="159.033203" xlink:href="#DejaVuSans-52"/>
      </g>
     </g>
    </g>
    <g id="xtick_3">
     <g id="line2d_5">
      <path clip-path="url(#p7d754157d2)" d="M 187.461818 307.584 
L 187.461818 41.472 
" style="fill:none;stroke:#b0b0b0;stroke-linecap:square;stroke-width:0.8;"/>
     </g>
     <g id="line2d_6">
      <g>
       <use style="stroke:#000000;stroke-width:0.8;" x="187.461818" xlink:href="#mf0e3f22462" y="307.584"/>
      </g>
     </g>
     <g id="text_3">
      <!-- 0.08 -->
      <defs>
       <path d="M 31.78125 34.625 
Q 24.75 34.625 20.71875 30.859375 
Q 16.703125 27.09375 16.703125 20.515625 
Q 16.703125 13.921875 20.71875 10.15625 
Q 24.75 6.390625 31.78125 6.390625 
Q 38.8125 6.390625 42.859375 10.171875 
Q 46.921875 13.96875 46.921875 20.515625 
Q 46.921875 27.09375 42.890625 30.859375 
Q 38.875 34.625 31.78125 34.625 
z
M 21.921875 38.8125 
Q 15.578125 40.375 12.03125 44.71875 
Q 8.5 49.078125 8.5 55.328125 
Q 8.5 64.0625 14.71875 69.140625 
Q 20.953125 74.21875 31.78125 74.21875 
Q 42.671875 74.21875 48.875 69.140625 
Q 55.078125 64.0625 55.078125 55.328125 
Q 55.078125 49.078125 51.53125 44.71875 
Q 48 40.375 41.703125 38.8125 
Q 48.828125 37.15625 52.796875 32.3125 
Q 56.78125 27.484375 56.78125 20.515625 
Q 56.78125 9.90625 50.3125 4.234375 
Q 43.84375 -1.421875 31.78125 -1.421875 
Q 19.734375 -1.421875 13.25 4.234375 
Q 6.78125 9.90625 6.78125 20.515625 
Q 6.78125 27.484375 10.78125 32.3125 
Q 14.796875 37.15625 21.921875 38.8125 
z
M 18.3125 54.390625 
Q 18.3125 48.734375 21.84375 45.5625 
Q 25.390625 42.390625 31.78125 42.390625 
Q 38.140625 42.390625 41.71875 45.5625 
Q 45.3125 48.734375 45.3125 54.390625 
Q 45.3125 60.0625 41.71875 63.234375 
Q 38.140625 66.40625 31.78125 66.40625 
Q 25.390625 66.40625 21.84375 63.234375 
Q 18.3125 60.0625 18.3125 54.390625 
z
" id="DejaVuSans-56"/>
      </defs>
      <g transform="translate(176.329006 322.182437)scale(0.1 -0.1)">
       <use xlink:href="#DejaVuSans-48"/>
       <use x="63.623047" xlink:href="#DejaVuSans-46"/>
       <use x="95.410156" xlink:href="#DejaVuSans-48"/>
       <use x="159.033203" xlink:href="#DejaVuSans-56"/>
      </g>
     </g>
    </g>
    <g id="xtick_4">
     <g id="line2d_7">
      <path clip-path="url(#p7d754157d2)" d="M 252.392727 307.584 
L 252.392727 41.472 
" style="fill:none;stroke:#b0b0b0;stroke-linecap:square;stroke-width:0.8;"/>
     </g>
     <g id="line2d_8">
      <g>
       <use style="stroke:#000000;stroke-width:0.8;" x="252.392727" xlink:href="#mf0e3f22462" y="307.584"/>
      </g>
     </g>
     <g id="text_4">
      <!-- 0.12 -->
      <defs>
       <path d="M 12.40625 8.296875 
L 28.515625 8.296875 
L 28.515625 63.921875 
L 10.984375 60.40625 
L 10.984375 69.390625 
L 28.421875 72.90625 
L 38.28125 72.90625 
L 38.28125 8.296875 
L 54.390625 8.296875 
L 54.390625 0 
L 12.40625 0 
z
" id="DejaVuSans-49"/>
       <path d="M 19.1875 8.296875 
L 53.609375 8.296875 
L 53.609375 0 
L 7.328125 0 
L 7.328125 8.296875 
Q 12.9375 14.109375 22.625 23.890625 
Q 32.328125 33.6875 34.8125 36.53125 
Q 39.546875 41.84375 41.421875 45.53125 
Q 43.3125 49.21875 43.3125 52.78125 
Q 43.3125 58.59375 39.234375 62.25 
Q 35.15625 65.921875 28.609375 65.921875 
Q 23.96875 65.921875 18.8125 64.3125 
Q 13.671875 62.703125 7.8125 59.421875 
L 7.8125 69.390625 
Q 13.765625 71.78125 18.9375 73 
Q 24.125 74.21875 28.421875 74.21875 
Q 39.75 74.21875 46.484375 68.546875 
Q 53.21875 62.890625 53.21875 53.421875 
Q 53.21875 48.921875 51.53125 44.890625 
Q 49.859375 40.875 45.40625 35.40625 
Q 44.1875 33.984375 37.640625 27.21875 
Q 31.109375 20.453125 19.1875 8.296875 
z
" id="DejaVuSans-50"/>
      </defs>
      <g transform="translate(241.259915 322.182437)scale(0.1 -0.1)">
       <use xlink:href="#DejaVuSans-48"/>
       <use x="63.623047" xlink:href="#DejaVuSans-46"/>
       <use x="95.410156" xlink:href="#DejaVuSans-49"/>
       <use x="159.033203" xlink:href="#DejaVuSans-50"/>
      </g>
     </g>
    </g>
    <g id="xtick_5">
     <g id="line2d_9">
      <path clip-path="url(#p7d754157d2)" d="M 317.323636 307.584 
L 317.323636 41.472 
" style="fill:none;stroke:#b0b0b0;stroke-linecap:square;stroke-width:0.8;"/>
     </g>
     <g id="line2d_10">
      <g>
       <use style="stroke:#000000;stroke-width:0.8;" x="317.323636" xlink:href="#mf0e3f22462" y="307.584"/>
      </g>
     </g>
     <g id="text_5">
      <!-- 0.16 -->
      <defs>
       <path d="M 33.015625 40.375 
Q 26.375 40.375 22.484375 35.828125 
Q 18.609375 31.296875 18.609375 23.390625 
Q 18.609375 15.53125 22.484375 10.953125 
Q 26.375 6.390625 33.015625 6.390625 
Q 39.65625 6.390625 43.53125 10.953125 
Q 47.40625 15.53125 47.40625 23.390625 
Q 47.40625 31.296875 43.53125 35.828125 
Q 39.65625 40.375 33.015625 40.375 
z
M 52.59375 71.296875 
L 52.59375 62.3125 
Q 48.875 64.0625 45.09375 64.984375 
Q 41.3125 65.921875 37.59375 65.921875 
Q 27.828125 65.921875 22.671875 59.328125 
Q 17.53125 52.734375 16.796875 39.40625 
Q 19.671875 43.65625 24.015625 45.921875 
Q 28.375 48.1875 33.59375 48.1875 
Q 44.578125 48.1875 50.953125 41.515625 
Q 57.328125 34.859375 57.328125 23.390625 
Q 57.328125 12.15625 50.6875 5.359375 
Q 44.046875 -1.421875 33.015625 -1.421875 
Q 20.359375 -1.421875 13.671875 8.265625 
Q 6.984375 17.96875 6.984375 36.375 
Q 6.984375 53.65625 15.1875 63.9375 
Q 23.390625 74.21875 37.203125 74.21875 
Q 40.921875 74.21875 44.703125 73.484375 
Q 48.484375 72.75 52.59375 71.296875 
z
" id="DejaVuSans-54"/>
      </defs>
      <g transform="translate(306.190824 322.182437)scale(0.1 -0.1)">
       <use xlink:href="#DejaVuSans-48"/>
       <use x="63.623047" xlink:href="#DejaVuSans-46"/>
       <use x="95.410156" xlink:href="#DejaVuSans-49"/>
       <use x="159.033203" xlink:href="#DejaVuSans-54"/>
      </g>
     </g>
    </g>
    <g id="xtick_6">
     <g id="line2d_11">
      <path clip-path="url(#p7d754157d2)" d="M 382.254545 307.584 
L 382.254545 41.472 
" style="fill:none;stroke:#b0b0b0;stroke-linecap:square;stroke-width:0.8;"/>
     </g>
     <g id="line2d_12">
      <g>
       <use style="stroke:#000000;stroke-width:0.8;" x="382.254545" xlink:href="#mf0e3f22462" y="307.584"/>
      </g>
     </g>
     <g id="text_6">
      <!-- 0.20 -->
      <g transform="translate(371.121733 322.182437)scale(0.1 -0.1)">
       <use xlink:href="#DejaVuSans-48"/>
       <use x="63.623047" xlink:href="#DejaVuSans-46"/>
       <use x="95.410156" xlink:href="#DejaVuSans-50"/>
       <use x="159.033203" xlink:href="#DejaVuSans-48"/>
      </g>
     </g>
    </g>
    <g id="xtick_7">
     <g id="line2d_13">
      <path clip-path="url(#p7d754157d2)" d="M 414.72 307.584 
L 414.72 41.472 
" style="fill:none;stroke:#b0b0b0;stroke-linecap:square;stroke-width:0.8;"/>
     </g>
     <g id="line2d_14">
      <g>
       <use style="stroke:#000000;stroke-width:0.8;" x="414.72" xlink:href="#mf0e3f22462" y="307.584"/>
      </g>
     </g>
     <g id="text_7">
      <!-- 0.22 -->
      <g transform="translate(403.587188 322.182437)scale(0.1 -0.1)">
       <use xlink:href="#DejaVuSans-48"/>
       <use x="63.623047" xlink:href="#DejaVuSans-46"/>
       <use x="95.410156" xlink:href="#DejaVuSans-50"/>
       <use x="159.033203" xlink:href="#DejaVuSans-50"/>
      </g>
     </g>
    </g>
    <g id="text_8">
     <!-- Displacement (mm) -->
     <defs>
      <path d="M 19.671875 64.796875 
L 19.671875 8.109375 
L 31.59375 8.109375 
Q 46.6875 8.109375 53.6875 14.9375 
Q 60.6875 21.78125 60.6875 36.53125 
Q 60.6875 51.171875 53.6875 57.984375 
Q 46.6875 64.796875 31.59375 64.796875 
z
M 9.8125 72.90625 
L 30.078125 72.90625 
Q 51.265625 72.90625 61.171875 64.09375 
Q 71.09375 55.28125 71.09375 36.53125 
Q 71.09375 17.671875 61.125 8.828125 
Q 51.171875 0 30.078125 0 
L 9.8125 0 
z
" id="DejaVuSans-68"/>
      <path d="M 9.421875 54.6875 
L 18.40625 54.6875 
L 18.40625 0 
L 9.421875 0 
z
M 9.421875 75.984375 
L 18.40625 75.984375 
L 18.40625 64.59375 
L 9.421875 64.59375 
z
" id="DejaVuSans-105"/>
      <path d="M 44.28125 53.078125 
L 44.28125 44.578125 
Q 40.484375 46.53125 36.375 47.5 
Q 32.28125 48.484375 27.875 48.484375 
Q 21.1875 48.484375 17.84375 46.4375 
Q 14.5 44.390625 14.5 40.28125 
Q 14.5 37.15625 16.890625 35.375 
Q 19.28125 33.59375 26.515625 31.984375 
L 29.59375 31.296875 
Q 39.15625 29.25 43.1875 25.515625 
Q 47.21875 21.78125 47.21875 15.09375 
Q 47.21875 7.46875 41.1875 3.015625 
Q 35.15625 -1.421875 24.609375 -1.421875 
Q 20.21875 -1.421875 15.453125 -0.5625 
Q 10.6875 0.296875 5.421875 2 
L 5.421875 11.28125 
Q 10.40625 8.6875 15.234375 7.390625 
Q 20.0625 6.109375 24.8125 6.109375 
Q 31.15625 6.109375 34.5625 8.28125 
Q 37.984375 10.453125 37.984375 14.40625 
Q 37.984375 18.0625 35.515625 20.015625 
Q 33.0625 21.96875 24.703125 23.78125 
L 21.578125 24.515625 
Q 13.234375 26.265625 9.515625 29.90625 
Q 5.8125 33.546875 5.8125 39.890625 
Q 5.8125 47.609375 11.28125 51.796875 
Q 16.75 56 26.8125 56 
Q 31.78125 56 36.171875 55.265625 
Q 40.578125 54.546875 44.28125 53.078125 
z
" id="DejaVuSans-115"/>
      <path d="M 18.109375 8.203125 
L 18.109375 -20.796875 
L 9.078125 -20.796875 
L 9.078125 54.6875 
L 18.109375 54.6875 
L 18.109375 46.390625 
Q 20.953125 51.265625 25.265625 53.625 
Q 29.59375 56 35.59375 56 
Q 45.5625 56 51.78125 48.09375 
Q 58.015625 40.1875 58.015625 27.296875 
Q 58.015625 14.40625 51.78125 6.484375 
Q 45.5625 -1.421875 35.59375 -1.421875 
Q 29.59375 -1.421875 25.265625 0.953125 
Q 20.953125 3.328125 18.109375 8.203125 
z
M 48.6875 27.296875 
Q 48.6875 37.203125 44.609375 42.84375 
Q 40.53125 48.484375 33.40625 48.484375 
Q 26.265625 48.484375 22.1875 42.84375 
Q 18.109375 37.203125 18.109375 27.296875 
Q 18.109375 17.390625 22.1875 11.75 
Q 26.265625 6.109375 33.40625 6.109375 
Q 40.53125 6.109375 44.609375 11.75 
Q 48.6875 17.390625 48.6875 27.296875 
z
" id="DejaVuSans-112"/>
      <path d="M 9.421875 75.984375 
L 18.40625 75.984375 
L 18.40625 0 
L 9.421875 0 
z
" id="DejaVuSans-108"/>
      <path d="M 34.28125 27.484375 
Q 23.390625 27.484375 19.1875 25 
Q 14.984375 22.515625 14.984375 16.5 
Q 14.984375 11.71875 18.140625 8.90625 
Q 21.296875 6.109375 26.703125 6.109375 
Q 34.1875 6.109375 38.703125 11.40625 
Q 43.21875 16.703125 43.21875 25.484375 
L 43.21875 27.484375 
z
M 52.203125 31.203125 
L 52.203125 0 
L 43.21875 0 
L 43.21875 8.296875 
Q 40.140625 3.328125 35.546875 0.953125 
Q 30.953125 -1.421875 24.3125 -1.421875 
Q 15.921875 -1.421875 10.953125 3.296875 
Q 6 8.015625 6 15.921875 
Q 6 25.140625 12.171875 29.828125 
Q 18.359375 34.515625 30.609375 34.515625 
L 43.21875 34.515625 
L 43.21875 35.40625 
Q 43.21875 41.609375 39.140625 45 
Q 35.0625 48.390625 27.6875 48.390625 
Q 23 48.390625 18.546875 47.265625 
Q 14.109375 46.140625 10.015625 43.890625 
L 10.015625 52.203125 
Q 14.9375 54.109375 19.578125 55.046875 
Q 24.21875 56 28.609375 56 
Q 40.484375 56 46.34375 49.84375 
Q 52.203125 43.703125 52.203125 31.203125 
z
" id="DejaVuSans-97"/>
      <path d="M 48.78125 52.59375 
L 48.78125 44.1875 
Q 44.96875 46.296875 41.140625 47.34375 
Q 37.3125 48.390625 33.40625 48.390625 
Q 24.65625 48.390625 19.8125 42.84375 
Q 14.984375 37.3125 14.984375 27.296875 
Q 14.984375 17.28125 19.8125 11.734375 
Q 24.65625 6.203125 33.40625 6.203125 
Q 37.3125 6.203125 41.140625 7.25 
Q 44.96875 8.296875 48.78125 10.40625 
L 48.78125 2.09375 
Q 45.015625 0.34375 40.984375 -0.53125 
Q 36.96875 -1.421875 32.421875 -1.421875 
Q 20.0625 -1.421875 12.78125 6.34375 
Q 5.515625 14.109375 5.515625 27.296875 
Q 5.515625 40.671875 12.859375 48.328125 
Q 20.21875 56 33.015625 56 
Q 37.15625 56 41.109375 55.140625 
Q 45.0625 54.296875 48.78125 52.59375 
z
" id="DejaVuSans-99"/>
      <path d="M 56.203125 29.59375 
L 56.203125 25.203125 
L 14.890625 25.203125 
Q 15.484375 15.921875 20.484375 11.0625 
Q 25.484375 6.203125 34.421875 6.203125 
Q 39.59375 6.203125 44.453125 7.46875 
Q 49.3125 8.734375 54.109375 11.28125 
L 54.109375 2.78125 
Q 49.265625 0.734375 44.1875 -0.34375 
Q 39.109375 -1.421875 33.890625 -1.421875 
Q 20.796875 -1.421875 13.15625 6.1875 
Q 5.515625 13.8125 5.515625 26.8125 
Q 5.515625 40.234375 12.765625 48.109375 
Q 20.015625 56 32.328125 56 
Q 43.359375 56 49.78125 48.890625 
Q 56.203125 41.796875 56.203125 29.59375 
z
M 47.21875 32.234375 
Q 47.125 39.59375 43.09375 43.984375 
Q 39.0625 48.390625 32.421875 48.390625 
Q 24.90625 48.390625 20.390625 44.140625 
Q 15.875 39.890625 15.1875 32.171875 
z
" id="DejaVuSans-101"/>
      <path d="M 52 44.1875 
Q 55.375 50.25 60.0625 53.125 
Q 64.75 56 71.09375 56 
Q 79.640625 56 84.28125 50.015625 
Q 88.921875 44.046875 88.921875 33.015625 
L 88.921875 0 
L 79.890625 0 
L 79.890625 32.71875 
Q 79.890625 40.578125 77.09375 44.375 
Q 74.3125 48.1875 68.609375 48.1875 
Q 61.625 48.1875 57.5625 43.546875 
Q 53.515625 38.921875 53.515625 30.90625 
L 53.515625 0 
L 44.484375 0 
L 44.484375 32.71875 
Q 44.484375 40.625 41.703125 44.40625 
Q 38.921875 48.1875 33.109375 48.1875 
Q 26.21875 48.1875 22.15625 43.53125 
Q 18.109375 38.875 18.109375 30.90625 
L 18.109375 0 
L 9.078125 0 
L 9.078125 54.6875 
L 18.109375 54.6875 
L 18.109375 46.1875 
Q 21.1875 51.21875 25.484375 53.609375 
Q 29.78125 56 35.6875 56 
Q 41.65625 56 45.828125 52.96875 
Q 50 49.953125 52 44.1875 
z
" id="DejaVuSans-109"/>
      <path d="M 54.890625 33.015625 
L 54.890625 0 
L 45.90625 0 
L 45.90625 32.71875 
Q 45.90625 40.484375 42.875 44.328125 
Q 39.84375 48.1875 33.796875 48.1875 
Q 26.515625 48.1875 22.3125 43.546875 
Q 18.109375 38.921875 18.109375 30.90625 
L 18.109375 0 
L 9.078125 0 
L 9.078125 54.6875 
L 18.109375 54.6875 
L 18.109375 46.1875 
Q 21.34375 51.125 25.703125 53.5625 
Q 30.078125 56 35.796875 56 
Q 45.21875 56 50.046875 50.171875 
Q 54.890625 44.34375 54.890625 33.015625 
z
" id="DejaVuSans-110"/>
      <path d="M 18.3125 70.21875 
L 18.3125 54.6875 
L 36.8125 54.6875 
L 36.8125 47.703125 
L 18.3125 47.703125 
L 18.3125 18.015625 
Q 18.3125 11.328125 20.140625 9.421875 
Q 21.96875 7.515625 27.59375 7.515625 
L 36.8125 7.515625 
L 36.8125 0 
L 27.59375 0 
Q 17.1875 0 13.234375 3.875 
Q 9.28125 7.765625 9.28125 18.015625 
L 9.28125 47.703125 
L 2.6875 47.703125 
L 2.6875 54.6875 
L 9.28125 54.6875 
L 9.28125 70.21875 
z
" id="DejaVuSans-116"/>
      <path id="DejaVuSans-32"/>
      <path d="M 31 75.875 
Q 24.46875 64.65625 21.28125 53.65625 
Q 18.109375 42.671875 18.109375 31.390625 
Q 18.109375 20.125 21.3125 9.0625 
Q 24.515625 -2 31 -13.1875 
L 23.1875 -13.1875 
Q 15.875 -1.703125 12.234375 9.375 
Q 8.59375 20.453125 8.59375 31.390625 
Q 8.59375 42.28125 12.203125 53.3125 
Q 15.828125 64.359375 23.1875 75.875 
z
" id="DejaVuSans-40"/>
      <path d="M 8.015625 75.875 
L 15.828125 75.875 
Q 23.140625 64.359375 26.78125 53.3125 
Q 30.421875 42.28125 30.421875 31.390625 
Q 30.421875 20.453125 26.78125 9.375 
Q 23.140625 -1.703125 15.828125 -13.1875 
L 8.015625 -13.1875 
Q 14.5 -2 17.703125 9.0625 
Q 20.90625 20.125 20.90625 31.390625 
Q 20.90625 42.671875 17.703125 53.65625 
Q 14.5 64.65625 8.015625 75.875 
z
" id="DejaVuSans-41"/>
     </defs>
     <g transform="translate(186.556094 335.860562)scale(0.1 -0.1)">
      <use xlink:href="#DejaVuSans-68"/>
      <use x="77.001953" xlink:href="#DejaVuSans-105"/>
      <use x="104.785156" xlink:href="#DejaVuSans-115"/>
      <use x="156.884766" xlink:href="#DejaVuSans-112"/>
      <use x="220.361328" xlink:href="#DejaVuSans-108"/>
      <use x="248.144531" xlink:href="#DejaVuSans-97"/>
      <use x="309.423828" xlink:href="#DejaVuSans-99"/>
      <use x="364.404297" xlink:href="#DejaVuSans-101"/>
      <use x="425.927734" xlink:href="#DejaVuSans-109"/>
      <use x="523.339844" xlink:href="#DejaVuSans-101"/>
      <use x="584.863281" xlink:href="#DejaVuSans-110"/>
      <use x="648.242188" xlink:href="#DejaVuSans-116"/>
      <use x="687.451172" xlink:href="#DejaVuSans-32"/>
      <use x="719.238281" xlink:href="#DejaVuSans-40"/>
      <use x="758.251953" xlink:href="#DejaVuSans-109"/>
      <use x="855.664062" xlink:href="#DejaVuSans-109"/>
      <use x="953.076172" xlink:href="#DejaVuSans-41"/>
     </g>
    </g>
   </g>
   <g id="matplotlib.axis_2">
    <g id="ytick_1">
     <g id="line2d_15">
      <path clip-path="url(#p7d754157d2)" d="M 57.6 307.584 
L 414.72 307.584 
" style="fill:none;stroke:#b0b0b0;stroke-linecap:square;stroke-width:0.8;"/>
     </g>
     <g id="line2d_16">
      <defs>
       <path d="M 0 0 
L -3.5 0 
" id="m13218040b3" style="stroke:#000000;stroke-width:0.8;"/>
      </defs>
      <g>
       <use style="stroke:#000000;stroke-width:0.8;" x="57.6" xlink:href="#m13218040b3" y="307.584"/>
      </g>
     </g>
     <g id="text_9">
      <!-- 0.0 -->
      <g transform="translate(34.696875 311.383219)scale(0.1 -0.1)">
       <use xlink:href="#DejaVuSans-48"/>
       <use x="63.623047" xlink:href="#DejaVuSans-46"/>
       <use x="95.410156" xlink:href="#DejaVuSans-48"/>
      </g>
     </g>
    </g>
    <g id="ytick_2">
     <g id="line2d_17">
      <path clip-path="url(#p7d754157d2)" d="M 57.6 263.232 
L 414.72 263.232 
" style="fill:none;stroke:#b0b0b0;stroke-linecap:square;stroke-width:0.8;"/>
     </g>
     <g id="line2d_18">
      <g>
       <use style="stroke:#000000;stroke-width:0.8;" x="57.6" xlink:href="#m13218040b3" y="263.232"/>
      </g>
     </g>
     <g id="text_10">
      <!-- 0.5 -->
      <defs>
       <path d="M 10.796875 72.90625 
L 49.515625 72.90625 
L 49.515625 64.59375 
L 19.828125 64.59375 
L 19.828125 46.734375 
Q 21.96875 47.46875 24.109375 47.828125 
Q 26.265625 48.1875 28.421875 48.1875 
Q 40.625 48.1875 47.75 41.5 
Q 54.890625 34.8125 54.890625 23.390625 
Q 54.890625 11.625 47.5625 5.09375 
Q 40.234375 -1.421875 26.90625 -1.421875 
Q 22.3125 -1.421875 17.546875 -0.640625 
Q 12.796875 0.140625 7.71875 1.703125 
L 7.71875 11.625 
Q 12.109375 9.234375 16.796875 8.0625 
Q 21.484375 6.890625 26.703125 6.890625 
Q 35.15625 6.890625 40.078125 11.328125 
Q 45.015625 15.765625 45.015625 23.390625 
Q 45.015625 31 40.078125 35.4375 
Q 35.15625 39.890625 26.703125 39.890625 
Q 22.75 39.890625 18.8125 39.015625 
Q 14.890625 38.140625 10.796875 36.28125 
z
" id="DejaVuSans-53"/>
      </defs>
      <g transform="translate(34.696875 267.031219)scale(0.1 -0.1)">
       <use xlink:href="#DejaVuSans-48"/>
       <use x="63.623047" xlink:href="#DejaVuSans-46"/>
       <use x="95.410156" xlink:href="#DejaVuSans-53"/>
      </g>
     </g>
    </g>
    <g id="ytick_3">
     <g id="line2d_19">
      <path clip-path="url(#p7d754157d2)" d="M 57.6 218.88 
L 414.72 218.88 
" style="fill:none;stroke:#b0b0b0;stroke-linecap:square;stroke-width:0.8;"/>
     </g>
     <g id="line2d_20">
      <g>
       <use style="stroke:#000000;stroke-width:0.8;" x="57.6" xlink:href="#m13218040b3" y="218.88"/>
      </g>
     </g>
     <g id="text_11">
      <!-- 1.0 -->
      <g transform="translate(34.696875 222.679219)scale(0.1 -0.1)">
       <use xlink:href="#DejaVuSans-49"/>
       <use x="63.623047" xlink:href="#DejaVuSans-46"/>
       <use x="95.410156" xlink:href="#DejaVuSans-48"/>
      </g>
     </g>
    </g>
    <g id="ytick_4">
     <g id="line2d_21">
      <path clip-path="url(#p7d754157d2)" d="M 57.6 174.528 
L 414.72 174.528 
" style="fill:none;stroke:#b0b0b0;stroke-linecap:square;stroke-width:0.8;"/>
     </g>
     <g id="line2d_22">
      <g>
       <use style="stroke:#000000;stroke-width:0.8;" x="57.6" xlink:href="#m13218040b3" y="174.528"/>
      </g>
     </g>
     <g id="text_12">
      <!-- 1.5 -->
      <g transform="translate(34.696875 178.327219)scale(0.1 -0.1)">
       <use xlink:href="#DejaVuSans-49"/>
       <use x="63.623047" xlink:href="#DejaVuSans-46"/>
       <use x="95.410156" xlink:href="#DejaVuSans-53"/>
      </g>
     </g>
    </g>
    <g id="ytick_5">
     <g id="line2d_23">
      <path clip-path="url(#p7d754157d2)" d="M 57.6 130.176 
L 414.72 130.176 
" style="fill:none;stroke:#b0b0b0;stroke-linecap:square;stroke-width:0.8;"/>
     </g>
     <g id="line2d_24">
      <g>
       <use style="stroke:#000000;stroke-width:0.8;" x="57.6" xlink:href="#m13218040b3" y="130.176"/>
      </g>
     </g>
     <g id="text_13">
      <!-- 2.0 -->
      <g transform="translate(34.696875 133.975219)scale(0.1 -0.1)">
       <use xlink:href="#DejaVuSans-50"/>
       <use x="63.623047" xlink:href="#DejaVuSans-46"/>
       <use x="95.410156" xlink:href="#DejaVuSans-48"/>
      </g>
     </g>
    </g>
    <g id="ytick_6">
     <g id="line2d_25">
      <path clip-path="url(#p7d754157d2)" d="M 57.6 85.824 
L 414.72 85.824 
" style="fill:none;stroke:#b0b0b0;stroke-linecap:square;stroke-width:0.8;"/>
     </g>
     <g id="line2d_26">
      <g>
       <use style="stroke:#000000;stroke-width:0.8;" x="57.6" xlink:href="#m13218040b3" y="85.824"/>
      </g>
     </g>
     <g id="text_14">
      <!-- 2.5 -->
      <g transform="translate(34.696875 89.623219)scale(0.1 -0.1)">
       <use xlink:href="#DejaVuSans-50"/>
       <use x="63.623047" xlink:href="#DejaVuSans-46"/>
       <use x="95.410156" xlink:href="#DejaVuSans-53"/>
      </g>
     </g>
    </g>
    <g id="ytick_7">
     <g id="line2d_27">
      <path clip-path="url(#p7d754157d2)" d="M 57.6 41.472 
L 414.72 41.472 
" style="fill:none;stroke:#b0b0b0;stroke-linecap:square;stroke-width:0.8;"/>
     </g>
     <g id="line2d_28">
      <g>
       <use style="stroke:#000000;stroke-width:0.8;" x="57.6" xlink:href="#m13218040b3" y="41.472"/>
      </g>
     </g>
     <g id="text_15">
      <!-- 3.0 -->
      <defs>
       <path d="M 40.578125 39.3125 
Q 47.65625 37.796875 51.625 33 
Q 55.609375 28.21875 55.609375 21.1875 
Q 55.609375 10.40625 48.1875 4.484375 
Q 40.765625 -1.421875 27.09375 -1.421875 
Q 22.515625 -1.421875 17.65625 -0.515625 
Q 12.796875 0.390625 7.625 2.203125 
L 7.625 11.71875 
Q 11.71875 9.328125 16.59375 8.109375 
Q 21.484375 6.890625 26.8125 6.890625 
Q 36.078125 6.890625 40.9375 10.546875 
Q 45.796875 14.203125 45.796875 21.1875 
Q 45.796875 27.640625 41.28125 31.265625 
Q 36.765625 34.90625 28.71875 34.90625 
L 20.21875 34.90625 
L 20.21875 43.015625 
L 29.109375 43.015625 
Q 36.375 43.015625 40.234375 45.921875 
Q 44.09375 48.828125 44.09375 54.296875 
Q 44.09375 59.90625 40.109375 62.90625 
Q 36.140625 65.921875 28.71875 65.921875 
Q 24.65625 65.921875 20.015625 65.03125 
Q 15.375 64.15625 9.8125 62.3125 
L 9.8125 71.09375 
Q 15.4375 72.65625 20.34375 73.4375 
Q 25.25 74.21875 29.59375 74.21875 
Q 40.828125 74.21875 47.359375 69.109375 
Q 53.90625 64.015625 53.90625 55.328125 
Q 53.90625 49.265625 50.4375 45.09375 
Q 46.96875 40.921875 40.578125 39.3125 
z
" id="DejaVuSans-51"/>
      </defs>
      <g transform="translate(34.696875 45.271219)scale(0.1 -0.1)">
       <use xlink:href="#DejaVuSans-51"/>
       <use x="63.623047" xlink:href="#DejaVuSans-46"/>
       <use x="95.410156" xlink:href="#DejaVuSans-48"/>
      </g>
     </g>
    </g>
    <g id="text_16">
     <!-- Load (N) -->
     <defs>
      <path d="M 9.8125 72.90625 
L 19.671875 72.90625 
L 19.671875 8.296875 
L 55.171875 8.296875 
L 55.171875 0 
L 9.8125 0 
z
" id="DejaVuSans-76"/>
      <path d="M 30.609375 48.390625 
Q 23.390625 48.390625 19.1875 42.75 
Q 14.984375 37.109375 14.984375 27.296875 
Q 14.984375 17.484375 19.15625 11.84375 
Q 23.34375 6.203125 30.609375 6.203125 
Q 37.796875 6.203125 41.984375 11.859375 
Q 46.1875 17.53125 46.1875 27.296875 
Q 46.1875 37.015625 41.984375 42.703125 
Q 37.796875 48.390625 30.609375 48.390625 
z
M 30.609375 56 
Q 42.328125 56 49.015625 48.375 
Q 55.71875 40.765625 55.71875 27.296875 
Q 55.71875 13.875 49.015625 6.21875 
Q 42.328125 -1.421875 30.609375 -1.421875 
Q 18.84375 -1.421875 12.171875 6.21875 
Q 5.515625 13.875 5.515625 27.296875 
Q 5.515625 40.765625 12.171875 48.375 
Q 18.84375 56 30.609375 56 
z
" id="DejaVuSans-111"/>
      <path d="M 45.40625 46.390625 
L 45.40625 75.984375 
L 54.390625 75.984375 
L 54.390625 0 
L 45.40625 0 
L 45.40625 8.203125 
Q 42.578125 3.328125 38.25 0.953125 
Q 33.9375 -1.421875 27.875 -1.421875 
Q 17.96875 -1.421875 11.734375 6.484375 
Q 5.515625 14.40625 5.515625 27.296875 
Q 5.515625 40.1875 11.734375 48.09375 
Q 17.96875 56 27.875 56 
Q 33.9375 56 38.25 53.625 
Q 42.578125 51.265625 45.40625 46.390625 
z
M 14.796875 27.296875 
Q 14.796875 17.390625 18.875 11.75 
Q 22.953125 6.109375 30.078125 6.109375 
Q 37.203125 6.109375 41.296875 11.75 
Q 45.40625 17.390625 45.40625 27.296875 
Q 45.40625 37.203125 41.296875 42.84375 
Q 37.203125 48.484375 30.078125 48.484375 
Q 22.953125 48.484375 18.875 42.84375 
Q 14.796875 37.203125 14.796875 27.296875 
z
" id="DejaVuSans-100"/>
      <path d="M 9.8125 72.90625 
L 23.09375 72.90625 
L 55.421875 11.921875 
L 55.421875 72.90625 
L 64.984375 72.90625 
L 64.984375 0 
L 51.703125 0 
L 19.390625 60.984375 
L 19.390625 0 
L 9.8125 0 
z
" id="DejaVuSans-78"/>
     </defs>
     <g transform="translate(28.617187 195.842062)rotate(-90)scale(0.1 -0.1)">
      <use xlink:href="#DejaVuSans-76"/>
      <use x="55.697266" xlink:href="#DejaVuSans-111"/>
      <use x="116.878906" xlink:href="#DejaVuSans-97"/>
      <use x="178.158203" xlink:href="#DejaVuSans-100"/>
      <use x="241.634766" xlink:href="#DejaVuSans-32"/>
      <use x="273.421875" xlink:href="#DejaVuSans-40"/>
      <use x="312.435547" xlink:href="#DejaVuSans-78"/>
      <use x="387.240234" xlink:href="#DejaVuSans-41"/>
     </g>
    </g>
   </g>
   <g id="line2d_29">
    <path clip-path="url(#p7d754157d2)" d="M 57.6 307.584 
L 61.495855 275.650528 
L 65.391709 243.717056 
L 69.287564 211.783584 
L 73.183418 179.850112 
L 77.079273 147.91664 
L 80.975127 115.983168 
L 84.870982 84.049696 
L 88.766836 52.116225 
L 92.662691 74.607178 
L 96.558545 105.922241 
L 100.4544 127.835933 
L 104.350255 144.812292 
L 108.246109 158.666228 
L 112.141964 170.346289 
L 116.037818 180.40641 
L 119.933673 189.230166 
L 123.829527 197.049195 
L 127.725382 204.068829 
L 131.621236 210.404266 
L 135.517091 216.164765 
L 139.412945 221.428222 
L 143.3088 226.282784 
L 147.204655 230.749917 
L 151.100509 234.89297 
L 154.996364 238.752755 
L 158.892218 242.339254 
L 162.788073 245.694749 
L 166.683927 248.846009 
L 170.579782 251.802296 
L 174.475636 254.582112 
L 178.371491 257.202836 
L 182.267345 259.674389 
L 186.1632 262.01086 
L 190.059055 264.221421 
L 193.954909 266.322415 
L 197.850764 268.315922 
L 201.746618 270.206097 
L 205.642473 272.001577 
L 209.538327 273.709985 
L 213.434182 275.339601 
L 217.330036 276.896523 
L 221.225891 278.378755 
L 225.121745 279.791693 
L 229.0176 281.13962 
L 232.913455 282.426855 
L 236.809309 283.656238 
L 240.705164 284.83699 
L 244.601018 285.964456 
L 248.496873 287.041656 
L 252.392727 288.07131 
L 256.288582 289.055634 
L 260.184436 289.996697 
L 264.080291 290.896683 
L 267.976145 291.755942 
L 271.872 292.578972 
L 275.767855 293.365153 
L 279.663709 294.117378 
L 283.559564 294.833234 
L 287.455418 295.515519 
L 291.351273 296.165978 
L 295.247127 296.78474 
L 299.142982 297.37263 
L 303.038836 297.930431 
L 306.934691 298.458899 
L 310.830545 298.958778 
L 314.7264 299.431499 
L 318.622255 299.877843 
L 322.518109 300.296741 
L 326.413964 300.690045 
L 330.309818 301.058628 
L 334.205673 301.403361 
L 338.101527 301.725026 
L 341.997382 302.024608 
L 345.893236 302.302875 
L 349.789091 302.560503 
L 353.684945 302.799944 
L 357.5808 303.02046 
L 361.476655 303.224558 
L 365.372509 303.411547 
L 369.268364 303.584337 
L 373.164218 303.742922 
L 377.060073 303.888289 
L 380.955927 304.020628 
L 384.851782 304.142594 
L 388.747636 304.254182 
L 392.643491 304.355444 
L 396.539345 304.448958 
L 400.4352 304.534545 
L 404.331055 304.612907 
L 408.226909 304.683989 
" style="fill:none;stroke:#000000;stroke-linecap:square;stroke-width:2;"/>
    <defs>
     <path d="M 0 2.5 
C 0.663008 2.5 1.29895 2.236584 1.767767 1.767767 
C 2.236584 1.29895 2.5 0.663008 2.5 0 
C 2.5 -0.663008 2.236584 -1.29895 1.767767 -1.767767 
C 1.29895 -2.236584 0.663008 -2.5 0 -2.5 
C -0.663008 -2.5 -1.29895 -2.236584 -1.767767 -1.767767 
C -2.236584 -1.29895 -2.5 -0.663008 -2.5 0 
C -2.5 0.663008 -2.236584 1.29895 -1.767767 1.767767 
C -1.29895 2.236584 -0.663008 2.5 0 2.5 
z
" id="m6ef9fc5252" style="stroke:#000000;"/>
    </defs>
    <g clip-path="url(#p7d754157d2)">
     <use style="fill:#ff0000;stroke:#000000;" x="57.6" xlink:href="#m6ef9fc5252" y="307.584"/>
     <use style="fill:#ff0000;stroke:#000000;" x="61.495855" xlink:href="#m6ef9fc5252" y="275.650528"/>
     <use style="fill:#ff0000;stroke:#000000;" x="65.391709" xlink:href="#m6ef9fc5252" y="243.717056"/>
     <use style="fill:#ff0000;stroke:#000000;" x="69.287564" xlink:href="#m6ef9fc5252" y="211.783584"/>
     <use style="fill:#ff0000;stroke:#000000;" x="73.183418" xlink:href="#m6ef9fc5252" y="179.850112"/>
     <use style="fill:#ff0000;stroke:#000000;" x="77.079273" xlink:href="#m6ef9fc5252" y="147.91664"/>
     <use style="fill:#ff0000;stroke:#000000;" x="80.975127" xlink:href="#m6ef9fc5252" y="115.983168"/>
     <use style="fill:#ff0000;stroke:#000000;" x="84.870982" xlink:href="#m6ef9fc5252" y="84.049696"/>
     <use style="fill:#ff0000;stroke:#000000;" x="88.766836" xlink:href="#m6ef9fc5252" y="52.116225"/>
     <use style="fill:#ff0000;stroke:#000000;" x="92.662691" xlink:href="#m6ef9fc5252" y="74.607178"/>
     <use style="fill:#ff0000;stroke:#000000;" x="96.558545" xlink:href="#m6ef9fc5252" y="105.922241"/>
     <use style="fill:#ff0000;stroke:#000000;" x="100.4544" xlink:href="#m6ef9fc5252" y="127.835933"/>
     <use style="fill:#ff0000;stroke:#000000;" x="104.350255" xlink:href="#m6ef9fc5252" y="144.812292"/>
     <use style="fill:#ff0000;stroke:#000000;" x="108.246109" xlink:href="#m6ef9fc5252" y="158.666228"/>
     <use style="fill:#ff0000;stroke:#000000;" x="112.141964" xlink:href="#m6ef9fc5252" y="170.346289"/>
     <use style="fill:#ff0000;stroke:#000000;" x="116.037818" xlink:href="#m6ef9fc5252" y="180.40641"/>
     <use style="fill:#ff0000;stroke:#000000;" x="119.933673" xlink:href="#m6ef9fc5252" y="189.230166"/>
     <use style="fill:#ff0000;stroke:#000000;" x="123.829527" xlink:href="#m6ef9fc5252" y="197.049195"/>
     <use style="fill:#ff0000;stroke:#000000;" x="127.725382" xlink:href="#m6ef9fc5252" y="204.068829"/>
     <use style="fill:#ff0000;stroke:#000000;" x="131.621236" xlink:href="#m6ef9fc5252" y="210.404266"/>
     <use style="fill:#ff0000;stroke:#000000;" x="135.517091" xlink:href="#m6ef9fc5252" y="216.164765"/>
     <use style="fill:#ff0000;stroke:#000000;" x="139.412945" xlink:href="#m6ef9fc5252" y="221.428222"/>
     <use style="fill:#ff0000;stroke:#000000;" x="143.3088" xlink:href="#m6ef9fc5252" y="226.282784"/>
     <use style="fill:#ff0000;stroke:#000000;" x="147.204655" xlink:href="#m6ef9fc5252" y="230.749917"/>
     <use style="fill:#ff0000;stroke:#000000;" x="151.100509" xlink:href="#m6ef9fc5252" y="234.89297"/>
     <use style="fill:#ff0000;stroke:#000000;" x="154.996364" xlink:href="#m6ef9fc5252" y="238.752755"/>
     <use style="fill:#ff0000;stroke:#000000;" x="158.892218" xlink:href="#m6ef9fc5252" y="242.339254"/>
     <use style="fill:#ff0000;stroke:#000000;" x="162.788073" xlink:href="#m6ef9fc5252" y="245.694749"/>
     <use style="fill:#ff0000;stroke:#000000;" x="166.683927" xlink:href="#m6ef9fc5252" y="248.846009"/>
     <use style="fill:#ff0000;stroke:#000000;" x="170.579782" xlink:href="#m6ef9fc5252" y="251.802296"/>
     <use style="fill:#ff0000;stroke:#000000;" x="174.475636" xlink:href="#m6ef9fc5252" y="254.582112"/>
     <use style="fill:#ff0000;stroke:#000000;" x="178.371491" xlink:href="#m6ef9fc5252" y="257.202836"/>
     <use style="fill:#ff0000;stroke:#000000;" x="182.267345" xlink:href="#m6ef9fc5252" y="259.674389"/>
     <use style="fill:#ff0000;stroke:#000000;" x="186.1632" xlink:href="#m6ef9fc5252" y="262.01086"/>
     <use style="fill:#ff0000;stroke:#000000;" x="190.059055" xlink:href="#m6ef9fc5252" y="264.221421"/>
     <use style="fill:#ff0000;stroke:#000000;" x="193.954909" xlink:href="#m6ef9fc5252" y="266.322415"/>
     <use style="fill:#ff0000;stroke:#000000;" x="197.850764" xlink:href="#m6ef9fc5252" y="268.315922"/>
     <use style="fill:#ff0000;stroke:#000000;" x="201.746618" xlink:href="#m6ef9fc5252" y="270.206097"/>
     <use style="fill:#ff0000;stroke:#000000;" x="205.642473" xlink:href="#m6ef9fc5252" y="272.001577"/>
     <use style="fill:#ff0000;stroke:#000000;" x="209.538327" xlink:href="#m6ef9fc5252" y="273.709985"/>
     <use style="fill:#ff0000;stroke:#000000;" x="213.434182" xlink:href="#m6ef9fc5252" y="275.339601"/>
     <use style="fill:#ff0000;stroke:#000000;" x="217.330036" xlink:href="#m6ef9fc5252" y="276.896523"/>
     <use style="fill:#ff0000;stroke:#000000;" x="221.225891" xlink:href="#m6ef9fc5252" y="278.378755"/>
     <use style="fill:#ff0000;stroke:#000000;" x="225.121745" xlink:href="#m6ef9fc5252" y="279.791693"/>
     <use style="fill:#ff0000;stroke:#000000;" x="229.0176" xlink:href="#m6ef9fc5252" y="281.13962"/>
     <use style="fill:#ff0000;stroke:#000000;" x="232.913455" xlink:href="#m6ef9fc5252" y="282.426855"/>
     <use style="fill:#ff0000;stroke:#000000;" x="236.809309" xlink:href="#m6ef9fc5252" y="283.656238"/>
     <use style="fill:#ff0000;stroke:#000000;" x="240.705164" xlink:href="#m6ef9fc5252" y="284.83699"/>
     <use style="fill:#ff0000;stroke:#000000;" x="244.601018" xlink:href="#m6ef9fc5252" y="285.964456"/>
     <use style="fill:#ff0000;stroke:#000000;" x="248.496873" xlink:href="#m6ef9fc5252" y="287.041656"/>
     <use style="fill:#ff0000;stroke:#000000;" x="252.392727" xlink:href="#m6ef9fc5252" y="288.07131"/>
     <use style="fill:#ff0000;stroke:#000000;" x="256.288582" xlink:href="#m6ef9fc5252" y="289.055634"/>
     <use style="fill:#ff0000;stroke:#000000;" x="260.184436" xlink:href="#m6ef9fc5252" y="289.996697"/>
     <use style="fill:#ff0000;stroke:#000000;" x="264.080291" xlink:href="#m6ef9fc5252" y="290.896683"/>
     <use style="fill:#ff0000;stroke:#000000;" x="267.976145" xlink:href="#m6ef9fc5252" y="291.755942"/>
     <use style="fill:#ff0000;stroke:#000000;" x="271.872" xlink:href="#m6ef9fc5252" y="292.578972"/>
     <use style="fill:#ff0000;stroke:#000000;" x="275.767855" xlink:href="#m6ef9fc5252" y="293.365153"/>
     <use style="fill:#ff0000;stroke:#000000;" x="279.663709" xlink:href="#m6ef9fc5252" y="294.117378"/>
     <use style="fill:#ff0000;stroke:#000000;" x="283.559564" xlink:href="#m6ef9fc5252" y="294.833234"/>
     <use style="fill:#ff0000;stroke:#000000;" x="287.455418" xlink:href="#m6ef9fc5252" y="295.515519"/>
     <use style="fill:#ff0000;stroke:#000000;" x="291.351273" xlink:href="#m6ef9fc5252" y="296.165978"/>
     <use style="fill:#ff0000;stroke:#000000;" x="295.247127" xlink:href="#m6ef9fc5252" y="296.78474"/>
     <use style="fill:#ff0000;stroke:#000000;" x="299.142982" xlink:href="#m6ef9fc5252" y="297.37263"/>
     <use style="fill:#ff0000;stroke:#000000;" x="303.038836" xlink:href="#m6ef9fc5252" y="297.930431"/>
     <use style="fill:#ff0000;stroke:#000000;" x="306.934691" xlink:href="#m6ef9fc5252" y="298.458899"/>
     <use style="fill:#ff0000;stroke:#000000;" x="310.830545" xlink:href="#m6ef9fc5252" y="298.958778"/>
     <use style="fill:#ff0000;stroke:#000000;" x="314.7264" xlink:href="#m6ef9fc5252" y="299.431499"/>
     <use style="fill:#ff0000;stroke:#000000;" x="318.622255" xlink:href="#m6ef9fc5252" y="299.877843"/>
     <use style="fill:#ff0000;stroke:#000000;" x="322.518109" xlink:href="#m6ef9fc5252" y="300.296741"/>
     <use style="fill:#ff0000;stroke:#000000;" x="326.413964" xlink:href="#m6ef9fc5252" y="300.690045"/>
     <use style="fill:#ff0000;stroke:#000000;" x="330.309818" xlink:href="#m6ef9fc5252" y="301.058628"/>
     <use style="fill:#ff0000;stroke:#000000;" x="334.205673" xlink:href="#m6ef9fc5252" y="301.403361"/>
     <use style="fill:#ff0000;stroke:#000000;" x="338.101527" xlink:href="#m6ef9fc5252" y="301.725026"/>
     <use style="fill:#ff0000;stroke:#000000;" x="341.997382" xlink:href="#m6ef9fc5252" y="302.024608"/>
     <use style="fill:#ff0000;stroke:#000000;" x="345.893236" xlink:href="#m6ef9fc5252" y="302.302875"/>
     <use style="fill:#ff0000;stroke:#000000;" x="349.789091" xlink:href="#m6ef9fc5252" y="302.560503"/>
     <use style="fill:#ff0000;stroke:#000000;" x="353.684945" xlink:href="#m6ef9fc5252" y="302.799944"/>
     <use style="fill:#ff0000;stroke:#000000;" x="357.5808" xlink:href="#m6ef9fc5252" y="303.02046"/>
     <use style="fill:#ff0000;stroke:#000000;" x="361.476655" xlink:href="#m6ef9fc5252" y="303.224558"/>
     <use style="fill:#ff0000;stroke:#000000;" x="365.372509" xlink:href="#m6ef9fc5252" y="303.411547"/>
     <use style="fill:#ff0000;stroke:#000000;" x="369.268364" xlink:href="#m6ef9fc5252" y="303.584337"/>
     <use style="fill:#ff0000;stroke:#000000;" x="373.164218" xlink:href="#m6ef9fc5252" y="303.742922"/>
     <use style="fill:#ff0000;stroke:#000000;" x="377.060073" xlink:href="#m6ef9fc5252" y="303.888289"/>
     <use style="fill:#ff0000;stroke:#000000;" x="380.955927" xlink:href="#m6ef9fc5252" y="304.020628"/>
     <use style="fill:#ff0000;stroke:#000000;" x="384.851782" xlink:href="#m6ef9fc5252" y="304.142594"/>
     <use style="fill:#ff0000;stroke:#000000;" x="388.747636" xlink:href="#m6ef9fc5252" y="304.254182"/>
     <use style="fill:#ff0000;stroke:#000000;" x="392.643491" xlink:href="#m6ef9fc5252" y="304.355444"/>
     <use style="fill:#ff0000;stroke:#000000;" x="396.539345" xlink:href="#m6ef9fc5252" y="304.448958"/>
     <use style="fill:#ff0000;stroke:#000000;" x="400.4352" xlink:href="#m6ef9fc5252" y="304.534545"/>
     <use style="fill:#ff0000;stroke:#000000;" x="404.331055" xlink:href="#m6ef9fc5252" y="304.612907"/>
     <use style="fill:#ff0000;stroke:#000000;" x="408.226909" xlink:href="#m6ef9fc5252" y="304.683989"/>
    </g>
   </g>
   <g id="line2d_30">
    <path clip-path="url(#p7d754157d2)" d="M 57.6 307.584 
L 61.495855 275.650528 
L 65.391709 243.717056 
L 69.287564 211.783584 
L 73.183418 179.850112 
L 77.079273 147.91664 
L 80.975127 115.983168 
L 84.870982 84.049696 
L 88.766836 52.116225 
L 92.662691 74.646604 
L 96.558545 105.93617 
L 100.4544 127.833167 
L 104.350255 144.815651 
L 108.246109 158.664287 
L 112.141964 170.34084 
L 116.037818 180.415253 
L 119.933673 189.231967 
L 123.829527 197.050115 
L 127.725382 204.073982 
L 131.621236 210.413566 
L 135.517091 216.172076 
L 139.412945 221.435232 
L 143.3088 226.289105 
L 147.204655 230.767166 
L 151.100509 234.914173 
L 154.996364 238.766324 
L 158.892218 242.35535 
L 162.788073 245.711886 
L 166.683927 248.865765 
L 170.579782 251.825314 
L 174.475636 254.60691 
L 178.371491 257.228348 
L 182.267345 259.701882 
L 186.1632 262.039456 
L 190.059055 264.25167 
L 193.954909 266.352281 
L 197.850764 268.348306 
L 201.746618 270.243695 
L 205.642473 272.045373 
L 209.538327 273.759583 
L 213.434182 275.391981 
L 217.330036 276.947702 
L 221.225891 278.431422 
L 225.121745 279.847403 
L 229.0176 281.199537 
L 232.913455 282.491387 
L 236.809309 283.726157 
L 240.705164 284.909833 
L 244.601018 286.041922 
L 248.496873 287.124922 
L 252.392727 288.162319 
L 256.288582 289.154 
L 260.184436 290.103056 
L 264.080291 291.011299 
L 267.976145 291.880387 
L 271.872 292.711838 
L 275.767855 293.507037 
L 279.663709 294.267246 
L 283.559564 294.99361 
L 287.455418 295.687167 
L 291.351273 296.348851 
L 295.247127 296.979501 
L 299.142982 297.579873 
L 303.038836 298.150641 
L 306.934691 298.692418 
L 310.830545 299.205762 
L 314.7264 299.691201 
L 318.622255 300.14925 
L 322.518109 300.580437 
L 326.413964 300.984301 
L 330.309818 301.363628 
L 334.205673 301.718324 
L 338.101527 302.048951 
L 341.997382 302.355323 
L 345.893236 302.640684 
L 349.789091 302.90498 
L 353.684945 303.149395 
L 357.5808 303.374281 
L 361.476655 303.582815 
L 365.372509 303.775197 
L 369.268364 303.95175 
L 373.164218 304.115591 
L 377.060073 304.266773 
L 380.955927 304.405392 
L 384.851782 304.564244 
L 388.747636 304.719321 
L 392.643491 304.867812 
L 396.539345 305.00592 
L 400.4352 305.131888 
L 404.331055 305.244475 
L 408.226909 305.344187 
" style="fill:none;stroke:#000000;stroke-linecap:square;stroke-width:2;"/>
    <defs>
     <path d="M 0 -2.5 
L -2.5 2.5 
L 2.5 2.5 
z
" id="m6794b7e863" style="stroke:#000000;stroke-linejoin:miter;"/>
    </defs>
    <g clip-path="url(#p7d754157d2)">
     <use style="fill:#ff0000;stroke:#000000;stroke-linejoin:miter;" x="57.6" xlink:href="#m6794b7e863" y="307.584"/>
     <use style="fill:#ff0000;stroke:#000000;stroke-linejoin:miter;" x="61.495855" xlink:href="#m6794b7e863" y="275.650528"/>
     <use style="fill:#ff0000;stroke:#000000;stroke-linejoin:miter;" x="65.391709" xlink:href="#m6794b7e863" y="243.717056"/>
     <use style="fill:#ff0000;stroke:#000000;stroke-linejoin:miter;" x="69.287564" xlink:href="#m6794b7e863" y="211.783584"/>
     <use style="fill:#ff0000;stroke:#000000;stroke-linejoin:miter;" x="73.183418" xlink:href="#m6794b7e863" y="179.850112"/>
     <use style="fill:#ff0000;stroke:#000000;stroke-linejoin:miter;" x="77.079273" xlink:href="#m6794b7e863" y="147.91664"/>
     <use style="fill:#ff0000;stroke:#000000;stroke-linejoin:miter;" x="80.975127" xlink:href="#m6794b7e863" y="115.983168"/>
     <use style="fill:#ff0000;stroke:#000000;stroke-linejoin:miter;" x="84.870982" xlink:href="#m6794b7e863" y="84.049696"/>
     <use style="fill:#ff0000;stroke:#000000;stroke-linejoin:miter;" x="88.766836" xlink:href="#m6794b7e863" y="52.116225"/>
     <use style="fill:#ff0000;stroke:#000000;stroke-linejoin:miter;" x="92.662691" xlink:href="#m6794b7e863" y="74.646604"/>
     <use style="fill:#ff0000;stroke:#000000;stroke-linejoin:miter;" x="96.558545" xlink:href="#m6794b7e863" y="105.93617"/>
     <use style="fill:#ff0000;stroke:#000000;stroke-linejoin:miter;" x="100.4544" xlink:href="#m6794b7e863" y="127.833167"/>
     <use style="fill:#ff0000;stroke:#000000;stroke-linejoin:miter;" x="104.350255" xlink:href="#m6794b7e863" y="144.815651"/>
     <use style="fill:#ff0000;stroke:#000000;stroke-linejoin:miter;" x="108.246109" xlink:href="#m6794b7e863" y="158.664287"/>
     <use style="fill:#ff0000;stroke:#000000;stroke-linejoin:miter;" x="112.141964" xlink:href="#m6794b7e863" y="170.34084"/>
     <use style="fill:#ff0000;stroke:#000000;stroke-linejoin:miter;" x="116.037818" xlink:href="#m6794b7e863" y="180.415253"/>
     <use style="fill:#ff0000;stroke:#000000;stroke-linejoin:miter;" x="119.933673" xlink:href="#m6794b7e863" y="189.231967"/>
     <use style="fill:#ff0000;stroke:#000000;stroke-linejoin:miter;" x="123.829527" xlink:href="#m6794b7e863" y="197.050115"/>
     <use style="fill:#ff0000;stroke:#000000;stroke-linejoin:miter;" x="127.725382" xlink:href="#m6794b7e863" y="204.073982"/>
     <use style="fill:#ff0000;stroke:#000000;stroke-linejoin:miter;" x="131.621236" xlink:href="#m6794b7e863" y="210.413566"/>
     <use style="fill:#ff0000;stroke:#000000;stroke-linejoin:miter;" x="135.517091" xlink:href="#m6794b7e863" y="216.172076"/>
     <use style="fill:#ff0000;stroke:#000000;stroke-linejoin:miter;" x="139.412945" xlink:href="#m6794b7e863" y="221.435232"/>
     <use style="fill:#ff0000;stroke:#000000;stroke-linejoin:miter;" x="143.3088" xlink:href="#m6794b7e863" y="226.289105"/>
     <use style="fill:#ff0000;stroke:#000000;stroke-linejoin:miter;" x="147.204655" xlink:href="#m6794b7e863" y="230.767166"/>
     <use style="fill:#ff0000;stroke:#000000;stroke-linejoin:miter;" x="151.100509" xlink:href="#m6794b7e863" y="234.914173"/>
     <use style="fill:#ff0000;stroke:#000000;stroke-linejoin:miter;" x="154.996364" xlink:href="#m6794b7e863" y="238.766324"/>
     <use style="fill:#ff0000;stroke:#000000;stroke-linejoin:miter;" x="158.892218" xlink:href="#m6794b7e863" y="242.35535"/>
     <use style="fill:#ff0000;stroke:#000000;stroke-linejoin:miter;" x="162.788073" xlink:href="#m6794b7e863" y="245.711886"/>
     <use style="fill:#ff0000;stroke:#000000;stroke-linejoin:miter;" x="166.683927" xlink:href="#m6794b7e863" y="248.865765"/>
     <use style="fill:#ff0000;stroke:#000000;stroke-linejoin:miter;" x="170.579782" xlink:href="#m6794b7e863" y="251.825314"/>
     <use style="fill:#ff0000;stroke:#000000;stroke-linejoin:miter;" x="174.475636" xlink:href="#m6794b7e863" y="254.60691"/>
     <use style="fill:#ff0000;stroke:#000000;stroke-linejoin:miter;" x="178.371491" xlink:href="#m6794b7e863" y="257.228348"/>
     <use style="fill:#ff0000;stroke:#000000;stroke-linejoin:miter;" x="182.267345" xlink:href="#m6794b7e863" y="259.701882"/>
     <use style="fill:#ff0000;stroke:#000000;stroke-linejoin:miter;" x="186.1632" xlink:href="#m6794b7e863" y="262.039456"/>
     <use style="fill:#ff0000;stroke:#000000;stroke-linejoin:miter;" x="190.059055" xlink:href="#m6794b7e863" y="264.25167"/>
     <use style="fill:#ff0000;stroke:#000000;stroke-linejoin:miter;" x="193.954909" xlink:href="#m6794b7e863" y="266.352281"/>
     <use style="fill:#ff0000;stroke:#000000;stroke-linejoin:miter;" x="197.850764" xlink:href="#m6794b7e863" y="268.348306"/>
     <use style="fill:#ff0000;stroke:#000000;stroke-linejoin:miter;" x="201.746618" xlink:href="#m6794b7e863" y="270.243695"/>
     <use style="fill:#ff0000;stroke:#000000;stroke-linejoin:miter;" x="205.642473" xlink:href="#m6794b7e863" y="272.045373"/>
     <use style="fill:#ff0000;stroke:#000000;stroke-linejoin:miter;" x="209.538327" xlink:href="#m6794b7e863" y="273.759583"/>
     <use style="fill:#ff0000;stroke:#000000;stroke-linejoin:miter;" x="213.434182" xlink:href="#m6794b7e863" y="275.391981"/>
     <use style="fill:#ff0000;stroke:#000000;stroke-linejoin:miter;" x="217.330036" xlink:href="#m6794b7e863" y="276.947702"/>
     <use style="fill:#ff0000;stroke:#000000;stroke-linejoin:miter;" x="221.225891" xlink:href="#m6794b7e863" y="278.431422"/>
     <use style="fill:#ff0000;stroke:#000000;stroke-linejoin:miter;" x="225.121745" xlink:href="#m6794b7e863" y="279.847403"/>
     <use style="fill:#ff0000;stroke:#000000;stroke-linejoin:miter;" x="229.0176" xlink:href="#m6794b7e863" y="281.199537"/>
     <use style="fill:#ff0000;stroke:#000000;stroke-linejoin:miter;" x="232.913455" xlink:href="#m6794b7e863" y="282.491387"/>
     <use style="fill:#ff0000;stroke:#000000;stroke-linejoin:miter;" x="236.809309" xlink:href="#m6794b7e863" y="283.726157"/>
     <use style="fill:#ff0000;stroke:#000000;stroke-linejoin:miter;" x="240.705164" xlink:href="#m6794b7e863" y="284.909833"/>
     <use style="fill:#ff0000;stroke:#000000;stroke-linejoin:miter;" x="244.601018" xlink:href="#m6794b7e863" y="286.041922"/>
     <use style="fill:#ff0000;stroke:#000000;stroke-linejoin:miter;" x="248.496873" xlink:href="#m6794b7e863" y="287.124922"/>
     <use style="fill:#ff0000;stroke:#000000;stroke-linejoin:miter;" x="252.392727" xlink:href="#m6794b7e863" y="288.162319"/>
     <use style="fill:#ff0000;stroke:#000000;stroke-linejoin:miter;" x="256.288582" xlink:href="#m6794b7e863" y="289.154"/>
     <use style="fill:#ff0000;stroke:#000000;stroke-linejoin:miter;" x="260.184436" xlink:href="#m6794b7e863" y="290.103056"/>
     <use style="fill:#ff0000;stroke:#000000;stroke-linejoin:miter;" x="264.080291" xlink:href="#m6794b7e863" y="291.011299"/>
     <use style="fill:#ff0000;stroke:#000000;stroke-linejoin:miter;" x="267.976145" xlink:href="#m6794b7e863" y="291.880387"/>
     <use style="fill:#ff0000;stroke:#000000;stroke-linejoin:miter;" x="271.872" xlink:href="#m6794b7e863" y="292.711838"/>
     <use style="fill:#ff0000;stroke:#000000;stroke-linejoin:miter;" x="275.767855" xlink:href="#m6794b7e863" y="293.507037"/>
     <use style="fill:#ff0000;stroke:#000000;stroke-linejoin:miter;" x="279.663709" xlink:href="#m6794b7e863" y="294.267246"/>
     <use style="fill:#ff0000;stroke:#000000;stroke-linejoin:miter;" x="283.559564" xlink:href="#m6794b7e863" y="294.99361"/>
     <use style="fill:#ff0000;stroke:#000000;stroke-linejoin:miter;" x="287.455418" xlink:href="#m6794b7e863" y="295.687167"/>
     <use style="fill:#ff0000;stroke:#000000;stroke-linejoin:miter;" x="291.351273" xlink:href="#m6794b7e863" y="296.348851"/>
     <use style="fill:#ff0000;stroke:#000000;stroke-linejoin:miter;" x="295.247127" xlink:href="#m6794b7e863" y="296.979501"/>
     <use style="fill:#ff0000;stroke:#000000;stroke-linejoin:miter;" x="299.142982" xlink:href="#m6794b7e863" y="297.579873"/>
     <use style="fill:#ff0000;stroke:#000000;stroke-linejoin:miter;" x="303.038836" xlink:href="#m6794b7e863" y="298.150641"/>
     <use style="fill:#ff0000;stroke:#000000;stroke-linejoin:miter;" x="306.934691" xlink:href="#m6794b7e863" y="298.692418"/>
     <use style="fill:#ff0000;stroke:#000000;stroke-linejoin:miter;" x="310.830545" xlink:href="#m6794b7e863" y="299.205762"/>
     <use style="fill:#ff0000;stroke:#000000;stroke-linejoin:miter;" x="314.7264" xlink:href="#m6794b7e863" y="299.691201"/>
     <use style="fill:#ff0000;stroke:#000000;stroke-linejoin:miter;" x="318.622255" xlink:href="#m6794b7e863" y="300.14925"/>
     <use style="fill:#ff0000;stroke:#000000;stroke-linejoin:miter;" x="322.518109" xlink:href="#m6794b7e863" y="300.580437"/>
     <use style="fill:#ff0000;stroke:#000000;stroke-linejoin:miter;" x="326.413964" xlink:href="#m6794b7e863" y="300.984301"/>
     <use style="fill:#ff0000;stroke:#000000;stroke-linejoin:miter;" x="330.309818" xlink:href="#m6794b7e863" y="301.363628"/>
     <use style="fill:#ff0000;stroke:#000000;stroke-linejoin:miter;" x="334.205673" xlink:href="#m6794b7e863" y="301.718324"/>
     <use style="fill:#ff0000;stroke:#000000;stroke-linejoin:miter;" x="338.101527" xlink:href="#m6794b7e863" y="302.048951"/>
     <use style="fill:#ff0000;stroke:#000000;stroke-linejoin:miter;" x="341.997382" xlink:href="#m6794b7e863" y="302.355323"/>
     <use style="fill:#ff0000;stroke:#000000;stroke-linejoin:miter;" x="345.893236" xlink:href="#m6794b7e863" y="302.640684"/>
     <use style="fill:#ff0000;stroke:#000000;stroke-linejoin:miter;" x="349.789091" xlink:href="#m6794b7e863" y="302.90498"/>
     <use style="fill:#ff0000;stroke:#000000;stroke-linejoin:miter;" x="353.684945" xlink:href="#m6794b7e863" y="303.149395"/>
     <use style="fill:#ff0000;stroke:#000000;stroke-linejoin:miter;" x="357.5808" xlink:href="#m6794b7e863" y="303.374281"/>
     <use style="fill:#ff0000;stroke:#000000;stroke-linejoin:miter;" x="361.476655" xlink:href="#m6794b7e863" y="303.582815"/>
     <use style="fill:#ff0000;stroke:#000000;stroke-linejoin:miter;" x="365.372509" xlink:href="#m6794b7e863" y="303.775197"/>
     <use style="fill:#ff0000;stroke:#000000;stroke-linejoin:miter;" x="369.268364" xlink:href="#m6794b7e863" y="303.95175"/>
     <use style="fill:#ff0000;stroke:#000000;stroke-linejoin:miter;" x="373.164218" xlink:href="#m6794b7e863" y="304.115591"/>
     <use style="fill:#ff0000;stroke:#000000;stroke-linejoin:miter;" x="377.060073" xlink:href="#m6794b7e863" y="304.266773"/>
     <use style="fill:#ff0000;stroke:#000000;stroke-linejoin:miter;" x="380.955927" xlink:href="#m6794b7e863" y="304.405392"/>
     <use style="fill:#ff0000;stroke:#000000;stroke-linejoin:miter;" x="384.851782" xlink:href="#m6794b7e863" y="304.564244"/>
     <use style="fill:#ff0000;stroke:#000000;stroke-linejoin:miter;" x="388.747636" xlink:href="#m6794b7e863" y="304.719321"/>
     <use style="fill:#ff0000;stroke:#000000;stroke-linejoin:miter;" x="392.643491" xlink:href="#m6794b7e863" y="304.867812"/>
     <use style="fill:#ff0000;stroke:#000000;stroke-linejoin:miter;" x="396.539345" xlink:href="#m6794b7e863" y="305.00592"/>
     <use style="fill:#ff0000;stroke:#000000;stroke-linejoin:miter;" x="400.4352" xlink:href="#m6794b7e863" y="305.131888"/>
     <use style="fill:#ff0000;stroke:#000000;stroke-linejoin:miter;" x="404.331055" xlink:href="#m6794b7e863" y="305.244475"/>
     <use style="fill:#ff0000;stroke:#000000;stroke-linejoin:miter;" x="408.226909" xlink:href="#m6794b7e863" y="305.344187"/>
    </g>
   </g>
   <g id="line2d_31">
    <path clip-path="url(#p7d754157d2)" d="M 57.6 307.584 
L 61.495855 275.650528 
L 65.391709 243.717056 
L 69.287564 211.783584 
L 73.183418 179.850112 
L 77.079273 147.91664 
L 80.975127 115.983168 
L 84.870982 84.049696 
L 88.766836 52.116225 
L 92.662691 74.709904 
L 96.558545 105.95475 
L 100.4544 127.840374 
L 104.350255 144.817566 
L 108.246109 158.666177 
L 112.141964 170.339158 
L 116.037818 180.415566 
L 119.933673 189.232717 
L 123.829527 197.050753 
L 127.725382 204.075381 
L 131.621236 210.414311 
L 135.517091 216.175061 
L 139.412945 221.439023 
L 143.3088 226.29333 
L 147.204655 230.772245 
L 151.100509 234.92011 
L 154.996364 238.773118 
L 158.892218 242.363008 
L 162.788073 245.720216 
L 166.683927 248.875024 
L 170.579782 251.835525 
L 174.475636 254.618103 
L 178.371491 257.240553 
L 182.267345 259.715137 
L 186.1632 262.053805 
L 190.059055 264.267162 
L 193.954909 266.368838 
L 197.850764 268.366129 
L 201.746618 270.262849 
L 205.642473 272.065932 
L 209.538327 273.781628 
L 213.434182 275.4156 
L 217.330036 276.972993 
L 221.225891 278.458492 
L 225.121745 279.876369 
L 229.0176 281.230527 
L 232.913455 282.524542 
L 236.809309 283.761648 
L 240.705164 284.947661 
L 244.601018 286.08241 
L 248.496873 287.168265 
L 252.392727 288.208755 
L 256.288582 289.203746 
L 260.184436 290.156367 
L 264.080291 291.068453 
L 267.976145 291.941685 
L 271.872 292.777605 
L 275.767855 293.577624 
L 279.663709 294.343027 
L 283.559564 295.074985 
L 287.455418 295.774556 
L 291.351273 296.442694 
L 295.247127 297.080253 
L 299.142982 297.68799 
L 303.038836 298.266576 
L 306.934691 298.816602 
L 310.830545 299.338591 
L 314.7264 299.833012 
L 318.622255 300.300303 
L 322.518109 300.740897 
L 326.413964 301.155252 
L 330.309818 301.54388 
L 334.205673 301.906565 
L 338.101527 302.246096 
L 341.997382 302.562007 
L 345.893236 302.854212 
L 349.789091 303.126017 
L 353.684945 303.377389 
L 357.5808 303.608512 
L 361.476655 303.822909 
L 365.372509 304.020629 
L 369.268364 304.202923 
L 373.164218 304.370172 
L 377.060073 304.525382 
L 380.955927 304.668633 
L 384.851782 304.800052 
L 388.747636 304.922534 
L 392.643491 305.035882 
L 396.539345 305.2103 
L 400.4352 305.385753 
L 404.331055 305.551205 
L 408.226909 305.698881 
" style="fill:none;stroke:#000000;stroke-linecap:square;stroke-width:2;"/>
    <defs>
     <path d="M -2.5 2.5 
L 2.5 2.5 
L 2.5 -2.5 
L -2.5 -2.5 
z
" id="m8a653d414b" style="stroke:#000000;stroke-linejoin:miter;"/>
    </defs>
    <g clip-path="url(#p7d754157d2)">
     <use style="fill:#ff0000;stroke:#000000;stroke-linejoin:miter;" x="57.6" xlink:href="#m8a653d414b" y="307.584"/>
     <use style="fill:#ff0000;stroke:#000000;stroke-linejoin:miter;" x="61.495855" xlink:href="#m8a653d414b" y="275.650528"/>
     <use style="fill:#ff0000;stroke:#000000;stroke-linejoin:miter;" x="65.391709" xlink:href="#m8a653d414b" y="243.717056"/>
     <use style="fill:#ff0000;stroke:#000000;stroke-linejoin:miter;" x="69.287564" xlink:href="#m8a653d414b" y="211.783584"/>
     <use style="fill:#ff0000;stroke:#000000;stroke-linejoin:miter;" x="73.183418" xlink:href="#m8a653d414b" y="179.850112"/>
     <use style="fill:#ff0000;stroke:#000000;stroke-linejoin:miter;" x="77.079273" xlink:href="#m8a653d414b" y="147.91664"/>
     <use style="fill:#ff0000;stroke:#000000;stroke-linejoin:miter;" x="80.975127" xlink:href="#m8a653d414b" y="115.983168"/>
     <use style="fill:#ff0000;stroke:#000000;stroke-linejoin:miter;" x="84.870982" xlink:href="#m8a653d414b" y="84.049696"/>
     <use style="fill:#ff0000;stroke:#000000;stroke-linejoin:miter;" x="88.766836" xlink:href="#m8a653d414b" y="52.116225"/>
     <use style="fill:#ff0000;stroke:#000000;stroke-linejoin:miter;" x="92.662691" xlink:href="#m8a653d414b" y="74.709904"/>
     <use style="fill:#ff0000;stroke:#000000;stroke-linejoin:miter;" x="96.558545" xlink:href="#m8a653d414b" y="105.95475"/>
     <use style="fill:#ff0000;stroke:#000000;stroke-linejoin:miter;" x="100.4544" xlink:href="#m8a653d414b" y="127.840374"/>
     <use style="fill:#ff0000;stroke:#000000;stroke-linejoin:miter;" x="104.350255" xlink:href="#m8a653d414b" y="144.817566"/>
     <use style="fill:#ff0000;stroke:#000000;stroke-linejoin:miter;" x="108.246109" xlink:href="#m8a653d414b" y="158.666177"/>
     <use style="fill:#ff0000;stroke:#000000;stroke-linejoin:miter;" x="112.141964" xlink:href="#m8a653d414b" y="170.339158"/>
     <use style="fill:#ff0000;stroke:#000000;stroke-linejoin:miter;" x="116.037818" xlink:href="#m8a653d414b" y="180.415566"/>
     <use style="fill:#ff0000;stroke:#000000;stroke-linejoin:miter;" x="119.933673" xlink:href="#m8a653d414b" y="189.232717"/>
     <use style="fill:#ff0000;stroke:#000000;stroke-linejoin:miter;" x="123.829527" xlink:href="#m8a653d414b" y="197.050753"/>
     <use style="fill:#ff0000;stroke:#000000;stroke-linejoin:miter;" x="127.725382" xlink:href="#m8a653d414b" y="204.075381"/>
     <use style="fill:#ff0000;stroke:#000000;stroke-linejoin:miter;" x="131.621236" xlink:href="#m8a653d414b" y="210.414311"/>
     <use style="fill:#ff0000;stroke:#000000;stroke-linejoin:miter;" x="135.517091" xlink:href="#m8a653d414b" y="216.175061"/>
     <use style="fill:#ff0000;stroke:#000000;stroke-linejoin:miter;" x="139.412945" xlink:href="#m8a653d414b" y="221.439023"/>
     <use style="fill:#ff0000;stroke:#000000;stroke-linejoin:miter;" x="143.3088" xlink:href="#m8a653d414b" y="226.29333"/>
     <use style="fill:#ff0000;stroke:#000000;stroke-linejoin:miter;" x="147.204655" xlink:href="#m8a653d414b" y="230.772245"/>
     <use style="fill:#ff0000;stroke:#000000;stroke-linejoin:miter;" x="151.100509" xlink:href="#m8a653d414b" y="234.92011"/>
     <use style="fill:#ff0000;stroke:#000000;stroke-linejoin:miter;" x="154.996364" xlink:href="#m8a653d414b" y="238.773118"/>
     <use style="fill:#ff0000;stroke:#000000;stroke-linejoin:miter;" x="158.892218" xlink:href="#m8a653d414b" y="242.363008"/>
     <use style="fill:#ff0000;stroke:#000000;stroke-linejoin:miter;" x="162.788073" xlink:href="#m8a653d414b" y="245.720216"/>
     <use style="fill:#ff0000;stroke:#000000;stroke-linejoin:miter;" x="166.683927" xlink:href="#m8a653d414b" y="248.875024"/>
     <use style="fill:#ff0000;stroke:#000000;stroke-linejoin:miter;" x="170.579782" xlink:href="#m8a653d414b" y="251.835525"/>
     <use style="fill:#ff0000;stroke:#000000;stroke-linejoin:miter;" x="174.475636" xlink:href="#m8a653d414b" y="254.618103"/>
     <use style="fill:#ff0000;stroke:#000000;stroke-linejoin:miter;" x="178.371491" xlink:href="#m8a653d414b" y="257.240553"/>
     <use style="fill:#ff0000;stroke:#000000;stroke-linejoin:miter;" x="182.267345" xlink:href="#m8a653d414b" y="259.715137"/>
     <use style="fill:#ff0000;stroke:#000000;stroke-linejoin:miter;" x="186.1632" xlink:href="#m8a653d414b" y="262.053805"/>
     <use style="fill:#ff0000;stroke:#000000;stroke-linejoin:miter;" x="190.059055" xlink:href="#m8a653d414b" y="264.267162"/>
     <use style="fill:#ff0000;stroke:#000000;stroke-linejoin:miter;" x="193.954909" xlink:href="#m8a653d414b" y="266.368838"/>
     <use style="fill:#ff0000;stroke:#000000;stroke-linejoin:miter;" x="197.850764" xlink:href="#m8a653d414b" y="268.366129"/>
     <use style="fill:#ff0000;stroke:#000000;stroke-linejoin:miter;" x="201.746618" xlink:href="#m8a653d414b" y="270.262849"/>
     <use style="fill:#ff0000;stroke:#000000;stroke-linejoin:miter;" x="205.642473" xlink:href="#m8a653d414b" y="272.065932"/>
     <use style="fill:#ff0000;stroke:#000000;stroke-linejoin:miter;" x="209.538327" xlink:href="#m8a653d414b" y="273.781628"/>
     <use style="fill:#ff0000;stroke:#000000;stroke-linejoin:miter;" x="213.434182" xlink:href="#m8a653d414b" y="275.4156"/>
     <use style="fill:#ff0000;stroke:#000000;stroke-linejoin:miter;" x="217.330036" xlink:href="#m8a653d414b" y="276.972993"/>
     <use style="fill:#ff0000;stroke:#000000;stroke-linejoin:miter;" x="221.225891" xlink:href="#m8a653d414b" y="278.458492"/>
     <use style="fill:#ff0000;stroke:#000000;stroke-linejoin:miter;" x="225.121745" xlink:href="#m8a653d414b" y="279.876369"/>
     <use style="fill:#ff0000;stroke:#000000;stroke-linejoin:miter;" x="229.0176" xlink:href="#m8a653d414b" y="281.230527"/>
     <use style="fill:#ff0000;stroke:#000000;stroke-linejoin:miter;" x="232.913455" xlink:href="#m8a653d414b" y="282.524542"/>
     <use style="fill:#ff0000;stroke:#000000;stroke-linejoin:miter;" x="236.809309" xlink:href="#m8a653d414b" y="283.761648"/>
     <use style="fill:#ff0000;stroke:#000000;stroke-linejoin:miter;" x="240.705164" xlink:href="#m8a653d414b" y="284.947661"/>
     <use style="fill:#ff0000;stroke:#000000;stroke-linejoin:miter;" x="244.601018" xlink:href="#m8a653d414b" y="286.08241"/>
     <use style="fill:#ff0000;stroke:#000000;stroke-linejoin:miter;" x="248.496873" xlink:href="#m8a653d414b" y="287.168265"/>
     <use style="fill:#ff0000;stroke:#000000;stroke-linejoin:miter;" x="252.392727" xlink:href="#m8a653d414b" y="288.208755"/>
     <use style="fill:#ff0000;stroke:#000000;stroke-linejoin:miter;" x="256.288582" xlink:href="#m8a653d414b" y="289.203746"/>
     <use style="fill:#ff0000;stroke:#000000;stroke-linejoin:miter;" x="260.184436" xlink:href="#m8a653d414b" y="290.156367"/>
     <use style="fill:#ff0000;stroke:#000000;stroke-linejoin:miter;" x="264.080291" xlink:href="#m8a653d414b" y="291.068453"/>
     <use style="fill:#ff0000;stroke:#000000;stroke-linejoin:miter;" x="267.976145" xlink:href="#m8a653d414b" y="291.941685"/>
     <use style="fill:#ff0000;stroke:#000000;stroke-linejoin:miter;" x="271.872" xlink:href="#m8a653d414b" y="292.777605"/>
     <use style="fill:#ff0000;stroke:#000000;stroke-linejoin:miter;" x="275.767855" xlink:href="#m8a653d414b" y="293.577624"/>
     <use style="fill:#ff0000;stroke:#000000;stroke-linejoin:miter;" x="279.663709" xlink:href="#m8a653d414b" y="294.343027"/>
     <use style="fill:#ff0000;stroke:#000000;stroke-linejoin:miter;" x="283.559564" xlink:href="#m8a653d414b" y="295.074985"/>
     <use style="fill:#ff0000;stroke:#000000;stroke-linejoin:miter;" x="287.455418" xlink:href="#m8a653d414b" y="295.774556"/>
     <use style="fill:#ff0000;stroke:#000000;stroke-linejoin:miter;" x="291.351273" xlink:href="#m8a653d414b" y="296.442694"/>
     <use style="fill:#ff0000;stroke:#000000;stroke-linejoin:miter;" x="295.247127" xlink:href="#m8a653d414b" y="297.080253"/>
     <use style="fill:#ff0000;stroke:#000000;stroke-linejoin:miter;" x="299.142982" xlink:href="#m8a653d414b" y="297.68799"/>
     <use style="fill:#ff0000;stroke:#000000;stroke-linejoin:miter;" x="303.038836" xlink:href="#m8a653d414b" y="298.266576"/>
     <use style="fill:#ff0000;stroke:#000000;stroke-linejoin:miter;" x="306.934691" xlink:href="#m8a653d414b" y="298.816602"/>
     <use style="fill:#ff0000;stroke:#000000;stroke-linejoin:miter;" x="310.830545" xlink:href="#m8a653d414b" y="299.338591"/>
     <use style="fill:#ff0000;stroke:#000000;stroke-linejoin:miter;" x="314.7264" xlink:href="#m8a653d414b" y="299.833012"/>
     <use style="fill:#ff0000;stroke:#000000;stroke-linejoin:miter;" x="318.622255" xlink:href="#m8a653d414b" y="300.300303"/>
     <use style="fill:#ff0000;stroke:#000000;stroke-linejoin:miter;" x="322.518109" xlink:href="#m8a653d414b" y="300.740897"/>
     <use style="fill:#ff0000;stroke:#000000;stroke-linejoin:miter;" x="326.413964" xlink:href="#m8a653d414b" y="301.155252"/>
     <use style="fill:#ff0000;stroke:#000000;stroke-linejoin:miter;" x="330.309818" xlink:href="#m8a653d414b" y="301.54388"/>
     <use style="fill:#ff0000;stroke:#000000;stroke-linejoin:miter;" x="334.205673" xlink:href="#m8a653d414b" y="301.906565"/>
     <use style="fill:#ff0000;stroke:#000000;stroke-linejoin:miter;" x="338.101527" xlink:href="#m8a653d414b" y="302.246096"/>
     <use style="fill:#ff0000;stroke:#000000;stroke-linejoin:miter;" x="341.997382" xlink:href="#m8a653d414b" y="302.562007"/>
     <use style="fill:#ff0000;stroke:#000000;stroke-linejoin:miter;" x="345.893236" xlink:href="#m8a653d414b" y="302.854212"/>
     <use style="fill:#ff0000;stroke:#000000;stroke-linejoin:miter;" x="349.789091" xlink:href="#m8a653d414b" y="303.126017"/>
     <use style="fill:#ff0000;stroke:#000000;stroke-linejoin:miter;" x="353.684945" xlink:href="#m8a653d414b" y="303.377389"/>
     <use style="fill:#ff0000;stroke:#000000;stroke-linejoin:miter;" x="357.5808" xlink:href="#m8a653d414b" y="303.608512"/>
     <use style="fill:#ff0000;stroke:#000000;stroke-linejoin:miter;" x="361.476655" xlink:href="#m8a653d414b" y="303.822909"/>
     <use style="fill:#ff0000;stroke:#000000;stroke-linejoin:miter;" x="365.372509" xlink:href="#m8a653d414b" y="304.020629"/>
     <use style="fill:#ff0000;stroke:#000000;stroke-linejoin:miter;" x="369.268364" xlink:href="#m8a653d414b" y="304.202923"/>
     <use style="fill:#ff0000;stroke:#000000;stroke-linejoin:miter;" x="373.164218" xlink:href="#m8a653d414b" y="304.370172"/>
     <use style="fill:#ff0000;stroke:#000000;stroke-linejoin:miter;" x="377.060073" xlink:href="#m8a653d414b" y="304.525382"/>
     <use style="fill:#ff0000;stroke:#000000;stroke-linejoin:miter;" x="380.955927" xlink:href="#m8a653d414b" y="304.668633"/>
     <use style="fill:#ff0000;stroke:#000000;stroke-linejoin:miter;" x="384.851782" xlink:href="#m8a653d414b" y="304.800052"/>
     <use style="fill:#ff0000;stroke:#000000;stroke-linejoin:miter;" x="388.747636" xlink:href="#m8a653d414b" y="304.922534"/>
     <use style="fill:#ff0000;stroke:#000000;stroke-linejoin:miter;" x="392.643491" xlink:href="#m8a653d414b" y="305.035882"/>
     <use style="fill:#ff0000;stroke:#000000;stroke-linejoin:miter;" x="396.539345" xlink:href="#m8a653d414b" y="305.2103"/>
     <use style="fill:#ff0000;stroke:#000000;stroke-linejoin:miter;" x="400.4352" xlink:href="#m8a653d414b" y="305.385753"/>
     <use style="fill:#ff0000;stroke:#000000;stroke-linejoin:miter;" x="404.331055" xlink:href="#m8a653d414b" y="305.551205"/>
     <use style="fill:#ff0000;stroke:#000000;stroke-linejoin:miter;" x="408.226909" xlink:href="#m8a653d414b" y="305.698881"/>
    </g>
   </g>
   <g id="line2d_32">
    <path clip-path="url(#p7d754157d2)" d="M 57.6 307.584 
L 61.495855 275.650528 
L 65.391709 243.717056 
L 69.287564 211.783584 
L 73.183418 179.850112 
L 77.079273 147.91664 
L 80.975127 115.983168 
L 84.870982 84.049696 
L 88.766836 52.116225 
L 92.662691 74.791056 
L 96.558545 105.994833 
L 100.4544 127.861266 
L 104.350255 144.827906 
L 108.246109 158.669537 
L 112.141964 170.33976 
L 116.037818 180.414168 
L 119.933673 189.23018 
L 123.829527 197.047283 
L 127.725382 204.073446 
L 131.621236 210.412671 
L 135.517091 216.173699 
L 139.412945 221.438084 
L 143.3088 226.29111 
L 147.204655 230.772037 
L 151.100509 234.920512 
L 154.996364 238.774143 
L 158.892218 242.364662 
L 162.788073 245.722315 
L 166.683927 248.877821 
L 170.579782 251.837803 
L 174.475636 254.622362 
L 178.371491 257.245552 
L 182.267345 259.72089 
L 186.1632 262.060333 
L 190.059055 264.274487 
L 193.954909 266.376877 
L 197.850764 268.375036 
L 201.746618 270.272659 
L 205.642473 272.076683 
L 209.538327 273.793364 
L 213.434182 275.42837 
L 217.330036 276.986852 
L 221.225891 278.4735 
L 225.121745 279.892592 
L 229.0176 281.24804 
L 232.913455 282.543425 
L 236.809309 283.781999 
L 240.705164 284.96948 
L 244.601018 286.105894 
L 248.496873 287.193533 
L 252.392727 288.235944 
L 256.288582 289.232994 
L 260.184436 290.187831 
L 264.080291 291.102303 
L 267.976145 291.978109 
L 271.872 292.816806 
L 275.767855 293.619822 
L 279.663709 294.388461 
L 283.559564 295.123912 
L 287.455418 295.82725 
L 291.351273 296.499445 
L 295.247127 297.141362 
L 299.142982 297.75377 
L 303.038836 298.337339 
L 306.934691 298.892655 
L 310.830545 299.42022 
L 314.7264 299.920474 
L 318.622255 300.393807 
L 322.518109 300.840591 
L 326.413964 301.261209 
L 330.309818 301.656092 
L 334.205673 302.024755 
L 338.101527 302.370274 
L 341.997382 302.691926 
L 345.893236 302.990604 
L 349.789091 303.266359 
L 353.684945 303.522448 
L 357.5808 303.758954 
L 361.476655 303.976202 
L 365.372509 304.17755 
L 369.268364 304.363152 
L 373.164218 304.533326 
L 377.060073 304.691293 
L 380.955927 304.837067 
L 384.851782 304.970721 
L 388.747636 305.095356 
L 392.643491 305.210706 
L 396.539345 305.317585 
L 400.4352 305.416745 
L 404.331055 305.643446 
L 408.226909 305.880196 
" style="fill:none;stroke:#000000;stroke-linecap:square;stroke-width:2;"/>
    <defs>
     <path d="M -2.5 2.5 
L 2.5 -2.5 
M -2.5 -2.5 
L 2.5 2.5 
" id="maeee0fbf62" style="stroke:#000000;"/>
    </defs>
    <g clip-path="url(#p7d754157d2)">
     <use style="fill:#ff0000;stroke:#000000;" x="57.6" xlink:href="#maeee0fbf62" y="307.584"/>
     <use style="fill:#ff0000;stroke:#000000;" x="61.495855" xlink:href="#maeee0fbf62" y="275.650528"/>
     <use style="fill:#ff0000;stroke:#000000;" x="65.391709" xlink:href="#maeee0fbf62" y="243.717056"/>
     <use style="fill:#ff0000;stroke:#000000;" x="69.287564" xlink:href="#maeee0fbf62" y="211.783584"/>
     <use style="fill:#ff0000;stroke:#000000;" x="73.183418" xlink:href="#maeee0fbf62" y="179.850112"/>
     <use style="fill:#ff0000;stroke:#000000;" x="77.079273" xlink:href="#maeee0fbf62" y="147.91664"/>
     <use style="fill:#ff0000;stroke:#000000;" x="80.975127" xlink:href="#maeee0fbf62" y="115.983168"/>
     <use style="fill:#ff0000;stroke:#000000;" x="84.870982" xlink:href="#maeee0fbf62" y="84.049696"/>
     <use style="fill:#ff0000;stroke:#000000;" x="88.766836" xlink:href="#maeee0fbf62" y="52.116225"/>
     <use style="fill:#ff0000;stroke:#000000;" x="92.662691" xlink:href="#maeee0fbf62" y="74.791056"/>
     <use style="fill:#ff0000;stroke:#000000;" x="96.558545" xlink:href="#maeee0fbf62" y="105.994833"/>
     <use style="fill:#ff0000;stroke:#000000;" x="100.4544" xlink:href="#maeee0fbf62" y="127.861266"/>
     <use style="fill:#ff0000;stroke:#000000;" x="104.350255" xlink:href="#maeee0fbf62" y="144.827906"/>
     <use style="fill:#ff0000;stroke:#000000;" x="108.246109" xlink:href="#maeee0fbf62" y="158.669537"/>
     <use style="fill:#ff0000;stroke:#000000;" x="112.141964" xlink:href="#maeee0fbf62" y="170.33976"/>
     <use style="fill:#ff0000;stroke:#000000;" x="116.037818" xlink:href="#maeee0fbf62" y="180.414168"/>
     <use style="fill:#ff0000;stroke:#000000;" x="119.933673" xlink:href="#maeee0fbf62" y="189.23018"/>
     <use style="fill:#ff0000;stroke:#000000;" x="123.829527" xlink:href="#maeee0fbf62" y="197.047283"/>
     <use style="fill:#ff0000;stroke:#000000;" x="127.725382" xlink:href="#maeee0fbf62" y="204.073446"/>
     <use style="fill:#ff0000;stroke:#000000;" x="131.621236" xlink:href="#maeee0fbf62" y="210.412671"/>
     <use style="fill:#ff0000;stroke:#000000;" x="135.517091" xlink:href="#maeee0fbf62" y="216.173699"/>
     <use style="fill:#ff0000;stroke:#000000;" x="139.412945" xlink:href="#maeee0fbf62" y="221.438084"/>
     <use style="fill:#ff0000;stroke:#000000;" x="143.3088" xlink:href="#maeee0fbf62" y="226.29111"/>
     <use style="fill:#ff0000;stroke:#000000;" x="147.204655" xlink:href="#maeee0fbf62" y="230.772037"/>
     <use style="fill:#ff0000;stroke:#000000;" x="151.100509" xlink:href="#maeee0fbf62" y="234.920512"/>
     <use style="fill:#ff0000;stroke:#000000;" x="154.996364" xlink:href="#maeee0fbf62" y="238.774143"/>
     <use style="fill:#ff0000;stroke:#000000;" x="158.892218" xlink:href="#maeee0fbf62" y="242.364662"/>
     <use style="fill:#ff0000;stroke:#000000;" x="162.788073" xlink:href="#maeee0fbf62" y="245.722315"/>
     <use style="fill:#ff0000;stroke:#000000;" x="166.683927" xlink:href="#maeee0fbf62" y="248.877821"/>
     <use style="fill:#ff0000;stroke:#000000;" x="170.579782" xlink:href="#maeee0fbf62" y="251.837803"/>
     <use style="fill:#ff0000;stroke:#000000;" x="174.475636" xlink:href="#maeee0fbf62" y="254.622362"/>
     <use style="fill:#ff0000;stroke:#000000;" x="178.371491" xlink:href="#maeee0fbf62" y="257.245552"/>
     <use style="fill:#ff0000;stroke:#000000;" x="182.267345" xlink:href="#maeee0fbf62" y="259.72089"/>
     <use style="fill:#ff0000;stroke:#000000;" x="186.1632" xlink:href="#maeee0fbf62" y="262.060333"/>
     <use style="fill:#ff0000;stroke:#000000;" x="190.059055" xlink:href="#maeee0fbf62" y="264.274487"/>
     <use style="fill:#ff0000;stroke:#000000;" x="193.954909" xlink:href="#maeee0fbf62" y="266.376877"/>
     <use style="fill:#ff0000;stroke:#000000;" x="197.850764" xlink:href="#maeee0fbf62" y="268.375036"/>
     <use style="fill:#ff0000;stroke:#000000;" x="201.746618" xlink:href="#maeee0fbf62" y="270.272659"/>
     <use style="fill:#ff0000;stroke:#000000;" x="205.642473" xlink:href="#maeee0fbf62" y="272.076683"/>
     <use style="fill:#ff0000;stroke:#000000;" x="209.538327" xlink:href="#maeee0fbf62" y="273.793364"/>
     <use style="fill:#ff0000;stroke:#000000;" x="213.434182" xlink:href="#maeee0fbf62" y="275.42837"/>
     <use style="fill:#ff0000;stroke:#000000;" x="217.330036" xlink:href="#maeee0fbf62" y="276.986852"/>
     <use style="fill:#ff0000;stroke:#000000;" x="221.225891" xlink:href="#maeee0fbf62" y="278.4735"/>
     <use style="fill:#ff0000;stroke:#000000;" x="225.121745" xlink:href="#maeee0fbf62" y="279.892592"/>
     <use style="fill:#ff0000;stroke:#000000;" x="229.0176" xlink:href="#maeee0fbf62" y="281.24804"/>
     <use style="fill:#ff0000;stroke:#000000;" x="232.913455" xlink:href="#maeee0fbf62" y="282.543425"/>
     <use style="fill:#ff0000;stroke:#000000;" x="236.809309" xlink:href="#maeee0fbf62" y="283.781999"/>
     <use style="fill:#ff0000;stroke:#000000;" x="240.705164" xlink:href="#maeee0fbf62" y="284.96948"/>
     <use style="fill:#ff0000;stroke:#000000;" x="244.601018" xlink:href="#maeee0fbf62" y="286.105894"/>
     <use style="fill:#ff0000;stroke:#000000;" x="248.496873" xlink:href="#maeee0fbf62" y="287.193533"/>
     <use style="fill:#ff0000;stroke:#000000;" x="252.392727" xlink:href="#maeee0fbf62" y="288.235944"/>
     <use style="fill:#ff0000;stroke:#000000;" x="256.288582" xlink:href="#maeee0fbf62" y="289.232994"/>
     <use style="fill:#ff0000;stroke:#000000;" x="260.184436" xlink:href="#maeee0fbf62" y="290.187831"/>
     <use style="fill:#ff0000;stroke:#000000;" x="264.080291" xlink:href="#maeee0fbf62" y="291.102303"/>
     <use style="fill:#ff0000;stroke:#000000;" x="267.976145" xlink:href="#maeee0fbf62" y="291.978109"/>
     <use style="fill:#ff0000;stroke:#000000;" x="271.872" xlink:href="#maeee0fbf62" y="292.816806"/>
     <use style="fill:#ff0000;stroke:#000000;" x="275.767855" xlink:href="#maeee0fbf62" y="293.619822"/>
     <use style="fill:#ff0000;stroke:#000000;" x="279.663709" xlink:href="#maeee0fbf62" y="294.388461"/>
     <use style="fill:#ff0000;stroke:#000000;" x="283.559564" xlink:href="#maeee0fbf62" y="295.123912"/>
     <use style="fill:#ff0000;stroke:#000000;" x="287.455418" xlink:href="#maeee0fbf62" y="295.82725"/>
     <use style="fill:#ff0000;stroke:#000000;" x="291.351273" xlink:href="#maeee0fbf62" y="296.499445"/>
     <use style="fill:#ff0000;stroke:#000000;" x="295.247127" xlink:href="#maeee0fbf62" y="297.141362"/>
     <use style="fill:#ff0000;stroke:#000000;" x="299.142982" xlink:href="#maeee0fbf62" y="297.75377"/>
     <use style="fill:#ff0000;stroke:#000000;" x="303.038836" xlink:href="#maeee0fbf62" y="298.337339"/>
     <use style="fill:#ff0000;stroke:#000000;" x="306.934691" xlink:href="#maeee0fbf62" y="298.892655"/>
     <use style="fill:#ff0000;stroke:#000000;" x="310.830545" xlink:href="#maeee0fbf62" y="299.42022"/>
     <use style="fill:#ff0000;stroke:#000000;" x="314.7264" xlink:href="#maeee0fbf62" y="299.920474"/>
     <use style="fill:#ff0000;stroke:#000000;" x="318.622255" xlink:href="#maeee0fbf62" y="300.393807"/>
     <use style="fill:#ff0000;stroke:#000000;" x="322.518109" xlink:href="#maeee0fbf62" y="300.840591"/>
     <use style="fill:#ff0000;stroke:#000000;" x="326.413964" xlink:href="#maeee0fbf62" y="301.261209"/>
     <use style="fill:#ff0000;stroke:#000000;" x="330.309818" xlink:href="#maeee0fbf62" y="301.656092"/>
     <use style="fill:#ff0000;stroke:#000000;" x="334.205673" xlink:href="#maeee0fbf62" y="302.024755"/>
     <use style="fill:#ff0000;stroke:#000000;" x="338.101527" xlink:href="#maeee0fbf62" y="302.370274"/>
     <use style="fill:#ff0000;stroke:#000000;" x="341.997382" xlink:href="#maeee0fbf62" y="302.691926"/>
     <use style="fill:#ff0000;stroke:#000000;" x="345.893236" xlink:href="#maeee0fbf62" y="302.990604"/>
     <use style="fill:#ff0000;stroke:#000000;" x="349.789091" xlink:href="#maeee0fbf62" y="303.266359"/>
     <use style="fill:#ff0000;stroke:#000000;" x="353.684945" xlink:href="#maeee0fbf62" y="303.522448"/>
     <use style="fill:#ff0000;stroke:#000000;" x="357.5808" xlink:href="#maeee0fbf62" y="303.758954"/>
     <use style="fill:#ff0000;stroke:#000000;" x="361.476655" xlink:href="#maeee0fbf62" y="303.976202"/>
     <use style="fill:#ff0000;stroke:#000000;" x="365.372509" xlink:href="#maeee0fbf62" y="304.17755"/>
     <use style="fill:#ff0000;stroke:#000000;" x="369.268364" xlink:href="#maeee0fbf62" y="304.363152"/>
     <use style="fill:#ff0000;stroke:#000000;" x="373.164218" xlink:href="#maeee0fbf62" y="304.533326"/>
     <use style="fill:#ff0000;stroke:#000000;" x="377.060073" xlink:href="#maeee0fbf62" y="304.691293"/>
     <use style="fill:#ff0000;stroke:#000000;" x="380.955927" xlink:href="#maeee0fbf62" y="304.837067"/>
     <use style="fill:#ff0000;stroke:#000000;" x="384.851782" xlink:href="#maeee0fbf62" y="304.970721"/>
     <use style="fill:#ff0000;stroke:#000000;" x="388.747636" xlink:href="#maeee0fbf62" y="305.095356"/>
     <use style="fill:#ff0000;stroke:#000000;" x="392.643491" xlink:href="#maeee0fbf62" y="305.210706"/>
     <use style="fill:#ff0000;stroke:#000000;" x="396.539345" xlink:href="#maeee0fbf62" y="305.317585"/>
     <use style="fill:#ff0000;stroke:#000000;" x="400.4352" xlink:href="#maeee0fbf62" y="305.416745"/>
     <use style="fill:#ff0000;stroke:#000000;" x="404.331055" xlink:href="#maeee0fbf62" y="305.643446"/>
     <use style="fill:#ff0000;stroke:#000000;" x="408.226909" xlink:href="#maeee0fbf62" y="305.880196"/>
    </g>
   </g>
   <g id="patch_3">
    <path d="M 57.6 307.584 
L 57.6 41.472 
" style="fill:none;stroke:#000000;stroke-linecap:square;stroke-linejoin:miter;stroke-width:0.8;"/>
   </g>
   <g id="patch_4">
    <path d="M 414.72 307.584 
L 414.72 41.472 
" style="fill:none;stroke:#000000;stroke-linecap:square;stroke-linejoin:miter;stroke-width:0.8;"/>
   </g>
   <g id="patch_5">
    <path d="M 57.6 307.584 
L 414.72 307.584 
" style="fill:none;stroke:#000000;stroke-linecap:square;stroke-linejoin:miter;stroke-width:0.8;"/>
   </g>
   <g id="patch_6">
    <path d="M 57.6 41.472 
L 414.72 41.472 
" style="fill:none;stroke:#000000;stroke-linecap:square;stroke-linejoin:miter;stroke-width:0.8;"/>
   </g>
   <g id="text_17">
    <!-- b/h = 20 -->
    <defs>
     <path d="M 48.6875 27.296875 
Q 48.6875 37.203125 44.609375 42.84375 
Q 40.53125 48.484375 33.40625 48.484375 
Q 26.265625 48.484375 22.1875 42.84375 
Q 18.109375 37.203125 18.109375 27.296875 
Q 18.109375 17.390625 22.1875 11.75 
Q 26.265625 6.109375 33.40625 6.109375 
Q 40.53125 6.109375 44.609375 11.75 
Q 48.6875 17.390625 48.6875 27.296875 
z
M 18.109375 46.390625 
Q 20.953125 51.265625 25.265625 53.625 
Q 29.59375 56 35.59375 56 
Q 45.5625 56 51.78125 48.09375 
Q 58.015625 40.1875 58.015625 27.296875 
Q 58.015625 14.40625 51.78125 6.484375 
Q 45.5625 -1.421875 35.59375 -1.421875 
Q 29.59375 -1.421875 25.265625 0.953125 
Q 20.953125 3.328125 18.109375 8.203125 
L 18.109375 0 
L 9.078125 0 
L 9.078125 75.984375 
L 18.109375 75.984375 
z
" id="DejaVuSans-98"/>
     <path d="M 25.390625 72.90625 
L 33.6875 72.90625 
L 8.296875 -9.28125 
L 0 -9.28125 
z
" id="DejaVuSans-47"/>
     <path d="M 54.890625 33.015625 
L 54.890625 0 
L 45.90625 0 
L 45.90625 32.71875 
Q 45.90625 40.484375 42.875 44.328125 
Q 39.84375 48.1875 33.796875 48.1875 
Q 26.515625 48.1875 22.3125 43.546875 
Q 18.109375 38.921875 18.109375 30.90625 
L 18.109375 0 
L 9.078125 0 
L 9.078125 75.984375 
L 18.109375 75.984375 
L 18.109375 46.1875 
Q 21.34375 51.125 25.703125 53.5625 
Q 30.078125 56 35.796875 56 
Q 45.21875 56 50.046875 50.171875 
Q 54.890625 44.34375 54.890625 33.015625 
z
" id="DejaVuSans-104"/>
     <path d="M 10.59375 45.40625 
L 73.1875 45.40625 
L 73.1875 37.203125 
L 10.59375 37.203125 
z
M 10.59375 25.484375 
L 73.1875 25.484375 
L 73.1875 17.1875 
L 10.59375 17.1875 
z
" id="DejaVuSans-61"/>
    </defs>
    <g transform="translate(210.050625 35.472)scale(0.12 -0.12)">
     <use xlink:href="#DejaVuSans-98"/>
     <use x="63.476562" xlink:href="#DejaVuSans-47"/>
     <use x="97.167969" xlink:href="#DejaVuSans-104"/>
     <use x="160.546875" xlink:href="#DejaVuSans-32"/>
     <use x="192.333984" xlink:href="#DejaVuSans-61"/>
     <use x="276.123047" xlink:href="#DejaVuSans-32"/>
     <use x="307.910156" xlink:href="#DejaVuSans-50"/>
     <use x="371.533203" xlink:href="#DejaVuSans-48"/>
    </g>
   </g>
   <g id="legend_1">
    <g id="patch_7">
     <path d="M 333.287188 109.297 
L 407.72 109.297 
Q 409.72 109.297 409.72 107.297 
L 409.72 48.472 
Q 409.72 46.472 407.72 46.472 
L 333.287188 46.472 
Q 331.287188 46.472 331.287188 48.472 
L 331.287188 107.297 
Q 331.287188 109.297 333.287188 109.297 
z
" style="fill:#ffffff;opacity:0.8;stroke:#cccccc;stroke-linejoin:miter;"/>
    </g>
    <g id="line2d_33">
     <path d="M 335.287188 54.570437 
L 355.287188 54.570437 
" style="fill:none;stroke:#000000;stroke-linecap:square;stroke-width:2;"/>
    </g>
    <g id="line2d_34">
     <g>
      <use style="fill:#ff0000;stroke:#000000;" x="345.287188" xlink:href="#m6ef9fc5252" y="54.570437"/>
     </g>
    </g>
    <g id="text_18">
     <!-- C_20_5 -->
     <defs>
      <path d="M 64.40625 67.28125 
L 64.40625 56.890625 
Q 59.421875 61.53125 53.78125 63.8125 
Q 48.140625 66.109375 41.796875 66.109375 
Q 29.296875 66.109375 22.65625 58.46875 
Q 16.015625 50.828125 16.015625 36.375 
Q 16.015625 21.96875 22.65625 14.328125 
Q 29.296875 6.6875 41.796875 6.6875 
Q 48.140625 6.6875 53.78125 8.984375 
Q 59.421875 11.28125 64.40625 15.921875 
L 64.40625 5.609375 
Q 59.234375 2.09375 53.4375 0.328125 
Q 47.65625 -1.421875 41.21875 -1.421875 
Q 24.65625 -1.421875 15.125 8.703125 
Q 5.609375 18.84375 5.609375 36.375 
Q 5.609375 53.953125 15.125 64.078125 
Q 24.65625 74.21875 41.21875 74.21875 
Q 47.75 74.21875 53.53125 72.484375 
Q 59.328125 70.75 64.40625 67.28125 
z
" id="DejaVuSans-67"/>
      <path d="M 50.984375 -16.609375 
L 50.984375 -23.578125 
L -0.984375 -23.578125 
L -0.984375 -16.609375 
z
" id="DejaVuSans-95"/>
     </defs>
     <g transform="translate(363.287188 58.070437)scale(0.1 -0.1)">
      <use xlink:href="#DejaVuSans-67"/>
      <use x="69.824219" xlink:href="#DejaVuSans-95"/>
      <use x="119.824219" xlink:href="#DejaVuSans-50"/>
      <use x="183.447266" xlink:href="#DejaVuSans-48"/>
      <use x="247.070312" xlink:href="#DejaVuSans-95"/>
      <use x="297.070312" xlink:href="#DejaVuSans-53"/>
     </g>
    </g>
    <g id="line2d_35">
     <path d="M 335.287188 69.526687 
L 355.287188 69.526687 
" style="fill:none;stroke:#000000;stroke-linecap:square;stroke-width:2;"/>
    </g>
    <g id="line2d_36">
     <g>
      <use style="fill:#ff0000;stroke:#000000;stroke-linejoin:miter;" x="345.287188" xlink:href="#m6794b7e863" y="69.526687"/>
     </g>
    </g>
    <g id="text_19">
     <!-- C_20_10 -->
     <g transform="translate(363.287188 73.026687)scale(0.1 -0.1)">
      <use xlink:href="#DejaVuSans-67"/>
      <use x="69.824219" xlink:href="#DejaVuSans-95"/>
      <use x="119.824219" xlink:href="#DejaVuSans-50"/>
      <use x="183.447266" xlink:href="#DejaVuSans-48"/>
      <use x="247.070312" xlink:href="#DejaVuSans-95"/>
      <use x="297.070312" xlink:href="#DejaVuSans-49"/>
      <use x="360.693359" xlink:href="#DejaVuSans-48"/>
     </g>
    </g>
    <g id="line2d_37">
     <path d="M 335.287188 84.482937 
L 355.287188 84.482937 
" style="fill:none;stroke:#000000;stroke-linecap:square;stroke-width:2;"/>
    </g>
    <g id="line2d_38">
     <g>
      <use style="fill:#ff0000;stroke:#000000;stroke-linejoin:miter;" x="345.287188" xlink:href="#m8a653d414b" y="84.482937"/>
     </g>
    </g>
    <g id="text_20">
     <!-- C_20_20 -->
     <g transform="translate(363.287188 87.982937)scale(0.1 -0.1)">
      <use xlink:href="#DejaVuSans-67"/>
      <use x="69.824219" xlink:href="#DejaVuSans-95"/>
      <use x="119.824219" xlink:href="#DejaVuSans-50"/>
      <use x="183.447266" xlink:href="#DejaVuSans-48"/>
      <use x="247.070312" xlink:href="#DejaVuSans-95"/>
      <use x="297.070312" xlink:href="#DejaVuSans-50"/>
      <use x="360.693359" xlink:href="#DejaVuSans-48"/>
     </g>
    </g>
    <g id="line2d_39">
     <path d="M 335.287188 99.439187 
L 355.287188 99.439187 
" style="fill:none;stroke:#000000;stroke-linecap:square;stroke-width:2;"/>
    </g>
    <g id="line2d_40">
     <g>
      <use style="fill:#ff0000;stroke:#000000;" x="345.287188" xlink:href="#maeee0fbf62" y="99.439187"/>
     </g>
    </g>
    <g id="text_21">
     <!-- C_20_50 -->
     <g transform="translate(363.287188 102.939187)scale(0.1 -0.1)">
      <use xlink:href="#DejaVuSans-67"/>
      <use x="69.824219" xlink:href="#DejaVuSans-95"/>
      <use x="119.824219" xlink:href="#DejaVuSans-50"/>
      <use x="183.447266" xlink:href="#DejaVuSans-48"/>
      <use x="247.070312" xlink:href="#DejaVuSans-95"/>
      <use x="297.070312" xlink:href="#DejaVuSans-53"/>
      <use x="360.693359" xlink:href="#DejaVuSans-48"/>
     </g>
    </g>
   </g>
  </g>
 </g>
 <defs>
  <clipPath id="p7d754157d2">
   <rect height="266.112" width="357.12" x="57.6" y="41.472"/>
  </clipPath>
 </defs>
</svg>
