<?xml version="1.0" encoding="utf-8" standalone="no"?>
<!DOCTYPE svg PUBLIC "-//W3C//DTD SVG 1.1//EN"
  "http://www.w3.org/Graphics/SVG/1.1/DTD/svg11.dtd">
<!-- Created with matplotlib (https://matplotlib.org/) -->
<svg height="345.6pt" version="1.1" viewBox="0 0 460.8 345.6" width="460.8pt" xmlns="http://www.w3.org/2000/svg" xmlns:xlink="http://www.w3.org/1999/xlink">
 <defs>
  <style type="text/css">
*{stroke-linecap:butt;stroke-linejoin:round;}
  </style>
 </defs>
 <g id="figure_1">
  <g id="patch_1">
   <path d="M 0 345.6 
L 460.8 345.6 
L 460.8 0 
L 0 0 
z
" style="fill:#ffffff;"/>
  </g>
  <g id="axes_1">
   <g id="patch_2">
    <path d="M 57.6 307.584 
L 414.72 307.584 
L 414.72 41.472 
L 57.6 41.472 
z
" style="fill:#ffffff;"/>
   </g>
   <g id="matplotlib.axis_1">
    <g id="xtick_1">
     <g id="line2d_1">
      <path clip-path="url(#p73c50c863e)" d="M 57.6 307.584 
L 57.6 41.472 
" style="fill:none;stroke:#b0b0b0;stroke-linecap:square;stroke-width:0.8;"/>
     </g>
     <g id="line2d_2">
      <defs>
       <path d="M 0 0 
L 0 3.5 
" id="m147d83f4ec" style="stroke:#000000;stroke-width:0.8;"/>
      </defs>
      <g>
       <use style="stroke:#000000;stroke-width:0.8;" x="57.6" xlink:href="#m147d83f4ec" y="307.584"/>
      </g>
     </g>
     <g id="text_1">
      <!-- 0.00 -->
      <defs>
       <path d="M 31.78125 66.40625 
Q 24.171875 66.40625 20.328125 58.90625 
Q 16.5 51.421875 16.5 36.375 
Q 16.5 21.390625 20.328125 13.890625 
Q 24.171875 6.390625 31.78125 6.390625 
Q 39.453125 6.390625 43.28125 13.890625 
Q 47.125 21.390625 47.125 36.375 
Q 47.125 51.421875 43.28125 58.90625 
Q 39.453125 66.40625 31.78125 66.40625 
z
M 31.78125 74.21875 
Q 44.046875 74.21875 50.515625 64.515625 
Q 56.984375 54.828125 56.984375 36.375 
Q 56.984375 17.96875 50.515625 8.265625 
Q 44.046875 -1.421875 31.78125 -1.421875 
Q 19.53125 -1.421875 13.0625 8.265625 
Q 6.59375 17.96875 6.59375 36.375 
Q 6.59375 54.828125 13.0625 64.515625 
Q 19.53125 74.21875 31.78125 74.21875 
z
" id="DejaVuSans-48"/>
       <path d="M 10.6875 12.40625 
L 21 12.40625 
L 21 0 
L 10.6875 0 
z
" id="DejaVuSans-46"/>
      </defs>
      <g transform="translate(46.467188 322.182437)scale(0.1 -0.1)">
       <use xlink:href="#DejaVuSans-48"/>
       <use x="63.623047" xlink:href="#DejaVuSans-46"/>
       <use x="95.410156" xlink:href="#DejaVuSans-48"/>
       <use x="159.033203" xlink:href="#DejaVuSans-48"/>
      </g>
     </g>
    </g>
    <g id="xtick_2">
     <g id="line2d_3">
      <path clip-path="url(#p73c50c863e)" d="M 122.530909 307.584 
L 122.530909 41.472 
" style="fill:none;stroke:#b0b0b0;stroke-linecap:square;stroke-width:0.8;"/>
     </g>
     <g id="line2d_4">
      <g>
       <use style="stroke:#000000;stroke-width:0.8;" x="122.530909" xlink:href="#m147d83f4ec" y="307.584"/>
      </g>
     </g>
     <g id="text_2">
      <!-- 0.04 -->
      <defs>
       <path d="M 37.796875 64.3125 
L 12.890625 25.390625 
L 37.796875 25.390625 
z
M 35.203125 72.90625 
L 47.609375 72.90625 
L 47.609375 25.390625 
L 58.015625 25.390625 
L 58.015625 17.1875 
L 47.609375 17.1875 
L 47.609375 0 
L 37.796875 0 
L 37.796875 17.1875 
L 4.890625 17.1875 
L 4.890625 26.703125 
z
" id="DejaVuSans-52"/>
      </defs>
      <g transform="translate(111.398097 322.182437)scale(0.1 -0.1)">
       <use xlink:href="#DejaVuSans-48"/>
       <use x="63.623047" xlink:href="#DejaVuSans-46"/>
       <use x="95.410156" xlink:href="#DejaVuSans-48"/>
       <use x="159.033203" xlink:href="#DejaVuSans-52"/>
      </g>
     </g>
    </g>
    <g id="xtick_3">
     <g id="line2d_5">
      <path clip-path="url(#p73c50c863e)" d="M 187.461818 307.584 
L 187.461818 41.472 
" style="fill:none;stroke:#b0b0b0;stroke-linecap:square;stroke-width:0.8;"/>
     </g>
     <g id="line2d_6">
      <g>
       <use style="stroke:#000000;stroke-width:0.8;" x="187.461818" xlink:href="#m147d83f4ec" y="307.584"/>
      </g>
     </g>
     <g id="text_3">
      <!-- 0.08 -->
      <defs>
       <path d="M 31.78125 34.625 
Q 24.75 34.625 20.71875 30.859375 
Q 16.703125 27.09375 16.703125 20.515625 
Q 16.703125 13.921875 20.71875 10.15625 
Q 24.75 6.390625 31.78125 6.390625 
Q 38.8125 6.390625 42.859375 10.171875 
Q 46.921875 13.96875 46.921875 20.515625 
Q 46.921875 27.09375 42.890625 30.859375 
Q 38.875 34.625 31.78125 34.625 
z
M 21.921875 38.8125 
Q 15.578125 40.375 12.03125 44.71875 
Q 8.5 49.078125 8.5 55.328125 
Q 8.5 64.0625 14.71875 69.140625 
Q 20.953125 74.21875 31.78125 74.21875 
Q 42.671875 74.21875 48.875 69.140625 
Q 55.078125 64.0625 55.078125 55.328125 
Q 55.078125 49.078125 51.53125 44.71875 
Q 48 40.375 41.703125 38.8125 
Q 48.828125 37.15625 52.796875 32.3125 
Q 56.78125 27.484375 56.78125 20.515625 
Q 56.78125 9.90625 50.3125 4.234375 
Q 43.84375 -1.421875 31.78125 -1.421875 
Q 19.734375 -1.421875 13.25 4.234375 
Q 6.78125 9.90625 6.78125 20.515625 
Q 6.78125 27.484375 10.78125 32.3125 
Q 14.796875 37.15625 21.921875 38.8125 
z
M 18.3125 54.390625 
Q 18.3125 48.734375 21.84375 45.5625 
Q 25.390625 42.390625 31.78125 42.390625 
Q 38.140625 42.390625 41.71875 45.5625 
Q 45.3125 48.734375 45.3125 54.390625 
Q 45.3125 60.0625 41.71875 63.234375 
Q 38.140625 66.40625 31.78125 66.40625 
Q 25.390625 66.40625 21.84375 63.234375 
Q 18.3125 60.0625 18.3125 54.390625 
z
" id="DejaVuSans-56"/>
      </defs>
      <g transform="translate(176.329006 322.182437)scale(0.1 -0.1)">
       <use xlink:href="#DejaVuSans-48"/>
       <use x="63.623047" xlink:href="#DejaVuSans-46"/>
       <use x="95.410156" xlink:href="#DejaVuSans-48"/>
       <use x="159.033203" xlink:href="#DejaVuSans-56"/>
      </g>
     </g>
    </g>
    <g id="xtick_4">
     <g id="line2d_7">
      <path clip-path="url(#p73c50c863e)" d="M 252.392727 307.584 
L 252.392727 41.472 
" style="fill:none;stroke:#b0b0b0;stroke-linecap:square;stroke-width:0.8;"/>
     </g>
     <g id="line2d_8">
      <g>
       <use style="stroke:#000000;stroke-width:0.8;" x="252.392727" xlink:href="#m147d83f4ec" y="307.584"/>
      </g>
     </g>
     <g id="text_4">
      <!-- 0.12 -->
      <defs>
       <path d="M 12.40625 8.296875 
L 28.515625 8.296875 
L 28.515625 63.921875 
L 10.984375 60.40625 
L 10.984375 69.390625 
L 28.421875 72.90625 
L 38.28125 72.90625 
L 38.28125 8.296875 
L 54.390625 8.296875 
L 54.390625 0 
L 12.40625 0 
z
" id="DejaVuSans-49"/>
       <path d="M 19.1875 8.296875 
L 53.609375 8.296875 
L 53.609375 0 
L 7.328125 0 
L 7.328125 8.296875 
Q 12.9375 14.109375 22.625 23.890625 
Q 32.328125 33.6875 34.8125 36.53125 
Q 39.546875 41.84375 41.421875 45.53125 
Q 43.3125 49.21875 43.3125 52.78125 
Q 43.3125 58.59375 39.234375 62.25 
Q 35.15625 65.921875 28.609375 65.921875 
Q 23.96875 65.921875 18.8125 64.3125 
Q 13.671875 62.703125 7.8125 59.421875 
L 7.8125 69.390625 
Q 13.765625 71.78125 18.9375 73 
Q 24.125 74.21875 28.421875 74.21875 
Q 39.75 74.21875 46.484375 68.546875 
Q 53.21875 62.890625 53.21875 53.421875 
Q 53.21875 48.921875 51.53125 44.890625 
Q 49.859375 40.875 45.40625 35.40625 
Q 44.1875 33.984375 37.640625 27.21875 
Q 31.109375 20.453125 19.1875 8.296875 
z
" id="DejaVuSans-50"/>
      </defs>
      <g transform="translate(241.259915 322.182437)scale(0.1 -0.1)">
       <use xlink:href="#DejaVuSans-48"/>
       <use x="63.623047" xlink:href="#DejaVuSans-46"/>
       <use x="95.410156" xlink:href="#DejaVuSans-49"/>
       <use x="159.033203" xlink:href="#DejaVuSans-50"/>
      </g>
     </g>
    </g>
    <g id="xtick_5">
     <g id="line2d_9">
      <path clip-path="url(#p73c50c863e)" d="M 317.323636 307.584 
L 317.323636 41.472 
" style="fill:none;stroke:#b0b0b0;stroke-linecap:square;stroke-width:0.8;"/>
     </g>
     <g id="line2d_10">
      <g>
       <use style="stroke:#000000;stroke-width:0.8;" x="317.323636" xlink:href="#m147d83f4ec" y="307.584"/>
      </g>
     </g>
     <g id="text_5">
      <!-- 0.16 -->
      <defs>
       <path d="M 33.015625 40.375 
Q 26.375 40.375 22.484375 35.828125 
Q 18.609375 31.296875 18.609375 23.390625 
Q 18.609375 15.53125 22.484375 10.953125 
Q 26.375 6.390625 33.015625 6.390625 
Q 39.65625 6.390625 43.53125 10.953125 
Q 47.40625 15.53125 47.40625 23.390625 
Q 47.40625 31.296875 43.53125 35.828125 
Q 39.65625 40.375 33.015625 40.375 
z
M 52.59375 71.296875 
L 52.59375 62.3125 
Q 48.875 64.0625 45.09375 64.984375 
Q 41.3125 65.921875 37.59375 65.921875 
Q 27.828125 65.921875 22.671875 59.328125 
Q 17.53125 52.734375 16.796875 39.40625 
Q 19.671875 43.65625 24.015625 45.921875 
Q 28.375 48.1875 33.59375 48.1875 
Q 44.578125 48.1875 50.953125 41.515625 
Q 57.328125 34.859375 57.328125 23.390625 
Q 57.328125 12.15625 50.6875 5.359375 
Q 44.046875 -1.421875 33.015625 -1.421875 
Q 20.359375 -1.421875 13.671875 8.265625 
Q 6.984375 17.96875 6.984375 36.375 
Q 6.984375 53.65625 15.1875 63.9375 
Q 23.390625 74.21875 37.203125 74.21875 
Q 40.921875 74.21875 44.703125 73.484375 
Q 48.484375 72.75 52.59375 71.296875 
z
" id="DejaVuSans-54"/>
      </defs>
      <g transform="translate(306.190824 322.182437)scale(0.1 -0.1)">
       <use xlink:href="#DejaVuSans-48"/>
       <use x="63.623047" xlink:href="#DejaVuSans-46"/>
       <use x="95.410156" xlink:href="#DejaVuSans-49"/>
       <use x="159.033203" xlink:href="#DejaVuSans-54"/>
      </g>
     </g>
    </g>
    <g id="xtick_6">
     <g id="line2d_11">
      <path clip-path="url(#p73c50c863e)" d="M 382.254545 307.584 
L 382.254545 41.472 
" style="fill:none;stroke:#b0b0b0;stroke-linecap:square;stroke-width:0.8;"/>
     </g>
     <g id="line2d_12">
      <g>
       <use style="stroke:#000000;stroke-width:0.8;" x="382.254545" xlink:href="#m147d83f4ec" y="307.584"/>
      </g>
     </g>
     <g id="text_6">
      <!-- 0.20 -->
      <g transform="translate(371.121733 322.182437)scale(0.1 -0.1)">
       <use xlink:href="#DejaVuSans-48"/>
       <use x="63.623047" xlink:href="#DejaVuSans-46"/>
       <use x="95.410156" xlink:href="#DejaVuSans-50"/>
       <use x="159.033203" xlink:href="#DejaVuSans-48"/>
      </g>
     </g>
    </g>
    <g id="xtick_7">
     <g id="line2d_13">
      <path clip-path="url(#p73c50c863e)" d="M 414.72 307.584 
L 414.72 41.472 
" style="fill:none;stroke:#b0b0b0;stroke-linecap:square;stroke-width:0.8;"/>
     </g>
     <g id="line2d_14">
      <g>
       <use style="stroke:#000000;stroke-width:0.8;" x="414.72" xlink:href="#m147d83f4ec" y="307.584"/>
      </g>
     </g>
     <g id="text_7">
      <!-- 0.22 -->
      <g transform="translate(403.587188 322.182437)scale(0.1 -0.1)">
       <use xlink:href="#DejaVuSans-48"/>
       <use x="63.623047" xlink:href="#DejaVuSans-46"/>
       <use x="95.410156" xlink:href="#DejaVuSans-50"/>
       <use x="159.033203" xlink:href="#DejaVuSans-50"/>
      </g>
     </g>
    </g>
    <g id="text_8">
     <!-- Displacement (mm) -->
     <defs>
      <path d="M 19.671875 64.796875 
L 19.671875 8.109375 
L 31.59375 8.109375 
Q 46.6875 8.109375 53.6875 14.9375 
Q 60.6875 21.78125 60.6875 36.53125 
Q 60.6875 51.171875 53.6875 57.984375 
Q 46.6875 64.796875 31.59375 64.796875 
z
M 9.8125 72.90625 
L 30.078125 72.90625 
Q 51.265625 72.90625 61.171875 64.09375 
Q 71.09375 55.28125 71.09375 36.53125 
Q 71.09375 17.671875 61.125 8.828125 
Q 51.171875 0 30.078125 0 
L 9.8125 0 
z
" id="DejaVuSans-68"/>
      <path d="M 9.421875 54.6875 
L 18.40625 54.6875 
L 18.40625 0 
L 9.421875 0 
z
M 9.421875 75.984375 
L 18.40625 75.984375 
L 18.40625 64.59375 
L 9.421875 64.59375 
z
" id="DejaVuSans-105"/>
      <path d="M 44.28125 53.078125 
L 44.28125 44.578125 
Q 40.484375 46.53125 36.375 47.5 
Q 32.28125 48.484375 27.875 48.484375 
Q 21.1875 48.484375 17.84375 46.4375 
Q 14.5 44.390625 14.5 40.28125 
Q 14.5 37.15625 16.890625 35.375 
Q 19.28125 33.59375 26.515625 31.984375 
L 29.59375 31.296875 
Q 39.15625 29.25 43.1875 25.515625 
Q 47.21875 21.78125 47.21875 15.09375 
Q 47.21875 7.46875 41.1875 3.015625 
Q 35.15625 -1.421875 24.609375 -1.421875 
Q 20.21875 -1.421875 15.453125 -0.5625 
Q 10.6875 0.296875 5.421875 2 
L 5.421875 11.28125 
Q 10.40625 8.6875 15.234375 7.390625 
Q 20.0625 6.109375 24.8125 6.109375 
Q 31.15625 6.109375 34.5625 8.28125 
Q 37.984375 10.453125 37.984375 14.40625 
Q 37.984375 18.0625 35.515625 20.015625 
Q 33.0625 21.96875 24.703125 23.78125 
L 21.578125 24.515625 
Q 13.234375 26.265625 9.515625 29.90625 
Q 5.8125 33.546875 5.8125 39.890625 
Q 5.8125 47.609375 11.28125 51.796875 
Q 16.75 56 26.8125 56 
Q 31.78125 56 36.171875 55.265625 
Q 40.578125 54.546875 44.28125 53.078125 
z
" id="DejaVuSans-115"/>
      <path d="M 18.109375 8.203125 
L 18.109375 -20.796875 
L 9.078125 -20.796875 
L 9.078125 54.6875 
L 18.109375 54.6875 
L 18.109375 46.390625 
Q 20.953125 51.265625 25.265625 53.625 
Q 29.59375 56 35.59375 56 
Q 45.5625 56 51.78125 48.09375 
Q 58.015625 40.1875 58.015625 27.296875 
Q 58.015625 14.40625 51.78125 6.484375 
Q 45.5625 -1.421875 35.59375 -1.421875 
Q 29.59375 -1.421875 25.265625 0.953125 
Q 20.953125 3.328125 18.109375 8.203125 
z
M 48.6875 27.296875 
Q 48.6875 37.203125 44.609375 42.84375 
Q 40.53125 48.484375 33.40625 48.484375 
Q 26.265625 48.484375 22.1875 42.84375 
Q 18.109375 37.203125 18.109375 27.296875 
Q 18.109375 17.390625 22.1875 11.75 
Q 26.265625 6.109375 33.40625 6.109375 
Q 40.53125 6.109375 44.609375 11.75 
Q 48.6875 17.390625 48.6875 27.296875 
z
" id="DejaVuSans-112"/>
      <path d="M 9.421875 75.984375 
L 18.40625 75.984375 
L 18.40625 0 
L 9.421875 0 
z
" id="DejaVuSans-108"/>
      <path d="M 34.28125 27.484375 
Q 23.390625 27.484375 19.1875 25 
Q 14.984375 22.515625 14.984375 16.5 
Q 14.984375 11.71875 18.140625 8.90625 
Q 21.296875 6.109375 26.703125 6.109375 
Q 34.1875 6.109375 38.703125 11.40625 
Q 43.21875 16.703125 43.21875 25.484375 
L 43.21875 27.484375 
z
M 52.203125 31.203125 
L 52.203125 0 
L 43.21875 0 
L 43.21875 8.296875 
Q 40.140625 3.328125 35.546875 0.953125 
Q 30.953125 -1.421875 24.3125 -1.421875 
Q 15.921875 -1.421875 10.953125 3.296875 
Q 6 8.015625 6 15.921875 
Q 6 25.140625 12.171875 29.828125 
Q 18.359375 34.515625 30.609375 34.515625 
L 43.21875 34.515625 
L 43.21875 35.40625 
Q 43.21875 41.609375 39.140625 45 
Q 35.0625 48.390625 27.6875 48.390625 
Q 23 48.390625 18.546875 47.265625 
Q 14.109375 46.140625 10.015625 43.890625 
L 10.015625 52.203125 
Q 14.9375 54.109375 19.578125 55.046875 
Q 24.21875 56 28.609375 56 
Q 40.484375 56 46.34375 49.84375 
Q 52.203125 43.703125 52.203125 31.203125 
z
" id="DejaVuSans-97"/>
      <path d="M 48.78125 52.59375 
L 48.78125 44.1875 
Q 44.96875 46.296875 41.140625 47.34375 
Q 37.3125 48.390625 33.40625 48.390625 
Q 24.65625 48.390625 19.8125 42.84375 
Q 14.984375 37.3125 14.984375 27.296875 
Q 14.984375 17.28125 19.8125 11.734375 
Q 24.65625 6.203125 33.40625 6.203125 
Q 37.3125 6.203125 41.140625 7.25 
Q 44.96875 8.296875 48.78125 10.40625 
L 48.78125 2.09375 
Q 45.015625 0.34375 40.984375 -0.53125 
Q 36.96875 -1.421875 32.421875 -1.421875 
Q 20.0625 -1.421875 12.78125 6.34375 
Q 5.515625 14.109375 5.515625 27.296875 
Q 5.515625 40.671875 12.859375 48.328125 
Q 20.21875 56 33.015625 56 
Q 37.15625 56 41.109375 55.140625 
Q 45.0625 54.296875 48.78125 52.59375 
z
" id="DejaVuSans-99"/>
      <path d="M 56.203125 29.59375 
L 56.203125 25.203125 
L 14.890625 25.203125 
Q 15.484375 15.921875 20.484375 11.0625 
Q 25.484375 6.203125 34.421875 6.203125 
Q 39.59375 6.203125 44.453125 7.46875 
Q 49.3125 8.734375 54.109375 11.28125 
L 54.109375 2.78125 
Q 49.265625 0.734375 44.1875 -0.34375 
Q 39.109375 -1.421875 33.890625 -1.421875 
Q 20.796875 -1.421875 13.15625 6.1875 
Q 5.515625 13.8125 5.515625 26.8125 
Q 5.515625 40.234375 12.765625 48.109375 
Q 20.015625 56 32.328125 56 
Q 43.359375 56 49.78125 48.890625 
Q 56.203125 41.796875 56.203125 29.59375 
z
M 47.21875 32.234375 
Q 47.125 39.59375 43.09375 43.984375 
Q 39.0625 48.390625 32.421875 48.390625 
Q 24.90625 48.390625 20.390625 44.140625 
Q 15.875 39.890625 15.1875 32.171875 
z
" id="DejaVuSans-101"/>
      <path d="M 52 44.1875 
Q 55.375 50.25 60.0625 53.125 
Q 64.75 56 71.09375 56 
Q 79.640625 56 84.28125 50.015625 
Q 88.921875 44.046875 88.921875 33.015625 
L 88.921875 0 
L 79.890625 0 
L 79.890625 32.71875 
Q 79.890625 40.578125 77.09375 44.375 
Q 74.3125 48.1875 68.609375 48.1875 
Q 61.625 48.1875 57.5625 43.546875 
Q 53.515625 38.921875 53.515625 30.90625 
L 53.515625 0 
L 44.484375 0 
L 44.484375 32.71875 
Q 44.484375 40.625 41.703125 44.40625 
Q 38.921875 48.1875 33.109375 48.1875 
Q 26.21875 48.1875 22.15625 43.53125 
Q 18.109375 38.875 18.109375 30.90625 
L 18.109375 0 
L 9.078125 0 
L 9.078125 54.6875 
L 18.109375 54.6875 
L 18.109375 46.1875 
Q 21.1875 51.21875 25.484375 53.609375 
Q 29.78125 56 35.6875 56 
Q 41.65625 56 45.828125 52.96875 
Q 50 49.953125 52 44.1875 
z
" id="DejaVuSans-109"/>
      <path d="M 54.890625 33.015625 
L 54.890625 0 
L 45.90625 0 
L 45.90625 32.71875 
Q 45.90625 40.484375 42.875 44.328125 
Q 39.84375 48.1875 33.796875 48.1875 
Q 26.515625 48.1875 22.3125 43.546875 
Q 18.109375 38.921875 18.109375 30.90625 
L 18.109375 0 
L 9.078125 0 
L 9.078125 54.6875 
L 18.109375 54.6875 
L 18.109375 46.1875 
Q 21.34375 51.125 25.703125 53.5625 
Q 30.078125 56 35.796875 56 
Q 45.21875 56 50.046875 50.171875 
Q 54.890625 44.34375 54.890625 33.015625 
z
" id="DejaVuSans-110"/>
      <path d="M 18.3125 70.21875 
L 18.3125 54.6875 
L 36.8125 54.6875 
L 36.8125 47.703125 
L 18.3125 47.703125 
L 18.3125 18.015625 
Q 18.3125 11.328125 20.140625 9.421875 
Q 21.96875 7.515625 27.59375 7.515625 
L 36.8125 7.515625 
L 36.8125 0 
L 27.59375 0 
Q 17.1875 0 13.234375 3.875 
Q 9.28125 7.765625 9.28125 18.015625 
L 9.28125 47.703125 
L 2.6875 47.703125 
L 2.6875 54.6875 
L 9.28125 54.6875 
L 9.28125 70.21875 
z
" id="DejaVuSans-116"/>
      <path id="DejaVuSans-32"/>
      <path d="M 31 75.875 
Q 24.46875 64.65625 21.28125 53.65625 
Q 18.109375 42.671875 18.109375 31.390625 
Q 18.109375 20.125 21.3125 9.0625 
Q 24.515625 -2 31 -13.1875 
L 23.1875 -13.1875 
Q 15.875 -1.703125 12.234375 9.375 
Q 8.59375 20.453125 8.59375 31.390625 
Q 8.59375 42.28125 12.203125 53.3125 
Q 15.828125 64.359375 23.1875 75.875 
z
" id="DejaVuSans-40"/>
      <path d="M 8.015625 75.875 
L 15.828125 75.875 
Q 23.140625 64.359375 26.78125 53.3125 
Q 30.421875 42.28125 30.421875 31.390625 
Q 30.421875 20.453125 26.78125 9.375 
Q 23.140625 -1.703125 15.828125 -13.1875 
L 8.015625 -13.1875 
Q 14.5 -2 17.703125 9.0625 
Q 20.90625 20.125 20.90625 31.390625 
Q 20.90625 42.671875 17.703125 53.65625 
Q 14.5 64.65625 8.015625 75.875 
z
" id="DejaVuSans-41"/>
     </defs>
     <g transform="translate(186.556094 335.860562)scale(0.1 -0.1)">
      <use xlink:href="#DejaVuSans-68"/>
      <use x="77.001953" xlink:href="#DejaVuSans-105"/>
      <use x="104.785156" xlink:href="#DejaVuSans-115"/>
      <use x="156.884766" xlink:href="#DejaVuSans-112"/>
      <use x="220.361328" xlink:href="#DejaVuSans-108"/>
      <use x="248.144531" xlink:href="#DejaVuSans-97"/>
      <use x="309.423828" xlink:href="#DejaVuSans-99"/>
      <use x="364.404297" xlink:href="#DejaVuSans-101"/>
      <use x="425.927734" xlink:href="#DejaVuSans-109"/>
      <use x="523.339844" xlink:href="#DejaVuSans-101"/>
      <use x="584.863281" xlink:href="#DejaVuSans-110"/>
      <use x="648.242188" xlink:href="#DejaVuSans-116"/>
      <use x="687.451172" xlink:href="#DejaVuSans-32"/>
      <use x="719.238281" xlink:href="#DejaVuSans-40"/>
      <use x="758.251953" xlink:href="#DejaVuSans-109"/>
      <use x="855.664062" xlink:href="#DejaVuSans-109"/>
      <use x="953.076172" xlink:href="#DejaVuSans-41"/>
     </g>
    </g>
   </g>
   <g id="matplotlib.axis_2">
    <g id="ytick_1">
     <g id="line2d_15">
      <path clip-path="url(#p73c50c863e)" d="M 57.6 307.584 
L 414.72 307.584 
" style="fill:none;stroke:#b0b0b0;stroke-linecap:square;stroke-width:0.8;"/>
     </g>
     <g id="line2d_16">
      <defs>
       <path d="M 0 0 
L -3.5 0 
" id="m0349bf71c4" style="stroke:#000000;stroke-width:0.8;"/>
      </defs>
      <g>
       <use style="stroke:#000000;stroke-width:0.8;" x="57.6" xlink:href="#m0349bf71c4" y="307.584"/>
      </g>
     </g>
     <g id="text_9">
      <!-- 0.0 -->
      <g transform="translate(34.696875 311.383219)scale(0.1 -0.1)">
       <use xlink:href="#DejaVuSans-48"/>
       <use x="63.623047" xlink:href="#DejaVuSans-46"/>
       <use x="95.410156" xlink:href="#DejaVuSans-48"/>
      </g>
     </g>
    </g>
    <g id="ytick_2">
     <g id="line2d_17">
      <path clip-path="url(#p73c50c863e)" d="M 57.6 263.232 
L 414.72 263.232 
" style="fill:none;stroke:#b0b0b0;stroke-linecap:square;stroke-width:0.8;"/>
     </g>
     <g id="line2d_18">
      <g>
       <use style="stroke:#000000;stroke-width:0.8;" x="57.6" xlink:href="#m0349bf71c4" y="263.232"/>
      </g>
     </g>
     <g id="text_10">
      <!-- 0.5 -->
      <defs>
       <path d="M 10.796875 72.90625 
L 49.515625 72.90625 
L 49.515625 64.59375 
L 19.828125 64.59375 
L 19.828125 46.734375 
Q 21.96875 47.46875 24.109375 47.828125 
Q 26.265625 48.1875 28.421875 48.1875 
Q 40.625 48.1875 47.75 41.5 
Q 54.890625 34.8125 54.890625 23.390625 
Q 54.890625 11.625 47.5625 5.09375 
Q 40.234375 -1.421875 26.90625 -1.421875 
Q 22.3125 -1.421875 17.546875 -0.640625 
Q 12.796875 0.140625 7.71875 1.703125 
L 7.71875 11.625 
Q 12.109375 9.234375 16.796875 8.0625 
Q 21.484375 6.890625 26.703125 6.890625 
Q 35.15625 6.890625 40.078125 11.328125 
Q 45.015625 15.765625 45.015625 23.390625 
Q 45.015625 31 40.078125 35.4375 
Q 35.15625 39.890625 26.703125 39.890625 
Q 22.75 39.890625 18.8125 39.015625 
Q 14.890625 38.140625 10.796875 36.28125 
z
" id="DejaVuSans-53"/>
      </defs>
      <g transform="translate(34.696875 267.031219)scale(0.1 -0.1)">
       <use xlink:href="#DejaVuSans-48"/>
       <use x="63.623047" xlink:href="#DejaVuSans-46"/>
       <use x="95.410156" xlink:href="#DejaVuSans-53"/>
      </g>
     </g>
    </g>
    <g id="ytick_3">
     <g id="line2d_19">
      <path clip-path="url(#p73c50c863e)" d="M 57.6 218.88 
L 414.72 218.88 
" style="fill:none;stroke:#b0b0b0;stroke-linecap:square;stroke-width:0.8;"/>
     </g>
     <g id="line2d_20">
      <g>
       <use style="stroke:#000000;stroke-width:0.8;" x="57.6" xlink:href="#m0349bf71c4" y="218.88"/>
      </g>
     </g>
     <g id="text_11">
      <!-- 1.0 -->
      <g transform="translate(34.696875 222.679219)scale(0.1 -0.1)">
       <use xlink:href="#DejaVuSans-49"/>
       <use x="63.623047" xlink:href="#DejaVuSans-46"/>
       <use x="95.410156" xlink:href="#DejaVuSans-48"/>
      </g>
     </g>
    </g>
    <g id="ytick_4">
     <g id="line2d_21">
      <path clip-path="url(#p73c50c863e)" d="M 57.6 174.528 
L 414.72 174.528 
" style="fill:none;stroke:#b0b0b0;stroke-linecap:square;stroke-width:0.8;"/>
     </g>
     <g id="line2d_22">
      <g>
       <use style="stroke:#000000;stroke-width:0.8;" x="57.6" xlink:href="#m0349bf71c4" y="174.528"/>
      </g>
     </g>
     <g id="text_12">
      <!-- 1.5 -->
      <g transform="translate(34.696875 178.327219)scale(0.1 -0.1)">
       <use xlink:href="#DejaVuSans-49"/>
       <use x="63.623047" xlink:href="#DejaVuSans-46"/>
       <use x="95.410156" xlink:href="#DejaVuSans-53"/>
      </g>
     </g>
    </g>
    <g id="ytick_5">
     <g id="line2d_23">
      <path clip-path="url(#p73c50c863e)" d="M 57.6 130.176 
L 414.72 130.176 
" style="fill:none;stroke:#b0b0b0;stroke-linecap:square;stroke-width:0.8;"/>
     </g>
     <g id="line2d_24">
      <g>
       <use style="stroke:#000000;stroke-width:0.8;" x="57.6" xlink:href="#m0349bf71c4" y="130.176"/>
      </g>
     </g>
     <g id="text_13">
      <!-- 2.0 -->
      <g transform="translate(34.696875 133.975219)scale(0.1 -0.1)">
       <use xlink:href="#DejaVuSans-50"/>
       <use x="63.623047" xlink:href="#DejaVuSans-46"/>
       <use x="95.410156" xlink:href="#DejaVuSans-48"/>
      </g>
     </g>
    </g>
    <g id="ytick_6">
     <g id="line2d_25">
      <path clip-path="url(#p73c50c863e)" d="M 57.6 85.824 
L 414.72 85.824 
" style="fill:none;stroke:#b0b0b0;stroke-linecap:square;stroke-width:0.8;"/>
     </g>
     <g id="line2d_26">
      <g>
       <use style="stroke:#000000;stroke-width:0.8;" x="57.6" xlink:href="#m0349bf71c4" y="85.824"/>
      </g>
     </g>
     <g id="text_14">
      <!-- 2.5 -->
      <g transform="translate(34.696875 89.623219)scale(0.1 -0.1)">
       <use xlink:href="#DejaVuSans-50"/>
       <use x="63.623047" xlink:href="#DejaVuSans-46"/>
       <use x="95.410156" xlink:href="#DejaVuSans-53"/>
      </g>
     </g>
    </g>
    <g id="ytick_7">
     <g id="line2d_27">
      <path clip-path="url(#p73c50c863e)" d="M 57.6 41.472 
L 414.72 41.472 
" style="fill:none;stroke:#b0b0b0;stroke-linecap:square;stroke-width:0.8;"/>
     </g>
     <g id="line2d_28">
      <g>
       <use style="stroke:#000000;stroke-width:0.8;" x="57.6" xlink:href="#m0349bf71c4" y="41.472"/>
      </g>
     </g>
     <g id="text_15">
      <!-- 3.0 -->
      <defs>
       <path d="M 40.578125 39.3125 
Q 47.65625 37.796875 51.625 33 
Q 55.609375 28.21875 55.609375 21.1875 
Q 55.609375 10.40625 48.1875 4.484375 
Q 40.765625 -1.421875 27.09375 -1.421875 
Q 22.515625 -1.421875 17.65625 -0.515625 
Q 12.796875 0.390625 7.625 2.203125 
L 7.625 11.71875 
Q 11.71875 9.328125 16.59375 8.109375 
Q 21.484375 6.890625 26.8125 6.890625 
Q 36.078125 6.890625 40.9375 10.546875 
Q 45.796875 14.203125 45.796875 21.1875 
Q 45.796875 27.640625 41.28125 31.265625 
Q 36.765625 34.90625 28.71875 34.90625 
L 20.21875 34.90625 
L 20.21875 43.015625 
L 29.109375 43.015625 
Q 36.375 43.015625 40.234375 45.921875 
Q 44.09375 48.828125 44.09375 54.296875 
Q 44.09375 59.90625 40.109375 62.90625 
Q 36.140625 65.921875 28.71875 65.921875 
Q 24.65625 65.921875 20.015625 65.03125 
Q 15.375 64.15625 9.8125 62.3125 
L 9.8125 71.09375 
Q 15.4375 72.65625 20.34375 73.4375 
Q 25.25 74.21875 29.59375 74.21875 
Q 40.828125 74.21875 47.359375 69.109375 
Q 53.90625 64.015625 53.90625 55.328125 
Q 53.90625 49.265625 50.4375 45.09375 
Q 46.96875 40.921875 40.578125 39.3125 
z
" id="DejaVuSans-51"/>
      </defs>
      <g transform="translate(34.696875 45.271219)scale(0.1 -0.1)">
       <use xlink:href="#DejaVuSans-51"/>
       <use x="63.623047" xlink:href="#DejaVuSans-46"/>
       <use x="95.410156" xlink:href="#DejaVuSans-48"/>
      </g>
     </g>
    </g>
    <g id="text_16">
     <!-- Load (N) -->
     <defs>
      <path d="M 9.8125 72.90625 
L 19.671875 72.90625 
L 19.671875 8.296875 
L 55.171875 8.296875 
L 55.171875 0 
L 9.8125 0 
z
" id="DejaVuSans-76"/>
      <path d="M 30.609375 48.390625 
Q 23.390625 48.390625 19.1875 42.75 
Q 14.984375 37.109375 14.984375 27.296875 
Q 14.984375 17.484375 19.15625 11.84375 
Q 23.34375 6.203125 30.609375 6.203125 
Q 37.796875 6.203125 41.984375 11.859375 
Q 46.1875 17.53125 46.1875 27.296875 
Q 46.1875 37.015625 41.984375 42.703125 
Q 37.796875 48.390625 30.609375 48.390625 
z
M 30.609375 56 
Q 42.328125 56 49.015625 48.375 
Q 55.71875 40.765625 55.71875 27.296875 
Q 55.71875 13.875 49.015625 6.21875 
Q 42.328125 -1.421875 30.609375 -1.421875 
Q 18.84375 -1.421875 12.171875 6.21875 
Q 5.515625 13.875 5.515625 27.296875 
Q 5.515625 40.765625 12.171875 48.375 
Q 18.84375 56 30.609375 56 
z
" id="DejaVuSans-111"/>
      <path d="M 45.40625 46.390625 
L 45.40625 75.984375 
L 54.390625 75.984375 
L 54.390625 0 
L 45.40625 0 
L 45.40625 8.203125 
Q 42.578125 3.328125 38.25 0.953125 
Q 33.9375 -1.421875 27.875 -1.421875 
Q 17.96875 -1.421875 11.734375 6.484375 
Q 5.515625 14.40625 5.515625 27.296875 
Q 5.515625 40.1875 11.734375 48.09375 
Q 17.96875 56 27.875 56 
Q 33.9375 56 38.25 53.625 
Q 42.578125 51.265625 45.40625 46.390625 
z
M 14.796875 27.296875 
Q 14.796875 17.390625 18.875 11.75 
Q 22.953125 6.109375 30.078125 6.109375 
Q 37.203125 6.109375 41.296875 11.75 
Q 45.40625 17.390625 45.40625 27.296875 
Q 45.40625 37.203125 41.296875 42.84375 
Q 37.203125 48.484375 30.078125 48.484375 
Q 22.953125 48.484375 18.875 42.84375 
Q 14.796875 37.203125 14.796875 27.296875 
z
" id="DejaVuSans-100"/>
      <path d="M 9.8125 72.90625 
L 23.09375 72.90625 
L 55.421875 11.921875 
L 55.421875 72.90625 
L 64.984375 72.90625 
L 64.984375 0 
L 51.703125 0 
L 19.390625 60.984375 
L 19.390625 0 
L 9.8125 0 
z
" id="DejaVuSans-78"/>
     </defs>
     <g transform="translate(28.617187 195.842062)rotate(-90)scale(0.1 -0.1)">
      <use xlink:href="#DejaVuSans-76"/>
      <use x="55.697266" xlink:href="#DejaVuSans-111"/>
      <use x="116.878906" xlink:href="#DejaVuSans-97"/>
      <use x="178.158203" xlink:href="#DejaVuSans-100"/>
      <use x="241.634766" xlink:href="#DejaVuSans-32"/>
      <use x="273.421875" xlink:href="#DejaVuSans-40"/>
      <use x="312.435547" xlink:href="#DejaVuSans-78"/>
      <use x="387.240234" xlink:href="#DejaVuSans-41"/>
     </g>
    </g>
   </g>
   <g id="line2d_29">
    <path clip-path="url(#p73c50c863e)" d="M 57.6 307.584 
L 61.495855 275.650528 
L 65.391709 243.717056 
L 69.287564 211.783584 
L 73.183418 179.850112 
L 77.079273 147.91664 
L 80.975127 115.983168 
L 84.870982 84.049696 
L 88.766836 52.116225 
L 92.662691 74.871535 
L 96.558545 106.138756 
L 100.4544 128.021921 
L 104.350255 144.972082 
L 108.246109 158.809381 
L 112.141964 170.477539 
L 116.037818 180.533711 
L 119.933673 189.347477 
L 123.829527 197.167688 
L 127.725382 204.175808 
L 131.621236 210.507333 
L 135.517091 216.266953 
L 139.412945 221.535157 
L 143.3088 226.380049 
L 147.204655 230.85113 
L 151.100509 234.994861 
L 154.996364 238.846766 
L 158.892218 242.439865 
L 162.788073 245.7981 
L 166.683927 248.944954 
L 170.579782 251.901363 
L 174.475636 254.681688 
L 178.371491 257.302895 
L 182.267345 259.777327 
L 186.1632 262.117053 
L 190.059055 264.332386 
L 193.954909 266.433078 
L 197.850764 268.426754 
L 201.746618 270.320261 
L 205.642473 272.121462 
L 209.538327 273.836282 
L 213.434182 275.470015 
L 217.330036 277.027216 
L 221.225891 278.51275 
L 225.121745 279.931305 
L 229.0176 281.287691 
L 232.913455 282.582924 
L 236.809309 283.821138 
L 240.705164 285.005342 
L 244.601018 286.138555 
L 248.496873 287.223245 
L 252.392727 288.261667 
L 256.288582 289.255947 
L 260.184436 290.207797 
L 264.080291 291.119008 
L 267.976145 291.99121 
L 271.872 292.825881 
L 275.767855 293.624562 
L 279.663709 294.389387 
L 283.559564 295.119202 
L 287.455418 295.816167 
L 291.351273 296.480988 
L 295.247127 297.11435 
L 299.142982 297.716873 
L 303.038836 298.289084 
L 306.934691 298.831428 
L 310.830545 299.344289 
L 314.7264 299.82801 
L 318.622255 300.28292 
L 322.518109 300.709391 
L 326.413964 301.107844 
L 330.309818 301.47872 
L 334.205673 301.821711 
L 338.101527 302.139533 
L 341.997382 302.432102 
L 345.893236 302.699583 
L 349.789091 302.945236 
L 353.684945 303.169326 
L 357.5808 303.372475 
L 361.476655 303.557999 
L 365.372509 303.725552 
L 369.268364 303.878529 
L 373.164218 304.01731 
L 377.060073 304.142499 
L 380.955927 304.257005 
L 384.851782 304.361081 
L 388.747636 304.455117 
L 392.643491 304.541541 
L 396.539345 304.620407 
L 400.4352 304.691834 
L 404.331055 304.757931 
L 408.226909 304.818539 
" style="fill:none;stroke:#000000;stroke-linecap:square;stroke-width:2;"/>
    <defs>
     <path d="M 0 2.5 
C 0.663008 2.5 1.29895 2.236584 1.767767 1.767767 
C 2.236584 1.29895 2.5 0.663008 2.5 0 
C 2.5 -0.663008 2.236584 -1.29895 1.767767 -1.767767 
C 1.29895 -2.236584 0.663008 -2.5 0 -2.5 
C -0.663008 -2.5 -1.29895 -2.236584 -1.767767 -1.767767 
C -2.236584 -1.29895 -2.5 -0.663008 -2.5 0 
C -2.5 0.663008 -2.236584 1.29895 -1.767767 1.767767 
C -1.29895 2.236584 -0.663008 2.5 0 2.5 
z
" id="mf18d2028ea" style="stroke:#000000;"/>
    </defs>
    <g clip-path="url(#p73c50c863e)">
     <use style="fill:#ff0000;stroke:#000000;" x="57.6" xlink:href="#mf18d2028ea" y="307.584"/>
     <use style="fill:#ff0000;stroke:#000000;" x="61.495855" xlink:href="#mf18d2028ea" y="275.650528"/>
     <use style="fill:#ff0000;stroke:#000000;" x="65.391709" xlink:href="#mf18d2028ea" y="243.717056"/>
     <use style="fill:#ff0000;stroke:#000000;" x="69.287564" xlink:href="#mf18d2028ea" y="211.783584"/>
     <use style="fill:#ff0000;stroke:#000000;" x="73.183418" xlink:href="#mf18d2028ea" y="179.850112"/>
     <use style="fill:#ff0000;stroke:#000000;" x="77.079273" xlink:href="#mf18d2028ea" y="147.91664"/>
     <use style="fill:#ff0000;stroke:#000000;" x="80.975127" xlink:href="#mf18d2028ea" y="115.983168"/>
     <use style="fill:#ff0000;stroke:#000000;" x="84.870982" xlink:href="#mf18d2028ea" y="84.049696"/>
     <use style="fill:#ff0000;stroke:#000000;" x="88.766836" xlink:href="#mf18d2028ea" y="52.116225"/>
     <use style="fill:#ff0000;stroke:#000000;" x="92.662691" xlink:href="#mf18d2028ea" y="74.871535"/>
     <use style="fill:#ff0000;stroke:#000000;" x="96.558545" xlink:href="#mf18d2028ea" y="106.138756"/>
     <use style="fill:#ff0000;stroke:#000000;" x="100.4544" xlink:href="#mf18d2028ea" y="128.021921"/>
     <use style="fill:#ff0000;stroke:#000000;" x="104.350255" xlink:href="#mf18d2028ea" y="144.972082"/>
     <use style="fill:#ff0000;stroke:#000000;" x="108.246109" xlink:href="#mf18d2028ea" y="158.809381"/>
     <use style="fill:#ff0000;stroke:#000000;" x="112.141964" xlink:href="#mf18d2028ea" y="170.477539"/>
     <use style="fill:#ff0000;stroke:#000000;" x="116.037818" xlink:href="#mf18d2028ea" y="180.533711"/>
     <use style="fill:#ff0000;stroke:#000000;" x="119.933673" xlink:href="#mf18d2028ea" y="189.347477"/>
     <use style="fill:#ff0000;stroke:#000000;" x="123.829527" xlink:href="#mf18d2028ea" y="197.167688"/>
     <use style="fill:#ff0000;stroke:#000000;" x="127.725382" xlink:href="#mf18d2028ea" y="204.175808"/>
     <use style="fill:#ff0000;stroke:#000000;" x="131.621236" xlink:href="#mf18d2028ea" y="210.507333"/>
     <use style="fill:#ff0000;stroke:#000000;" x="135.517091" xlink:href="#mf18d2028ea" y="216.266953"/>
     <use style="fill:#ff0000;stroke:#000000;" x="139.412945" xlink:href="#mf18d2028ea" y="221.535157"/>
     <use style="fill:#ff0000;stroke:#000000;" x="143.3088" xlink:href="#mf18d2028ea" y="226.380049"/>
     <use style="fill:#ff0000;stroke:#000000;" x="147.204655" xlink:href="#mf18d2028ea" y="230.85113"/>
     <use style="fill:#ff0000;stroke:#000000;" x="151.100509" xlink:href="#mf18d2028ea" y="234.994861"/>
     <use style="fill:#ff0000;stroke:#000000;" x="154.996364" xlink:href="#mf18d2028ea" y="238.846766"/>
     <use style="fill:#ff0000;stroke:#000000;" x="158.892218" xlink:href="#mf18d2028ea" y="242.439865"/>
     <use style="fill:#ff0000;stroke:#000000;" x="162.788073" xlink:href="#mf18d2028ea" y="245.7981"/>
     <use style="fill:#ff0000;stroke:#000000;" x="166.683927" xlink:href="#mf18d2028ea" y="248.944954"/>
     <use style="fill:#ff0000;stroke:#000000;" x="170.579782" xlink:href="#mf18d2028ea" y="251.901363"/>
     <use style="fill:#ff0000;stroke:#000000;" x="174.475636" xlink:href="#mf18d2028ea" y="254.681688"/>
     <use style="fill:#ff0000;stroke:#000000;" x="178.371491" xlink:href="#mf18d2028ea" y="257.302895"/>
     <use style="fill:#ff0000;stroke:#000000;" x="182.267345" xlink:href="#mf18d2028ea" y="259.777327"/>
     <use style="fill:#ff0000;stroke:#000000;" x="186.1632" xlink:href="#mf18d2028ea" y="262.117053"/>
     <use style="fill:#ff0000;stroke:#000000;" x="190.059055" xlink:href="#mf18d2028ea" y="264.332386"/>
     <use style="fill:#ff0000;stroke:#000000;" x="193.954909" xlink:href="#mf18d2028ea" y="266.433078"/>
     <use style="fill:#ff0000;stroke:#000000;" x="197.850764" xlink:href="#mf18d2028ea" y="268.426754"/>
     <use style="fill:#ff0000;stroke:#000000;" x="201.746618" xlink:href="#mf18d2028ea" y="270.320261"/>
     <use style="fill:#ff0000;stroke:#000000;" x="205.642473" xlink:href="#mf18d2028ea" y="272.121462"/>
     <use style="fill:#ff0000;stroke:#000000;" x="209.538327" xlink:href="#mf18d2028ea" y="273.836282"/>
     <use style="fill:#ff0000;stroke:#000000;" x="213.434182" xlink:href="#mf18d2028ea" y="275.470015"/>
     <use style="fill:#ff0000;stroke:#000000;" x="217.330036" xlink:href="#mf18d2028ea" y="277.027216"/>
     <use style="fill:#ff0000;stroke:#000000;" x="221.225891" xlink:href="#mf18d2028ea" y="278.51275"/>
     <use style="fill:#ff0000;stroke:#000000;" x="225.121745" xlink:href="#mf18d2028ea" y="279.931305"/>
     <use style="fill:#ff0000;stroke:#000000;" x="229.0176" xlink:href="#mf18d2028ea" y="281.287691"/>
     <use style="fill:#ff0000;stroke:#000000;" x="232.913455" xlink:href="#mf18d2028ea" y="282.582924"/>
     <use style="fill:#ff0000;stroke:#000000;" x="236.809309" xlink:href="#mf18d2028ea" y="283.821138"/>
     <use style="fill:#ff0000;stroke:#000000;" x="240.705164" xlink:href="#mf18d2028ea" y="285.005342"/>
     <use style="fill:#ff0000;stroke:#000000;" x="244.601018" xlink:href="#mf18d2028ea" y="286.138555"/>
     <use style="fill:#ff0000;stroke:#000000;" x="248.496873" xlink:href="#mf18d2028ea" y="287.223245"/>
     <use style="fill:#ff0000;stroke:#000000;" x="252.392727" xlink:href="#mf18d2028ea" y="288.261667"/>
     <use style="fill:#ff0000;stroke:#000000;" x="256.288582" xlink:href="#mf18d2028ea" y="289.255947"/>
     <use style="fill:#ff0000;stroke:#000000;" x="260.184436" xlink:href="#mf18d2028ea" y="290.207797"/>
     <use style="fill:#ff0000;stroke:#000000;" x="264.080291" xlink:href="#mf18d2028ea" y="291.119008"/>
     <use style="fill:#ff0000;stroke:#000000;" x="267.976145" xlink:href="#mf18d2028ea" y="291.99121"/>
     <use style="fill:#ff0000;stroke:#000000;" x="271.872" xlink:href="#mf18d2028ea" y="292.825881"/>
     <use style="fill:#ff0000;stroke:#000000;" x="275.767855" xlink:href="#mf18d2028ea" y="293.624562"/>
     <use style="fill:#ff0000;stroke:#000000;" x="279.663709" xlink:href="#mf18d2028ea" y="294.389387"/>
     <use style="fill:#ff0000;stroke:#000000;" x="283.559564" xlink:href="#mf18d2028ea" y="295.119202"/>
     <use style="fill:#ff0000;stroke:#000000;" x="287.455418" xlink:href="#mf18d2028ea" y="295.816167"/>
     <use style="fill:#ff0000;stroke:#000000;" x="291.351273" xlink:href="#mf18d2028ea" y="296.480988"/>
     <use style="fill:#ff0000;stroke:#000000;" x="295.247127" xlink:href="#mf18d2028ea" y="297.11435"/>
     <use style="fill:#ff0000;stroke:#000000;" x="299.142982" xlink:href="#mf18d2028ea" y="297.716873"/>
     <use style="fill:#ff0000;stroke:#000000;" x="303.038836" xlink:href="#mf18d2028ea" y="298.289084"/>
     <use style="fill:#ff0000;stroke:#000000;" x="306.934691" xlink:href="#mf18d2028ea" y="298.831428"/>
     <use style="fill:#ff0000;stroke:#000000;" x="310.830545" xlink:href="#mf18d2028ea" y="299.344289"/>
     <use style="fill:#ff0000;stroke:#000000;" x="314.7264" xlink:href="#mf18d2028ea" y="299.82801"/>
     <use style="fill:#ff0000;stroke:#000000;" x="318.622255" xlink:href="#mf18d2028ea" y="300.28292"/>
     <use style="fill:#ff0000;stroke:#000000;" x="322.518109" xlink:href="#mf18d2028ea" y="300.709391"/>
     <use style="fill:#ff0000;stroke:#000000;" x="326.413964" xlink:href="#mf18d2028ea" y="301.107844"/>
     <use style="fill:#ff0000;stroke:#000000;" x="330.309818" xlink:href="#mf18d2028ea" y="301.47872"/>
     <use style="fill:#ff0000;stroke:#000000;" x="334.205673" xlink:href="#mf18d2028ea" y="301.821711"/>
     <use style="fill:#ff0000;stroke:#000000;" x="338.101527" xlink:href="#mf18d2028ea" y="302.139533"/>
     <use style="fill:#ff0000;stroke:#000000;" x="341.997382" xlink:href="#mf18d2028ea" y="302.432102"/>
     <use style="fill:#ff0000;stroke:#000000;" x="345.893236" xlink:href="#mf18d2028ea" y="302.699583"/>
     <use style="fill:#ff0000;stroke:#000000;" x="349.789091" xlink:href="#mf18d2028ea" y="302.945236"/>
     <use style="fill:#ff0000;stroke:#000000;" x="353.684945" xlink:href="#mf18d2028ea" y="303.169326"/>
     <use style="fill:#ff0000;stroke:#000000;" x="357.5808" xlink:href="#mf18d2028ea" y="303.372475"/>
     <use style="fill:#ff0000;stroke:#000000;" x="361.476655" xlink:href="#mf18d2028ea" y="303.557999"/>
     <use style="fill:#ff0000;stroke:#000000;" x="365.372509" xlink:href="#mf18d2028ea" y="303.725552"/>
     <use style="fill:#ff0000;stroke:#000000;" x="369.268364" xlink:href="#mf18d2028ea" y="303.878529"/>
     <use style="fill:#ff0000;stroke:#000000;" x="373.164218" xlink:href="#mf18d2028ea" y="304.01731"/>
     <use style="fill:#ff0000;stroke:#000000;" x="377.060073" xlink:href="#mf18d2028ea" y="304.142499"/>
     <use style="fill:#ff0000;stroke:#000000;" x="380.955927" xlink:href="#mf18d2028ea" y="304.257005"/>
     <use style="fill:#ff0000;stroke:#000000;" x="384.851782" xlink:href="#mf18d2028ea" y="304.361081"/>
     <use style="fill:#ff0000;stroke:#000000;" x="388.747636" xlink:href="#mf18d2028ea" y="304.455117"/>
     <use style="fill:#ff0000;stroke:#000000;" x="392.643491" xlink:href="#mf18d2028ea" y="304.541541"/>
     <use style="fill:#ff0000;stroke:#000000;" x="396.539345" xlink:href="#mf18d2028ea" y="304.620407"/>
     <use style="fill:#ff0000;stroke:#000000;" x="400.4352" xlink:href="#mf18d2028ea" y="304.691834"/>
     <use style="fill:#ff0000;stroke:#000000;" x="404.331055" xlink:href="#mf18d2028ea" y="304.757931"/>
     <use style="fill:#ff0000;stroke:#000000;" x="408.226909" xlink:href="#mf18d2028ea" y="304.818539"/>
    </g>
   </g>
   <g id="line2d_30">
    <path clip-path="url(#p73c50c863e)" d="M 57.6 307.584 
L 61.495855 275.650528 
L 65.391709 243.717056 
L 69.287564 211.783584 
L 73.183418 179.850112 
L 77.079273 147.91664 
L 80.975127 115.983168 
L 84.870982 84.049696 
L 88.766836 52.116225 
L 92.662691 74.885954 
L 96.558545 106.143972 
L 100.4544 128.025229 
L 104.350255 144.977128 
L 108.246109 158.814845 
L 112.141964 170.483887 
L 116.037818 180.540827 
L 119.933673 189.354626 
L 123.829527 197.176918 
L 127.725382 204.18595 
L 131.621236 210.517098 
L 135.517091 216.27924 
L 139.412945 221.547905 
L 143.3088 226.394626 
L 147.204655 230.866095 
L 151.100509 235.011887 
L 154.996364 238.864314 
L 158.892218 242.459578 
L 162.788073 245.819283 
L 166.683927 248.967338 
L 170.579782 251.925649 
L 174.475636 254.707692 
L 178.371491 257.330499 
L 182.267345 259.806968 
L 186.1632 262.148715 
L 190.059055 264.36532 
L 193.954909 266.469086 
L 197.850764 268.465174 
L 201.746618 270.361256 
L 205.642473 272.164529 
L 209.538327 273.882865 
L 213.434182 275.51972 
L 217.330036 277.080264 
L 221.225891 278.569195 
L 225.121745 279.991426 
L 229.0176 281.35225 
L 232.913455 282.651936 
L 236.809309 283.894949 
L 240.705164 285.084334 
L 244.601018 286.222885 
L 248.496873 287.313566 
L 252.392727 288.358803 
L 256.288582 289.360211 
L 260.184436 290.319808 
L 264.080291 291.239446 
L 267.976145 292.120824 
L 271.872 292.965499 
L 275.767855 293.776067 
L 279.663709 294.551582 
L 283.559564 295.294607 
L 287.455418 296.005787 
L 291.351273 296.686054 
L 295.247127 297.336218 
L 299.142982 297.956979 
L 303.038836 298.550024 
L 306.934691 299.113673 
L 310.830545 299.649342 
L 314.7264 300.157314 
L 318.622255 300.637787 
L 322.518109 301.090899 
L 326.413964 301.516758 
L 330.309818 301.915477 
L 334.205673 302.287218 
L 338.101527 302.631244 
L 341.997382 302.950124 
L 345.893236 303.243302 
L 349.789091 303.511582 
L 353.684945 303.755131 
L 357.5808 303.97709 
L 361.476655 304.176991 
L 365.372509 304.358302 
L 369.268364 304.520729 
L 373.164218 304.66779 
L 377.060073 304.799187 
L 380.955927 304.918297 
L 384.851782 305.0255 
L 388.747636 305.121417 
L 392.643491 305.208716 
L 396.539345 305.28689 
L 400.4352 305.358479 
L 404.331055 305.423423 
L 408.226909 305.481753 
" style="fill:none;stroke:#000000;stroke-linecap:square;stroke-width:2;"/>
    <defs>
     <path d="M 0 -2.5 
L -2.5 2.5 
L 2.5 2.5 
z
" id="mdd5d334c6c" style="stroke:#000000;stroke-linejoin:miter;"/>
    </defs>
    <g clip-path="url(#p73c50c863e)">
     <use style="fill:#ff0000;stroke:#000000;stroke-linejoin:miter;" x="57.6" xlink:href="#mdd5d334c6c" y="307.584"/>
     <use style="fill:#ff0000;stroke:#000000;stroke-linejoin:miter;" x="61.495855" xlink:href="#mdd5d334c6c" y="275.650528"/>
     <use style="fill:#ff0000;stroke:#000000;stroke-linejoin:miter;" x="65.391709" xlink:href="#mdd5d334c6c" y="243.717056"/>
     <use style="fill:#ff0000;stroke:#000000;stroke-linejoin:miter;" x="69.287564" xlink:href="#mdd5d334c6c" y="211.783584"/>
     <use style="fill:#ff0000;stroke:#000000;stroke-linejoin:miter;" x="73.183418" xlink:href="#mdd5d334c6c" y="179.850112"/>
     <use style="fill:#ff0000;stroke:#000000;stroke-linejoin:miter;" x="77.079273" xlink:href="#mdd5d334c6c" y="147.91664"/>
     <use style="fill:#ff0000;stroke:#000000;stroke-linejoin:miter;" x="80.975127" xlink:href="#mdd5d334c6c" y="115.983168"/>
     <use style="fill:#ff0000;stroke:#000000;stroke-linejoin:miter;" x="84.870982" xlink:href="#mdd5d334c6c" y="84.049696"/>
     <use style="fill:#ff0000;stroke:#000000;stroke-linejoin:miter;" x="88.766836" xlink:href="#mdd5d334c6c" y="52.116225"/>
     <use style="fill:#ff0000;stroke:#000000;stroke-linejoin:miter;" x="92.662691" xlink:href="#mdd5d334c6c" y="74.885954"/>
     <use style="fill:#ff0000;stroke:#000000;stroke-linejoin:miter;" x="96.558545" xlink:href="#mdd5d334c6c" y="106.143972"/>
     <use style="fill:#ff0000;stroke:#000000;stroke-linejoin:miter;" x="100.4544" xlink:href="#mdd5d334c6c" y="128.025229"/>
     <use style="fill:#ff0000;stroke:#000000;stroke-linejoin:miter;" x="104.350255" xlink:href="#mdd5d334c6c" y="144.977128"/>
     <use style="fill:#ff0000;stroke:#000000;stroke-linejoin:miter;" x="108.246109" xlink:href="#mdd5d334c6c" y="158.814845"/>
     <use style="fill:#ff0000;stroke:#000000;stroke-linejoin:miter;" x="112.141964" xlink:href="#mdd5d334c6c" y="170.483887"/>
     <use style="fill:#ff0000;stroke:#000000;stroke-linejoin:miter;" x="116.037818" xlink:href="#mdd5d334c6c" y="180.540827"/>
     <use style="fill:#ff0000;stroke:#000000;stroke-linejoin:miter;" x="119.933673" xlink:href="#mdd5d334c6c" y="189.354626"/>
     <use style="fill:#ff0000;stroke:#000000;stroke-linejoin:miter;" x="123.829527" xlink:href="#mdd5d334c6c" y="197.176918"/>
     <use style="fill:#ff0000;stroke:#000000;stroke-linejoin:miter;" x="127.725382" xlink:href="#mdd5d334c6c" y="204.18595"/>
     <use style="fill:#ff0000;stroke:#000000;stroke-linejoin:miter;" x="131.621236" xlink:href="#mdd5d334c6c" y="210.517098"/>
     <use style="fill:#ff0000;stroke:#000000;stroke-linejoin:miter;" x="135.517091" xlink:href="#mdd5d334c6c" y="216.27924"/>
     <use style="fill:#ff0000;stroke:#000000;stroke-linejoin:miter;" x="139.412945" xlink:href="#mdd5d334c6c" y="221.547905"/>
     <use style="fill:#ff0000;stroke:#000000;stroke-linejoin:miter;" x="143.3088" xlink:href="#mdd5d334c6c" y="226.394626"/>
     <use style="fill:#ff0000;stroke:#000000;stroke-linejoin:miter;" x="147.204655" xlink:href="#mdd5d334c6c" y="230.866095"/>
     <use style="fill:#ff0000;stroke:#000000;stroke-linejoin:miter;" x="151.100509" xlink:href="#mdd5d334c6c" y="235.011887"/>
     <use style="fill:#ff0000;stroke:#000000;stroke-linejoin:miter;" x="154.996364" xlink:href="#mdd5d334c6c" y="238.864314"/>
     <use style="fill:#ff0000;stroke:#000000;stroke-linejoin:miter;" x="158.892218" xlink:href="#mdd5d334c6c" y="242.459578"/>
     <use style="fill:#ff0000;stroke:#000000;stroke-linejoin:miter;" x="162.788073" xlink:href="#mdd5d334c6c" y="245.819283"/>
     <use style="fill:#ff0000;stroke:#000000;stroke-linejoin:miter;" x="166.683927" xlink:href="#mdd5d334c6c" y="248.967338"/>
     <use style="fill:#ff0000;stroke:#000000;stroke-linejoin:miter;" x="170.579782" xlink:href="#mdd5d334c6c" y="251.925649"/>
     <use style="fill:#ff0000;stroke:#000000;stroke-linejoin:miter;" x="174.475636" xlink:href="#mdd5d334c6c" y="254.707692"/>
     <use style="fill:#ff0000;stroke:#000000;stroke-linejoin:miter;" x="178.371491" xlink:href="#mdd5d334c6c" y="257.330499"/>
     <use style="fill:#ff0000;stroke:#000000;stroke-linejoin:miter;" x="182.267345" xlink:href="#mdd5d334c6c" y="259.806968"/>
     <use style="fill:#ff0000;stroke:#000000;stroke-linejoin:miter;" x="186.1632" xlink:href="#mdd5d334c6c" y="262.148715"/>
     <use style="fill:#ff0000;stroke:#000000;stroke-linejoin:miter;" x="190.059055" xlink:href="#mdd5d334c6c" y="264.36532"/>
     <use style="fill:#ff0000;stroke:#000000;stroke-linejoin:miter;" x="193.954909" xlink:href="#mdd5d334c6c" y="266.469086"/>
     <use style="fill:#ff0000;stroke:#000000;stroke-linejoin:miter;" x="197.850764" xlink:href="#mdd5d334c6c" y="268.465174"/>
     <use style="fill:#ff0000;stroke:#000000;stroke-linejoin:miter;" x="201.746618" xlink:href="#mdd5d334c6c" y="270.361256"/>
     <use style="fill:#ff0000;stroke:#000000;stroke-linejoin:miter;" x="205.642473" xlink:href="#mdd5d334c6c" y="272.164529"/>
     <use style="fill:#ff0000;stroke:#000000;stroke-linejoin:miter;" x="209.538327" xlink:href="#mdd5d334c6c" y="273.882865"/>
     <use style="fill:#ff0000;stroke:#000000;stroke-linejoin:miter;" x="213.434182" xlink:href="#mdd5d334c6c" y="275.51972"/>
     <use style="fill:#ff0000;stroke:#000000;stroke-linejoin:miter;" x="217.330036" xlink:href="#mdd5d334c6c" y="277.080264"/>
     <use style="fill:#ff0000;stroke:#000000;stroke-linejoin:miter;" x="221.225891" xlink:href="#mdd5d334c6c" y="278.569195"/>
     <use style="fill:#ff0000;stroke:#000000;stroke-linejoin:miter;" x="225.121745" xlink:href="#mdd5d334c6c" y="279.991426"/>
     <use style="fill:#ff0000;stroke:#000000;stroke-linejoin:miter;" x="229.0176" xlink:href="#mdd5d334c6c" y="281.35225"/>
     <use style="fill:#ff0000;stroke:#000000;stroke-linejoin:miter;" x="232.913455" xlink:href="#mdd5d334c6c" y="282.651936"/>
     <use style="fill:#ff0000;stroke:#000000;stroke-linejoin:miter;" x="236.809309" xlink:href="#mdd5d334c6c" y="283.894949"/>
     <use style="fill:#ff0000;stroke:#000000;stroke-linejoin:miter;" x="240.705164" xlink:href="#mdd5d334c6c" y="285.084334"/>
     <use style="fill:#ff0000;stroke:#000000;stroke-linejoin:miter;" x="244.601018" xlink:href="#mdd5d334c6c" y="286.222885"/>
     <use style="fill:#ff0000;stroke:#000000;stroke-linejoin:miter;" x="248.496873" xlink:href="#mdd5d334c6c" y="287.313566"/>
     <use style="fill:#ff0000;stroke:#000000;stroke-linejoin:miter;" x="252.392727" xlink:href="#mdd5d334c6c" y="288.358803"/>
     <use style="fill:#ff0000;stroke:#000000;stroke-linejoin:miter;" x="256.288582" xlink:href="#mdd5d334c6c" y="289.360211"/>
     <use style="fill:#ff0000;stroke:#000000;stroke-linejoin:miter;" x="260.184436" xlink:href="#mdd5d334c6c" y="290.319808"/>
     <use style="fill:#ff0000;stroke:#000000;stroke-linejoin:miter;" x="264.080291" xlink:href="#mdd5d334c6c" y="291.239446"/>
     <use style="fill:#ff0000;stroke:#000000;stroke-linejoin:miter;" x="267.976145" xlink:href="#mdd5d334c6c" y="292.120824"/>
     <use style="fill:#ff0000;stroke:#000000;stroke-linejoin:miter;" x="271.872" xlink:href="#mdd5d334c6c" y="292.965499"/>
     <use style="fill:#ff0000;stroke:#000000;stroke-linejoin:miter;" x="275.767855" xlink:href="#mdd5d334c6c" y="293.776067"/>
     <use style="fill:#ff0000;stroke:#000000;stroke-linejoin:miter;" x="279.663709" xlink:href="#mdd5d334c6c" y="294.551582"/>
     <use style="fill:#ff0000;stroke:#000000;stroke-linejoin:miter;" x="283.559564" xlink:href="#mdd5d334c6c" y="295.294607"/>
     <use style="fill:#ff0000;stroke:#000000;stroke-linejoin:miter;" x="287.455418" xlink:href="#mdd5d334c6c" y="296.005787"/>
     <use style="fill:#ff0000;stroke:#000000;stroke-linejoin:miter;" x="291.351273" xlink:href="#mdd5d334c6c" y="296.686054"/>
     <use style="fill:#ff0000;stroke:#000000;stroke-linejoin:miter;" x="295.247127" xlink:href="#mdd5d334c6c" y="297.336218"/>
     <use style="fill:#ff0000;stroke:#000000;stroke-linejoin:miter;" x="299.142982" xlink:href="#mdd5d334c6c" y="297.956979"/>
     <use style="fill:#ff0000;stroke:#000000;stroke-linejoin:miter;" x="303.038836" xlink:href="#mdd5d334c6c" y="298.550024"/>
     <use style="fill:#ff0000;stroke:#000000;stroke-linejoin:miter;" x="306.934691" xlink:href="#mdd5d334c6c" y="299.113673"/>
     <use style="fill:#ff0000;stroke:#000000;stroke-linejoin:miter;" x="310.830545" xlink:href="#mdd5d334c6c" y="299.649342"/>
     <use style="fill:#ff0000;stroke:#000000;stroke-linejoin:miter;" x="314.7264" xlink:href="#mdd5d334c6c" y="300.157314"/>
     <use style="fill:#ff0000;stroke:#000000;stroke-linejoin:miter;" x="318.622255" xlink:href="#mdd5d334c6c" y="300.637787"/>
     <use style="fill:#ff0000;stroke:#000000;stroke-linejoin:miter;" x="322.518109" xlink:href="#mdd5d334c6c" y="301.090899"/>
     <use style="fill:#ff0000;stroke:#000000;stroke-linejoin:miter;" x="326.413964" xlink:href="#mdd5d334c6c" y="301.516758"/>
     <use style="fill:#ff0000;stroke:#000000;stroke-linejoin:miter;" x="330.309818" xlink:href="#mdd5d334c6c" y="301.915477"/>
     <use style="fill:#ff0000;stroke:#000000;stroke-linejoin:miter;" x="334.205673" xlink:href="#mdd5d334c6c" y="302.287218"/>
     <use style="fill:#ff0000;stroke:#000000;stroke-linejoin:miter;" x="338.101527" xlink:href="#mdd5d334c6c" y="302.631244"/>
     <use style="fill:#ff0000;stroke:#000000;stroke-linejoin:miter;" x="341.997382" xlink:href="#mdd5d334c6c" y="302.950124"/>
     <use style="fill:#ff0000;stroke:#000000;stroke-linejoin:miter;" x="345.893236" xlink:href="#mdd5d334c6c" y="303.243302"/>
     <use style="fill:#ff0000;stroke:#000000;stroke-linejoin:miter;" x="349.789091" xlink:href="#mdd5d334c6c" y="303.511582"/>
     <use style="fill:#ff0000;stroke:#000000;stroke-linejoin:miter;" x="353.684945" xlink:href="#mdd5d334c6c" y="303.755131"/>
     <use style="fill:#ff0000;stroke:#000000;stroke-linejoin:miter;" x="357.5808" xlink:href="#mdd5d334c6c" y="303.97709"/>
     <use style="fill:#ff0000;stroke:#000000;stroke-linejoin:miter;" x="361.476655" xlink:href="#mdd5d334c6c" y="304.176991"/>
     <use style="fill:#ff0000;stroke:#000000;stroke-linejoin:miter;" x="365.372509" xlink:href="#mdd5d334c6c" y="304.358302"/>
     <use style="fill:#ff0000;stroke:#000000;stroke-linejoin:miter;" x="369.268364" xlink:href="#mdd5d334c6c" y="304.520729"/>
     <use style="fill:#ff0000;stroke:#000000;stroke-linejoin:miter;" x="373.164218" xlink:href="#mdd5d334c6c" y="304.66779"/>
     <use style="fill:#ff0000;stroke:#000000;stroke-linejoin:miter;" x="377.060073" xlink:href="#mdd5d334c6c" y="304.799187"/>
     <use style="fill:#ff0000;stroke:#000000;stroke-linejoin:miter;" x="380.955927" xlink:href="#mdd5d334c6c" y="304.918297"/>
     <use style="fill:#ff0000;stroke:#000000;stroke-linejoin:miter;" x="384.851782" xlink:href="#mdd5d334c6c" y="305.0255"/>
     <use style="fill:#ff0000;stroke:#000000;stroke-linejoin:miter;" x="388.747636" xlink:href="#mdd5d334c6c" y="305.121417"/>
     <use style="fill:#ff0000;stroke:#000000;stroke-linejoin:miter;" x="392.643491" xlink:href="#mdd5d334c6c" y="305.208716"/>
     <use style="fill:#ff0000;stroke:#000000;stroke-linejoin:miter;" x="396.539345" xlink:href="#mdd5d334c6c" y="305.28689"/>
     <use style="fill:#ff0000;stroke:#000000;stroke-linejoin:miter;" x="400.4352" xlink:href="#mdd5d334c6c" y="305.358479"/>
     <use style="fill:#ff0000;stroke:#000000;stroke-linejoin:miter;" x="404.331055" xlink:href="#mdd5d334c6c" y="305.423423"/>
     <use style="fill:#ff0000;stroke:#000000;stroke-linejoin:miter;" x="408.226909" xlink:href="#mdd5d334c6c" y="305.481753"/>
    </g>
   </g>
   <g id="line2d_31">
    <path clip-path="url(#p73c50c863e)" d="M 57.6 307.584 
L 61.495855 275.650528 
L 65.391709 243.717056 
L 69.287564 211.783584 
L 73.183418 179.850112 
L 77.079273 147.91664 
L 80.975127 115.983168 
L 84.870982 84.049696 
L 88.766836 52.116225 
L 92.662691 74.902332 
L 96.558545 106.149071 
L 100.4544 128.027036 
L 104.350255 144.979146 
L 108.246109 158.818311 
L 112.141964 170.48545 
L 116.037818 180.544324 
L 119.933673 189.356934 
L 123.829527 197.179593 
L 127.725382 204.190671 
L 131.621236 210.522398 
L 135.517091 216.285011 
L 139.412945 221.554227 
L 143.3088 226.401559 
L 147.204655 230.872334 
L 151.100509 235.02007 
L 154.996364 238.873193 
L 158.892218 242.469137 
L 162.788073 245.829595 
L 166.683927 248.978404 
L 170.579782 251.937542 
L 174.475636 254.720456 
L 178.371491 257.342928 
L 182.267345 259.821585 
L 186.1632 262.16436 
L 190.059055 264.382016 
L 193.954909 266.486932 
L 197.850764 268.484242 
L 201.746618 270.381626 
L 205.642473 272.186246 
L 209.538327 273.906061 
L 213.434182 275.544497 
L 217.330036 277.106734 
L 221.225891 278.59748 
L 225.121745 280.021619 
L 229.0176 281.384547 
L 232.913455 282.686493 
L 236.809309 283.931947 
L 240.705164 285.123971 
L 244.601018 286.26538 
L 248.496873 287.359114 
L 252.392727 288.407718 
L 256.288582 289.412792 
L 260.184436 290.376386 
L 264.080291 291.300392 
L 267.976145 292.186549 
L 271.872 293.037629 
L 275.767855 293.852844 
L 279.663709 294.634636 
L 283.559564 295.384629 
L 287.455418 296.103487 
L 291.351273 296.792219 
L 295.247127 297.452833 
L 299.142982 298.083971 
L 303.038836 298.687339 
L 306.934691 299.263503 
L 310.830545 299.812914 
L 314.7264 300.335911 
L 318.622255 300.832728 
L 322.518109 301.304605 
L 326.413964 301.7494 
L 330.309818 302.168147 
L 334.205673 302.560787 
L 338.101527 302.927267 
L 341.997382 303.266593 
L 345.893236 303.581026 
L 349.789091 303.869771 
L 353.684945 304.133375 
L 357.5808 304.371791 
L 361.476655 304.588062 
L 365.372509 304.781701 
L 369.268364 304.956149 
L 373.164218 305.111335 
L 377.060073 305.249829 
L 380.955927 305.374421 
L 384.851782 305.48481 
L 388.747636 305.584396 
L 392.643491 305.672725 
L 396.539345 305.752856 
L 400.4352 305.824032 
L 404.331055 305.889108 
L 408.226909 305.947893 
" style="fill:none;stroke:#000000;stroke-linecap:square;stroke-width:2;"/>
    <defs>
     <path d="M -2.5 2.5 
L 2.5 2.5 
L 2.5 -2.5 
L -2.5 -2.5 
z
" id="m8ca646a018" style="stroke:#000000;stroke-linejoin:miter;"/>
    </defs>
    <g clip-path="url(#p73c50c863e)">
     <use style="fill:#ff0000;stroke:#000000;stroke-linejoin:miter;" x="57.6" xlink:href="#m8ca646a018" y="307.584"/>
     <use style="fill:#ff0000;stroke:#000000;stroke-linejoin:miter;" x="61.495855" xlink:href="#m8ca646a018" y="275.650528"/>
     <use style="fill:#ff0000;stroke:#000000;stroke-linejoin:miter;" x="65.391709" xlink:href="#m8ca646a018" y="243.717056"/>
     <use style="fill:#ff0000;stroke:#000000;stroke-linejoin:miter;" x="69.287564" xlink:href="#m8ca646a018" y="211.783584"/>
     <use style="fill:#ff0000;stroke:#000000;stroke-linejoin:miter;" x="73.183418" xlink:href="#m8ca646a018" y="179.850112"/>
     <use style="fill:#ff0000;stroke:#000000;stroke-linejoin:miter;" x="77.079273" xlink:href="#m8ca646a018" y="147.91664"/>
     <use style="fill:#ff0000;stroke:#000000;stroke-linejoin:miter;" x="80.975127" xlink:href="#m8ca646a018" y="115.983168"/>
     <use style="fill:#ff0000;stroke:#000000;stroke-linejoin:miter;" x="84.870982" xlink:href="#m8ca646a018" y="84.049696"/>
     <use style="fill:#ff0000;stroke:#000000;stroke-linejoin:miter;" x="88.766836" xlink:href="#m8ca646a018" y="52.116225"/>
     <use style="fill:#ff0000;stroke:#000000;stroke-linejoin:miter;" x="92.662691" xlink:href="#m8ca646a018" y="74.902332"/>
     <use style="fill:#ff0000;stroke:#000000;stroke-linejoin:miter;" x="96.558545" xlink:href="#m8ca646a018" y="106.149071"/>
     <use style="fill:#ff0000;stroke:#000000;stroke-linejoin:miter;" x="100.4544" xlink:href="#m8ca646a018" y="128.027036"/>
     <use style="fill:#ff0000;stroke:#000000;stroke-linejoin:miter;" x="104.350255" xlink:href="#m8ca646a018" y="144.979146"/>
     <use style="fill:#ff0000;stroke:#000000;stroke-linejoin:miter;" x="108.246109" xlink:href="#m8ca646a018" y="158.818311"/>
     <use style="fill:#ff0000;stroke:#000000;stroke-linejoin:miter;" x="112.141964" xlink:href="#m8ca646a018" y="170.48545"/>
     <use style="fill:#ff0000;stroke:#000000;stroke-linejoin:miter;" x="116.037818" xlink:href="#m8ca646a018" y="180.544324"/>
     <use style="fill:#ff0000;stroke:#000000;stroke-linejoin:miter;" x="119.933673" xlink:href="#m8ca646a018" y="189.356934"/>
     <use style="fill:#ff0000;stroke:#000000;stroke-linejoin:miter;" x="123.829527" xlink:href="#m8ca646a018" y="197.179593"/>
     <use style="fill:#ff0000;stroke:#000000;stroke-linejoin:miter;" x="127.725382" xlink:href="#m8ca646a018" y="204.190671"/>
     <use style="fill:#ff0000;stroke:#000000;stroke-linejoin:miter;" x="131.621236" xlink:href="#m8ca646a018" y="210.522398"/>
     <use style="fill:#ff0000;stroke:#000000;stroke-linejoin:miter;" x="135.517091" xlink:href="#m8ca646a018" y="216.285011"/>
     <use style="fill:#ff0000;stroke:#000000;stroke-linejoin:miter;" x="139.412945" xlink:href="#m8ca646a018" y="221.554227"/>
     <use style="fill:#ff0000;stroke:#000000;stroke-linejoin:miter;" x="143.3088" xlink:href="#m8ca646a018" y="226.401559"/>
     <use style="fill:#ff0000;stroke:#000000;stroke-linejoin:miter;" x="147.204655" xlink:href="#m8ca646a018" y="230.872334"/>
     <use style="fill:#ff0000;stroke:#000000;stroke-linejoin:miter;" x="151.100509" xlink:href="#m8ca646a018" y="235.02007"/>
     <use style="fill:#ff0000;stroke:#000000;stroke-linejoin:miter;" x="154.996364" xlink:href="#m8ca646a018" y="238.873193"/>
     <use style="fill:#ff0000;stroke:#000000;stroke-linejoin:miter;" x="158.892218" xlink:href="#m8ca646a018" y="242.469137"/>
     <use style="fill:#ff0000;stroke:#000000;stroke-linejoin:miter;" x="162.788073" xlink:href="#m8ca646a018" y="245.829595"/>
     <use style="fill:#ff0000;stroke:#000000;stroke-linejoin:miter;" x="166.683927" xlink:href="#m8ca646a018" y="248.978404"/>
     <use style="fill:#ff0000;stroke:#000000;stroke-linejoin:miter;" x="170.579782" xlink:href="#m8ca646a018" y="251.937542"/>
     <use style="fill:#ff0000;stroke:#000000;stroke-linejoin:miter;" x="174.475636" xlink:href="#m8ca646a018" y="254.720456"/>
     <use style="fill:#ff0000;stroke:#000000;stroke-linejoin:miter;" x="178.371491" xlink:href="#m8ca646a018" y="257.342928"/>
     <use style="fill:#ff0000;stroke:#000000;stroke-linejoin:miter;" x="182.267345" xlink:href="#m8ca646a018" y="259.821585"/>
     <use style="fill:#ff0000;stroke:#000000;stroke-linejoin:miter;" x="186.1632" xlink:href="#m8ca646a018" y="262.16436"/>
     <use style="fill:#ff0000;stroke:#000000;stroke-linejoin:miter;" x="190.059055" xlink:href="#m8ca646a018" y="264.382016"/>
     <use style="fill:#ff0000;stroke:#000000;stroke-linejoin:miter;" x="193.954909" xlink:href="#m8ca646a018" y="266.486932"/>
     <use style="fill:#ff0000;stroke:#000000;stroke-linejoin:miter;" x="197.850764" xlink:href="#m8ca646a018" y="268.484242"/>
     <use style="fill:#ff0000;stroke:#000000;stroke-linejoin:miter;" x="201.746618" xlink:href="#m8ca646a018" y="270.381626"/>
     <use style="fill:#ff0000;stroke:#000000;stroke-linejoin:miter;" x="205.642473" xlink:href="#m8ca646a018" y="272.186246"/>
     <use style="fill:#ff0000;stroke:#000000;stroke-linejoin:miter;" x="209.538327" xlink:href="#m8ca646a018" y="273.906061"/>
     <use style="fill:#ff0000;stroke:#000000;stroke-linejoin:miter;" x="213.434182" xlink:href="#m8ca646a018" y="275.544497"/>
     <use style="fill:#ff0000;stroke:#000000;stroke-linejoin:miter;" x="217.330036" xlink:href="#m8ca646a018" y="277.106734"/>
     <use style="fill:#ff0000;stroke:#000000;stroke-linejoin:miter;" x="221.225891" xlink:href="#m8ca646a018" y="278.59748"/>
     <use style="fill:#ff0000;stroke:#000000;stroke-linejoin:miter;" x="225.121745" xlink:href="#m8ca646a018" y="280.021619"/>
     <use style="fill:#ff0000;stroke:#000000;stroke-linejoin:miter;" x="229.0176" xlink:href="#m8ca646a018" y="281.384547"/>
     <use style="fill:#ff0000;stroke:#000000;stroke-linejoin:miter;" x="232.913455" xlink:href="#m8ca646a018" y="282.686493"/>
     <use style="fill:#ff0000;stroke:#000000;stroke-linejoin:miter;" x="236.809309" xlink:href="#m8ca646a018" y="283.931947"/>
     <use style="fill:#ff0000;stroke:#000000;stroke-linejoin:miter;" x="240.705164" xlink:href="#m8ca646a018" y="285.123971"/>
     <use style="fill:#ff0000;stroke:#000000;stroke-linejoin:miter;" x="244.601018" xlink:href="#m8ca646a018" y="286.26538"/>
     <use style="fill:#ff0000;stroke:#000000;stroke-linejoin:miter;" x="248.496873" xlink:href="#m8ca646a018" y="287.359114"/>
     <use style="fill:#ff0000;stroke:#000000;stroke-linejoin:miter;" x="252.392727" xlink:href="#m8ca646a018" y="288.407718"/>
     <use style="fill:#ff0000;stroke:#000000;stroke-linejoin:miter;" x="256.288582" xlink:href="#m8ca646a018" y="289.412792"/>
     <use style="fill:#ff0000;stroke:#000000;stroke-linejoin:miter;" x="260.184436" xlink:href="#m8ca646a018" y="290.376386"/>
     <use style="fill:#ff0000;stroke:#000000;stroke-linejoin:miter;" x="264.080291" xlink:href="#m8ca646a018" y="291.300392"/>
     <use style="fill:#ff0000;stroke:#000000;stroke-linejoin:miter;" x="267.976145" xlink:href="#m8ca646a018" y="292.186549"/>
     <use style="fill:#ff0000;stroke:#000000;stroke-linejoin:miter;" x="271.872" xlink:href="#m8ca646a018" y="293.037629"/>
     <use style="fill:#ff0000;stroke:#000000;stroke-linejoin:miter;" x="275.767855" xlink:href="#m8ca646a018" y="293.852844"/>
     <use style="fill:#ff0000;stroke:#000000;stroke-linejoin:miter;" x="279.663709" xlink:href="#m8ca646a018" y="294.634636"/>
     <use style="fill:#ff0000;stroke:#000000;stroke-linejoin:miter;" x="283.559564" xlink:href="#m8ca646a018" y="295.384629"/>
     <use style="fill:#ff0000;stroke:#000000;stroke-linejoin:miter;" x="287.455418" xlink:href="#m8ca646a018" y="296.103487"/>
     <use style="fill:#ff0000;stroke:#000000;stroke-linejoin:miter;" x="291.351273" xlink:href="#m8ca646a018" y="296.792219"/>
     <use style="fill:#ff0000;stroke:#000000;stroke-linejoin:miter;" x="295.247127" xlink:href="#m8ca646a018" y="297.452833"/>
     <use style="fill:#ff0000;stroke:#000000;stroke-linejoin:miter;" x="299.142982" xlink:href="#m8ca646a018" y="298.083971"/>
     <use style="fill:#ff0000;stroke:#000000;stroke-linejoin:miter;" x="303.038836" xlink:href="#m8ca646a018" y="298.687339"/>
     <use style="fill:#ff0000;stroke:#000000;stroke-linejoin:miter;" x="306.934691" xlink:href="#m8ca646a018" y="299.263503"/>
     <use style="fill:#ff0000;stroke:#000000;stroke-linejoin:miter;" x="310.830545" xlink:href="#m8ca646a018" y="299.812914"/>
     <use style="fill:#ff0000;stroke:#000000;stroke-linejoin:miter;" x="314.7264" xlink:href="#m8ca646a018" y="300.335911"/>
     <use style="fill:#ff0000;stroke:#000000;stroke-linejoin:miter;" x="318.622255" xlink:href="#m8ca646a018" y="300.832728"/>
     <use style="fill:#ff0000;stroke:#000000;stroke-linejoin:miter;" x="322.518109" xlink:href="#m8ca646a018" y="301.304605"/>
     <use style="fill:#ff0000;stroke:#000000;stroke-linejoin:miter;" x="326.413964" xlink:href="#m8ca646a018" y="301.7494"/>
     <use style="fill:#ff0000;stroke:#000000;stroke-linejoin:miter;" x="330.309818" xlink:href="#m8ca646a018" y="302.168147"/>
     <use style="fill:#ff0000;stroke:#000000;stroke-linejoin:miter;" x="334.205673" xlink:href="#m8ca646a018" y="302.560787"/>
     <use style="fill:#ff0000;stroke:#000000;stroke-linejoin:miter;" x="338.101527" xlink:href="#m8ca646a018" y="302.927267"/>
     <use style="fill:#ff0000;stroke:#000000;stroke-linejoin:miter;" x="341.997382" xlink:href="#m8ca646a018" y="303.266593"/>
     <use style="fill:#ff0000;stroke:#000000;stroke-linejoin:miter;" x="345.893236" xlink:href="#m8ca646a018" y="303.581026"/>
     <use style="fill:#ff0000;stroke:#000000;stroke-linejoin:miter;" x="349.789091" xlink:href="#m8ca646a018" y="303.869771"/>
     <use style="fill:#ff0000;stroke:#000000;stroke-linejoin:miter;" x="353.684945" xlink:href="#m8ca646a018" y="304.133375"/>
     <use style="fill:#ff0000;stroke:#000000;stroke-linejoin:miter;" x="357.5808" xlink:href="#m8ca646a018" y="304.371791"/>
     <use style="fill:#ff0000;stroke:#000000;stroke-linejoin:miter;" x="361.476655" xlink:href="#m8ca646a018" y="304.588062"/>
     <use style="fill:#ff0000;stroke:#000000;stroke-linejoin:miter;" x="365.372509" xlink:href="#m8ca646a018" y="304.781701"/>
     <use style="fill:#ff0000;stroke:#000000;stroke-linejoin:miter;" x="369.268364" xlink:href="#m8ca646a018" y="304.956149"/>
     <use style="fill:#ff0000;stroke:#000000;stroke-linejoin:miter;" x="373.164218" xlink:href="#m8ca646a018" y="305.111335"/>
     <use style="fill:#ff0000;stroke:#000000;stroke-linejoin:miter;" x="377.060073" xlink:href="#m8ca646a018" y="305.249829"/>
     <use style="fill:#ff0000;stroke:#000000;stroke-linejoin:miter;" x="380.955927" xlink:href="#m8ca646a018" y="305.374421"/>
     <use style="fill:#ff0000;stroke:#000000;stroke-linejoin:miter;" x="384.851782" xlink:href="#m8ca646a018" y="305.48481"/>
     <use style="fill:#ff0000;stroke:#000000;stroke-linejoin:miter;" x="388.747636" xlink:href="#m8ca646a018" y="305.584396"/>
     <use style="fill:#ff0000;stroke:#000000;stroke-linejoin:miter;" x="392.643491" xlink:href="#m8ca646a018" y="305.672725"/>
     <use style="fill:#ff0000;stroke:#000000;stroke-linejoin:miter;" x="396.539345" xlink:href="#m8ca646a018" y="305.752856"/>
     <use style="fill:#ff0000;stroke:#000000;stroke-linejoin:miter;" x="400.4352" xlink:href="#m8ca646a018" y="305.824032"/>
     <use style="fill:#ff0000;stroke:#000000;stroke-linejoin:miter;" x="404.331055" xlink:href="#m8ca646a018" y="305.889108"/>
     <use style="fill:#ff0000;stroke:#000000;stroke-linejoin:miter;" x="408.226909" xlink:href="#m8ca646a018" y="305.947893"/>
    </g>
   </g>
   <g id="line2d_32">
    <path clip-path="url(#p73c50c863e)" d="M 57.6 307.584 
L 61.495855 275.650528 
L 65.391709 243.717056 
L 69.287564 211.783584 
L 73.183418 179.850112 
L 77.079273 147.91664 
L 80.975127 115.983168 
L 84.870982 84.049696 
L 88.766836 52.116225 
L 92.662691 74.932687 
L 96.558545 106.159564 
L 100.4544 128.032283 
L 104.350255 144.983462 
L 108.246109 158.819772 
L 112.141964 170.487637 
L 116.037818 180.545773 
L 119.933673 189.35989 
L 123.829527 197.182518 
L 127.725382 204.193522 
L 131.621236 210.524014 
L 135.517091 216.288257 
L 139.412945 221.557719 
L 143.3088 226.40399 
L 147.204655 230.876516 
L 151.100509 235.024627 
L 154.996364 238.878158 
L 158.892218 242.474502 
L 162.788073 245.835413 
L 166.683927 248.984684 
L 170.579782 251.943046 
L 174.475636 254.726552 
L 178.371491 257.350817 
L 182.267345 259.830072 
L 186.1632 262.173476 
L 190.059055 264.391773 
L 193.954909 266.497393 
L 197.850764 268.495451 
L 201.746618 270.39363 
L 205.642473 272.199073 
L 209.538327 273.919789 
L 213.434182 275.559188 
L 217.330036 277.122456 
L 221.225891 278.614306 
L 225.121745 280.039605 
L 229.0176 281.403803 
L 232.913455 282.707124 
L 236.809309 283.954063 
L 240.705164 285.147692 
L 244.601018 286.290841 
L 248.496873 287.386435 
L 252.392727 288.437092 
L 256.288582 289.444404 
L 260.184436 290.410445 
L 264.080291 291.337127 
L 267.976145 292.226221 
L 271.872 293.080556 
L 275.767855 293.899334 
L 279.663709 294.685056 
L 283.559564 295.43937 
L 287.455418 296.163049 
L 291.351273 296.857134 
L 295.247127 297.523771 
L 299.142982 298.161555 
L 303.038836 298.772331 
L 306.934691 299.356757 
L 310.830545 299.915379 
L 314.7264 300.449806 
L 318.622255 300.958111 
L 322.518109 301.441583 
L 326.413964 301.900328 
L 330.309818 302.334337 
L 334.205673 302.744583 
L 338.101527 303.128762 
L 341.997382 303.487682 
L 345.893236 303.82016 
L 349.789091 304.128114 
L 353.684945 304.41051 
L 357.5808 304.6676 
L 361.476655 304.899107 
L 365.372509 305.106932 
L 369.268364 305.293582 
L 373.164218 305.45869 
L 377.060073 305.605096 
L 380.955927 305.735811 
L 384.851782 305.850789 
L 388.747636 305.952724 
L 392.643491 306.044356 
L 396.539345 306.125128 
L 400.4352 306.198279 
L 404.331055 306.26297 
L 408.226909 306.322136 
" style="fill:none;stroke:#000000;stroke-linecap:square;stroke-width:2;"/>
    <defs>
     <path d="M -2.5 2.5 
L 2.5 -2.5 
M -2.5 -2.5 
L 2.5 2.5 
" id="m8ef54014a5" style="stroke:#000000;"/>
    </defs>
    <g clip-path="url(#p73c50c863e)">
     <use style="fill:#ff0000;stroke:#000000;" x="57.6" xlink:href="#m8ef54014a5" y="307.584"/>
     <use style="fill:#ff0000;stroke:#000000;" x="61.495855" xlink:href="#m8ef54014a5" y="275.650528"/>
     <use style="fill:#ff0000;stroke:#000000;" x="65.391709" xlink:href="#m8ef54014a5" y="243.717056"/>
     <use style="fill:#ff0000;stroke:#000000;" x="69.287564" xlink:href="#m8ef54014a5" y="211.783584"/>
     <use style="fill:#ff0000;stroke:#000000;" x="73.183418" xlink:href="#m8ef54014a5" y="179.850112"/>
     <use style="fill:#ff0000;stroke:#000000;" x="77.079273" xlink:href="#m8ef54014a5" y="147.91664"/>
     <use style="fill:#ff0000;stroke:#000000;" x="80.975127" xlink:href="#m8ef54014a5" y="115.983168"/>
     <use style="fill:#ff0000;stroke:#000000;" x="84.870982" xlink:href="#m8ef54014a5" y="84.049696"/>
     <use style="fill:#ff0000;stroke:#000000;" x="88.766836" xlink:href="#m8ef54014a5" y="52.116225"/>
     <use style="fill:#ff0000;stroke:#000000;" x="92.662691" xlink:href="#m8ef54014a5" y="74.932687"/>
     <use style="fill:#ff0000;stroke:#000000;" x="96.558545" xlink:href="#m8ef54014a5" y="106.159564"/>
     <use style="fill:#ff0000;stroke:#000000;" x="100.4544" xlink:href="#m8ef54014a5" y="128.032283"/>
     <use style="fill:#ff0000;stroke:#000000;" x="104.350255" xlink:href="#m8ef54014a5" y="144.983462"/>
     <use style="fill:#ff0000;stroke:#000000;" x="108.246109" xlink:href="#m8ef54014a5" y="158.819772"/>
     <use style="fill:#ff0000;stroke:#000000;" x="112.141964" xlink:href="#m8ef54014a5" y="170.487637"/>
     <use style="fill:#ff0000;stroke:#000000;" x="116.037818" xlink:href="#m8ef54014a5" y="180.545773"/>
     <use style="fill:#ff0000;stroke:#000000;" x="119.933673" xlink:href="#m8ef54014a5" y="189.35989"/>
     <use style="fill:#ff0000;stroke:#000000;" x="123.829527" xlink:href="#m8ef54014a5" y="197.182518"/>
     <use style="fill:#ff0000;stroke:#000000;" x="127.725382" xlink:href="#m8ef54014a5" y="204.193522"/>
     <use style="fill:#ff0000;stroke:#000000;" x="131.621236" xlink:href="#m8ef54014a5" y="210.524014"/>
     <use style="fill:#ff0000;stroke:#000000;" x="135.517091" xlink:href="#m8ef54014a5" y="216.288257"/>
     <use style="fill:#ff0000;stroke:#000000;" x="139.412945" xlink:href="#m8ef54014a5" y="221.557719"/>
     <use style="fill:#ff0000;stroke:#000000;" x="143.3088" xlink:href="#m8ef54014a5" y="226.40399"/>
     <use style="fill:#ff0000;stroke:#000000;" x="147.204655" xlink:href="#m8ef54014a5" y="230.876516"/>
     <use style="fill:#ff0000;stroke:#000000;" x="151.100509" xlink:href="#m8ef54014a5" y="235.024627"/>
     <use style="fill:#ff0000;stroke:#000000;" x="154.996364" xlink:href="#m8ef54014a5" y="238.878158"/>
     <use style="fill:#ff0000;stroke:#000000;" x="158.892218" xlink:href="#m8ef54014a5" y="242.474502"/>
     <use style="fill:#ff0000;stroke:#000000;" x="162.788073" xlink:href="#m8ef54014a5" y="245.835413"/>
     <use style="fill:#ff0000;stroke:#000000;" x="166.683927" xlink:href="#m8ef54014a5" y="248.984684"/>
     <use style="fill:#ff0000;stroke:#000000;" x="170.579782" xlink:href="#m8ef54014a5" y="251.943046"/>
     <use style="fill:#ff0000;stroke:#000000;" x="174.475636" xlink:href="#m8ef54014a5" y="254.726552"/>
     <use style="fill:#ff0000;stroke:#000000;" x="178.371491" xlink:href="#m8ef54014a5" y="257.350817"/>
     <use style="fill:#ff0000;stroke:#000000;" x="182.267345" xlink:href="#m8ef54014a5" y="259.830072"/>
     <use style="fill:#ff0000;stroke:#000000;" x="186.1632" xlink:href="#m8ef54014a5" y="262.173476"/>
     <use style="fill:#ff0000;stroke:#000000;" x="190.059055" xlink:href="#m8ef54014a5" y="264.391773"/>
     <use style="fill:#ff0000;stroke:#000000;" x="193.954909" xlink:href="#m8ef54014a5" y="266.497393"/>
     <use style="fill:#ff0000;stroke:#000000;" x="197.850764" xlink:href="#m8ef54014a5" y="268.495451"/>
     <use style="fill:#ff0000;stroke:#000000;" x="201.746618" xlink:href="#m8ef54014a5" y="270.39363"/>
     <use style="fill:#ff0000;stroke:#000000;" x="205.642473" xlink:href="#m8ef54014a5" y="272.199073"/>
     <use style="fill:#ff0000;stroke:#000000;" x="209.538327" xlink:href="#m8ef54014a5" y="273.919789"/>
     <use style="fill:#ff0000;stroke:#000000;" x="213.434182" xlink:href="#m8ef54014a5" y="275.559188"/>
     <use style="fill:#ff0000;stroke:#000000;" x="217.330036" xlink:href="#m8ef54014a5" y="277.122456"/>
     <use style="fill:#ff0000;stroke:#000000;" x="221.225891" xlink:href="#m8ef54014a5" y="278.614306"/>
     <use style="fill:#ff0000;stroke:#000000;" x="225.121745" xlink:href="#m8ef54014a5" y="280.039605"/>
     <use style="fill:#ff0000;stroke:#000000;" x="229.0176" xlink:href="#m8ef54014a5" y="281.403803"/>
     <use style="fill:#ff0000;stroke:#000000;" x="232.913455" xlink:href="#m8ef54014a5" y="282.707124"/>
     <use style="fill:#ff0000;stroke:#000000;" x="236.809309" xlink:href="#m8ef54014a5" y="283.954063"/>
     <use style="fill:#ff0000;stroke:#000000;" x="240.705164" xlink:href="#m8ef54014a5" y="285.147692"/>
     <use style="fill:#ff0000;stroke:#000000;" x="244.601018" xlink:href="#m8ef54014a5" y="286.290841"/>
     <use style="fill:#ff0000;stroke:#000000;" x="248.496873" xlink:href="#m8ef54014a5" y="287.386435"/>
     <use style="fill:#ff0000;stroke:#000000;" x="252.392727" xlink:href="#m8ef54014a5" y="288.437092"/>
     <use style="fill:#ff0000;stroke:#000000;" x="256.288582" xlink:href="#m8ef54014a5" y="289.444404"/>
     <use style="fill:#ff0000;stroke:#000000;" x="260.184436" xlink:href="#m8ef54014a5" y="290.410445"/>
     <use style="fill:#ff0000;stroke:#000000;" x="264.080291" xlink:href="#m8ef54014a5" y="291.337127"/>
     <use style="fill:#ff0000;stroke:#000000;" x="267.976145" xlink:href="#m8ef54014a5" y="292.226221"/>
     <use style="fill:#ff0000;stroke:#000000;" x="271.872" xlink:href="#m8ef54014a5" y="293.080556"/>
     <use style="fill:#ff0000;stroke:#000000;" x="275.767855" xlink:href="#m8ef54014a5" y="293.899334"/>
     <use style="fill:#ff0000;stroke:#000000;" x="279.663709" xlink:href="#m8ef54014a5" y="294.685056"/>
     <use style="fill:#ff0000;stroke:#000000;" x="283.559564" xlink:href="#m8ef54014a5" y="295.43937"/>
     <use style="fill:#ff0000;stroke:#000000;" x="287.455418" xlink:href="#m8ef54014a5" y="296.163049"/>
     <use style="fill:#ff0000;stroke:#000000;" x="291.351273" xlink:href="#m8ef54014a5" y="296.857134"/>
     <use style="fill:#ff0000;stroke:#000000;" x="295.247127" xlink:href="#m8ef54014a5" y="297.523771"/>
     <use style="fill:#ff0000;stroke:#000000;" x="299.142982" xlink:href="#m8ef54014a5" y="298.161555"/>
     <use style="fill:#ff0000;stroke:#000000;" x="303.038836" xlink:href="#m8ef54014a5" y="298.772331"/>
     <use style="fill:#ff0000;stroke:#000000;" x="306.934691" xlink:href="#m8ef54014a5" y="299.356757"/>
     <use style="fill:#ff0000;stroke:#000000;" x="310.830545" xlink:href="#m8ef54014a5" y="299.915379"/>
     <use style="fill:#ff0000;stroke:#000000;" x="314.7264" xlink:href="#m8ef54014a5" y="300.449806"/>
     <use style="fill:#ff0000;stroke:#000000;" x="318.622255" xlink:href="#m8ef54014a5" y="300.958111"/>
     <use style="fill:#ff0000;stroke:#000000;" x="322.518109" xlink:href="#m8ef54014a5" y="301.441583"/>
     <use style="fill:#ff0000;stroke:#000000;" x="326.413964" xlink:href="#m8ef54014a5" y="301.900328"/>
     <use style="fill:#ff0000;stroke:#000000;" x="330.309818" xlink:href="#m8ef54014a5" y="302.334337"/>
     <use style="fill:#ff0000;stroke:#000000;" x="334.205673" xlink:href="#m8ef54014a5" y="302.744583"/>
     <use style="fill:#ff0000;stroke:#000000;" x="338.101527" xlink:href="#m8ef54014a5" y="303.128762"/>
     <use style="fill:#ff0000;stroke:#000000;" x="341.997382" xlink:href="#m8ef54014a5" y="303.487682"/>
     <use style="fill:#ff0000;stroke:#000000;" x="345.893236" xlink:href="#m8ef54014a5" y="303.82016"/>
     <use style="fill:#ff0000;stroke:#000000;" x="349.789091" xlink:href="#m8ef54014a5" y="304.128114"/>
     <use style="fill:#ff0000;stroke:#000000;" x="353.684945" xlink:href="#m8ef54014a5" y="304.41051"/>
     <use style="fill:#ff0000;stroke:#000000;" x="357.5808" xlink:href="#m8ef54014a5" y="304.6676"/>
     <use style="fill:#ff0000;stroke:#000000;" x="361.476655" xlink:href="#m8ef54014a5" y="304.899107"/>
     <use style="fill:#ff0000;stroke:#000000;" x="365.372509" xlink:href="#m8ef54014a5" y="305.106932"/>
     <use style="fill:#ff0000;stroke:#000000;" x="369.268364" xlink:href="#m8ef54014a5" y="305.293582"/>
     <use style="fill:#ff0000;stroke:#000000;" x="373.164218" xlink:href="#m8ef54014a5" y="305.45869"/>
     <use style="fill:#ff0000;stroke:#000000;" x="377.060073" xlink:href="#m8ef54014a5" y="305.605096"/>
     <use style="fill:#ff0000;stroke:#000000;" x="380.955927" xlink:href="#m8ef54014a5" y="305.735811"/>
     <use style="fill:#ff0000;stroke:#000000;" x="384.851782" xlink:href="#m8ef54014a5" y="305.850789"/>
     <use style="fill:#ff0000;stroke:#000000;" x="388.747636" xlink:href="#m8ef54014a5" y="305.952724"/>
     <use style="fill:#ff0000;stroke:#000000;" x="392.643491" xlink:href="#m8ef54014a5" y="306.044356"/>
     <use style="fill:#ff0000;stroke:#000000;" x="396.539345" xlink:href="#m8ef54014a5" y="306.125128"/>
     <use style="fill:#ff0000;stroke:#000000;" x="400.4352" xlink:href="#m8ef54014a5" y="306.198279"/>
     <use style="fill:#ff0000;stroke:#000000;" x="404.331055" xlink:href="#m8ef54014a5" y="306.26297"/>
     <use style="fill:#ff0000;stroke:#000000;" x="408.226909" xlink:href="#m8ef54014a5" y="306.322136"/>
    </g>
   </g>
   <g id="patch_3">
    <path d="M 57.6 307.584 
L 57.6 41.472 
" style="fill:none;stroke:#000000;stroke-linecap:square;stroke-linejoin:miter;stroke-width:0.8;"/>
   </g>
   <g id="patch_4">
    <path d="M 414.72 307.584 
L 414.72 41.472 
" style="fill:none;stroke:#000000;stroke-linecap:square;stroke-linejoin:miter;stroke-width:0.8;"/>
   </g>
   <g id="patch_5">
    <path d="M 57.6 307.584 
L 414.72 307.584 
" style="fill:none;stroke:#000000;stroke-linecap:square;stroke-linejoin:miter;stroke-width:0.8;"/>
   </g>
   <g id="patch_6">
    <path d="M 57.6 41.472 
L 414.72 41.472 
" style="fill:none;stroke:#000000;stroke-linecap:square;stroke-linejoin:miter;stroke-width:0.8;"/>
   </g>
   <g id="text_17">
    <!-- b/h = 50 -->
    <defs>
     <path d="M 48.6875 27.296875 
Q 48.6875 37.203125 44.609375 42.84375 
Q 40.53125 48.484375 33.40625 48.484375 
Q 26.265625 48.484375 22.1875 42.84375 
Q 18.109375 37.203125 18.109375 27.296875 
Q 18.109375 17.390625 22.1875 11.75 
Q 26.265625 6.109375 33.40625 6.109375 
Q 40.53125 6.109375 44.609375 11.75 
Q 48.6875 17.390625 48.6875 27.296875 
z
M 18.109375 46.390625 
Q 20.953125 51.265625 25.265625 53.625 
Q 29.59375 56 35.59375 56 
Q 45.5625 56 51.78125 48.09375 
Q 58.015625 40.1875 58.015625 27.296875 
Q 58.015625 14.40625 51.78125 6.484375 
Q 45.5625 -1.421875 35.59375 -1.421875 
Q 29.59375 -1.421875 25.265625 0.953125 
Q 20.953125 3.328125 18.109375 8.203125 
L 18.109375 0 
L 9.078125 0 
L 9.078125 75.984375 
L 18.109375 75.984375 
z
" id="DejaVuSans-98"/>
     <path d="M 25.390625 72.90625 
L 33.6875 72.90625 
L 8.296875 -9.28125 
L 0 -9.28125 
z
" id="DejaVuSans-47"/>
     <path d="M 54.890625 33.015625 
L 54.890625 0 
L 45.90625 0 
L 45.90625 32.71875 
Q 45.90625 40.484375 42.875 44.328125 
Q 39.84375 48.1875 33.796875 48.1875 
Q 26.515625 48.1875 22.3125 43.546875 
Q 18.109375 38.921875 18.109375 30.90625 
L 18.109375 0 
L 9.078125 0 
L 9.078125 75.984375 
L 18.109375 75.984375 
L 18.109375 46.1875 
Q 21.34375 51.125 25.703125 53.5625 
Q 30.078125 56 35.796875 56 
Q 45.21875 56 50.046875 50.171875 
Q 54.890625 44.34375 54.890625 33.015625 
z
" id="DejaVuSans-104"/>
     <path d="M 10.59375 45.40625 
L 73.1875 45.40625 
L 73.1875 37.203125 
L 10.59375 37.203125 
z
M 10.59375 25.484375 
L 73.1875 25.484375 
L 73.1875 17.1875 
L 10.59375 17.1875 
z
" id="DejaVuSans-61"/>
    </defs>
    <g transform="translate(210.050625 35.472)scale(0.12 -0.12)">
     <use xlink:href="#DejaVuSans-98"/>
     <use x="63.476562" xlink:href="#DejaVuSans-47"/>
     <use x="97.167969" xlink:href="#DejaVuSans-104"/>
     <use x="160.546875" xlink:href="#DejaVuSans-32"/>
     <use x="192.333984" xlink:href="#DejaVuSans-61"/>
     <use x="276.123047" xlink:href="#DejaVuSans-32"/>
     <use x="307.910156" xlink:href="#DejaVuSans-53"/>
     <use x="371.533203" xlink:href="#DejaVuSans-48"/>
    </g>
   </g>
   <g id="legend_1">
    <g id="patch_7">
     <path d="M 333.287188 109.297 
L 407.72 109.297 
Q 409.72 109.297 409.72 107.297 
L 409.72 48.472 
Q 409.72 46.472 407.72 46.472 
L 333.287188 46.472 
Q 331.287188 46.472 331.287188 48.472 
L 331.287188 107.297 
Q 331.287188 109.297 333.287188 109.297 
z
" style="fill:#ffffff;opacity:0.8;stroke:#cccccc;stroke-linejoin:miter;"/>
    </g>
    <g id="line2d_33">
     <path d="M 335.287188 54.570437 
L 355.287188 54.570437 
" style="fill:none;stroke:#000000;stroke-linecap:square;stroke-width:2;"/>
    </g>
    <g id="line2d_34">
     <g>
      <use style="fill:#ff0000;stroke:#000000;" x="345.287188" xlink:href="#mf18d2028ea" y="54.570437"/>
     </g>
    </g>
    <g id="text_18">
     <!-- C_50_5 -->
     <defs>
      <path d="M 64.40625 67.28125 
L 64.40625 56.890625 
Q 59.421875 61.53125 53.78125 63.8125 
Q 48.140625 66.109375 41.796875 66.109375 
Q 29.296875 66.109375 22.65625 58.46875 
Q 16.015625 50.828125 16.015625 36.375 
Q 16.015625 21.96875 22.65625 14.328125 
Q 29.296875 6.6875 41.796875 6.6875 
Q 48.140625 6.6875 53.78125 8.984375 
Q 59.421875 11.28125 64.40625 15.921875 
L 64.40625 5.609375 
Q 59.234375 2.09375 53.4375 0.328125 
Q 47.65625 -1.421875 41.21875 -1.421875 
Q 24.65625 -1.421875 15.125 8.703125 
Q 5.609375 18.84375 5.609375 36.375 
Q 5.609375 53.953125 15.125 64.078125 
Q 24.65625 74.21875 41.21875 74.21875 
Q 47.75 74.21875 53.53125 72.484375 
Q 59.328125 70.75 64.40625 67.28125 
z
" id="DejaVuSans-67"/>
      <path d="M 50.984375 -16.609375 
L 50.984375 -23.578125 
L -0.984375 -23.578125 
L -0.984375 -16.609375 
z
" id="DejaVuSans-95"/>
     </defs>
     <g transform="translate(363.287188 58.070437)scale(0.1 -0.1)">
      <use xlink:href="#DejaVuSans-67"/>
      <use x="69.824219" xlink:href="#DejaVuSans-95"/>
      <use x="119.824219" xlink:href="#DejaVuSans-53"/>
      <use x="183.447266" xlink:href="#DejaVuSans-48"/>
      <use x="247.070312" xlink:href="#DejaVuSans-95"/>
      <use x="297.070312" xlink:href="#DejaVuSans-53"/>
     </g>
    </g>
    <g id="line2d_35">
     <path d="M 335.287188 69.526687 
L 355.287188 69.526687 
" style="fill:none;stroke:#000000;stroke-linecap:square;stroke-width:2;"/>
    </g>
    <g id="line2d_36">
     <g>
      <use style="fill:#ff0000;stroke:#000000;stroke-linejoin:miter;" x="345.287188" xlink:href="#mdd5d334c6c" y="69.526687"/>
     </g>
    </g>
    <g id="text_19">
     <!-- C_50_10 -->
     <g transform="translate(363.287188 73.026687)scale(0.1 -0.1)">
      <use xlink:href="#DejaVuSans-67"/>
      <use x="69.824219" xlink:href="#DejaVuSans-95"/>
      <use x="119.824219" xlink:href="#DejaVuSans-53"/>
      <use x="183.447266" xlink:href="#DejaVuSans-48"/>
      <use x="247.070312" xlink:href="#DejaVuSans-95"/>
      <use x="297.070312" xlink:href="#DejaVuSans-49"/>
      <use x="360.693359" xlink:href="#DejaVuSans-48"/>
     </g>
    </g>
    <g id="line2d_37">
     <path d="M 335.287188 84.482937 
L 355.287188 84.482937 
" style="fill:none;stroke:#000000;stroke-linecap:square;stroke-width:2;"/>
    </g>
    <g id="line2d_38">
     <g>
      <use style="fill:#ff0000;stroke:#000000;stroke-linejoin:miter;" x="345.287188" xlink:href="#m8ca646a018" y="84.482937"/>
     </g>
    </g>
    <g id="text_20">
     <!-- C_50_20 -->
     <g transform="translate(363.287188 87.982937)scale(0.1 -0.1)">
      <use xlink:href="#DejaVuSans-67"/>
      <use x="69.824219" xlink:href="#DejaVuSans-95"/>
      <use x="119.824219" xlink:href="#DejaVuSans-53"/>
      <use x="183.447266" xlink:href="#DejaVuSans-48"/>
      <use x="247.070312" xlink:href="#DejaVuSans-95"/>
      <use x="297.070312" xlink:href="#DejaVuSans-50"/>
      <use x="360.693359" xlink:href="#DejaVuSans-48"/>
     </g>
    </g>
    <g id="line2d_39">
     <path d="M 335.287188 99.439187 
L 355.287188 99.439187 
" style="fill:none;stroke:#000000;stroke-linecap:square;stroke-width:2;"/>
    </g>
    <g id="line2d_40">
     <g>
      <use style="fill:#ff0000;stroke:#000000;" x="345.287188" xlink:href="#m8ef54014a5" y="99.439187"/>
     </g>
    </g>
    <g id="text_21">
     <!-- C_50_50 -->
     <g transform="translate(363.287188 102.939187)scale(0.1 -0.1)">
      <use xlink:href="#DejaVuSans-67"/>
      <use x="69.824219" xlink:href="#DejaVuSans-95"/>
      <use x="119.824219" xlink:href="#DejaVuSans-53"/>
      <use x="183.447266" xlink:href="#DejaVuSans-48"/>
      <use x="247.070312" xlink:href="#DejaVuSans-95"/>
      <use x="297.070312" xlink:href="#DejaVuSans-53"/>
      <use x="360.693359" xlink:href="#DejaVuSans-48"/>
     </g>
    </g>
   </g>
  </g>
 </g>
 <defs>
  <clipPath id="p73c50c863e">
   <rect height="266.112" width="357.12" x="57.6" y="41.472"/>
  </clipPath>
 </defs>
</svg>
