<?xml version="1.0" encoding="utf-8" standalone="no"?>
<!DOCTYPE svg PUBLIC "-//W3C//DTD SVG 1.1//EN"
  "http://www.w3.org/Graphics/SVG/1.1/DTD/svg11.dtd">
<!-- Created with matplotlib (https://matplotlib.org/) -->
<svg height="345.6pt" version="1.1" viewBox="0 0 460.8 345.6" width="460.8pt" xmlns="http://www.w3.org/2000/svg" xmlns:xlink="http://www.w3.org/1999/xlink">
 <defs>
  <style type="text/css">
*{stroke-linecap:butt;stroke-linejoin:round;}
  </style>
 </defs>
 <g id="figure_1">
  <g id="patch_1">
   <path d="M 0 345.6 
L 460.8 345.6 
L 460.8 0 
L 0 0 
z
" style="fill:#ffffff;"/>
  </g>
  <g id="axes_1">
   <g id="patch_2">
    <path d="M 57.6 307.584 
L 414.72 307.584 
L 414.72 41.472 
L 57.6 41.472 
z
" style="fill:#ffffff;"/>
   </g>
   <g id="matplotlib.axis_1">
    <g id="xtick_1">
     <g id="line2d_1">
      <path clip-path="url(#p8cac5b9d64)" d="M 57.6 307.584 
L 57.6 41.472 
" style="fill:none;stroke:#b0b0b0;stroke-linecap:square;stroke-width:0.8;"/>
     </g>
     <g id="line2d_2">
      <defs>
       <path d="M 0 0 
L 0 3.5 
" id="mdbfe03ecf1" style="stroke:#000000;stroke-width:0.8;"/>
      </defs>
      <g>
       <use style="stroke:#000000;stroke-width:0.8;" x="57.6" xlink:href="#mdbfe03ecf1" y="307.584"/>
      </g>
     </g>
     <g id="text_1">
      <!-- 0.00 -->
      <defs>
       <path d="M 31.78125 66.40625 
Q 24.171875 66.40625 20.328125 58.90625 
Q 16.5 51.421875 16.5 36.375 
Q 16.5 21.390625 20.328125 13.890625 
Q 24.171875 6.390625 31.78125 6.390625 
Q 39.453125 6.390625 43.28125 13.890625 
Q 47.125 21.390625 47.125 36.375 
Q 47.125 51.421875 43.28125 58.90625 
Q 39.453125 66.40625 31.78125 66.40625 
z
M 31.78125 74.21875 
Q 44.046875 74.21875 50.515625 64.515625 
Q 56.984375 54.828125 56.984375 36.375 
Q 56.984375 17.96875 50.515625 8.265625 
Q 44.046875 -1.421875 31.78125 -1.421875 
Q 19.53125 -1.421875 13.0625 8.265625 
Q 6.59375 17.96875 6.59375 36.375 
Q 6.59375 54.828125 13.0625 64.515625 
Q 19.53125 74.21875 31.78125 74.21875 
z
" id="DejaVuSans-48"/>
       <path d="M 10.6875 12.40625 
L 21 12.40625 
L 21 0 
L 10.6875 0 
z
" id="DejaVuSans-46"/>
      </defs>
      <g transform="translate(46.467188 322.182437)scale(0.1 -0.1)">
       <use xlink:href="#DejaVuSans-48"/>
       <use x="63.623047" xlink:href="#DejaVuSans-46"/>
       <use x="95.410156" xlink:href="#DejaVuSans-48"/>
       <use x="159.033203" xlink:href="#DejaVuSans-48"/>
      </g>
     </g>
    </g>
    <g id="xtick_2">
     <g id="line2d_3">
      <path clip-path="url(#p8cac5b9d64)" d="M 122.530909 307.584 
L 122.530909 41.472 
" style="fill:none;stroke:#b0b0b0;stroke-linecap:square;stroke-width:0.8;"/>
     </g>
     <g id="line2d_4">
      <g>
       <use style="stroke:#000000;stroke-width:0.8;" x="122.530909" xlink:href="#mdbfe03ecf1" y="307.584"/>
      </g>
     </g>
     <g id="text_2">
      <!-- 0.04 -->
      <defs>
       <path d="M 37.796875 64.3125 
L 12.890625 25.390625 
L 37.796875 25.390625 
z
M 35.203125 72.90625 
L 47.609375 72.90625 
L 47.609375 25.390625 
L 58.015625 25.390625 
L 58.015625 17.1875 
L 47.609375 17.1875 
L 47.609375 0 
L 37.796875 0 
L 37.796875 17.1875 
L 4.890625 17.1875 
L 4.890625 26.703125 
z
" id="DejaVuSans-52"/>
      </defs>
      <g transform="translate(111.398097 322.182437)scale(0.1 -0.1)">
       <use xlink:href="#DejaVuSans-48"/>
       <use x="63.623047" xlink:href="#DejaVuSans-46"/>
       <use x="95.410156" xlink:href="#DejaVuSans-48"/>
       <use x="159.033203" xlink:href="#DejaVuSans-52"/>
      </g>
     </g>
    </g>
    <g id="xtick_3">
     <g id="line2d_5">
      <path clip-path="url(#p8cac5b9d64)" d="M 187.461818 307.584 
L 187.461818 41.472 
" style="fill:none;stroke:#b0b0b0;stroke-linecap:square;stroke-width:0.8;"/>
     </g>
     <g id="line2d_6">
      <g>
       <use style="stroke:#000000;stroke-width:0.8;" x="187.461818" xlink:href="#mdbfe03ecf1" y="307.584"/>
      </g>
     </g>
     <g id="text_3">
      <!-- 0.08 -->
      <defs>
       <path d="M 31.78125 34.625 
Q 24.75 34.625 20.71875 30.859375 
Q 16.703125 27.09375 16.703125 20.515625 
Q 16.703125 13.921875 20.71875 10.15625 
Q 24.75 6.390625 31.78125 6.390625 
Q 38.8125 6.390625 42.859375 10.171875 
Q 46.921875 13.96875 46.921875 20.515625 
Q 46.921875 27.09375 42.890625 30.859375 
Q 38.875 34.625 31.78125 34.625 
z
M 21.921875 38.8125 
Q 15.578125 40.375 12.03125 44.71875 
Q 8.5 49.078125 8.5 55.328125 
Q 8.5 64.0625 14.71875 69.140625 
Q 20.953125 74.21875 31.78125 74.21875 
Q 42.671875 74.21875 48.875 69.140625 
Q 55.078125 64.0625 55.078125 55.328125 
Q 55.078125 49.078125 51.53125 44.71875 
Q 48 40.375 41.703125 38.8125 
Q 48.828125 37.15625 52.796875 32.3125 
Q 56.78125 27.484375 56.78125 20.515625 
Q 56.78125 9.90625 50.3125 4.234375 
Q 43.84375 -1.421875 31.78125 -1.421875 
Q 19.734375 -1.421875 13.25 4.234375 
Q 6.78125 9.90625 6.78125 20.515625 
Q 6.78125 27.484375 10.78125 32.3125 
Q 14.796875 37.15625 21.921875 38.8125 
z
M 18.3125 54.390625 
Q 18.3125 48.734375 21.84375 45.5625 
Q 25.390625 42.390625 31.78125 42.390625 
Q 38.140625 42.390625 41.71875 45.5625 
Q 45.3125 48.734375 45.3125 54.390625 
Q 45.3125 60.0625 41.71875 63.234375 
Q 38.140625 66.40625 31.78125 66.40625 
Q 25.390625 66.40625 21.84375 63.234375 
Q 18.3125 60.0625 18.3125 54.390625 
z
" id="DejaVuSans-56"/>
      </defs>
      <g transform="translate(176.329006 322.182437)scale(0.1 -0.1)">
       <use xlink:href="#DejaVuSans-48"/>
       <use x="63.623047" xlink:href="#DejaVuSans-46"/>
       <use x="95.410156" xlink:href="#DejaVuSans-48"/>
       <use x="159.033203" xlink:href="#DejaVuSans-56"/>
      </g>
     </g>
    </g>
    <g id="xtick_4">
     <g id="line2d_7">
      <path clip-path="url(#p8cac5b9d64)" d="M 252.392727 307.584 
L 252.392727 41.472 
" style="fill:none;stroke:#b0b0b0;stroke-linecap:square;stroke-width:0.8;"/>
     </g>
     <g id="line2d_8">
      <g>
       <use style="stroke:#000000;stroke-width:0.8;" x="252.392727" xlink:href="#mdbfe03ecf1" y="307.584"/>
      </g>
     </g>
     <g id="text_4">
      <!-- 0.12 -->
      <defs>
       <path d="M 12.40625 8.296875 
L 28.515625 8.296875 
L 28.515625 63.921875 
L 10.984375 60.40625 
L 10.984375 69.390625 
L 28.421875 72.90625 
L 38.28125 72.90625 
L 38.28125 8.296875 
L 54.390625 8.296875 
L 54.390625 0 
L 12.40625 0 
z
" id="DejaVuSans-49"/>
       <path d="M 19.1875 8.296875 
L 53.609375 8.296875 
L 53.609375 0 
L 7.328125 0 
L 7.328125 8.296875 
Q 12.9375 14.109375 22.625 23.890625 
Q 32.328125 33.6875 34.8125 36.53125 
Q 39.546875 41.84375 41.421875 45.53125 
Q 43.3125 49.21875 43.3125 52.78125 
Q 43.3125 58.59375 39.234375 62.25 
Q 35.15625 65.921875 28.609375 65.921875 
Q 23.96875 65.921875 18.8125 64.3125 
Q 13.671875 62.703125 7.8125 59.421875 
L 7.8125 69.390625 
Q 13.765625 71.78125 18.9375 73 
Q 24.125 74.21875 28.421875 74.21875 
Q 39.75 74.21875 46.484375 68.546875 
Q 53.21875 62.890625 53.21875 53.421875 
Q 53.21875 48.921875 51.53125 44.890625 
Q 49.859375 40.875 45.40625 35.40625 
Q 44.1875 33.984375 37.640625 27.21875 
Q 31.109375 20.453125 19.1875 8.296875 
z
" id="DejaVuSans-50"/>
      </defs>
      <g transform="translate(241.259915 322.182437)scale(0.1 -0.1)">
       <use xlink:href="#DejaVuSans-48"/>
       <use x="63.623047" xlink:href="#DejaVuSans-46"/>
       <use x="95.410156" xlink:href="#DejaVuSans-49"/>
       <use x="159.033203" xlink:href="#DejaVuSans-50"/>
      </g>
     </g>
    </g>
    <g id="xtick_5">
     <g id="line2d_9">
      <path clip-path="url(#p8cac5b9d64)" d="M 317.323636 307.584 
L 317.323636 41.472 
" style="fill:none;stroke:#b0b0b0;stroke-linecap:square;stroke-width:0.8;"/>
     </g>
     <g id="line2d_10">
      <g>
       <use style="stroke:#000000;stroke-width:0.8;" x="317.323636" xlink:href="#mdbfe03ecf1" y="307.584"/>
      </g>
     </g>
     <g id="text_5">
      <!-- 0.16 -->
      <defs>
       <path d="M 33.015625 40.375 
Q 26.375 40.375 22.484375 35.828125 
Q 18.609375 31.296875 18.609375 23.390625 
Q 18.609375 15.53125 22.484375 10.953125 
Q 26.375 6.390625 33.015625 6.390625 
Q 39.65625 6.390625 43.53125 10.953125 
Q 47.40625 15.53125 47.40625 23.390625 
Q 47.40625 31.296875 43.53125 35.828125 
Q 39.65625 40.375 33.015625 40.375 
z
M 52.59375 71.296875 
L 52.59375 62.3125 
Q 48.875 64.0625 45.09375 64.984375 
Q 41.3125 65.921875 37.59375 65.921875 
Q 27.828125 65.921875 22.671875 59.328125 
Q 17.53125 52.734375 16.796875 39.40625 
Q 19.671875 43.65625 24.015625 45.921875 
Q 28.375 48.1875 33.59375 48.1875 
Q 44.578125 48.1875 50.953125 41.515625 
Q 57.328125 34.859375 57.328125 23.390625 
Q 57.328125 12.15625 50.6875 5.359375 
Q 44.046875 -1.421875 33.015625 -1.421875 
Q 20.359375 -1.421875 13.671875 8.265625 
Q 6.984375 17.96875 6.984375 36.375 
Q 6.984375 53.65625 15.1875 63.9375 
Q 23.390625 74.21875 37.203125 74.21875 
Q 40.921875 74.21875 44.703125 73.484375 
Q 48.484375 72.75 52.59375 71.296875 
z
" id="DejaVuSans-54"/>
      </defs>
      <g transform="translate(306.190824 322.182437)scale(0.1 -0.1)">
       <use xlink:href="#DejaVuSans-48"/>
       <use x="63.623047" xlink:href="#DejaVuSans-46"/>
       <use x="95.410156" xlink:href="#DejaVuSans-49"/>
       <use x="159.033203" xlink:href="#DejaVuSans-54"/>
      </g>
     </g>
    </g>
    <g id="xtick_6">
     <g id="line2d_11">
      <path clip-path="url(#p8cac5b9d64)" d="M 382.254545 307.584 
L 382.254545 41.472 
" style="fill:none;stroke:#b0b0b0;stroke-linecap:square;stroke-width:0.8;"/>
     </g>
     <g id="line2d_12">
      <g>
       <use style="stroke:#000000;stroke-width:0.8;" x="382.254545" xlink:href="#mdbfe03ecf1" y="307.584"/>
      </g>
     </g>
     <g id="text_6">
      <!-- 0.20 -->
      <g transform="translate(371.121733 322.182437)scale(0.1 -0.1)">
       <use xlink:href="#DejaVuSans-48"/>
       <use x="63.623047" xlink:href="#DejaVuSans-46"/>
       <use x="95.410156" xlink:href="#DejaVuSans-50"/>
       <use x="159.033203" xlink:href="#DejaVuSans-48"/>
      </g>
     </g>
    </g>
    <g id="xtick_7">
     <g id="line2d_13">
      <path clip-path="url(#p8cac5b9d64)" d="M 414.72 307.584 
L 414.72 41.472 
" style="fill:none;stroke:#b0b0b0;stroke-linecap:square;stroke-width:0.8;"/>
     </g>
     <g id="line2d_14">
      <g>
       <use style="stroke:#000000;stroke-width:0.8;" x="414.72" xlink:href="#mdbfe03ecf1" y="307.584"/>
      </g>
     </g>
     <g id="text_7">
      <!-- 0.22 -->
      <g transform="translate(403.587188 322.182437)scale(0.1 -0.1)">
       <use xlink:href="#DejaVuSans-48"/>
       <use x="63.623047" xlink:href="#DejaVuSans-46"/>
       <use x="95.410156" xlink:href="#DejaVuSans-50"/>
       <use x="159.033203" xlink:href="#DejaVuSans-50"/>
      </g>
     </g>
    </g>
    <g id="text_8">
     <!-- Displacement (mm) -->
     <defs>
      <path d="M 19.671875 64.796875 
L 19.671875 8.109375 
L 31.59375 8.109375 
Q 46.6875 8.109375 53.6875 14.9375 
Q 60.6875 21.78125 60.6875 36.53125 
Q 60.6875 51.171875 53.6875 57.984375 
Q 46.6875 64.796875 31.59375 64.796875 
z
M 9.8125 72.90625 
L 30.078125 72.90625 
Q 51.265625 72.90625 61.171875 64.09375 
Q 71.09375 55.28125 71.09375 36.53125 
Q 71.09375 17.671875 61.125 8.828125 
Q 51.171875 0 30.078125 0 
L 9.8125 0 
z
" id="DejaVuSans-68"/>
      <path d="M 9.421875 54.6875 
L 18.40625 54.6875 
L 18.40625 0 
L 9.421875 0 
z
M 9.421875 75.984375 
L 18.40625 75.984375 
L 18.40625 64.59375 
L 9.421875 64.59375 
z
" id="DejaVuSans-105"/>
      <path d="M 44.28125 53.078125 
L 44.28125 44.578125 
Q 40.484375 46.53125 36.375 47.5 
Q 32.28125 48.484375 27.875 48.484375 
Q 21.1875 48.484375 17.84375 46.4375 
Q 14.5 44.390625 14.5 40.28125 
Q 14.5 37.15625 16.890625 35.375 
Q 19.28125 33.59375 26.515625 31.984375 
L 29.59375 31.296875 
Q 39.15625 29.25 43.1875 25.515625 
Q 47.21875 21.78125 47.21875 15.09375 
Q 47.21875 7.46875 41.1875 3.015625 
Q 35.15625 -1.421875 24.609375 -1.421875 
Q 20.21875 -1.421875 15.453125 -0.5625 
Q 10.6875 0.296875 5.421875 2 
L 5.421875 11.28125 
Q 10.40625 8.6875 15.234375 7.390625 
Q 20.0625 6.109375 24.8125 6.109375 
Q 31.15625 6.109375 34.5625 8.28125 
Q 37.984375 10.453125 37.984375 14.40625 
Q 37.984375 18.0625 35.515625 20.015625 
Q 33.0625 21.96875 24.703125 23.78125 
L 21.578125 24.515625 
Q 13.234375 26.265625 9.515625 29.90625 
Q 5.8125 33.546875 5.8125 39.890625 
Q 5.8125 47.609375 11.28125 51.796875 
Q 16.75 56 26.8125 56 
Q 31.78125 56 36.171875 55.265625 
Q 40.578125 54.546875 44.28125 53.078125 
z
" id="DejaVuSans-115"/>
      <path d="M 18.109375 8.203125 
L 18.109375 -20.796875 
L 9.078125 -20.796875 
L 9.078125 54.6875 
L 18.109375 54.6875 
L 18.109375 46.390625 
Q 20.953125 51.265625 25.265625 53.625 
Q 29.59375 56 35.59375 56 
Q 45.5625 56 51.78125 48.09375 
Q 58.015625 40.1875 58.015625 27.296875 
Q 58.015625 14.40625 51.78125 6.484375 
Q 45.5625 -1.421875 35.59375 -1.421875 
Q 29.59375 -1.421875 25.265625 0.953125 
Q 20.953125 3.328125 18.109375 8.203125 
z
M 48.6875 27.296875 
Q 48.6875 37.203125 44.609375 42.84375 
Q 40.53125 48.484375 33.40625 48.484375 
Q 26.265625 48.484375 22.1875 42.84375 
Q 18.109375 37.203125 18.109375 27.296875 
Q 18.109375 17.390625 22.1875 11.75 
Q 26.265625 6.109375 33.40625 6.109375 
Q 40.53125 6.109375 44.609375 11.75 
Q 48.6875 17.390625 48.6875 27.296875 
z
" id="DejaVuSans-112"/>
      <path d="M 9.421875 75.984375 
L 18.40625 75.984375 
L 18.40625 0 
L 9.421875 0 
z
" id="DejaVuSans-108"/>
      <path d="M 34.28125 27.484375 
Q 23.390625 27.484375 19.1875 25 
Q 14.984375 22.515625 14.984375 16.5 
Q 14.984375 11.71875 18.140625 8.90625 
Q 21.296875 6.109375 26.703125 6.109375 
Q 34.1875 6.109375 38.703125 11.40625 
Q 43.21875 16.703125 43.21875 25.484375 
L 43.21875 27.484375 
z
M 52.203125 31.203125 
L 52.203125 0 
L 43.21875 0 
L 43.21875 8.296875 
Q 40.140625 3.328125 35.546875 0.953125 
Q 30.953125 -1.421875 24.3125 -1.421875 
Q 15.921875 -1.421875 10.953125 3.296875 
Q 6 8.015625 6 15.921875 
Q 6 25.140625 12.171875 29.828125 
Q 18.359375 34.515625 30.609375 34.515625 
L 43.21875 34.515625 
L 43.21875 35.40625 
Q 43.21875 41.609375 39.140625 45 
Q 35.0625 48.390625 27.6875 48.390625 
Q 23 48.390625 18.546875 47.265625 
Q 14.109375 46.140625 10.015625 43.890625 
L 10.015625 52.203125 
Q 14.9375 54.109375 19.578125 55.046875 
Q 24.21875 56 28.609375 56 
Q 40.484375 56 46.34375 49.84375 
Q 52.203125 43.703125 52.203125 31.203125 
z
" id="DejaVuSans-97"/>
      <path d="M 48.78125 52.59375 
L 48.78125 44.1875 
Q 44.96875 46.296875 41.140625 47.34375 
Q 37.3125 48.390625 33.40625 48.390625 
Q 24.65625 48.390625 19.8125 42.84375 
Q 14.984375 37.3125 14.984375 27.296875 
Q 14.984375 17.28125 19.8125 11.734375 
Q 24.65625 6.203125 33.40625 6.203125 
Q 37.3125 6.203125 41.140625 7.25 
Q 44.96875 8.296875 48.78125 10.40625 
L 48.78125 2.09375 
Q 45.015625 0.34375 40.984375 -0.53125 
Q 36.96875 -1.421875 32.421875 -1.421875 
Q 20.0625 -1.421875 12.78125 6.34375 
Q 5.515625 14.109375 5.515625 27.296875 
Q 5.515625 40.671875 12.859375 48.328125 
Q 20.21875 56 33.015625 56 
Q 37.15625 56 41.109375 55.140625 
Q 45.0625 54.296875 48.78125 52.59375 
z
" id="DejaVuSans-99"/>
      <path d="M 56.203125 29.59375 
L 56.203125 25.203125 
L 14.890625 25.203125 
Q 15.484375 15.921875 20.484375 11.0625 
Q 25.484375 6.203125 34.421875 6.203125 
Q 39.59375 6.203125 44.453125 7.46875 
Q 49.3125 8.734375 54.109375 11.28125 
L 54.109375 2.78125 
Q 49.265625 0.734375 44.1875 -0.34375 
Q 39.109375 -1.421875 33.890625 -1.421875 
Q 20.796875 -1.421875 13.15625 6.1875 
Q 5.515625 13.8125 5.515625 26.8125 
Q 5.515625 40.234375 12.765625 48.109375 
Q 20.015625 56 32.328125 56 
Q 43.359375 56 49.78125 48.890625 
Q 56.203125 41.796875 56.203125 29.59375 
z
M 47.21875 32.234375 
Q 47.125 39.59375 43.09375 43.984375 
Q 39.0625 48.390625 32.421875 48.390625 
Q 24.90625 48.390625 20.390625 44.140625 
Q 15.875 39.890625 15.1875 32.171875 
z
" id="DejaVuSans-101"/>
      <path d="M 52 44.1875 
Q 55.375 50.25 60.0625 53.125 
Q 64.75 56 71.09375 56 
Q 79.640625 56 84.28125 50.015625 
Q 88.921875 44.046875 88.921875 33.015625 
L 88.921875 0 
L 79.890625 0 
L 79.890625 32.71875 
Q 79.890625 40.578125 77.09375 44.375 
Q 74.3125 48.1875 68.609375 48.1875 
Q 61.625 48.1875 57.5625 43.546875 
Q 53.515625 38.921875 53.515625 30.90625 
L 53.515625 0 
L 44.484375 0 
L 44.484375 32.71875 
Q 44.484375 40.625 41.703125 44.40625 
Q 38.921875 48.1875 33.109375 48.1875 
Q 26.21875 48.1875 22.15625 43.53125 
Q 18.109375 38.875 18.109375 30.90625 
L 18.109375 0 
L 9.078125 0 
L 9.078125 54.6875 
L 18.109375 54.6875 
L 18.109375 46.1875 
Q 21.1875 51.21875 25.484375 53.609375 
Q 29.78125 56 35.6875 56 
Q 41.65625 56 45.828125 52.96875 
Q 50 49.953125 52 44.1875 
z
" id="DejaVuSans-109"/>
      <path d="M 54.890625 33.015625 
L 54.890625 0 
L 45.90625 0 
L 45.90625 32.71875 
Q 45.90625 40.484375 42.875 44.328125 
Q 39.84375 48.1875 33.796875 48.1875 
Q 26.515625 48.1875 22.3125 43.546875 
Q 18.109375 38.921875 18.109375 30.90625 
L 18.109375 0 
L 9.078125 0 
L 9.078125 54.6875 
L 18.109375 54.6875 
L 18.109375 46.1875 
Q 21.34375 51.125 25.703125 53.5625 
Q 30.078125 56 35.796875 56 
Q 45.21875 56 50.046875 50.171875 
Q 54.890625 44.34375 54.890625 33.015625 
z
" id="DejaVuSans-110"/>
      <path d="M 18.3125 70.21875 
L 18.3125 54.6875 
L 36.8125 54.6875 
L 36.8125 47.703125 
L 18.3125 47.703125 
L 18.3125 18.015625 
Q 18.3125 11.328125 20.140625 9.421875 
Q 21.96875 7.515625 27.59375 7.515625 
L 36.8125 7.515625 
L 36.8125 0 
L 27.59375 0 
Q 17.1875 0 13.234375 3.875 
Q 9.28125 7.765625 9.28125 18.015625 
L 9.28125 47.703125 
L 2.6875 47.703125 
L 2.6875 54.6875 
L 9.28125 54.6875 
L 9.28125 70.21875 
z
" id="DejaVuSans-116"/>
      <path id="DejaVuSans-32"/>
      <path d="M 31 75.875 
Q 24.46875 64.65625 21.28125 53.65625 
Q 18.109375 42.671875 18.109375 31.390625 
Q 18.109375 20.125 21.3125 9.0625 
Q 24.515625 -2 31 -13.1875 
L 23.1875 -13.1875 
Q 15.875 -1.703125 12.234375 9.375 
Q 8.59375 20.453125 8.59375 31.390625 
Q 8.59375 42.28125 12.203125 53.3125 
Q 15.828125 64.359375 23.1875 75.875 
z
" id="DejaVuSans-40"/>
      <path d="M 8.015625 75.875 
L 15.828125 75.875 
Q 23.140625 64.359375 26.78125 53.3125 
Q 30.421875 42.28125 30.421875 31.390625 
Q 30.421875 20.453125 26.78125 9.375 
Q 23.140625 -1.703125 15.828125 -13.1875 
L 8.015625 -13.1875 
Q 14.5 -2 17.703125 9.0625 
Q 20.90625 20.125 20.90625 31.390625 
Q 20.90625 42.671875 17.703125 53.65625 
Q 14.5 64.65625 8.015625 75.875 
z
" id="DejaVuSans-41"/>
     </defs>
     <g transform="translate(186.556094 335.860562)scale(0.1 -0.1)">
      <use xlink:href="#DejaVuSans-68"/>
      <use x="77.001953" xlink:href="#DejaVuSans-105"/>
      <use x="104.785156" xlink:href="#DejaVuSans-115"/>
      <use x="156.884766" xlink:href="#DejaVuSans-112"/>
      <use x="220.361328" xlink:href="#DejaVuSans-108"/>
      <use x="248.144531" xlink:href="#DejaVuSans-97"/>
      <use x="309.423828" xlink:href="#DejaVuSans-99"/>
      <use x="364.404297" xlink:href="#DejaVuSans-101"/>
      <use x="425.927734" xlink:href="#DejaVuSans-109"/>
      <use x="523.339844" xlink:href="#DejaVuSans-101"/>
      <use x="584.863281" xlink:href="#DejaVuSans-110"/>
      <use x="648.242188" xlink:href="#DejaVuSans-116"/>
      <use x="687.451172" xlink:href="#DejaVuSans-32"/>
      <use x="719.238281" xlink:href="#DejaVuSans-40"/>
      <use x="758.251953" xlink:href="#DejaVuSans-109"/>
      <use x="855.664062" xlink:href="#DejaVuSans-109"/>
      <use x="953.076172" xlink:href="#DejaVuSans-41"/>
     </g>
    </g>
   </g>
   <g id="matplotlib.axis_2">
    <g id="ytick_1">
     <g id="line2d_15">
      <path clip-path="url(#p8cac5b9d64)" d="M 57.6 307.584 
L 414.72 307.584 
" style="fill:none;stroke:#b0b0b0;stroke-linecap:square;stroke-width:0.8;"/>
     </g>
     <g id="line2d_16">
      <defs>
       <path d="M 0 0 
L -3.5 0 
" id="m9bfc56734c" style="stroke:#000000;stroke-width:0.8;"/>
      </defs>
      <g>
       <use style="stroke:#000000;stroke-width:0.8;" x="57.6" xlink:href="#m9bfc56734c" y="307.584"/>
      </g>
     </g>
     <g id="text_9">
      <!-- 0.0 -->
      <g transform="translate(34.696875 311.383219)scale(0.1 -0.1)">
       <use xlink:href="#DejaVuSans-48"/>
       <use x="63.623047" xlink:href="#DejaVuSans-46"/>
       <use x="95.410156" xlink:href="#DejaVuSans-48"/>
      </g>
     </g>
    </g>
    <g id="ytick_2">
     <g id="line2d_17">
      <path clip-path="url(#p8cac5b9d64)" d="M 57.6 263.232 
L 414.72 263.232 
" style="fill:none;stroke:#b0b0b0;stroke-linecap:square;stroke-width:0.8;"/>
     </g>
     <g id="line2d_18">
      <g>
       <use style="stroke:#000000;stroke-width:0.8;" x="57.6" xlink:href="#m9bfc56734c" y="263.232"/>
      </g>
     </g>
     <g id="text_10">
      <!-- 0.5 -->
      <defs>
       <path d="M 10.796875 72.90625 
L 49.515625 72.90625 
L 49.515625 64.59375 
L 19.828125 64.59375 
L 19.828125 46.734375 
Q 21.96875 47.46875 24.109375 47.828125 
Q 26.265625 48.1875 28.421875 48.1875 
Q 40.625 48.1875 47.75 41.5 
Q 54.890625 34.8125 54.890625 23.390625 
Q 54.890625 11.625 47.5625 5.09375 
Q 40.234375 -1.421875 26.90625 -1.421875 
Q 22.3125 -1.421875 17.546875 -0.640625 
Q 12.796875 0.140625 7.71875 1.703125 
L 7.71875 11.625 
Q 12.109375 9.234375 16.796875 8.0625 
Q 21.484375 6.890625 26.703125 6.890625 
Q 35.15625 6.890625 40.078125 11.328125 
Q 45.015625 15.765625 45.015625 23.390625 
Q 45.015625 31 40.078125 35.4375 
Q 35.15625 39.890625 26.703125 39.890625 
Q 22.75 39.890625 18.8125 39.015625 
Q 14.890625 38.140625 10.796875 36.28125 
z
" id="DejaVuSans-53"/>
      </defs>
      <g transform="translate(34.696875 267.031219)scale(0.1 -0.1)">
       <use xlink:href="#DejaVuSans-48"/>
       <use x="63.623047" xlink:href="#DejaVuSans-46"/>
       <use x="95.410156" xlink:href="#DejaVuSans-53"/>
      </g>
     </g>
    </g>
    <g id="ytick_3">
     <g id="line2d_19">
      <path clip-path="url(#p8cac5b9d64)" d="M 57.6 218.88 
L 414.72 218.88 
" style="fill:none;stroke:#b0b0b0;stroke-linecap:square;stroke-width:0.8;"/>
     </g>
     <g id="line2d_20">
      <g>
       <use style="stroke:#000000;stroke-width:0.8;" x="57.6" xlink:href="#m9bfc56734c" y="218.88"/>
      </g>
     </g>
     <g id="text_11">
      <!-- 1.0 -->
      <g transform="translate(34.696875 222.679219)scale(0.1 -0.1)">
       <use xlink:href="#DejaVuSans-49"/>
       <use x="63.623047" xlink:href="#DejaVuSans-46"/>
       <use x="95.410156" xlink:href="#DejaVuSans-48"/>
      </g>
     </g>
    </g>
    <g id="ytick_4">
     <g id="line2d_21">
      <path clip-path="url(#p8cac5b9d64)" d="M 57.6 174.528 
L 414.72 174.528 
" style="fill:none;stroke:#b0b0b0;stroke-linecap:square;stroke-width:0.8;"/>
     </g>
     <g id="line2d_22">
      <g>
       <use style="stroke:#000000;stroke-width:0.8;" x="57.6" xlink:href="#m9bfc56734c" y="174.528"/>
      </g>
     </g>
     <g id="text_12">
      <!-- 1.5 -->
      <g transform="translate(34.696875 178.327219)scale(0.1 -0.1)">
       <use xlink:href="#DejaVuSans-49"/>
       <use x="63.623047" xlink:href="#DejaVuSans-46"/>
       <use x="95.410156" xlink:href="#DejaVuSans-53"/>
      </g>
     </g>
    </g>
    <g id="ytick_5">
     <g id="line2d_23">
      <path clip-path="url(#p8cac5b9d64)" d="M 57.6 130.176 
L 414.72 130.176 
" style="fill:none;stroke:#b0b0b0;stroke-linecap:square;stroke-width:0.8;"/>
     </g>
     <g id="line2d_24">
      <g>
       <use style="stroke:#000000;stroke-width:0.8;" x="57.6" xlink:href="#m9bfc56734c" y="130.176"/>
      </g>
     </g>
     <g id="text_13">
      <!-- 2.0 -->
      <g transform="translate(34.696875 133.975219)scale(0.1 -0.1)">
       <use xlink:href="#DejaVuSans-50"/>
       <use x="63.623047" xlink:href="#DejaVuSans-46"/>
       <use x="95.410156" xlink:href="#DejaVuSans-48"/>
      </g>
     </g>
    </g>
    <g id="ytick_6">
     <g id="line2d_25">
      <path clip-path="url(#p8cac5b9d64)" d="M 57.6 85.824 
L 414.72 85.824 
" style="fill:none;stroke:#b0b0b0;stroke-linecap:square;stroke-width:0.8;"/>
     </g>
     <g id="line2d_26">
      <g>
       <use style="stroke:#000000;stroke-width:0.8;" x="57.6" xlink:href="#m9bfc56734c" y="85.824"/>
      </g>
     </g>
     <g id="text_14">
      <!-- 2.5 -->
      <g transform="translate(34.696875 89.623219)scale(0.1 -0.1)">
       <use xlink:href="#DejaVuSans-50"/>
       <use x="63.623047" xlink:href="#DejaVuSans-46"/>
       <use x="95.410156" xlink:href="#DejaVuSans-53"/>
      </g>
     </g>
    </g>
    <g id="ytick_7">
     <g id="line2d_27">
      <path clip-path="url(#p8cac5b9d64)" d="M 57.6 41.472 
L 414.72 41.472 
" style="fill:none;stroke:#b0b0b0;stroke-linecap:square;stroke-width:0.8;"/>
     </g>
     <g id="line2d_28">
      <g>
       <use style="stroke:#000000;stroke-width:0.8;" x="57.6" xlink:href="#m9bfc56734c" y="41.472"/>
      </g>
     </g>
     <g id="text_15">
      <!-- 3.0 -->
      <defs>
       <path d="M 40.578125 39.3125 
Q 47.65625 37.796875 51.625 33 
Q 55.609375 28.21875 55.609375 21.1875 
Q 55.609375 10.40625 48.1875 4.484375 
Q 40.765625 -1.421875 27.09375 -1.421875 
Q 22.515625 -1.421875 17.65625 -0.515625 
Q 12.796875 0.390625 7.625 2.203125 
L 7.625 11.71875 
Q 11.71875 9.328125 16.59375 8.109375 
Q 21.484375 6.890625 26.8125 6.890625 
Q 36.078125 6.890625 40.9375 10.546875 
Q 45.796875 14.203125 45.796875 21.1875 
Q 45.796875 27.640625 41.28125 31.265625 
Q 36.765625 34.90625 28.71875 34.90625 
L 20.21875 34.90625 
L 20.21875 43.015625 
L 29.109375 43.015625 
Q 36.375 43.015625 40.234375 45.921875 
Q 44.09375 48.828125 44.09375 54.296875 
Q 44.09375 59.90625 40.109375 62.90625 
Q 36.140625 65.921875 28.71875 65.921875 
Q 24.65625 65.921875 20.015625 65.03125 
Q 15.375 64.15625 9.8125 62.3125 
L 9.8125 71.09375 
Q 15.4375 72.65625 20.34375 73.4375 
Q 25.25 74.21875 29.59375 74.21875 
Q 40.828125 74.21875 47.359375 69.109375 
Q 53.90625 64.015625 53.90625 55.328125 
Q 53.90625 49.265625 50.4375 45.09375 
Q 46.96875 40.921875 40.578125 39.3125 
z
" id="DejaVuSans-51"/>
      </defs>
      <g transform="translate(34.696875 45.271219)scale(0.1 -0.1)">
       <use xlink:href="#DejaVuSans-51"/>
       <use x="63.623047" xlink:href="#DejaVuSans-46"/>
       <use x="95.410156" xlink:href="#DejaVuSans-48"/>
      </g>
     </g>
    </g>
    <g id="text_16">
     <!-- Load (N) -->
     <defs>
      <path d="M 9.8125 72.90625 
L 19.671875 72.90625 
L 19.671875 8.296875 
L 55.171875 8.296875 
L 55.171875 0 
L 9.8125 0 
z
" id="DejaVuSans-76"/>
      <path d="M 30.609375 48.390625 
Q 23.390625 48.390625 19.1875 42.75 
Q 14.984375 37.109375 14.984375 27.296875 
Q 14.984375 17.484375 19.15625 11.84375 
Q 23.34375 6.203125 30.609375 6.203125 
Q 37.796875 6.203125 41.984375 11.859375 
Q 46.1875 17.53125 46.1875 27.296875 
Q 46.1875 37.015625 41.984375 42.703125 
Q 37.796875 48.390625 30.609375 48.390625 
z
M 30.609375 56 
Q 42.328125 56 49.015625 48.375 
Q 55.71875 40.765625 55.71875 27.296875 
Q 55.71875 13.875 49.015625 6.21875 
Q 42.328125 -1.421875 30.609375 -1.421875 
Q 18.84375 -1.421875 12.171875 6.21875 
Q 5.515625 13.875 5.515625 27.296875 
Q 5.515625 40.765625 12.171875 48.375 
Q 18.84375 56 30.609375 56 
z
" id="DejaVuSans-111"/>
      <path d="M 45.40625 46.390625 
L 45.40625 75.984375 
L 54.390625 75.984375 
L 54.390625 0 
L 45.40625 0 
L 45.40625 8.203125 
Q 42.578125 3.328125 38.25 0.953125 
Q 33.9375 -1.421875 27.875 -1.421875 
Q 17.96875 -1.421875 11.734375 6.484375 
Q 5.515625 14.40625 5.515625 27.296875 
Q 5.515625 40.1875 11.734375 48.09375 
Q 17.96875 56 27.875 56 
Q 33.9375 56 38.25 53.625 
Q 42.578125 51.265625 45.40625 46.390625 
z
M 14.796875 27.296875 
Q 14.796875 17.390625 18.875 11.75 
Q 22.953125 6.109375 30.078125 6.109375 
Q 37.203125 6.109375 41.296875 11.75 
Q 45.40625 17.390625 45.40625 27.296875 
Q 45.40625 37.203125 41.296875 42.84375 
Q 37.203125 48.484375 30.078125 48.484375 
Q 22.953125 48.484375 18.875 42.84375 
Q 14.796875 37.203125 14.796875 27.296875 
z
" id="DejaVuSans-100"/>
      <path d="M 9.8125 72.90625 
L 23.09375 72.90625 
L 55.421875 11.921875 
L 55.421875 72.90625 
L 64.984375 72.90625 
L 64.984375 0 
L 51.703125 0 
L 19.390625 60.984375 
L 19.390625 0 
L 9.8125 0 
z
" id="DejaVuSans-78"/>
     </defs>
     <g transform="translate(28.617187 195.842062)rotate(-90)scale(0.1 -0.1)">
      <use xlink:href="#DejaVuSans-76"/>
      <use x="55.697266" xlink:href="#DejaVuSans-111"/>
      <use x="116.878906" xlink:href="#DejaVuSans-97"/>
      <use x="178.158203" xlink:href="#DejaVuSans-100"/>
      <use x="241.634766" xlink:href="#DejaVuSans-32"/>
      <use x="273.421875" xlink:href="#DejaVuSans-40"/>
      <use x="312.435547" xlink:href="#DejaVuSans-78"/>
      <use x="387.240234" xlink:href="#DejaVuSans-41"/>
     </g>
    </g>
   </g>
   <g id="line2d_29">
    <path clip-path="url(#p8cac5b9d64)" d="M 57.6 307.584 
L 61.495855 275.650528 
L 65.391709 243.717056 
L 69.287564 211.783584 
L 73.183418 179.850112 
L 77.079273 147.91664 
L 80.975127 115.983168 
L 84.870982 84.049696 
L 88.766836 52.116225 
L 92.662691 74.907159 
L 96.558545 106.170554 
L 100.4544 128.048009 
L 104.350255 144.994996 
L 108.246109 158.831718 
L 112.141964 170.496572 
L 116.037818 180.551445 
L 119.933673 189.364076 
L 123.829527 197.183921 
L 127.725382 204.191281 
L 131.621236 210.523378 
L 135.517091 216.281644 
L 139.412945 221.550555 
L 143.3088 226.394273 
L 147.204655 230.86485 
L 151.100509 235.008838 
L 154.996364 238.861512 
L 158.892218 242.453791 
L 162.788073 245.812229 
L 166.683927 248.959848 
L 170.579782 251.915622 
L 174.475636 254.696496 
L 178.371491 257.317047 
L 182.267345 259.792237 
L 186.1632 262.13235 
L 190.059055 264.348554 
L 193.954909 266.449038 
L 197.850764 268.443165 
L 201.746618 270.33737 
L 205.642473 272.13938 
L 209.538327 273.854331 
L 213.434182 275.48864 
L 217.330036 277.046564 
L 221.225891 278.533239 
L 225.121745 279.952626 
L 229.0176 281.309548 
L 232.913455 282.605707 
L 236.809309 283.845 
L 240.705164 285.030442 
L 244.601018 286.165107 
L 248.496873 287.251144 
L 252.392727 288.290827 
L 256.288582 289.286526 
L 260.184436 290.240096 
L 264.080291 291.153161 
L 267.976145 292.02736 
L 271.872 292.86431 
L 275.767855 293.666478 
L 279.663709 294.432713 
L 283.559564 295.165172 
L 287.455418 295.864811 
L 291.351273 296.53252 
L 295.247127 297.16902 
L 299.142982 297.774824 
L 303.038836 298.350419 
L 306.934691 298.896206 
L 310.830545 299.41251 
L 314.7264 299.8996 
L 318.622255 300.357752 
L 322.518109 300.787193 
L 326.413964 301.1882 
L 330.309818 301.561139 
L 334.205673 301.906523 
L 338.101527 302.224059 
L 341.997382 302.516685 
L 345.893236 302.784393 
L 349.789091 303.02752 
L 353.684945 303.249462 
L 357.5808 303.450691 
L 361.476655 303.632057 
L 365.372509 303.79684 
L 369.268364 303.944969 
L 373.164218 304.079646 
L 377.060073 304.200602 
L 380.955927 304.310903 
L 384.851782 304.410821 
L 388.747636 304.500796 
L 392.643491 304.583299 
L 396.539345 304.65841 
L 400.4352 304.726302 
L 404.331055 304.789025 
L 408.226909 304.846459 
" style="fill:none;stroke:#000000;stroke-linecap:square;stroke-width:2;"/>
    <defs>
     <path d="M 0 2.5 
C 0.663008 2.5 1.29895 2.236584 1.767767 1.767767 
C 2.236584 1.29895 2.5 0.663008 2.5 0 
C 2.5 -0.663008 2.236584 -1.29895 1.767767 -1.767767 
C 1.29895 -2.236584 0.663008 -2.5 0 -2.5 
C -0.663008 -2.5 -1.29895 -2.236584 -1.767767 -1.767767 
C -2.236584 -1.29895 -2.5 -0.663008 -2.5 0 
C -2.5 0.663008 -2.236584 1.29895 -1.767767 1.767767 
C -1.29895 2.236584 -0.663008 2.5 0 2.5 
z
" id="mc422152d0b" style="stroke:#000000;"/>
    </defs>
    <g clip-path="url(#p8cac5b9d64)">
     <use style="fill:#ff0000;stroke:#000000;" x="57.6" xlink:href="#mc422152d0b" y="307.584"/>
     <use style="fill:#ff0000;stroke:#000000;" x="61.495855" xlink:href="#mc422152d0b" y="275.650528"/>
     <use style="fill:#ff0000;stroke:#000000;" x="65.391709" xlink:href="#mc422152d0b" y="243.717056"/>
     <use style="fill:#ff0000;stroke:#000000;" x="69.287564" xlink:href="#mc422152d0b" y="211.783584"/>
     <use style="fill:#ff0000;stroke:#000000;" x="73.183418" xlink:href="#mc422152d0b" y="179.850112"/>
     <use style="fill:#ff0000;stroke:#000000;" x="77.079273" xlink:href="#mc422152d0b" y="147.91664"/>
     <use style="fill:#ff0000;stroke:#000000;" x="80.975127" xlink:href="#mc422152d0b" y="115.983168"/>
     <use style="fill:#ff0000;stroke:#000000;" x="84.870982" xlink:href="#mc422152d0b" y="84.049696"/>
     <use style="fill:#ff0000;stroke:#000000;" x="88.766836" xlink:href="#mc422152d0b" y="52.116225"/>
     <use style="fill:#ff0000;stroke:#000000;" x="92.662691" xlink:href="#mc422152d0b" y="74.907159"/>
     <use style="fill:#ff0000;stroke:#000000;" x="96.558545" xlink:href="#mc422152d0b" y="106.170554"/>
     <use style="fill:#ff0000;stroke:#000000;" x="100.4544" xlink:href="#mc422152d0b" y="128.048009"/>
     <use style="fill:#ff0000;stroke:#000000;" x="104.350255" xlink:href="#mc422152d0b" y="144.994996"/>
     <use style="fill:#ff0000;stroke:#000000;" x="108.246109" xlink:href="#mc422152d0b" y="158.831718"/>
     <use style="fill:#ff0000;stroke:#000000;" x="112.141964" xlink:href="#mc422152d0b" y="170.496572"/>
     <use style="fill:#ff0000;stroke:#000000;" x="116.037818" xlink:href="#mc422152d0b" y="180.551445"/>
     <use style="fill:#ff0000;stroke:#000000;" x="119.933673" xlink:href="#mc422152d0b" y="189.364076"/>
     <use style="fill:#ff0000;stroke:#000000;" x="123.829527" xlink:href="#mc422152d0b" y="197.183921"/>
     <use style="fill:#ff0000;stroke:#000000;" x="127.725382" xlink:href="#mc422152d0b" y="204.191281"/>
     <use style="fill:#ff0000;stroke:#000000;" x="131.621236" xlink:href="#mc422152d0b" y="210.523378"/>
     <use style="fill:#ff0000;stroke:#000000;" x="135.517091" xlink:href="#mc422152d0b" y="216.281644"/>
     <use style="fill:#ff0000;stroke:#000000;" x="139.412945" xlink:href="#mc422152d0b" y="221.550555"/>
     <use style="fill:#ff0000;stroke:#000000;" x="143.3088" xlink:href="#mc422152d0b" y="226.394273"/>
     <use style="fill:#ff0000;stroke:#000000;" x="147.204655" xlink:href="#mc422152d0b" y="230.86485"/>
     <use style="fill:#ff0000;stroke:#000000;" x="151.100509" xlink:href="#mc422152d0b" y="235.008838"/>
     <use style="fill:#ff0000;stroke:#000000;" x="154.996364" xlink:href="#mc422152d0b" y="238.861512"/>
     <use style="fill:#ff0000;stroke:#000000;" x="158.892218" xlink:href="#mc422152d0b" y="242.453791"/>
     <use style="fill:#ff0000;stroke:#000000;" x="162.788073" xlink:href="#mc422152d0b" y="245.812229"/>
     <use style="fill:#ff0000;stroke:#000000;" x="166.683927" xlink:href="#mc422152d0b" y="248.959848"/>
     <use style="fill:#ff0000;stroke:#000000;" x="170.579782" xlink:href="#mc422152d0b" y="251.915622"/>
     <use style="fill:#ff0000;stroke:#000000;" x="174.475636" xlink:href="#mc422152d0b" y="254.696496"/>
     <use style="fill:#ff0000;stroke:#000000;" x="178.371491" xlink:href="#mc422152d0b" y="257.317047"/>
     <use style="fill:#ff0000;stroke:#000000;" x="182.267345" xlink:href="#mc422152d0b" y="259.792237"/>
     <use style="fill:#ff0000;stroke:#000000;" x="186.1632" xlink:href="#mc422152d0b" y="262.13235"/>
     <use style="fill:#ff0000;stroke:#000000;" x="190.059055" xlink:href="#mc422152d0b" y="264.348554"/>
     <use style="fill:#ff0000;stroke:#000000;" x="193.954909" xlink:href="#mc422152d0b" y="266.449038"/>
     <use style="fill:#ff0000;stroke:#000000;" x="197.850764" xlink:href="#mc422152d0b" y="268.443165"/>
     <use style="fill:#ff0000;stroke:#000000;" x="201.746618" xlink:href="#mc422152d0b" y="270.33737"/>
     <use style="fill:#ff0000;stroke:#000000;" x="205.642473" xlink:href="#mc422152d0b" y="272.13938"/>
     <use style="fill:#ff0000;stroke:#000000;" x="209.538327" xlink:href="#mc422152d0b" y="273.854331"/>
     <use style="fill:#ff0000;stroke:#000000;" x="213.434182" xlink:href="#mc422152d0b" y="275.48864"/>
     <use style="fill:#ff0000;stroke:#000000;" x="217.330036" xlink:href="#mc422152d0b" y="277.046564"/>
     <use style="fill:#ff0000;stroke:#000000;" x="221.225891" xlink:href="#mc422152d0b" y="278.533239"/>
     <use style="fill:#ff0000;stroke:#000000;" x="225.121745" xlink:href="#mc422152d0b" y="279.952626"/>
     <use style="fill:#ff0000;stroke:#000000;" x="229.0176" xlink:href="#mc422152d0b" y="281.309548"/>
     <use style="fill:#ff0000;stroke:#000000;" x="232.913455" xlink:href="#mc422152d0b" y="282.605707"/>
     <use style="fill:#ff0000;stroke:#000000;" x="236.809309" xlink:href="#mc422152d0b" y="283.845"/>
     <use style="fill:#ff0000;stroke:#000000;" x="240.705164" xlink:href="#mc422152d0b" y="285.030442"/>
     <use style="fill:#ff0000;stroke:#000000;" x="244.601018" xlink:href="#mc422152d0b" y="286.165107"/>
     <use style="fill:#ff0000;stroke:#000000;" x="248.496873" xlink:href="#mc422152d0b" y="287.251144"/>
     <use style="fill:#ff0000;stroke:#000000;" x="252.392727" xlink:href="#mc422152d0b" y="288.290827"/>
     <use style="fill:#ff0000;stroke:#000000;" x="256.288582" xlink:href="#mc422152d0b" y="289.286526"/>
     <use style="fill:#ff0000;stroke:#000000;" x="260.184436" xlink:href="#mc422152d0b" y="290.240096"/>
     <use style="fill:#ff0000;stroke:#000000;" x="264.080291" xlink:href="#mc422152d0b" y="291.153161"/>
     <use style="fill:#ff0000;stroke:#000000;" x="267.976145" xlink:href="#mc422152d0b" y="292.02736"/>
     <use style="fill:#ff0000;stroke:#000000;" x="271.872" xlink:href="#mc422152d0b" y="292.86431"/>
     <use style="fill:#ff0000;stroke:#000000;" x="275.767855" xlink:href="#mc422152d0b" y="293.666478"/>
     <use style="fill:#ff0000;stroke:#000000;" x="279.663709" xlink:href="#mc422152d0b" y="294.432713"/>
     <use style="fill:#ff0000;stroke:#000000;" x="283.559564" xlink:href="#mc422152d0b" y="295.165172"/>
     <use style="fill:#ff0000;stroke:#000000;" x="287.455418" xlink:href="#mc422152d0b" y="295.864811"/>
     <use style="fill:#ff0000;stroke:#000000;" x="291.351273" xlink:href="#mc422152d0b" y="296.53252"/>
     <use style="fill:#ff0000;stroke:#000000;" x="295.247127" xlink:href="#mc422152d0b" y="297.16902"/>
     <use style="fill:#ff0000;stroke:#000000;" x="299.142982" xlink:href="#mc422152d0b" y="297.774824"/>
     <use style="fill:#ff0000;stroke:#000000;" x="303.038836" xlink:href="#mc422152d0b" y="298.350419"/>
     <use style="fill:#ff0000;stroke:#000000;" x="306.934691" xlink:href="#mc422152d0b" y="298.896206"/>
     <use style="fill:#ff0000;stroke:#000000;" x="310.830545" xlink:href="#mc422152d0b" y="299.41251"/>
     <use style="fill:#ff0000;stroke:#000000;" x="314.7264" xlink:href="#mc422152d0b" y="299.8996"/>
     <use style="fill:#ff0000;stroke:#000000;" x="318.622255" xlink:href="#mc422152d0b" y="300.357752"/>
     <use style="fill:#ff0000;stroke:#000000;" x="322.518109" xlink:href="#mc422152d0b" y="300.787193"/>
     <use style="fill:#ff0000;stroke:#000000;" x="326.413964" xlink:href="#mc422152d0b" y="301.1882"/>
     <use style="fill:#ff0000;stroke:#000000;" x="330.309818" xlink:href="#mc422152d0b" y="301.561139"/>
     <use style="fill:#ff0000;stroke:#000000;" x="334.205673" xlink:href="#mc422152d0b" y="301.906523"/>
     <use style="fill:#ff0000;stroke:#000000;" x="338.101527" xlink:href="#mc422152d0b" y="302.224059"/>
     <use style="fill:#ff0000;stroke:#000000;" x="341.997382" xlink:href="#mc422152d0b" y="302.516685"/>
     <use style="fill:#ff0000;stroke:#000000;" x="345.893236" xlink:href="#mc422152d0b" y="302.784393"/>
     <use style="fill:#ff0000;stroke:#000000;" x="349.789091" xlink:href="#mc422152d0b" y="303.02752"/>
     <use style="fill:#ff0000;stroke:#000000;" x="353.684945" xlink:href="#mc422152d0b" y="303.249462"/>
     <use style="fill:#ff0000;stroke:#000000;" x="357.5808" xlink:href="#mc422152d0b" y="303.450691"/>
     <use style="fill:#ff0000;stroke:#000000;" x="361.476655" xlink:href="#mc422152d0b" y="303.632057"/>
     <use style="fill:#ff0000;stroke:#000000;" x="365.372509" xlink:href="#mc422152d0b" y="303.79684"/>
     <use style="fill:#ff0000;stroke:#000000;" x="369.268364" xlink:href="#mc422152d0b" y="303.944969"/>
     <use style="fill:#ff0000;stroke:#000000;" x="373.164218" xlink:href="#mc422152d0b" y="304.079646"/>
     <use style="fill:#ff0000;stroke:#000000;" x="377.060073" xlink:href="#mc422152d0b" y="304.200602"/>
     <use style="fill:#ff0000;stroke:#000000;" x="380.955927" xlink:href="#mc422152d0b" y="304.310903"/>
     <use style="fill:#ff0000;stroke:#000000;" x="384.851782" xlink:href="#mc422152d0b" y="304.410821"/>
     <use style="fill:#ff0000;stroke:#000000;" x="388.747636" xlink:href="#mc422152d0b" y="304.500796"/>
     <use style="fill:#ff0000;stroke:#000000;" x="392.643491" xlink:href="#mc422152d0b" y="304.583299"/>
     <use style="fill:#ff0000;stroke:#000000;" x="396.539345" xlink:href="#mc422152d0b" y="304.65841"/>
     <use style="fill:#ff0000;stroke:#000000;" x="400.4352" xlink:href="#mc422152d0b" y="304.726302"/>
     <use style="fill:#ff0000;stroke:#000000;" x="404.331055" xlink:href="#mc422152d0b" y="304.789025"/>
     <use style="fill:#ff0000;stroke:#000000;" x="408.226909" xlink:href="#mc422152d0b" y="304.846459"/>
    </g>
   </g>
   <g id="line2d_30">
    <path clip-path="url(#p8cac5b9d64)" d="M 57.6 307.584 
L 61.495855 275.650528 
L 65.391709 243.717056 
L 69.287564 211.783584 
L 73.183418 179.850112 
L 77.079273 147.91664 
L 80.975127 115.983168 
L 84.870982 84.049696 
L 88.766836 52.116225 
L 92.662691 74.91855 
L 96.558545 106.174803 
L 100.4544 128.051018 
L 104.350255 145.000063 
L 108.246109 158.835672 
L 112.141964 170.503116 
L 116.037818 180.558791 
L 119.933673 189.372386 
L 123.829527 197.193171 
L 127.725382 204.201591 
L 131.621236 210.534744 
L 135.517091 216.294039 
L 139.412945 221.564064 
L 143.3088 226.408929 
L 147.204655 230.880677 
L 151.100509 235.025914 
L 154.996364 238.879892 
L 158.892218 242.473537 
L 162.788073 245.833365 
L 166.683927 248.982563 
L 170.579782 251.939927 
L 174.475636 254.722479 
L 178.371491 257.344828 
L 182.267345 259.821896 
L 186.1632 262.164001 
L 190.059055 264.382346 
L 193.954909 266.48504 
L 197.850764 268.481624 
L 201.746618 270.378366 
L 205.642473 272.183134 
L 209.538327 273.900925 
L 213.434182 275.538437 
L 217.330036 277.099728 
L 221.225891 278.58997 
L 225.121745 280.014409 
L 229.0176 281.374273 
L 232.913455 282.674964 
L 236.809309 283.919108 
L 240.705164 285.109715 
L 244.601018 286.250084 
L 248.496873 287.342269 
L 252.392727 288.388629 
L 256.288582 289.391533 
L 260.184436 290.353001 
L 264.080291 291.274677 
L 267.976145 292.158276 
L 271.872 293.006629 
L 275.767855 293.818968 
L 279.663709 294.597519 
L 283.559564 295.343471 
L 287.455418 296.057891 
L 291.351273 296.741718 
L 295.247127 297.397042 
L 299.142982 298.022245 
L 303.038836 298.618957 
L 306.934691 299.187647 
L 310.830545 299.728666 
L 314.7264 300.242247 
L 318.622255 300.72852 
L 322.518109 301.187542 
L 326.413964 301.619288 
L 330.309818 302.023657 
L 334.205673 302.400602 
L 338.101527 302.750156 
L 341.997382 303.072495 
L 345.893236 303.368012 
L 349.789091 303.636432 
L 353.684945 303.880719 
L 357.5808 304.100133 
L 361.476655 304.298204 
L 365.372509 304.474652 
L 369.268364 304.633203 
L 373.164218 304.773835 
L 377.060073 304.900115 
L 380.955927 305.012036 
L 384.851782 305.112797 
L 388.747636 305.202221 
L 392.643491 305.283145 
L 396.539345 305.355123 
L 400.4352 305.420725 
L 404.331055 305.47995 
L 408.226909 305.532929 
" style="fill:none;stroke:#000000;stroke-linecap:square;stroke-width:2;"/>
    <defs>
     <path d="M 0 -2.5 
L -2.5 2.5 
L 2.5 2.5 
z
" id="m3d8b46463d" style="stroke:#000000;stroke-linejoin:miter;"/>
    </defs>
    <g clip-path="url(#p8cac5b9d64)">
     <use style="fill:#ff0000;stroke:#000000;stroke-linejoin:miter;" x="57.6" xlink:href="#m3d8b46463d" y="307.584"/>
     <use style="fill:#ff0000;stroke:#000000;stroke-linejoin:miter;" x="61.495855" xlink:href="#m3d8b46463d" y="275.650528"/>
     <use style="fill:#ff0000;stroke:#000000;stroke-linejoin:miter;" x="65.391709" xlink:href="#m3d8b46463d" y="243.717056"/>
     <use style="fill:#ff0000;stroke:#000000;stroke-linejoin:miter;" x="69.287564" xlink:href="#m3d8b46463d" y="211.783584"/>
     <use style="fill:#ff0000;stroke:#000000;stroke-linejoin:miter;" x="73.183418" xlink:href="#m3d8b46463d" y="179.850112"/>
     <use style="fill:#ff0000;stroke:#000000;stroke-linejoin:miter;" x="77.079273" xlink:href="#m3d8b46463d" y="147.91664"/>
     <use style="fill:#ff0000;stroke:#000000;stroke-linejoin:miter;" x="80.975127" xlink:href="#m3d8b46463d" y="115.983168"/>
     <use style="fill:#ff0000;stroke:#000000;stroke-linejoin:miter;" x="84.870982" xlink:href="#m3d8b46463d" y="84.049696"/>
     <use style="fill:#ff0000;stroke:#000000;stroke-linejoin:miter;" x="88.766836" xlink:href="#m3d8b46463d" y="52.116225"/>
     <use style="fill:#ff0000;stroke:#000000;stroke-linejoin:miter;" x="92.662691" xlink:href="#m3d8b46463d" y="74.91855"/>
     <use style="fill:#ff0000;stroke:#000000;stroke-linejoin:miter;" x="96.558545" xlink:href="#m3d8b46463d" y="106.174803"/>
     <use style="fill:#ff0000;stroke:#000000;stroke-linejoin:miter;" x="100.4544" xlink:href="#m3d8b46463d" y="128.051018"/>
     <use style="fill:#ff0000;stroke:#000000;stroke-linejoin:miter;" x="104.350255" xlink:href="#m3d8b46463d" y="145.000063"/>
     <use style="fill:#ff0000;stroke:#000000;stroke-linejoin:miter;" x="108.246109" xlink:href="#m3d8b46463d" y="158.835672"/>
     <use style="fill:#ff0000;stroke:#000000;stroke-linejoin:miter;" x="112.141964" xlink:href="#m3d8b46463d" y="170.503116"/>
     <use style="fill:#ff0000;stroke:#000000;stroke-linejoin:miter;" x="116.037818" xlink:href="#m3d8b46463d" y="180.558791"/>
     <use style="fill:#ff0000;stroke:#000000;stroke-linejoin:miter;" x="119.933673" xlink:href="#m3d8b46463d" y="189.372386"/>
     <use style="fill:#ff0000;stroke:#000000;stroke-linejoin:miter;" x="123.829527" xlink:href="#m3d8b46463d" y="197.193171"/>
     <use style="fill:#ff0000;stroke:#000000;stroke-linejoin:miter;" x="127.725382" xlink:href="#m3d8b46463d" y="204.201591"/>
     <use style="fill:#ff0000;stroke:#000000;stroke-linejoin:miter;" x="131.621236" xlink:href="#m3d8b46463d" y="210.534744"/>
     <use style="fill:#ff0000;stroke:#000000;stroke-linejoin:miter;" x="135.517091" xlink:href="#m3d8b46463d" y="216.294039"/>
     <use style="fill:#ff0000;stroke:#000000;stroke-linejoin:miter;" x="139.412945" xlink:href="#m3d8b46463d" y="221.564064"/>
     <use style="fill:#ff0000;stroke:#000000;stroke-linejoin:miter;" x="143.3088" xlink:href="#m3d8b46463d" y="226.408929"/>
     <use style="fill:#ff0000;stroke:#000000;stroke-linejoin:miter;" x="147.204655" xlink:href="#m3d8b46463d" y="230.880677"/>
     <use style="fill:#ff0000;stroke:#000000;stroke-linejoin:miter;" x="151.100509" xlink:href="#m3d8b46463d" y="235.025914"/>
     <use style="fill:#ff0000;stroke:#000000;stroke-linejoin:miter;" x="154.996364" xlink:href="#m3d8b46463d" y="238.879892"/>
     <use style="fill:#ff0000;stroke:#000000;stroke-linejoin:miter;" x="158.892218" xlink:href="#m3d8b46463d" y="242.473537"/>
     <use style="fill:#ff0000;stroke:#000000;stroke-linejoin:miter;" x="162.788073" xlink:href="#m3d8b46463d" y="245.833365"/>
     <use style="fill:#ff0000;stroke:#000000;stroke-linejoin:miter;" x="166.683927" xlink:href="#m3d8b46463d" y="248.982563"/>
     <use style="fill:#ff0000;stroke:#000000;stroke-linejoin:miter;" x="170.579782" xlink:href="#m3d8b46463d" y="251.939927"/>
     <use style="fill:#ff0000;stroke:#000000;stroke-linejoin:miter;" x="174.475636" xlink:href="#m3d8b46463d" y="254.722479"/>
     <use style="fill:#ff0000;stroke:#000000;stroke-linejoin:miter;" x="178.371491" xlink:href="#m3d8b46463d" y="257.344828"/>
     <use style="fill:#ff0000;stroke:#000000;stroke-linejoin:miter;" x="182.267345" xlink:href="#m3d8b46463d" y="259.821896"/>
     <use style="fill:#ff0000;stroke:#000000;stroke-linejoin:miter;" x="186.1632" xlink:href="#m3d8b46463d" y="262.164001"/>
     <use style="fill:#ff0000;stroke:#000000;stroke-linejoin:miter;" x="190.059055" xlink:href="#m3d8b46463d" y="264.382346"/>
     <use style="fill:#ff0000;stroke:#000000;stroke-linejoin:miter;" x="193.954909" xlink:href="#m3d8b46463d" y="266.48504"/>
     <use style="fill:#ff0000;stroke:#000000;stroke-linejoin:miter;" x="197.850764" xlink:href="#m3d8b46463d" y="268.481624"/>
     <use style="fill:#ff0000;stroke:#000000;stroke-linejoin:miter;" x="201.746618" xlink:href="#m3d8b46463d" y="270.378366"/>
     <use style="fill:#ff0000;stroke:#000000;stroke-linejoin:miter;" x="205.642473" xlink:href="#m3d8b46463d" y="272.183134"/>
     <use style="fill:#ff0000;stroke:#000000;stroke-linejoin:miter;" x="209.538327" xlink:href="#m3d8b46463d" y="273.900925"/>
     <use style="fill:#ff0000;stroke:#000000;stroke-linejoin:miter;" x="213.434182" xlink:href="#m3d8b46463d" y="275.538437"/>
     <use style="fill:#ff0000;stroke:#000000;stroke-linejoin:miter;" x="217.330036" xlink:href="#m3d8b46463d" y="277.099728"/>
     <use style="fill:#ff0000;stroke:#000000;stroke-linejoin:miter;" x="221.225891" xlink:href="#m3d8b46463d" y="278.58997"/>
     <use style="fill:#ff0000;stroke:#000000;stroke-linejoin:miter;" x="225.121745" xlink:href="#m3d8b46463d" y="280.014409"/>
     <use style="fill:#ff0000;stroke:#000000;stroke-linejoin:miter;" x="229.0176" xlink:href="#m3d8b46463d" y="281.374273"/>
     <use style="fill:#ff0000;stroke:#000000;stroke-linejoin:miter;" x="232.913455" xlink:href="#m3d8b46463d" y="282.674964"/>
     <use style="fill:#ff0000;stroke:#000000;stroke-linejoin:miter;" x="236.809309" xlink:href="#m3d8b46463d" y="283.919108"/>
     <use style="fill:#ff0000;stroke:#000000;stroke-linejoin:miter;" x="240.705164" xlink:href="#m3d8b46463d" y="285.109715"/>
     <use style="fill:#ff0000;stroke:#000000;stroke-linejoin:miter;" x="244.601018" xlink:href="#m3d8b46463d" y="286.250084"/>
     <use style="fill:#ff0000;stroke:#000000;stroke-linejoin:miter;" x="248.496873" xlink:href="#m3d8b46463d" y="287.342269"/>
     <use style="fill:#ff0000;stroke:#000000;stroke-linejoin:miter;" x="252.392727" xlink:href="#m3d8b46463d" y="288.388629"/>
     <use style="fill:#ff0000;stroke:#000000;stroke-linejoin:miter;" x="256.288582" xlink:href="#m3d8b46463d" y="289.391533"/>
     <use style="fill:#ff0000;stroke:#000000;stroke-linejoin:miter;" x="260.184436" xlink:href="#m3d8b46463d" y="290.353001"/>
     <use style="fill:#ff0000;stroke:#000000;stroke-linejoin:miter;" x="264.080291" xlink:href="#m3d8b46463d" y="291.274677"/>
     <use style="fill:#ff0000;stroke:#000000;stroke-linejoin:miter;" x="267.976145" xlink:href="#m3d8b46463d" y="292.158276"/>
     <use style="fill:#ff0000;stroke:#000000;stroke-linejoin:miter;" x="271.872" xlink:href="#m3d8b46463d" y="293.006629"/>
     <use style="fill:#ff0000;stroke:#000000;stroke-linejoin:miter;" x="275.767855" xlink:href="#m3d8b46463d" y="293.818968"/>
     <use style="fill:#ff0000;stroke:#000000;stroke-linejoin:miter;" x="279.663709" xlink:href="#m3d8b46463d" y="294.597519"/>
     <use style="fill:#ff0000;stroke:#000000;stroke-linejoin:miter;" x="283.559564" xlink:href="#m3d8b46463d" y="295.343471"/>
     <use style="fill:#ff0000;stroke:#000000;stroke-linejoin:miter;" x="287.455418" xlink:href="#m3d8b46463d" y="296.057891"/>
     <use style="fill:#ff0000;stroke:#000000;stroke-linejoin:miter;" x="291.351273" xlink:href="#m3d8b46463d" y="296.741718"/>
     <use style="fill:#ff0000;stroke:#000000;stroke-linejoin:miter;" x="295.247127" xlink:href="#m3d8b46463d" y="297.397042"/>
     <use style="fill:#ff0000;stroke:#000000;stroke-linejoin:miter;" x="299.142982" xlink:href="#m3d8b46463d" y="298.022245"/>
     <use style="fill:#ff0000;stroke:#000000;stroke-linejoin:miter;" x="303.038836" xlink:href="#m3d8b46463d" y="298.618957"/>
     <use style="fill:#ff0000;stroke:#000000;stroke-linejoin:miter;" x="306.934691" xlink:href="#m3d8b46463d" y="299.187647"/>
     <use style="fill:#ff0000;stroke:#000000;stroke-linejoin:miter;" x="310.830545" xlink:href="#m3d8b46463d" y="299.728666"/>
     <use style="fill:#ff0000;stroke:#000000;stroke-linejoin:miter;" x="314.7264" xlink:href="#m3d8b46463d" y="300.242247"/>
     <use style="fill:#ff0000;stroke:#000000;stroke-linejoin:miter;" x="318.622255" xlink:href="#m3d8b46463d" y="300.72852"/>
     <use style="fill:#ff0000;stroke:#000000;stroke-linejoin:miter;" x="322.518109" xlink:href="#m3d8b46463d" y="301.187542"/>
     <use style="fill:#ff0000;stroke:#000000;stroke-linejoin:miter;" x="326.413964" xlink:href="#m3d8b46463d" y="301.619288"/>
     <use style="fill:#ff0000;stroke:#000000;stroke-linejoin:miter;" x="330.309818" xlink:href="#m3d8b46463d" y="302.023657"/>
     <use style="fill:#ff0000;stroke:#000000;stroke-linejoin:miter;" x="334.205673" xlink:href="#m3d8b46463d" y="302.400602"/>
     <use style="fill:#ff0000;stroke:#000000;stroke-linejoin:miter;" x="338.101527" xlink:href="#m3d8b46463d" y="302.750156"/>
     <use style="fill:#ff0000;stroke:#000000;stroke-linejoin:miter;" x="341.997382" xlink:href="#m3d8b46463d" y="303.072495"/>
     <use style="fill:#ff0000;stroke:#000000;stroke-linejoin:miter;" x="345.893236" xlink:href="#m3d8b46463d" y="303.368012"/>
     <use style="fill:#ff0000;stroke:#000000;stroke-linejoin:miter;" x="349.789091" xlink:href="#m3d8b46463d" y="303.636432"/>
     <use style="fill:#ff0000;stroke:#000000;stroke-linejoin:miter;" x="353.684945" xlink:href="#m3d8b46463d" y="303.880719"/>
     <use style="fill:#ff0000;stroke:#000000;stroke-linejoin:miter;" x="357.5808" xlink:href="#m3d8b46463d" y="304.100133"/>
     <use style="fill:#ff0000;stroke:#000000;stroke-linejoin:miter;" x="361.476655" xlink:href="#m3d8b46463d" y="304.298204"/>
     <use style="fill:#ff0000;stroke:#000000;stroke-linejoin:miter;" x="365.372509" xlink:href="#m3d8b46463d" y="304.474652"/>
     <use style="fill:#ff0000;stroke:#000000;stroke-linejoin:miter;" x="369.268364" xlink:href="#m3d8b46463d" y="304.633203"/>
     <use style="fill:#ff0000;stroke:#000000;stroke-linejoin:miter;" x="373.164218" xlink:href="#m3d8b46463d" y="304.773835"/>
     <use style="fill:#ff0000;stroke:#000000;stroke-linejoin:miter;" x="377.060073" xlink:href="#m3d8b46463d" y="304.900115"/>
     <use style="fill:#ff0000;stroke:#000000;stroke-linejoin:miter;" x="380.955927" xlink:href="#m3d8b46463d" y="305.012036"/>
     <use style="fill:#ff0000;stroke:#000000;stroke-linejoin:miter;" x="384.851782" xlink:href="#m3d8b46463d" y="305.112797"/>
     <use style="fill:#ff0000;stroke:#000000;stroke-linejoin:miter;" x="388.747636" xlink:href="#m3d8b46463d" y="305.202221"/>
     <use style="fill:#ff0000;stroke:#000000;stroke-linejoin:miter;" x="392.643491" xlink:href="#m3d8b46463d" y="305.283145"/>
     <use style="fill:#ff0000;stroke:#000000;stroke-linejoin:miter;" x="396.539345" xlink:href="#m3d8b46463d" y="305.355123"/>
     <use style="fill:#ff0000;stroke:#000000;stroke-linejoin:miter;" x="400.4352" xlink:href="#m3d8b46463d" y="305.420725"/>
     <use style="fill:#ff0000;stroke:#000000;stroke-linejoin:miter;" x="404.331055" xlink:href="#m3d8b46463d" y="305.47995"/>
     <use style="fill:#ff0000;stroke:#000000;stroke-linejoin:miter;" x="408.226909" xlink:href="#m3d8b46463d" y="305.532929"/>
    </g>
   </g>
   <g id="line2d_31">
    <path clip-path="url(#p8cac5b9d64)" d="M 57.6 307.584 
L 61.495855 275.650528 
L 65.391709 243.717056 
L 69.287564 211.783584 
L 73.183418 179.850112 
L 77.079273 147.91664 
L 80.975127 115.983168 
L 84.870982 84.049696 
L 88.766836 52.116225 
L 92.662691 74.929902 
L 96.558545 106.178092 
L 100.4544 128.05225 
L 104.350255 145.002078 
L 108.246109 158.839427 
L 112.141964 170.505084 
L 116.037818 180.56274 
L 119.933673 189.376692 
L 123.829527 197.197934 
L 127.725382 204.206773 
L 131.621236 210.540421 
L 135.517091 216.300223 
L 139.412945 221.570795 
L 143.3088 226.416227 
L 147.204655 230.888561 
L 151.100509 235.034423 
L 154.996364 238.889055 
L 158.892218 242.483383 
L 162.788073 245.843944 
L 166.683927 248.993896 
L 170.579782 251.952057 
L 174.475636 254.735451 
L 178.371491 257.358707 
L 182.267345 259.836717 
L 186.1632 262.179838 
L 190.059055 264.399242 
L 193.954909 266.503064 
L 197.850764 268.500864 
L 201.746618 270.398886 
L 205.642473 272.205037 
L 209.538327 273.92431 
L 213.434182 275.563383 
L 217.330036 277.126371 
L 221.225891 278.618414 
L 225.121745 280.044819 
L 229.0176 281.406796 
L 232.913455 282.70974 
L 236.809309 283.956346 
L 240.705164 285.149619 
L 244.601018 286.292853 
L 248.496873 287.388178 
L 252.392727 288.437957 
L 256.288582 289.444566 
L 260.184436 290.410108 
L 264.080291 291.336246 
L 267.976145 292.225904 
L 271.872 293.078508 
L 275.767855 293.896784 
L 279.663709 294.68189 
L 283.559564 295.435092 
L 287.455418 296.157542 
L 291.351273 296.851427 
L 295.247127 297.515588 
L 299.142982 298.151804 
L 303.038836 298.760763 
L 306.934691 299.343065 
L 310.830545 299.900345 
L 314.7264 300.430741 
L 318.622255 300.935536 
L 322.518109 301.414828 
L 326.413964 301.86862 
L 330.309818 302.297804 
L 334.205673 302.699923 
L 338.101527 303.07568 
L 341.997382 303.424728 
L 345.893236 303.746781 
L 349.789091 304.040784 
L 353.684945 304.308915 
L 357.5808 304.549737 
L 361.476655 304.766324 
L 365.372509 304.95808 
L 369.268364 305.128695 
L 373.164218 305.278354 
L 377.060073 305.410007 
L 380.955927 305.525731 
L 384.851782 305.628475 
L 388.747636 305.718191 
L 392.643491 305.798216 
L 396.539345 305.868363 
L 400.4352 305.931394 
L 404.331055 305.98688 
L 408.226909 306.037197 
" style="fill:none;stroke:#000000;stroke-linecap:square;stroke-width:2;"/>
    <defs>
     <path d="M -2.5 2.5 
L 2.5 2.5 
L 2.5 -2.5 
L -2.5 -2.5 
z
" id="m166abb5a36" style="stroke:#000000;stroke-linejoin:miter;"/>
    </defs>
    <g clip-path="url(#p8cac5b9d64)">
     <use style="fill:#ff0000;stroke:#000000;stroke-linejoin:miter;" x="57.6" xlink:href="#m166abb5a36" y="307.584"/>
     <use style="fill:#ff0000;stroke:#000000;stroke-linejoin:miter;" x="61.495855" xlink:href="#m166abb5a36" y="275.650528"/>
     <use style="fill:#ff0000;stroke:#000000;stroke-linejoin:miter;" x="65.391709" xlink:href="#m166abb5a36" y="243.717056"/>
     <use style="fill:#ff0000;stroke:#000000;stroke-linejoin:miter;" x="69.287564" xlink:href="#m166abb5a36" y="211.783584"/>
     <use style="fill:#ff0000;stroke:#000000;stroke-linejoin:miter;" x="73.183418" xlink:href="#m166abb5a36" y="179.850112"/>
     <use style="fill:#ff0000;stroke:#000000;stroke-linejoin:miter;" x="77.079273" xlink:href="#m166abb5a36" y="147.91664"/>
     <use style="fill:#ff0000;stroke:#000000;stroke-linejoin:miter;" x="80.975127" xlink:href="#m166abb5a36" y="115.983168"/>
     <use style="fill:#ff0000;stroke:#000000;stroke-linejoin:miter;" x="84.870982" xlink:href="#m166abb5a36" y="84.049696"/>
     <use style="fill:#ff0000;stroke:#000000;stroke-linejoin:miter;" x="88.766836" xlink:href="#m166abb5a36" y="52.116225"/>
     <use style="fill:#ff0000;stroke:#000000;stroke-linejoin:miter;" x="92.662691" xlink:href="#m166abb5a36" y="74.929902"/>
     <use style="fill:#ff0000;stroke:#000000;stroke-linejoin:miter;" x="96.558545" xlink:href="#m166abb5a36" y="106.178092"/>
     <use style="fill:#ff0000;stroke:#000000;stroke-linejoin:miter;" x="100.4544" xlink:href="#m166abb5a36" y="128.05225"/>
     <use style="fill:#ff0000;stroke:#000000;stroke-linejoin:miter;" x="104.350255" xlink:href="#m166abb5a36" y="145.002078"/>
     <use style="fill:#ff0000;stroke:#000000;stroke-linejoin:miter;" x="108.246109" xlink:href="#m166abb5a36" y="158.839427"/>
     <use style="fill:#ff0000;stroke:#000000;stroke-linejoin:miter;" x="112.141964" xlink:href="#m166abb5a36" y="170.505084"/>
     <use style="fill:#ff0000;stroke:#000000;stroke-linejoin:miter;" x="116.037818" xlink:href="#m166abb5a36" y="180.56274"/>
     <use style="fill:#ff0000;stroke:#000000;stroke-linejoin:miter;" x="119.933673" xlink:href="#m166abb5a36" y="189.376692"/>
     <use style="fill:#ff0000;stroke:#000000;stroke-linejoin:miter;" x="123.829527" xlink:href="#m166abb5a36" y="197.197934"/>
     <use style="fill:#ff0000;stroke:#000000;stroke-linejoin:miter;" x="127.725382" xlink:href="#m166abb5a36" y="204.206773"/>
     <use style="fill:#ff0000;stroke:#000000;stroke-linejoin:miter;" x="131.621236" xlink:href="#m166abb5a36" y="210.540421"/>
     <use style="fill:#ff0000;stroke:#000000;stroke-linejoin:miter;" x="135.517091" xlink:href="#m166abb5a36" y="216.300223"/>
     <use style="fill:#ff0000;stroke:#000000;stroke-linejoin:miter;" x="139.412945" xlink:href="#m166abb5a36" y="221.570795"/>
     <use style="fill:#ff0000;stroke:#000000;stroke-linejoin:miter;" x="143.3088" xlink:href="#m166abb5a36" y="226.416227"/>
     <use style="fill:#ff0000;stroke:#000000;stroke-linejoin:miter;" x="147.204655" xlink:href="#m166abb5a36" y="230.888561"/>
     <use style="fill:#ff0000;stroke:#000000;stroke-linejoin:miter;" x="151.100509" xlink:href="#m166abb5a36" y="235.034423"/>
     <use style="fill:#ff0000;stroke:#000000;stroke-linejoin:miter;" x="154.996364" xlink:href="#m166abb5a36" y="238.889055"/>
     <use style="fill:#ff0000;stroke:#000000;stroke-linejoin:miter;" x="158.892218" xlink:href="#m166abb5a36" y="242.483383"/>
     <use style="fill:#ff0000;stroke:#000000;stroke-linejoin:miter;" x="162.788073" xlink:href="#m166abb5a36" y="245.843944"/>
     <use style="fill:#ff0000;stroke:#000000;stroke-linejoin:miter;" x="166.683927" xlink:href="#m166abb5a36" y="248.993896"/>
     <use style="fill:#ff0000;stroke:#000000;stroke-linejoin:miter;" x="170.579782" xlink:href="#m166abb5a36" y="251.952057"/>
     <use style="fill:#ff0000;stroke:#000000;stroke-linejoin:miter;" x="174.475636" xlink:href="#m166abb5a36" y="254.735451"/>
     <use style="fill:#ff0000;stroke:#000000;stroke-linejoin:miter;" x="178.371491" xlink:href="#m166abb5a36" y="257.358707"/>
     <use style="fill:#ff0000;stroke:#000000;stroke-linejoin:miter;" x="182.267345" xlink:href="#m166abb5a36" y="259.836717"/>
     <use style="fill:#ff0000;stroke:#000000;stroke-linejoin:miter;" x="186.1632" xlink:href="#m166abb5a36" y="262.179838"/>
     <use style="fill:#ff0000;stroke:#000000;stroke-linejoin:miter;" x="190.059055" xlink:href="#m166abb5a36" y="264.399242"/>
     <use style="fill:#ff0000;stroke:#000000;stroke-linejoin:miter;" x="193.954909" xlink:href="#m166abb5a36" y="266.503064"/>
     <use style="fill:#ff0000;stroke:#000000;stroke-linejoin:miter;" x="197.850764" xlink:href="#m166abb5a36" y="268.500864"/>
     <use style="fill:#ff0000;stroke:#000000;stroke-linejoin:miter;" x="201.746618" xlink:href="#m166abb5a36" y="270.398886"/>
     <use style="fill:#ff0000;stroke:#000000;stroke-linejoin:miter;" x="205.642473" xlink:href="#m166abb5a36" y="272.205037"/>
     <use style="fill:#ff0000;stroke:#000000;stroke-linejoin:miter;" x="209.538327" xlink:href="#m166abb5a36" y="273.92431"/>
     <use style="fill:#ff0000;stroke:#000000;stroke-linejoin:miter;" x="213.434182" xlink:href="#m166abb5a36" y="275.563383"/>
     <use style="fill:#ff0000;stroke:#000000;stroke-linejoin:miter;" x="217.330036" xlink:href="#m166abb5a36" y="277.126371"/>
     <use style="fill:#ff0000;stroke:#000000;stroke-linejoin:miter;" x="221.225891" xlink:href="#m166abb5a36" y="278.618414"/>
     <use style="fill:#ff0000;stroke:#000000;stroke-linejoin:miter;" x="225.121745" xlink:href="#m166abb5a36" y="280.044819"/>
     <use style="fill:#ff0000;stroke:#000000;stroke-linejoin:miter;" x="229.0176" xlink:href="#m166abb5a36" y="281.406796"/>
     <use style="fill:#ff0000;stroke:#000000;stroke-linejoin:miter;" x="232.913455" xlink:href="#m166abb5a36" y="282.70974"/>
     <use style="fill:#ff0000;stroke:#000000;stroke-linejoin:miter;" x="236.809309" xlink:href="#m166abb5a36" y="283.956346"/>
     <use style="fill:#ff0000;stroke:#000000;stroke-linejoin:miter;" x="240.705164" xlink:href="#m166abb5a36" y="285.149619"/>
     <use style="fill:#ff0000;stroke:#000000;stroke-linejoin:miter;" x="244.601018" xlink:href="#m166abb5a36" y="286.292853"/>
     <use style="fill:#ff0000;stroke:#000000;stroke-linejoin:miter;" x="248.496873" xlink:href="#m166abb5a36" y="287.388178"/>
     <use style="fill:#ff0000;stroke:#000000;stroke-linejoin:miter;" x="252.392727" xlink:href="#m166abb5a36" y="288.437957"/>
     <use style="fill:#ff0000;stroke:#000000;stroke-linejoin:miter;" x="256.288582" xlink:href="#m166abb5a36" y="289.444566"/>
     <use style="fill:#ff0000;stroke:#000000;stroke-linejoin:miter;" x="260.184436" xlink:href="#m166abb5a36" y="290.410108"/>
     <use style="fill:#ff0000;stroke:#000000;stroke-linejoin:miter;" x="264.080291" xlink:href="#m166abb5a36" y="291.336246"/>
     <use style="fill:#ff0000;stroke:#000000;stroke-linejoin:miter;" x="267.976145" xlink:href="#m166abb5a36" y="292.225904"/>
     <use style="fill:#ff0000;stroke:#000000;stroke-linejoin:miter;" x="271.872" xlink:href="#m166abb5a36" y="293.078508"/>
     <use style="fill:#ff0000;stroke:#000000;stroke-linejoin:miter;" x="275.767855" xlink:href="#m166abb5a36" y="293.896784"/>
     <use style="fill:#ff0000;stroke:#000000;stroke-linejoin:miter;" x="279.663709" xlink:href="#m166abb5a36" y="294.68189"/>
     <use style="fill:#ff0000;stroke:#000000;stroke-linejoin:miter;" x="283.559564" xlink:href="#m166abb5a36" y="295.435092"/>
     <use style="fill:#ff0000;stroke:#000000;stroke-linejoin:miter;" x="287.455418" xlink:href="#m166abb5a36" y="296.157542"/>
     <use style="fill:#ff0000;stroke:#000000;stroke-linejoin:miter;" x="291.351273" xlink:href="#m166abb5a36" y="296.851427"/>
     <use style="fill:#ff0000;stroke:#000000;stroke-linejoin:miter;" x="295.247127" xlink:href="#m166abb5a36" y="297.515588"/>
     <use style="fill:#ff0000;stroke:#000000;stroke-linejoin:miter;" x="299.142982" xlink:href="#m166abb5a36" y="298.151804"/>
     <use style="fill:#ff0000;stroke:#000000;stroke-linejoin:miter;" x="303.038836" xlink:href="#m166abb5a36" y="298.760763"/>
     <use style="fill:#ff0000;stroke:#000000;stroke-linejoin:miter;" x="306.934691" xlink:href="#m166abb5a36" y="299.343065"/>
     <use style="fill:#ff0000;stroke:#000000;stroke-linejoin:miter;" x="310.830545" xlink:href="#m166abb5a36" y="299.900345"/>
     <use style="fill:#ff0000;stroke:#000000;stroke-linejoin:miter;" x="314.7264" xlink:href="#m166abb5a36" y="300.430741"/>
     <use style="fill:#ff0000;stroke:#000000;stroke-linejoin:miter;" x="318.622255" xlink:href="#m166abb5a36" y="300.935536"/>
     <use style="fill:#ff0000;stroke:#000000;stroke-linejoin:miter;" x="322.518109" xlink:href="#m166abb5a36" y="301.414828"/>
     <use style="fill:#ff0000;stroke:#000000;stroke-linejoin:miter;" x="326.413964" xlink:href="#m166abb5a36" y="301.86862"/>
     <use style="fill:#ff0000;stroke:#000000;stroke-linejoin:miter;" x="330.309818" xlink:href="#m166abb5a36" y="302.297804"/>
     <use style="fill:#ff0000;stroke:#000000;stroke-linejoin:miter;" x="334.205673" xlink:href="#m166abb5a36" y="302.699923"/>
     <use style="fill:#ff0000;stroke:#000000;stroke-linejoin:miter;" x="338.101527" xlink:href="#m166abb5a36" y="303.07568"/>
     <use style="fill:#ff0000;stroke:#000000;stroke-linejoin:miter;" x="341.997382" xlink:href="#m166abb5a36" y="303.424728"/>
     <use style="fill:#ff0000;stroke:#000000;stroke-linejoin:miter;" x="345.893236" xlink:href="#m166abb5a36" y="303.746781"/>
     <use style="fill:#ff0000;stroke:#000000;stroke-linejoin:miter;" x="349.789091" xlink:href="#m166abb5a36" y="304.040784"/>
     <use style="fill:#ff0000;stroke:#000000;stroke-linejoin:miter;" x="353.684945" xlink:href="#m166abb5a36" y="304.308915"/>
     <use style="fill:#ff0000;stroke:#000000;stroke-linejoin:miter;" x="357.5808" xlink:href="#m166abb5a36" y="304.549737"/>
     <use style="fill:#ff0000;stroke:#000000;stroke-linejoin:miter;" x="361.476655" xlink:href="#m166abb5a36" y="304.766324"/>
     <use style="fill:#ff0000;stroke:#000000;stroke-linejoin:miter;" x="365.372509" xlink:href="#m166abb5a36" y="304.95808"/>
     <use style="fill:#ff0000;stroke:#000000;stroke-linejoin:miter;" x="369.268364" xlink:href="#m166abb5a36" y="305.128695"/>
     <use style="fill:#ff0000;stroke:#000000;stroke-linejoin:miter;" x="373.164218" xlink:href="#m166abb5a36" y="305.278354"/>
     <use style="fill:#ff0000;stroke:#000000;stroke-linejoin:miter;" x="377.060073" xlink:href="#m166abb5a36" y="305.410007"/>
     <use style="fill:#ff0000;stroke:#000000;stroke-linejoin:miter;" x="380.955927" xlink:href="#m166abb5a36" y="305.525731"/>
     <use style="fill:#ff0000;stroke:#000000;stroke-linejoin:miter;" x="384.851782" xlink:href="#m166abb5a36" y="305.628475"/>
     <use style="fill:#ff0000;stroke:#000000;stroke-linejoin:miter;" x="388.747636" xlink:href="#m166abb5a36" y="305.718191"/>
     <use style="fill:#ff0000;stroke:#000000;stroke-linejoin:miter;" x="392.643491" xlink:href="#m166abb5a36" y="305.798216"/>
     <use style="fill:#ff0000;stroke:#000000;stroke-linejoin:miter;" x="396.539345" xlink:href="#m166abb5a36" y="305.868363"/>
     <use style="fill:#ff0000;stroke:#000000;stroke-linejoin:miter;" x="400.4352" xlink:href="#m166abb5a36" y="305.931394"/>
     <use style="fill:#ff0000;stroke:#000000;stroke-linejoin:miter;" x="404.331055" xlink:href="#m166abb5a36" y="305.98688"/>
     <use style="fill:#ff0000;stroke:#000000;stroke-linejoin:miter;" x="408.226909" xlink:href="#m166abb5a36" y="306.037197"/>
    </g>
   </g>
   <g id="line2d_32">
    <path clip-path="url(#p8cac5b9d64)" d="M 57.6 307.584 
L 61.495855 275.650528 
L 65.391709 243.717056 
L 69.287564 211.783584 
L 73.183418 179.850112 
L 77.079273 147.91664 
L 80.975127 115.983168 
L 84.870982 84.049696 
L 88.766836 52.116225 
L 92.662691 74.952346 
L 96.558545 106.184384 
L 100.4544 128.055457 
L 104.350255 145.005532 
L 108.246109 158.840668 
L 112.141964 170.507459 
L 116.037818 180.564619 
L 119.933673 189.380193 
L 123.829527 197.199891 
L 127.725382 204.210294 
L 131.621236 210.542681 
L 135.517091 216.304154 
L 139.412945 221.574961 
L 143.3088 226.419294 
L 147.204655 230.893374 
L 151.100509 235.039576 
L 154.996364 238.894572 
L 158.892218 242.489293 
L 162.788073 245.850283 
L 166.683927 249.000675 
L 170.579782 251.959309 
L 174.475636 254.741961 
L 178.371491 257.367024 
L 182.267345 259.845601 
L 186.1632 262.18933 
L 190.059055 264.409368 
L 193.954909 266.513867 
L 197.850764 268.512398 
L 201.746618 270.411189 
L 205.642473 272.218173 
L 209.538327 273.938339 
L 213.434182 275.578351 
L 217.330036 277.142362 
L 221.225891 278.635492 
L 225.121745 280.061896 
L 229.0176 281.426324 
L 232.913455 282.730634 
L 236.809309 283.978729 
L 240.705164 285.173618 
L 244.601018 286.31859 
L 248.496873 287.415822 
L 252.392727 288.46768 
L 256.288582 289.476546 
L 260.184436 290.444577 
L 264.080291 291.373445 
L 267.976145 292.266132 
L 271.872 293.122042 
L 275.767855 293.943991 
L 279.663709 294.733169 
L 283.559564 295.490899 
L 287.455418 296.218396 
L 291.351273 296.917988 
L 295.247127 297.58847 
L 299.142982 298.231806 
L 303.038836 298.848782 
L 306.934691 299.441323 
L 310.830545 300.007795 
L 314.7264 300.549793 
L 318.622255 301.068856 
L 322.518109 301.563119 
L 326.413964 302.033756 
L 330.309818 302.481841 
L 334.205673 302.905084 
L 338.101527 303.304118 
L 341.997382 303.678437 
L 345.893236 304.02739 
L 349.789091 304.350261 
L 353.684945 304.646367 
L 357.5808 304.915223 
L 361.476655 305.155721 
L 365.372509 305.370451 
L 369.268364 305.558498 
L 373.164218 305.722583 
L 377.060073 305.864916 
L 380.955927 305.987932 
L 384.851782 306.094108 
L 388.747636 306.186741 
L 392.643491 306.266167 
L 396.539345 306.335123 
L 400.4352 306.395206 
L 404.331055 306.448742 
L 408.226909 306.495051 
" style="fill:none;stroke:#000000;stroke-linecap:square;stroke-width:2;"/>
    <defs>
     <path d="M -2.5 2.5 
L 2.5 -2.5 
M -2.5 -2.5 
L 2.5 2.5 
" id="m4c2bdf05cd" style="stroke:#000000;"/>
    </defs>
    <g clip-path="url(#p8cac5b9d64)">
     <use style="fill:#ff0000;stroke:#000000;" x="57.6" xlink:href="#m4c2bdf05cd" y="307.584"/>
     <use style="fill:#ff0000;stroke:#000000;" x="61.495855" xlink:href="#m4c2bdf05cd" y="275.650528"/>
     <use style="fill:#ff0000;stroke:#000000;" x="65.391709" xlink:href="#m4c2bdf05cd" y="243.717056"/>
     <use style="fill:#ff0000;stroke:#000000;" x="69.287564" xlink:href="#m4c2bdf05cd" y="211.783584"/>
     <use style="fill:#ff0000;stroke:#000000;" x="73.183418" xlink:href="#m4c2bdf05cd" y="179.850112"/>
     <use style="fill:#ff0000;stroke:#000000;" x="77.079273" xlink:href="#m4c2bdf05cd" y="147.91664"/>
     <use style="fill:#ff0000;stroke:#000000;" x="80.975127" xlink:href="#m4c2bdf05cd" y="115.983168"/>
     <use style="fill:#ff0000;stroke:#000000;" x="84.870982" xlink:href="#m4c2bdf05cd" y="84.049696"/>
     <use style="fill:#ff0000;stroke:#000000;" x="88.766836" xlink:href="#m4c2bdf05cd" y="52.116225"/>
     <use style="fill:#ff0000;stroke:#000000;" x="92.662691" xlink:href="#m4c2bdf05cd" y="74.952346"/>
     <use style="fill:#ff0000;stroke:#000000;" x="96.558545" xlink:href="#m4c2bdf05cd" y="106.184384"/>
     <use style="fill:#ff0000;stroke:#000000;" x="100.4544" xlink:href="#m4c2bdf05cd" y="128.055457"/>
     <use style="fill:#ff0000;stroke:#000000;" x="104.350255" xlink:href="#m4c2bdf05cd" y="145.005532"/>
     <use style="fill:#ff0000;stroke:#000000;" x="108.246109" xlink:href="#m4c2bdf05cd" y="158.840668"/>
     <use style="fill:#ff0000;stroke:#000000;" x="112.141964" xlink:href="#m4c2bdf05cd" y="170.507459"/>
     <use style="fill:#ff0000;stroke:#000000;" x="116.037818" xlink:href="#m4c2bdf05cd" y="180.564619"/>
     <use style="fill:#ff0000;stroke:#000000;" x="119.933673" xlink:href="#m4c2bdf05cd" y="189.380193"/>
     <use style="fill:#ff0000;stroke:#000000;" x="123.829527" xlink:href="#m4c2bdf05cd" y="197.199891"/>
     <use style="fill:#ff0000;stroke:#000000;" x="127.725382" xlink:href="#m4c2bdf05cd" y="204.210294"/>
     <use style="fill:#ff0000;stroke:#000000;" x="131.621236" xlink:href="#m4c2bdf05cd" y="210.542681"/>
     <use style="fill:#ff0000;stroke:#000000;" x="135.517091" xlink:href="#m4c2bdf05cd" y="216.304154"/>
     <use style="fill:#ff0000;stroke:#000000;" x="139.412945" xlink:href="#m4c2bdf05cd" y="221.574961"/>
     <use style="fill:#ff0000;stroke:#000000;" x="143.3088" xlink:href="#m4c2bdf05cd" y="226.419294"/>
     <use style="fill:#ff0000;stroke:#000000;" x="147.204655" xlink:href="#m4c2bdf05cd" y="230.893374"/>
     <use style="fill:#ff0000;stroke:#000000;" x="151.100509" xlink:href="#m4c2bdf05cd" y="235.039576"/>
     <use style="fill:#ff0000;stroke:#000000;" x="154.996364" xlink:href="#m4c2bdf05cd" y="238.894572"/>
     <use style="fill:#ff0000;stroke:#000000;" x="158.892218" xlink:href="#m4c2bdf05cd" y="242.489293"/>
     <use style="fill:#ff0000;stroke:#000000;" x="162.788073" xlink:href="#m4c2bdf05cd" y="245.850283"/>
     <use style="fill:#ff0000;stroke:#000000;" x="166.683927" xlink:href="#m4c2bdf05cd" y="249.000675"/>
     <use style="fill:#ff0000;stroke:#000000;" x="170.579782" xlink:href="#m4c2bdf05cd" y="251.959309"/>
     <use style="fill:#ff0000;stroke:#000000;" x="174.475636" xlink:href="#m4c2bdf05cd" y="254.741961"/>
     <use style="fill:#ff0000;stroke:#000000;" x="178.371491" xlink:href="#m4c2bdf05cd" y="257.367024"/>
     <use style="fill:#ff0000;stroke:#000000;" x="182.267345" xlink:href="#m4c2bdf05cd" y="259.845601"/>
     <use style="fill:#ff0000;stroke:#000000;" x="186.1632" xlink:href="#m4c2bdf05cd" y="262.18933"/>
     <use style="fill:#ff0000;stroke:#000000;" x="190.059055" xlink:href="#m4c2bdf05cd" y="264.409368"/>
     <use style="fill:#ff0000;stroke:#000000;" x="193.954909" xlink:href="#m4c2bdf05cd" y="266.513867"/>
     <use style="fill:#ff0000;stroke:#000000;" x="197.850764" xlink:href="#m4c2bdf05cd" y="268.512398"/>
     <use style="fill:#ff0000;stroke:#000000;" x="201.746618" xlink:href="#m4c2bdf05cd" y="270.411189"/>
     <use style="fill:#ff0000;stroke:#000000;" x="205.642473" xlink:href="#m4c2bdf05cd" y="272.218173"/>
     <use style="fill:#ff0000;stroke:#000000;" x="209.538327" xlink:href="#m4c2bdf05cd" y="273.938339"/>
     <use style="fill:#ff0000;stroke:#000000;" x="213.434182" xlink:href="#m4c2bdf05cd" y="275.578351"/>
     <use style="fill:#ff0000;stroke:#000000;" x="217.330036" xlink:href="#m4c2bdf05cd" y="277.142362"/>
     <use style="fill:#ff0000;stroke:#000000;" x="221.225891" xlink:href="#m4c2bdf05cd" y="278.635492"/>
     <use style="fill:#ff0000;stroke:#000000;" x="225.121745" xlink:href="#m4c2bdf05cd" y="280.061896"/>
     <use style="fill:#ff0000;stroke:#000000;" x="229.0176" xlink:href="#m4c2bdf05cd" y="281.426324"/>
     <use style="fill:#ff0000;stroke:#000000;" x="232.913455" xlink:href="#m4c2bdf05cd" y="282.730634"/>
     <use style="fill:#ff0000;stroke:#000000;" x="236.809309" xlink:href="#m4c2bdf05cd" y="283.978729"/>
     <use style="fill:#ff0000;stroke:#000000;" x="240.705164" xlink:href="#m4c2bdf05cd" y="285.173618"/>
     <use style="fill:#ff0000;stroke:#000000;" x="244.601018" xlink:href="#m4c2bdf05cd" y="286.31859"/>
     <use style="fill:#ff0000;stroke:#000000;" x="248.496873" xlink:href="#m4c2bdf05cd" y="287.415822"/>
     <use style="fill:#ff0000;stroke:#000000;" x="252.392727" xlink:href="#m4c2bdf05cd" y="288.46768"/>
     <use style="fill:#ff0000;stroke:#000000;" x="256.288582" xlink:href="#m4c2bdf05cd" y="289.476546"/>
     <use style="fill:#ff0000;stroke:#000000;" x="260.184436" xlink:href="#m4c2bdf05cd" y="290.444577"/>
     <use style="fill:#ff0000;stroke:#000000;" x="264.080291" xlink:href="#m4c2bdf05cd" y="291.373445"/>
     <use style="fill:#ff0000;stroke:#000000;" x="267.976145" xlink:href="#m4c2bdf05cd" y="292.266132"/>
     <use style="fill:#ff0000;stroke:#000000;" x="271.872" xlink:href="#m4c2bdf05cd" y="293.122042"/>
     <use style="fill:#ff0000;stroke:#000000;" x="275.767855" xlink:href="#m4c2bdf05cd" y="293.943991"/>
     <use style="fill:#ff0000;stroke:#000000;" x="279.663709" xlink:href="#m4c2bdf05cd" y="294.733169"/>
     <use style="fill:#ff0000;stroke:#000000;" x="283.559564" xlink:href="#m4c2bdf05cd" y="295.490899"/>
     <use style="fill:#ff0000;stroke:#000000;" x="287.455418" xlink:href="#m4c2bdf05cd" y="296.218396"/>
     <use style="fill:#ff0000;stroke:#000000;" x="291.351273" xlink:href="#m4c2bdf05cd" y="296.917988"/>
     <use style="fill:#ff0000;stroke:#000000;" x="295.247127" xlink:href="#m4c2bdf05cd" y="297.58847"/>
     <use style="fill:#ff0000;stroke:#000000;" x="299.142982" xlink:href="#m4c2bdf05cd" y="298.231806"/>
     <use style="fill:#ff0000;stroke:#000000;" x="303.038836" xlink:href="#m4c2bdf05cd" y="298.848782"/>
     <use style="fill:#ff0000;stroke:#000000;" x="306.934691" xlink:href="#m4c2bdf05cd" y="299.441323"/>
     <use style="fill:#ff0000;stroke:#000000;" x="310.830545" xlink:href="#m4c2bdf05cd" y="300.007795"/>
     <use style="fill:#ff0000;stroke:#000000;" x="314.7264" xlink:href="#m4c2bdf05cd" y="300.549793"/>
     <use style="fill:#ff0000;stroke:#000000;" x="318.622255" xlink:href="#m4c2bdf05cd" y="301.068856"/>
     <use style="fill:#ff0000;stroke:#000000;" x="322.518109" xlink:href="#m4c2bdf05cd" y="301.563119"/>
     <use style="fill:#ff0000;stroke:#000000;" x="326.413964" xlink:href="#m4c2bdf05cd" y="302.033756"/>
     <use style="fill:#ff0000;stroke:#000000;" x="330.309818" xlink:href="#m4c2bdf05cd" y="302.481841"/>
     <use style="fill:#ff0000;stroke:#000000;" x="334.205673" xlink:href="#m4c2bdf05cd" y="302.905084"/>
     <use style="fill:#ff0000;stroke:#000000;" x="338.101527" xlink:href="#m4c2bdf05cd" y="303.304118"/>
     <use style="fill:#ff0000;stroke:#000000;" x="341.997382" xlink:href="#m4c2bdf05cd" y="303.678437"/>
     <use style="fill:#ff0000;stroke:#000000;" x="345.893236" xlink:href="#m4c2bdf05cd" y="304.02739"/>
     <use style="fill:#ff0000;stroke:#000000;" x="349.789091" xlink:href="#m4c2bdf05cd" y="304.350261"/>
     <use style="fill:#ff0000;stroke:#000000;" x="353.684945" xlink:href="#m4c2bdf05cd" y="304.646367"/>
     <use style="fill:#ff0000;stroke:#000000;" x="357.5808" xlink:href="#m4c2bdf05cd" y="304.915223"/>
     <use style="fill:#ff0000;stroke:#000000;" x="361.476655" xlink:href="#m4c2bdf05cd" y="305.155721"/>
     <use style="fill:#ff0000;stroke:#000000;" x="365.372509" xlink:href="#m4c2bdf05cd" y="305.370451"/>
     <use style="fill:#ff0000;stroke:#000000;" x="369.268364" xlink:href="#m4c2bdf05cd" y="305.558498"/>
     <use style="fill:#ff0000;stroke:#000000;" x="373.164218" xlink:href="#m4c2bdf05cd" y="305.722583"/>
     <use style="fill:#ff0000;stroke:#000000;" x="377.060073" xlink:href="#m4c2bdf05cd" y="305.864916"/>
     <use style="fill:#ff0000;stroke:#000000;" x="380.955927" xlink:href="#m4c2bdf05cd" y="305.987932"/>
     <use style="fill:#ff0000;stroke:#000000;" x="384.851782" xlink:href="#m4c2bdf05cd" y="306.094108"/>
     <use style="fill:#ff0000;stroke:#000000;" x="388.747636" xlink:href="#m4c2bdf05cd" y="306.186741"/>
     <use style="fill:#ff0000;stroke:#000000;" x="392.643491" xlink:href="#m4c2bdf05cd" y="306.266167"/>
     <use style="fill:#ff0000;stroke:#000000;" x="396.539345" xlink:href="#m4c2bdf05cd" y="306.335123"/>
     <use style="fill:#ff0000;stroke:#000000;" x="400.4352" xlink:href="#m4c2bdf05cd" y="306.395206"/>
     <use style="fill:#ff0000;stroke:#000000;" x="404.331055" xlink:href="#m4c2bdf05cd" y="306.448742"/>
     <use style="fill:#ff0000;stroke:#000000;" x="408.226909" xlink:href="#m4c2bdf05cd" y="306.495051"/>
    </g>
   </g>
   <g id="patch_3">
    <path d="M 57.6 307.584 
L 57.6 41.472 
" style="fill:none;stroke:#000000;stroke-linecap:square;stroke-linejoin:miter;stroke-width:0.8;"/>
   </g>
   <g id="patch_4">
    <path d="M 414.72 307.584 
L 414.72 41.472 
" style="fill:none;stroke:#000000;stroke-linecap:square;stroke-linejoin:miter;stroke-width:0.8;"/>
   </g>
   <g id="patch_5">
    <path d="M 57.6 307.584 
L 414.72 307.584 
" style="fill:none;stroke:#000000;stroke-linecap:square;stroke-linejoin:miter;stroke-width:0.8;"/>
   </g>
   <g id="patch_6">
    <path d="M 57.6 41.472 
L 414.72 41.472 
" style="fill:none;stroke:#000000;stroke-linecap:square;stroke-linejoin:miter;stroke-width:0.8;"/>
   </g>
   <g id="text_17">
    <!-- b/h = 100 -->
    <defs>
     <path d="M 48.6875 27.296875 
Q 48.6875 37.203125 44.609375 42.84375 
Q 40.53125 48.484375 33.40625 48.484375 
Q 26.265625 48.484375 22.1875 42.84375 
Q 18.109375 37.203125 18.109375 27.296875 
Q 18.109375 17.390625 22.1875 11.75 
Q 26.265625 6.109375 33.40625 6.109375 
Q 40.53125 6.109375 44.609375 11.75 
Q 48.6875 17.390625 48.6875 27.296875 
z
M 18.109375 46.390625 
Q 20.953125 51.265625 25.265625 53.625 
Q 29.59375 56 35.59375 56 
Q 45.5625 56 51.78125 48.09375 
Q 58.015625 40.1875 58.015625 27.296875 
Q 58.015625 14.40625 51.78125 6.484375 
Q 45.5625 -1.421875 35.59375 -1.421875 
Q 29.59375 -1.421875 25.265625 0.953125 
Q 20.953125 3.328125 18.109375 8.203125 
L 18.109375 0 
L 9.078125 0 
L 9.078125 75.984375 
L 18.109375 75.984375 
z
" id="DejaVuSans-98"/>
     <path d="M 25.390625 72.90625 
L 33.6875 72.90625 
L 8.296875 -9.28125 
L 0 -9.28125 
z
" id="DejaVuSans-47"/>
     <path d="M 54.890625 33.015625 
L 54.890625 0 
L 45.90625 0 
L 45.90625 32.71875 
Q 45.90625 40.484375 42.875 44.328125 
Q 39.84375 48.1875 33.796875 48.1875 
Q 26.515625 48.1875 22.3125 43.546875 
Q 18.109375 38.921875 18.109375 30.90625 
L 18.109375 0 
L 9.078125 0 
L 9.078125 75.984375 
L 18.109375 75.984375 
L 18.109375 46.1875 
Q 21.34375 51.125 25.703125 53.5625 
Q 30.078125 56 35.796875 56 
Q 45.21875 56 50.046875 50.171875 
Q 54.890625 44.34375 54.890625 33.015625 
z
" id="DejaVuSans-104"/>
     <path d="M 10.59375 45.40625 
L 73.1875 45.40625 
L 73.1875 37.203125 
L 10.59375 37.203125 
z
M 10.59375 25.484375 
L 73.1875 25.484375 
L 73.1875 17.1875 
L 10.59375 17.1875 
z
" id="DejaVuSans-61"/>
    </defs>
    <g transform="translate(206.233125 35.472)scale(0.12 -0.12)">
     <use xlink:href="#DejaVuSans-98"/>
     <use x="63.476562" xlink:href="#DejaVuSans-47"/>
     <use x="97.167969" xlink:href="#DejaVuSans-104"/>
     <use x="160.546875" xlink:href="#DejaVuSans-32"/>
     <use x="192.333984" xlink:href="#DejaVuSans-61"/>
     <use x="276.123047" xlink:href="#DejaVuSans-32"/>
     <use x="307.910156" xlink:href="#DejaVuSans-49"/>
     <use x="371.533203" xlink:href="#DejaVuSans-48"/>
     <use x="435.15625" xlink:href="#DejaVuSans-48"/>
    </g>
   </g>
   <g id="legend_1">
    <g id="patch_7">
     <path d="M 326.924688 109.297 
L 407.72 109.297 
Q 409.72 109.297 409.72 107.297 
L 409.72 48.472 
Q 409.72 46.472 407.72 46.472 
L 326.924688 46.472 
Q 324.924688 46.472 324.924688 48.472 
L 324.924688 107.297 
Q 324.924688 109.297 326.924688 109.297 
z
" style="fill:#ffffff;opacity:0.8;stroke:#cccccc;stroke-linejoin:miter;"/>
    </g>
    <g id="line2d_33">
     <path d="M 328.924688 54.570437 
L 348.924688 54.570437 
" style="fill:none;stroke:#000000;stroke-linecap:square;stroke-width:2;"/>
    </g>
    <g id="line2d_34">
     <g>
      <use style="fill:#ff0000;stroke:#000000;" x="338.924688" xlink:href="#mc422152d0b" y="54.570437"/>
     </g>
    </g>
    <g id="text_18">
     <!-- C_100_5 -->
     <defs>
      <path d="M 64.40625 67.28125 
L 64.40625 56.890625 
Q 59.421875 61.53125 53.78125 63.8125 
Q 48.140625 66.109375 41.796875 66.109375 
Q 29.296875 66.109375 22.65625 58.46875 
Q 16.015625 50.828125 16.015625 36.375 
Q 16.015625 21.96875 22.65625 14.328125 
Q 29.296875 6.6875 41.796875 6.6875 
Q 48.140625 6.6875 53.78125 8.984375 
Q 59.421875 11.28125 64.40625 15.921875 
L 64.40625 5.609375 
Q 59.234375 2.09375 53.4375 0.328125 
Q 47.65625 -1.421875 41.21875 -1.421875 
Q 24.65625 -1.421875 15.125 8.703125 
Q 5.609375 18.84375 5.609375 36.375 
Q 5.609375 53.953125 15.125 64.078125 
Q 24.65625 74.21875 41.21875 74.21875 
Q 47.75 74.21875 53.53125 72.484375 
Q 59.328125 70.75 64.40625 67.28125 
z
" id="DejaVuSans-67"/>
      <path d="M 50.984375 -16.609375 
L 50.984375 -23.578125 
L -0.984375 -23.578125 
L -0.984375 -16.609375 
z
" id="DejaVuSans-95"/>
     </defs>
     <g transform="translate(356.924688 58.070437)scale(0.1 -0.1)">
      <use xlink:href="#DejaVuSans-67"/>
      <use x="69.824219" xlink:href="#DejaVuSans-95"/>
      <use x="119.824219" xlink:href="#DejaVuSans-49"/>
      <use x="183.447266" xlink:href="#DejaVuSans-48"/>
      <use x="247.070312" xlink:href="#DejaVuSans-48"/>
      <use x="310.693359" xlink:href="#DejaVuSans-95"/>
      <use x="360.693359" xlink:href="#DejaVuSans-53"/>
     </g>
    </g>
    <g id="line2d_35">
     <path d="M 328.924688 69.526687 
L 348.924688 69.526687 
" style="fill:none;stroke:#000000;stroke-linecap:square;stroke-width:2;"/>
    </g>
    <g id="line2d_36">
     <g>
      <use style="fill:#ff0000;stroke:#000000;stroke-linejoin:miter;" x="338.924688" xlink:href="#m3d8b46463d" y="69.526687"/>
     </g>
    </g>
    <g id="text_19">
     <!-- C_100_10 -->
     <g transform="translate(356.924688 73.026687)scale(0.1 -0.1)">
      <use xlink:href="#DejaVuSans-67"/>
      <use x="69.824219" xlink:href="#DejaVuSans-95"/>
      <use x="119.824219" xlink:href="#DejaVuSans-49"/>
      <use x="183.447266" xlink:href="#DejaVuSans-48"/>
      <use x="247.070312" xlink:href="#DejaVuSans-48"/>
      <use x="310.693359" xlink:href="#DejaVuSans-95"/>
      <use x="360.693359" xlink:href="#DejaVuSans-49"/>
      <use x="424.316406" xlink:href="#DejaVuSans-48"/>
     </g>
    </g>
    <g id="line2d_37">
     <path d="M 328.924688 84.482937 
L 348.924688 84.482937 
" style="fill:none;stroke:#000000;stroke-linecap:square;stroke-width:2;"/>
    </g>
    <g id="line2d_38">
     <g>
      <use style="fill:#ff0000;stroke:#000000;stroke-linejoin:miter;" x="338.924688" xlink:href="#m166abb5a36" y="84.482937"/>
     </g>
    </g>
    <g id="text_20">
     <!-- C_100_20 -->
     <g transform="translate(356.924688 87.982937)scale(0.1 -0.1)">
      <use xlink:href="#DejaVuSans-67"/>
      <use x="69.824219" xlink:href="#DejaVuSans-95"/>
      <use x="119.824219" xlink:href="#DejaVuSans-49"/>
      <use x="183.447266" xlink:href="#DejaVuSans-48"/>
      <use x="247.070312" xlink:href="#DejaVuSans-48"/>
      <use x="310.693359" xlink:href="#DejaVuSans-95"/>
      <use x="360.693359" xlink:href="#DejaVuSans-50"/>
      <use x="424.316406" xlink:href="#DejaVuSans-48"/>
     </g>
    </g>
    <g id="line2d_39">
     <path d="M 328.924688 99.439187 
L 348.924688 99.439187 
" style="fill:none;stroke:#000000;stroke-linecap:square;stroke-width:2;"/>
    </g>
    <g id="line2d_40">
     <g>
      <use style="fill:#ff0000;stroke:#000000;" x="338.924688" xlink:href="#m4c2bdf05cd" y="99.439187"/>
     </g>
    </g>
    <g id="text_21">
     <!-- C_100_50 -->
     <g transform="translate(356.924688 102.939187)scale(0.1 -0.1)">
      <use xlink:href="#DejaVuSans-67"/>
      <use x="69.824219" xlink:href="#DejaVuSans-95"/>
      <use x="119.824219" xlink:href="#DejaVuSans-49"/>
      <use x="183.447266" xlink:href="#DejaVuSans-48"/>
      <use x="247.070312" xlink:href="#DejaVuSans-48"/>
      <use x="310.693359" xlink:href="#DejaVuSans-95"/>
      <use x="360.693359" xlink:href="#DejaVuSans-53"/>
      <use x="424.316406" xlink:href="#DejaVuSans-48"/>
     </g>
    </g>
   </g>
  </g>
 </g>
 <defs>
  <clipPath id="p8cac5b9d64">
   <rect height="266.112" width="357.12" x="57.6" y="41.472"/>
  </clipPath>
 </defs>
</svg>
