<?xml version="1.0" encoding="utf-8" standalone="no"?>
<!DOCTYPE svg PUBLIC "-//W3C//DTD SVG 1.1//EN"
  "http://www.w3.org/Graphics/SVG/1.1/DTD/svg11.dtd">
<!-- Created with matplotlib (https://matplotlib.org/) -->
<svg height="345.6pt" version="1.1" viewBox="0 0 460.8 345.6" width="460.8pt" xmlns="http://www.w3.org/2000/svg" xmlns:xlink="http://www.w3.org/1999/xlink">
 <defs>
  <style type="text/css">
*{stroke-linecap:butt;stroke-linejoin:round;}
  </style>
 </defs>
 <g id="figure_1">
  <g id="patch_1">
   <path d="M 0 345.6 
L 460.8 345.6 
L 460.8 0 
L 0 0 
z
" style="fill:#ffffff;"/>
  </g>
  <g id="axes_1">
   <g id="patch_2">
    <path d="M 57.6 307.584 
L 414.72 307.584 
L 414.72 41.472 
L 57.6 41.472 
z
" style="fill:#ffffff;"/>
   </g>
   <g id="matplotlib.axis_1">
    <g id="xtick_1">
     <g id="line2d_1">
      <path clip-path="url(#p7759dcbb43)" d="M 57.6 307.584 
L 57.6 41.472 
" style="fill:none;stroke:#b0b0b0;stroke-linecap:square;stroke-width:0.8;"/>
     </g>
     <g id="line2d_2">
      <defs>
       <path d="M 0 0 
L 0 3.5 
" id="m2d34f4799e" style="stroke:#000000;stroke-width:0.8;"/>
      </defs>
      <g>
       <use style="stroke:#000000;stroke-width:0.8;" x="57.6" xlink:href="#m2d34f4799e" y="307.584"/>
      </g>
     </g>
     <g id="text_1">
      <!-- 0.00 -->
      <defs>
       <path d="M 31.78125 66.40625 
Q 24.171875 66.40625 20.328125 58.90625 
Q 16.5 51.421875 16.5 36.375 
Q 16.5 21.390625 20.328125 13.890625 
Q 24.171875 6.390625 31.78125 6.390625 
Q 39.453125 6.390625 43.28125 13.890625 
Q 47.125 21.390625 47.125 36.375 
Q 47.125 51.421875 43.28125 58.90625 
Q 39.453125 66.40625 31.78125 66.40625 
z
M 31.78125 74.21875 
Q 44.046875 74.21875 50.515625 64.515625 
Q 56.984375 54.828125 56.984375 36.375 
Q 56.984375 17.96875 50.515625 8.265625 
Q 44.046875 -1.421875 31.78125 -1.421875 
Q 19.53125 -1.421875 13.0625 8.265625 
Q 6.59375 17.96875 6.59375 36.375 
Q 6.59375 54.828125 13.0625 64.515625 
Q 19.53125 74.21875 31.78125 74.21875 
z
" id="DejaVuSans-48"/>
       <path d="M 10.6875 12.40625 
L 21 12.40625 
L 21 0 
L 10.6875 0 
z
" id="DejaVuSans-46"/>
      </defs>
      <g transform="translate(46.467188 322.182437)scale(0.1 -0.1)">
       <use xlink:href="#DejaVuSans-48"/>
       <use x="63.623047" xlink:href="#DejaVuSans-46"/>
       <use x="95.410156" xlink:href="#DejaVuSans-48"/>
       <use x="159.033203" xlink:href="#DejaVuSans-48"/>
      </g>
     </g>
    </g>
    <g id="xtick_2">
     <g id="line2d_3">
      <path clip-path="url(#p7759dcbb43)" d="M 122.530909 307.584 
L 122.530909 41.472 
" style="fill:none;stroke:#b0b0b0;stroke-linecap:square;stroke-width:0.8;"/>
     </g>
     <g id="line2d_4">
      <g>
       <use style="stroke:#000000;stroke-width:0.8;" x="122.530909" xlink:href="#m2d34f4799e" y="307.584"/>
      </g>
     </g>
     <g id="text_2">
      <!-- 0.04 -->
      <defs>
       <path d="M 37.796875 64.3125 
L 12.890625 25.390625 
L 37.796875 25.390625 
z
M 35.203125 72.90625 
L 47.609375 72.90625 
L 47.609375 25.390625 
L 58.015625 25.390625 
L 58.015625 17.1875 
L 47.609375 17.1875 
L 47.609375 0 
L 37.796875 0 
L 37.796875 17.1875 
L 4.890625 17.1875 
L 4.890625 26.703125 
z
" id="DejaVuSans-52"/>
      </defs>
      <g transform="translate(111.398097 322.182437)scale(0.1 -0.1)">
       <use xlink:href="#DejaVuSans-48"/>
       <use x="63.623047" xlink:href="#DejaVuSans-46"/>
       <use x="95.410156" xlink:href="#DejaVuSans-48"/>
       <use x="159.033203" xlink:href="#DejaVuSans-52"/>
      </g>
     </g>
    </g>
    <g id="xtick_3">
     <g id="line2d_5">
      <path clip-path="url(#p7759dcbb43)" d="M 187.461818 307.584 
L 187.461818 41.472 
" style="fill:none;stroke:#b0b0b0;stroke-linecap:square;stroke-width:0.8;"/>
     </g>
     <g id="line2d_6">
      <g>
       <use style="stroke:#000000;stroke-width:0.8;" x="187.461818" xlink:href="#m2d34f4799e" y="307.584"/>
      </g>
     </g>
     <g id="text_3">
      <!-- 0.08 -->
      <defs>
       <path d="M 31.78125 34.625 
Q 24.75 34.625 20.71875 30.859375 
Q 16.703125 27.09375 16.703125 20.515625 
Q 16.703125 13.921875 20.71875 10.15625 
Q 24.75 6.390625 31.78125 6.390625 
Q 38.8125 6.390625 42.859375 10.171875 
Q 46.921875 13.96875 46.921875 20.515625 
Q 46.921875 27.09375 42.890625 30.859375 
Q 38.875 34.625 31.78125 34.625 
z
M 21.921875 38.8125 
Q 15.578125 40.375 12.03125 44.71875 
Q 8.5 49.078125 8.5 55.328125 
Q 8.5 64.0625 14.71875 69.140625 
Q 20.953125 74.21875 31.78125 74.21875 
Q 42.671875 74.21875 48.875 69.140625 
Q 55.078125 64.0625 55.078125 55.328125 
Q 55.078125 49.078125 51.53125 44.71875 
Q 48 40.375 41.703125 38.8125 
Q 48.828125 37.15625 52.796875 32.3125 
Q 56.78125 27.484375 56.78125 20.515625 
Q 56.78125 9.90625 50.3125 4.234375 
Q 43.84375 -1.421875 31.78125 -1.421875 
Q 19.734375 -1.421875 13.25 4.234375 
Q 6.78125 9.90625 6.78125 20.515625 
Q 6.78125 27.484375 10.78125 32.3125 
Q 14.796875 37.15625 21.921875 38.8125 
z
M 18.3125 54.390625 
Q 18.3125 48.734375 21.84375 45.5625 
Q 25.390625 42.390625 31.78125 42.390625 
Q 38.140625 42.390625 41.71875 45.5625 
Q 45.3125 48.734375 45.3125 54.390625 
Q 45.3125 60.0625 41.71875 63.234375 
Q 38.140625 66.40625 31.78125 66.40625 
Q 25.390625 66.40625 21.84375 63.234375 
Q 18.3125 60.0625 18.3125 54.390625 
z
" id="DejaVuSans-56"/>
      </defs>
      <g transform="translate(176.329006 322.182437)scale(0.1 -0.1)">
       <use xlink:href="#DejaVuSans-48"/>
       <use x="63.623047" xlink:href="#DejaVuSans-46"/>
       <use x="95.410156" xlink:href="#DejaVuSans-48"/>
       <use x="159.033203" xlink:href="#DejaVuSans-56"/>
      </g>
     </g>
    </g>
    <g id="xtick_4">
     <g id="line2d_7">
      <path clip-path="url(#p7759dcbb43)" d="M 252.392727 307.584 
L 252.392727 41.472 
" style="fill:none;stroke:#b0b0b0;stroke-linecap:square;stroke-width:0.8;"/>
     </g>
     <g id="line2d_8">
      <g>
       <use style="stroke:#000000;stroke-width:0.8;" x="252.392727" xlink:href="#m2d34f4799e" y="307.584"/>
      </g>
     </g>
     <g id="text_4">
      <!-- 0.12 -->
      <defs>
       <path d="M 12.40625 8.296875 
L 28.515625 8.296875 
L 28.515625 63.921875 
L 10.984375 60.40625 
L 10.984375 69.390625 
L 28.421875 72.90625 
L 38.28125 72.90625 
L 38.28125 8.296875 
L 54.390625 8.296875 
L 54.390625 0 
L 12.40625 0 
z
" id="DejaVuSans-49"/>
       <path d="M 19.1875 8.296875 
L 53.609375 8.296875 
L 53.609375 0 
L 7.328125 0 
L 7.328125 8.296875 
Q 12.9375 14.109375 22.625 23.890625 
Q 32.328125 33.6875 34.8125 36.53125 
Q 39.546875 41.84375 41.421875 45.53125 
Q 43.3125 49.21875 43.3125 52.78125 
Q 43.3125 58.59375 39.234375 62.25 
Q 35.15625 65.921875 28.609375 65.921875 
Q 23.96875 65.921875 18.8125 64.3125 
Q 13.671875 62.703125 7.8125 59.421875 
L 7.8125 69.390625 
Q 13.765625 71.78125 18.9375 73 
Q 24.125 74.21875 28.421875 74.21875 
Q 39.75 74.21875 46.484375 68.546875 
Q 53.21875 62.890625 53.21875 53.421875 
Q 53.21875 48.921875 51.53125 44.890625 
Q 49.859375 40.875 45.40625 35.40625 
Q 44.1875 33.984375 37.640625 27.21875 
Q 31.109375 20.453125 19.1875 8.296875 
z
" id="DejaVuSans-50"/>
      </defs>
      <g transform="translate(241.259915 322.182437)scale(0.1 -0.1)">
       <use xlink:href="#DejaVuSans-48"/>
       <use x="63.623047" xlink:href="#DejaVuSans-46"/>
       <use x="95.410156" xlink:href="#DejaVuSans-49"/>
       <use x="159.033203" xlink:href="#DejaVuSans-50"/>
      </g>
     </g>
    </g>
    <g id="xtick_5">
     <g id="line2d_9">
      <path clip-path="url(#p7759dcbb43)" d="M 317.323636 307.584 
L 317.323636 41.472 
" style="fill:none;stroke:#b0b0b0;stroke-linecap:square;stroke-width:0.8;"/>
     </g>
     <g id="line2d_10">
      <g>
       <use style="stroke:#000000;stroke-width:0.8;" x="317.323636" xlink:href="#m2d34f4799e" y="307.584"/>
      </g>
     </g>
     <g id="text_5">
      <!-- 0.16 -->
      <defs>
       <path d="M 33.015625 40.375 
Q 26.375 40.375 22.484375 35.828125 
Q 18.609375 31.296875 18.609375 23.390625 
Q 18.609375 15.53125 22.484375 10.953125 
Q 26.375 6.390625 33.015625 6.390625 
Q 39.65625 6.390625 43.53125 10.953125 
Q 47.40625 15.53125 47.40625 23.390625 
Q 47.40625 31.296875 43.53125 35.828125 
Q 39.65625 40.375 33.015625 40.375 
z
M 52.59375 71.296875 
L 52.59375 62.3125 
Q 48.875 64.0625 45.09375 64.984375 
Q 41.3125 65.921875 37.59375 65.921875 
Q 27.828125 65.921875 22.671875 59.328125 
Q 17.53125 52.734375 16.796875 39.40625 
Q 19.671875 43.65625 24.015625 45.921875 
Q 28.375 48.1875 33.59375 48.1875 
Q 44.578125 48.1875 50.953125 41.515625 
Q 57.328125 34.859375 57.328125 23.390625 
Q 57.328125 12.15625 50.6875 5.359375 
Q 44.046875 -1.421875 33.015625 -1.421875 
Q 20.359375 -1.421875 13.671875 8.265625 
Q 6.984375 17.96875 6.984375 36.375 
Q 6.984375 53.65625 15.1875 63.9375 
Q 23.390625 74.21875 37.203125 74.21875 
Q 40.921875 74.21875 44.703125 73.484375 
Q 48.484375 72.75 52.59375 71.296875 
z
" id="DejaVuSans-54"/>
      </defs>
      <g transform="translate(306.190824 322.182437)scale(0.1 -0.1)">
       <use xlink:href="#DejaVuSans-48"/>
       <use x="63.623047" xlink:href="#DejaVuSans-46"/>
       <use x="95.410156" xlink:href="#DejaVuSans-49"/>
       <use x="159.033203" xlink:href="#DejaVuSans-54"/>
      </g>
     </g>
    </g>
    <g id="xtick_6">
     <g id="line2d_11">
      <path clip-path="url(#p7759dcbb43)" d="M 382.254545 307.584 
L 382.254545 41.472 
" style="fill:none;stroke:#b0b0b0;stroke-linecap:square;stroke-width:0.8;"/>
     </g>
     <g id="line2d_12">
      <g>
       <use style="stroke:#000000;stroke-width:0.8;" x="382.254545" xlink:href="#m2d34f4799e" y="307.584"/>
      </g>
     </g>
     <g id="text_6">
      <!-- 0.20 -->
      <g transform="translate(371.121733 322.182437)scale(0.1 -0.1)">
       <use xlink:href="#DejaVuSans-48"/>
       <use x="63.623047" xlink:href="#DejaVuSans-46"/>
       <use x="95.410156" xlink:href="#DejaVuSans-50"/>
       <use x="159.033203" xlink:href="#DejaVuSans-48"/>
      </g>
     </g>
    </g>
    <g id="xtick_7">
     <g id="line2d_13">
      <path clip-path="url(#p7759dcbb43)" d="M 414.72 307.584 
L 414.72 41.472 
" style="fill:none;stroke:#b0b0b0;stroke-linecap:square;stroke-width:0.8;"/>
     </g>
     <g id="line2d_14">
      <g>
       <use style="stroke:#000000;stroke-width:0.8;" x="414.72" xlink:href="#m2d34f4799e" y="307.584"/>
      </g>
     </g>
     <g id="text_7">
      <!-- 0.22 -->
      <g transform="translate(403.587188 322.182437)scale(0.1 -0.1)">
       <use xlink:href="#DejaVuSans-48"/>
       <use x="63.623047" xlink:href="#DejaVuSans-46"/>
       <use x="95.410156" xlink:href="#DejaVuSans-50"/>
       <use x="159.033203" xlink:href="#DejaVuSans-50"/>
      </g>
     </g>
    </g>
    <g id="text_8">
     <!-- Displacement (mm) -->
     <defs>
      <path d="M 19.671875 64.796875 
L 19.671875 8.109375 
L 31.59375 8.109375 
Q 46.6875 8.109375 53.6875 14.9375 
Q 60.6875 21.78125 60.6875 36.53125 
Q 60.6875 51.171875 53.6875 57.984375 
Q 46.6875 64.796875 31.59375 64.796875 
z
M 9.8125 72.90625 
L 30.078125 72.90625 
Q 51.265625 72.90625 61.171875 64.09375 
Q 71.09375 55.28125 71.09375 36.53125 
Q 71.09375 17.671875 61.125 8.828125 
Q 51.171875 0 30.078125 0 
L 9.8125 0 
z
" id="DejaVuSans-68"/>
      <path d="M 9.421875 54.6875 
L 18.40625 54.6875 
L 18.40625 0 
L 9.421875 0 
z
M 9.421875 75.984375 
L 18.40625 75.984375 
L 18.40625 64.59375 
L 9.421875 64.59375 
z
" id="DejaVuSans-105"/>
      <path d="M 44.28125 53.078125 
L 44.28125 44.578125 
Q 40.484375 46.53125 36.375 47.5 
Q 32.28125 48.484375 27.875 48.484375 
Q 21.1875 48.484375 17.84375 46.4375 
Q 14.5 44.390625 14.5 40.28125 
Q 14.5 37.15625 16.890625 35.375 
Q 19.28125 33.59375 26.515625 31.984375 
L 29.59375 31.296875 
Q 39.15625 29.25 43.1875 25.515625 
Q 47.21875 21.78125 47.21875 15.09375 
Q 47.21875 7.46875 41.1875 3.015625 
Q 35.15625 -1.421875 24.609375 -1.421875 
Q 20.21875 -1.421875 15.453125 -0.5625 
Q 10.6875 0.296875 5.421875 2 
L 5.421875 11.28125 
Q 10.40625 8.6875 15.234375 7.390625 
Q 20.0625 6.109375 24.8125 6.109375 
Q 31.15625 6.109375 34.5625 8.28125 
Q 37.984375 10.453125 37.984375 14.40625 
Q 37.984375 18.0625 35.515625 20.015625 
Q 33.0625 21.96875 24.703125 23.78125 
L 21.578125 24.515625 
Q 13.234375 26.265625 9.515625 29.90625 
Q 5.8125 33.546875 5.8125 39.890625 
Q 5.8125 47.609375 11.28125 51.796875 
Q 16.75 56 26.8125 56 
Q 31.78125 56 36.171875 55.265625 
Q 40.578125 54.546875 44.28125 53.078125 
z
" id="DejaVuSans-115"/>
      <path d="M 18.109375 8.203125 
L 18.109375 -20.796875 
L 9.078125 -20.796875 
L 9.078125 54.6875 
L 18.109375 54.6875 
L 18.109375 46.390625 
Q 20.953125 51.265625 25.265625 53.625 
Q 29.59375 56 35.59375 56 
Q 45.5625 56 51.78125 48.09375 
Q 58.015625 40.1875 58.015625 27.296875 
Q 58.015625 14.40625 51.78125 6.484375 
Q 45.5625 -1.421875 35.59375 -1.421875 
Q 29.59375 -1.421875 25.265625 0.953125 
Q 20.953125 3.328125 18.109375 8.203125 
z
M 48.6875 27.296875 
Q 48.6875 37.203125 44.609375 42.84375 
Q 40.53125 48.484375 33.40625 48.484375 
Q 26.265625 48.484375 22.1875 42.84375 
Q 18.109375 37.203125 18.109375 27.296875 
Q 18.109375 17.390625 22.1875 11.75 
Q 26.265625 6.109375 33.40625 6.109375 
Q 40.53125 6.109375 44.609375 11.75 
Q 48.6875 17.390625 48.6875 27.296875 
z
" id="DejaVuSans-112"/>
      <path d="M 9.421875 75.984375 
L 18.40625 75.984375 
L 18.40625 0 
L 9.421875 0 
z
" id="DejaVuSans-108"/>
      <path d="M 34.28125 27.484375 
Q 23.390625 27.484375 19.1875 25 
Q 14.984375 22.515625 14.984375 16.5 
Q 14.984375 11.71875 18.140625 8.90625 
Q 21.296875 6.109375 26.703125 6.109375 
Q 34.1875 6.109375 38.703125 11.40625 
Q 43.21875 16.703125 43.21875 25.484375 
L 43.21875 27.484375 
z
M 52.203125 31.203125 
L 52.203125 0 
L 43.21875 0 
L 43.21875 8.296875 
Q 40.140625 3.328125 35.546875 0.953125 
Q 30.953125 -1.421875 24.3125 -1.421875 
Q 15.921875 -1.421875 10.953125 3.296875 
Q 6 8.015625 6 15.921875 
Q 6 25.140625 12.171875 29.828125 
Q 18.359375 34.515625 30.609375 34.515625 
L 43.21875 34.515625 
L 43.21875 35.40625 
Q 43.21875 41.609375 39.140625 45 
Q 35.0625 48.390625 27.6875 48.390625 
Q 23 48.390625 18.546875 47.265625 
Q 14.109375 46.140625 10.015625 43.890625 
L 10.015625 52.203125 
Q 14.9375 54.109375 19.578125 55.046875 
Q 24.21875 56 28.609375 56 
Q 40.484375 56 46.34375 49.84375 
Q 52.203125 43.703125 52.203125 31.203125 
z
" id="DejaVuSans-97"/>
      <path d="M 48.78125 52.59375 
L 48.78125 44.1875 
Q 44.96875 46.296875 41.140625 47.34375 
Q 37.3125 48.390625 33.40625 48.390625 
Q 24.65625 48.390625 19.8125 42.84375 
Q 14.984375 37.3125 14.984375 27.296875 
Q 14.984375 17.28125 19.8125 11.734375 
Q 24.65625 6.203125 33.40625 6.203125 
Q 37.3125 6.203125 41.140625 7.25 
Q 44.96875 8.296875 48.78125 10.40625 
L 48.78125 2.09375 
Q 45.015625 0.34375 40.984375 -0.53125 
Q 36.96875 -1.421875 32.421875 -1.421875 
Q 20.0625 -1.421875 12.78125 6.34375 
Q 5.515625 14.109375 5.515625 27.296875 
Q 5.515625 40.671875 12.859375 48.328125 
Q 20.21875 56 33.015625 56 
Q 37.15625 56 41.109375 55.140625 
Q 45.0625 54.296875 48.78125 52.59375 
z
" id="DejaVuSans-99"/>
      <path d="M 56.203125 29.59375 
L 56.203125 25.203125 
L 14.890625 25.203125 
Q 15.484375 15.921875 20.484375 11.0625 
Q 25.484375 6.203125 34.421875 6.203125 
Q 39.59375 6.203125 44.453125 7.46875 
Q 49.3125 8.734375 54.109375 11.28125 
L 54.109375 2.78125 
Q 49.265625 0.734375 44.1875 -0.34375 
Q 39.109375 -1.421875 33.890625 -1.421875 
Q 20.796875 -1.421875 13.15625 6.1875 
Q 5.515625 13.8125 5.515625 26.8125 
Q 5.515625 40.234375 12.765625 48.109375 
Q 20.015625 56 32.328125 56 
Q 43.359375 56 49.78125 48.890625 
Q 56.203125 41.796875 56.203125 29.59375 
z
M 47.21875 32.234375 
Q 47.125 39.59375 43.09375 43.984375 
Q 39.0625 48.390625 32.421875 48.390625 
Q 24.90625 48.390625 20.390625 44.140625 
Q 15.875 39.890625 15.1875 32.171875 
z
" id="DejaVuSans-101"/>
      <path d="M 52 44.1875 
Q 55.375 50.25 60.0625 53.125 
Q 64.75 56 71.09375 56 
Q 79.640625 56 84.28125 50.015625 
Q 88.921875 44.046875 88.921875 33.015625 
L 88.921875 0 
L 79.890625 0 
L 79.890625 32.71875 
Q 79.890625 40.578125 77.09375 44.375 
Q 74.3125 48.1875 68.609375 48.1875 
Q 61.625 48.1875 57.5625 43.546875 
Q 53.515625 38.921875 53.515625 30.90625 
L 53.515625 0 
L 44.484375 0 
L 44.484375 32.71875 
Q 44.484375 40.625 41.703125 44.40625 
Q 38.921875 48.1875 33.109375 48.1875 
Q 26.21875 48.1875 22.15625 43.53125 
Q 18.109375 38.875 18.109375 30.90625 
L 18.109375 0 
L 9.078125 0 
L 9.078125 54.6875 
L 18.109375 54.6875 
L 18.109375 46.1875 
Q 21.1875 51.21875 25.484375 53.609375 
Q 29.78125 56 35.6875 56 
Q 41.65625 56 45.828125 52.96875 
Q 50 49.953125 52 44.1875 
z
" id="DejaVuSans-109"/>
      <path d="M 54.890625 33.015625 
L 54.890625 0 
L 45.90625 0 
L 45.90625 32.71875 
Q 45.90625 40.484375 42.875 44.328125 
Q 39.84375 48.1875 33.796875 48.1875 
Q 26.515625 48.1875 22.3125 43.546875 
Q 18.109375 38.921875 18.109375 30.90625 
L 18.109375 0 
L 9.078125 0 
L 9.078125 54.6875 
L 18.109375 54.6875 
L 18.109375 46.1875 
Q 21.34375 51.125 25.703125 53.5625 
Q 30.078125 56 35.796875 56 
Q 45.21875 56 50.046875 50.171875 
Q 54.890625 44.34375 54.890625 33.015625 
z
" id="DejaVuSans-110"/>
      <path d="M 18.3125 70.21875 
L 18.3125 54.6875 
L 36.8125 54.6875 
L 36.8125 47.703125 
L 18.3125 47.703125 
L 18.3125 18.015625 
Q 18.3125 11.328125 20.140625 9.421875 
Q 21.96875 7.515625 27.59375 7.515625 
L 36.8125 7.515625 
L 36.8125 0 
L 27.59375 0 
Q 17.1875 0 13.234375 3.875 
Q 9.28125 7.765625 9.28125 18.015625 
L 9.28125 47.703125 
L 2.6875 47.703125 
L 2.6875 54.6875 
L 9.28125 54.6875 
L 9.28125 70.21875 
z
" id="DejaVuSans-116"/>
      <path id="DejaVuSans-32"/>
      <path d="M 31 75.875 
Q 24.46875 64.65625 21.28125 53.65625 
Q 18.109375 42.671875 18.109375 31.390625 
Q 18.109375 20.125 21.3125 9.0625 
Q 24.515625 -2 31 -13.1875 
L 23.1875 -13.1875 
Q 15.875 -1.703125 12.234375 9.375 
Q 8.59375 20.453125 8.59375 31.390625 
Q 8.59375 42.28125 12.203125 53.3125 
Q 15.828125 64.359375 23.1875 75.875 
z
" id="DejaVuSans-40"/>
      <path d="M 8.015625 75.875 
L 15.828125 75.875 
Q 23.140625 64.359375 26.78125 53.3125 
Q 30.421875 42.28125 30.421875 31.390625 
Q 30.421875 20.453125 26.78125 9.375 
Q 23.140625 -1.703125 15.828125 -13.1875 
L 8.015625 -13.1875 
Q 14.5 -2 17.703125 9.0625 
Q 20.90625 20.125 20.90625 31.390625 
Q 20.90625 42.671875 17.703125 53.65625 
Q 14.5 64.65625 8.015625 75.875 
z
" id="DejaVuSans-41"/>
     </defs>
     <g transform="translate(186.556094 335.860562)scale(0.1 -0.1)">
      <use xlink:href="#DejaVuSans-68"/>
      <use x="77.001953" xlink:href="#DejaVuSans-105"/>
      <use x="104.785156" xlink:href="#DejaVuSans-115"/>
      <use x="156.884766" xlink:href="#DejaVuSans-112"/>
      <use x="220.361328" xlink:href="#DejaVuSans-108"/>
      <use x="248.144531" xlink:href="#DejaVuSans-97"/>
      <use x="309.423828" xlink:href="#DejaVuSans-99"/>
      <use x="364.404297" xlink:href="#DejaVuSans-101"/>
      <use x="425.927734" xlink:href="#DejaVuSans-109"/>
      <use x="523.339844" xlink:href="#DejaVuSans-101"/>
      <use x="584.863281" xlink:href="#DejaVuSans-110"/>
      <use x="648.242188" xlink:href="#DejaVuSans-116"/>
      <use x="687.451172" xlink:href="#DejaVuSans-32"/>
      <use x="719.238281" xlink:href="#DejaVuSans-40"/>
      <use x="758.251953" xlink:href="#DejaVuSans-109"/>
      <use x="855.664062" xlink:href="#DejaVuSans-109"/>
      <use x="953.076172" xlink:href="#DejaVuSans-41"/>
     </g>
    </g>
   </g>
   <g id="matplotlib.axis_2">
    <g id="ytick_1">
     <g id="line2d_15">
      <path clip-path="url(#p7759dcbb43)" d="M 57.6 307.584 
L 414.72 307.584 
" style="fill:none;stroke:#b0b0b0;stroke-linecap:square;stroke-width:0.8;"/>
     </g>
     <g id="line2d_16">
      <defs>
       <path d="M 0 0 
L -3.5 0 
" id="m39c4f62b2b" style="stroke:#000000;stroke-width:0.8;"/>
      </defs>
      <g>
       <use style="stroke:#000000;stroke-width:0.8;" x="57.6" xlink:href="#m39c4f62b2b" y="307.584"/>
      </g>
     </g>
     <g id="text_9">
      <!-- 0.0 -->
      <g transform="translate(34.696875 311.383219)scale(0.1 -0.1)">
       <use xlink:href="#DejaVuSans-48"/>
       <use x="63.623047" xlink:href="#DejaVuSans-46"/>
       <use x="95.410156" xlink:href="#DejaVuSans-48"/>
      </g>
     </g>
    </g>
    <g id="ytick_2">
     <g id="line2d_17">
      <path clip-path="url(#p7759dcbb43)" d="M 57.6 263.232 
L 414.72 263.232 
" style="fill:none;stroke:#b0b0b0;stroke-linecap:square;stroke-width:0.8;"/>
     </g>
     <g id="line2d_18">
      <g>
       <use style="stroke:#000000;stroke-width:0.8;" x="57.6" xlink:href="#m39c4f62b2b" y="263.232"/>
      </g>
     </g>
     <g id="text_10">
      <!-- 0.5 -->
      <defs>
       <path d="M 10.796875 72.90625 
L 49.515625 72.90625 
L 49.515625 64.59375 
L 19.828125 64.59375 
L 19.828125 46.734375 
Q 21.96875 47.46875 24.109375 47.828125 
Q 26.265625 48.1875 28.421875 48.1875 
Q 40.625 48.1875 47.75 41.5 
Q 54.890625 34.8125 54.890625 23.390625 
Q 54.890625 11.625 47.5625 5.09375 
Q 40.234375 -1.421875 26.90625 -1.421875 
Q 22.3125 -1.421875 17.546875 -0.640625 
Q 12.796875 0.140625 7.71875 1.703125 
L 7.71875 11.625 
Q 12.109375 9.234375 16.796875 8.0625 
Q 21.484375 6.890625 26.703125 6.890625 
Q 35.15625 6.890625 40.078125 11.328125 
Q 45.015625 15.765625 45.015625 23.390625 
Q 45.015625 31 40.078125 35.4375 
Q 35.15625 39.890625 26.703125 39.890625 
Q 22.75 39.890625 18.8125 39.015625 
Q 14.890625 38.140625 10.796875 36.28125 
z
" id="DejaVuSans-53"/>
      </defs>
      <g transform="translate(34.696875 267.031219)scale(0.1 -0.1)">
       <use xlink:href="#DejaVuSans-48"/>
       <use x="63.623047" xlink:href="#DejaVuSans-46"/>
       <use x="95.410156" xlink:href="#DejaVuSans-53"/>
      </g>
     </g>
    </g>
    <g id="ytick_3">
     <g id="line2d_19">
      <path clip-path="url(#p7759dcbb43)" d="M 57.6 218.88 
L 414.72 218.88 
" style="fill:none;stroke:#b0b0b0;stroke-linecap:square;stroke-width:0.8;"/>
     </g>
     <g id="line2d_20">
      <g>
       <use style="stroke:#000000;stroke-width:0.8;" x="57.6" xlink:href="#m39c4f62b2b" y="218.88"/>
      </g>
     </g>
     <g id="text_11">
      <!-- 1.0 -->
      <g transform="translate(34.696875 222.679219)scale(0.1 -0.1)">
       <use xlink:href="#DejaVuSans-49"/>
       <use x="63.623047" xlink:href="#DejaVuSans-46"/>
       <use x="95.410156" xlink:href="#DejaVuSans-48"/>
      </g>
     </g>
    </g>
    <g id="ytick_4">
     <g id="line2d_21">
      <path clip-path="url(#p7759dcbb43)" d="M 57.6 174.528 
L 414.72 174.528 
" style="fill:none;stroke:#b0b0b0;stroke-linecap:square;stroke-width:0.8;"/>
     </g>
     <g id="line2d_22">
      <g>
       <use style="stroke:#000000;stroke-width:0.8;" x="57.6" xlink:href="#m39c4f62b2b" y="174.528"/>
      </g>
     </g>
     <g id="text_12">
      <!-- 1.5 -->
      <g transform="translate(34.696875 178.327219)scale(0.1 -0.1)">
       <use xlink:href="#DejaVuSans-49"/>
       <use x="63.623047" xlink:href="#DejaVuSans-46"/>
       <use x="95.410156" xlink:href="#DejaVuSans-53"/>
      </g>
     </g>
    </g>
    <g id="ytick_5">
     <g id="line2d_23">
      <path clip-path="url(#p7759dcbb43)" d="M 57.6 130.176 
L 414.72 130.176 
" style="fill:none;stroke:#b0b0b0;stroke-linecap:square;stroke-width:0.8;"/>
     </g>
     <g id="line2d_24">
      <g>
       <use style="stroke:#000000;stroke-width:0.8;" x="57.6" xlink:href="#m39c4f62b2b" y="130.176"/>
      </g>
     </g>
     <g id="text_13">
      <!-- 2.0 -->
      <g transform="translate(34.696875 133.975219)scale(0.1 -0.1)">
       <use xlink:href="#DejaVuSans-50"/>
       <use x="63.623047" xlink:href="#DejaVuSans-46"/>
       <use x="95.410156" xlink:href="#DejaVuSans-48"/>
      </g>
     </g>
    </g>
    <g id="ytick_6">
     <g id="line2d_25">
      <path clip-path="url(#p7759dcbb43)" d="M 57.6 85.824 
L 414.72 85.824 
" style="fill:none;stroke:#b0b0b0;stroke-linecap:square;stroke-width:0.8;"/>
     </g>
     <g id="line2d_26">
      <g>
       <use style="stroke:#000000;stroke-width:0.8;" x="57.6" xlink:href="#m39c4f62b2b" y="85.824"/>
      </g>
     </g>
     <g id="text_14">
      <!-- 2.5 -->
      <g transform="translate(34.696875 89.623219)scale(0.1 -0.1)">
       <use xlink:href="#DejaVuSans-50"/>
       <use x="63.623047" xlink:href="#DejaVuSans-46"/>
       <use x="95.410156" xlink:href="#DejaVuSans-53"/>
      </g>
     </g>
    </g>
    <g id="ytick_7">
     <g id="line2d_27">
      <path clip-path="url(#p7759dcbb43)" d="M 57.6 41.472 
L 414.72 41.472 
" style="fill:none;stroke:#b0b0b0;stroke-linecap:square;stroke-width:0.8;"/>
     </g>
     <g id="line2d_28">
      <g>
       <use style="stroke:#000000;stroke-width:0.8;" x="57.6" xlink:href="#m39c4f62b2b" y="41.472"/>
      </g>
     </g>
     <g id="text_15">
      <!-- 3.0 -->
      <defs>
       <path d="M 40.578125 39.3125 
Q 47.65625 37.796875 51.625 33 
Q 55.609375 28.21875 55.609375 21.1875 
Q 55.609375 10.40625 48.1875 4.484375 
Q 40.765625 -1.421875 27.09375 -1.421875 
Q 22.515625 -1.421875 17.65625 -0.515625 
Q 12.796875 0.390625 7.625 2.203125 
L 7.625 11.71875 
Q 11.71875 9.328125 16.59375 8.109375 
Q 21.484375 6.890625 26.8125 6.890625 
Q 36.078125 6.890625 40.9375 10.546875 
Q 45.796875 14.203125 45.796875 21.1875 
Q 45.796875 27.640625 41.28125 31.265625 
Q 36.765625 34.90625 28.71875 34.90625 
L 20.21875 34.90625 
L 20.21875 43.015625 
L 29.109375 43.015625 
Q 36.375 43.015625 40.234375 45.921875 
Q 44.09375 48.828125 44.09375 54.296875 
Q 44.09375 59.90625 40.109375 62.90625 
Q 36.140625 65.921875 28.71875 65.921875 
Q 24.65625 65.921875 20.015625 65.03125 
Q 15.375 64.15625 9.8125 62.3125 
L 9.8125 71.09375 
Q 15.4375 72.65625 20.34375 73.4375 
Q 25.25 74.21875 29.59375 74.21875 
Q 40.828125 74.21875 47.359375 69.109375 
Q 53.90625 64.015625 53.90625 55.328125 
Q 53.90625 49.265625 50.4375 45.09375 
Q 46.96875 40.921875 40.578125 39.3125 
z
" id="DejaVuSans-51"/>
      </defs>
      <g transform="translate(34.696875 45.271219)scale(0.1 -0.1)">
       <use xlink:href="#DejaVuSans-51"/>
       <use x="63.623047" xlink:href="#DejaVuSans-46"/>
       <use x="95.410156" xlink:href="#DejaVuSans-48"/>
      </g>
     </g>
    </g>
    <g id="text_16">
     <!-- Load (N) -->
     <defs>
      <path d="M 9.8125 72.90625 
L 19.671875 72.90625 
L 19.671875 8.296875 
L 55.171875 8.296875 
L 55.171875 0 
L 9.8125 0 
z
" id="DejaVuSans-76"/>
      <path d="M 30.609375 48.390625 
Q 23.390625 48.390625 19.1875 42.75 
Q 14.984375 37.109375 14.984375 27.296875 
Q 14.984375 17.484375 19.15625 11.84375 
Q 23.34375 6.203125 30.609375 6.203125 
Q 37.796875 6.203125 41.984375 11.859375 
Q 46.1875 17.53125 46.1875 27.296875 
Q 46.1875 37.015625 41.984375 42.703125 
Q 37.796875 48.390625 30.609375 48.390625 
z
M 30.609375 56 
Q 42.328125 56 49.015625 48.375 
Q 55.71875 40.765625 55.71875 27.296875 
Q 55.71875 13.875 49.015625 6.21875 
Q 42.328125 -1.421875 30.609375 -1.421875 
Q 18.84375 -1.421875 12.171875 6.21875 
Q 5.515625 13.875 5.515625 27.296875 
Q 5.515625 40.765625 12.171875 48.375 
Q 18.84375 56 30.609375 56 
z
" id="DejaVuSans-111"/>
      <path d="M 45.40625 46.390625 
L 45.40625 75.984375 
L 54.390625 75.984375 
L 54.390625 0 
L 45.40625 0 
L 45.40625 8.203125 
Q 42.578125 3.328125 38.25 0.953125 
Q 33.9375 -1.421875 27.875 -1.421875 
Q 17.96875 -1.421875 11.734375 6.484375 
Q 5.515625 14.40625 5.515625 27.296875 
Q 5.515625 40.1875 11.734375 48.09375 
Q 17.96875 56 27.875 56 
Q 33.9375 56 38.25 53.625 
Q 42.578125 51.265625 45.40625 46.390625 
z
M 14.796875 27.296875 
Q 14.796875 17.390625 18.875 11.75 
Q 22.953125 6.109375 30.078125 6.109375 
Q 37.203125 6.109375 41.296875 11.75 
Q 45.40625 17.390625 45.40625 27.296875 
Q 45.40625 37.203125 41.296875 42.84375 
Q 37.203125 48.484375 30.078125 48.484375 
Q 22.953125 48.484375 18.875 42.84375 
Q 14.796875 37.203125 14.796875 27.296875 
z
" id="DejaVuSans-100"/>
      <path d="M 9.8125 72.90625 
L 23.09375 72.90625 
L 55.421875 11.921875 
L 55.421875 72.90625 
L 64.984375 72.90625 
L 64.984375 0 
L 51.703125 0 
L 19.390625 60.984375 
L 19.390625 0 
L 9.8125 0 
z
" id="DejaVuSans-78"/>
     </defs>
     <g transform="translate(28.617187 195.842062)rotate(-90)scale(0.1 -0.1)">
      <use xlink:href="#DejaVuSans-76"/>
      <use x="55.697266" xlink:href="#DejaVuSans-111"/>
      <use x="116.878906" xlink:href="#DejaVuSans-97"/>
      <use x="178.158203" xlink:href="#DejaVuSans-100"/>
      <use x="241.634766" xlink:href="#DejaVuSans-32"/>
      <use x="273.421875" xlink:href="#DejaVuSans-40"/>
      <use x="312.435547" xlink:href="#DejaVuSans-78"/>
      <use x="387.240234" xlink:href="#DejaVuSans-41"/>
     </g>
    </g>
   </g>
   <g id="line2d_29">
    <path clip-path="url(#p7759dcbb43)" d="M 57.6 307.584 
L 61.495855 275.650528 
L 65.391709 243.717056 
L 69.287564 211.783584 
L 73.183418 179.850112 
L 77.079273 147.91664 
L 80.975127 115.983168 
L 84.870982 84.049696 
L 88.766836 52.116225 
L 92.662691 74.604627 
L 96.558545 105.923722 
L 100.4544 127.828904 
L 104.350255 144.812659 
L 108.246109 158.661118 
L 112.141964 170.339355 
L 116.037818 180.411259 
L 119.933673 189.227926 
L 123.829527 197.046081 
L 127.725382 204.067848 
L 131.621236 210.404848 
L 135.517091 216.163156 
L 139.412945 221.425658 
L 143.3088 226.277624 
L 147.204655 230.754594 
L 151.100509 234.898923 
L 154.996364 238.749588 
L 158.892218 242.33799 
L 162.788073 245.693767 
L 166.683927 248.845376 
L 170.579782 251.802413 
L 174.475636 254.582229 
L 178.371491 257.201805 
L 182.267345 259.674487 
L 186.1632 262.00998 
L 190.059055 264.219999 
L 193.954909 266.319177 
L 197.850764 268.312161 
L 201.746618 270.20399 
L 205.642473 272.002964 
L 209.538327 273.714308 
L 213.434182 275.343659 
L 217.330036 276.896137 
L 221.225891 278.3764 
L 225.121745 279.78869 
L 229.0176 281.136881 
L 232.913455 282.425517 
L 236.809309 283.655622 
L 240.705164 284.834878 
L 244.601018 285.960744 
L 248.496873 287.038177 
L 252.392727 288.068455 
L 256.288582 289.05369 
L 260.184436 289.996962 
L 264.080291 290.897786 
L 267.976145 291.758898 
L 271.872 292.581782 
L 275.767855 293.367786 
L 279.663709 294.118136 
L 283.559564 294.833948 
L 287.455418 295.516235 
L 291.351273 296.165917 
L 295.247127 296.783832 
L 299.142982 297.370749 
L 303.038836 297.927381 
L 306.934691 298.4544 
L 310.830545 298.952455 
L 314.7264 299.421171 
L 318.622255 299.863317 
L 322.518109 300.278521 
L 326.413964 300.67165 
L 330.309818 301.038787 
L 334.205673 301.38298 
L 338.101527 301.705473 
L 341.997382 302.007057 
L 345.893236 302.289038 
L 349.789091 302.551563 
L 353.684945 302.795627 
L 357.5808 303.021299 
L 361.476655 303.229494 
L 365.372509 303.420785 
L 369.268364 303.595881 
L 373.164218 303.756055 
L 377.060073 303.902334 
L 380.955927 304.035618 
L 384.851782 304.157172 
L 388.747636 304.26795 
L 392.643491 304.368917 
L 396.539345 304.46111 
L 400.4352 304.545306 
L 404.331055 304.622317 
L 408.226909 304.692803 
" style="fill:none;stroke:#000000;stroke-linecap:square;stroke-width:2;"/>
    <defs>
     <path d="M 0 2.5 
C 0.663008 2.5 1.29895 2.236584 1.767767 1.767767 
C 2.236584 1.29895 2.5 0.663008 2.5 0 
C 2.5 -0.663008 2.236584 -1.29895 1.767767 -1.767767 
C 1.29895 -2.236584 0.663008 -2.5 0 -2.5 
C -0.663008 -2.5 -1.29895 -2.236584 -1.767767 -1.767767 
C -2.236584 -1.29895 -2.5 -0.663008 -2.5 0 
C -2.5 0.663008 -2.236584 1.29895 -1.767767 1.767767 
C -1.29895 2.236584 -0.663008 2.5 0 2.5 
z
" id="m7dade45064" style="stroke:#000000;"/>
    </defs>
    <g clip-path="url(#p7759dcbb43)">
     <use style="fill:#ff0000;stroke:#000000;" x="57.6" xlink:href="#m7dade45064" y="307.584"/>
     <use style="fill:#ff0000;stroke:#000000;" x="61.495855" xlink:href="#m7dade45064" y="275.650528"/>
     <use style="fill:#ff0000;stroke:#000000;" x="65.391709" xlink:href="#m7dade45064" y="243.717056"/>
     <use style="fill:#ff0000;stroke:#000000;" x="69.287564" xlink:href="#m7dade45064" y="211.783584"/>
     <use style="fill:#ff0000;stroke:#000000;" x="73.183418" xlink:href="#m7dade45064" y="179.850112"/>
     <use style="fill:#ff0000;stroke:#000000;" x="77.079273" xlink:href="#m7dade45064" y="147.91664"/>
     <use style="fill:#ff0000;stroke:#000000;" x="80.975127" xlink:href="#m7dade45064" y="115.983168"/>
     <use style="fill:#ff0000;stroke:#000000;" x="84.870982" xlink:href="#m7dade45064" y="84.049696"/>
     <use style="fill:#ff0000;stroke:#000000;" x="88.766836" xlink:href="#m7dade45064" y="52.116225"/>
     <use style="fill:#ff0000;stroke:#000000;" x="92.662691" xlink:href="#m7dade45064" y="74.604627"/>
     <use style="fill:#ff0000;stroke:#000000;" x="96.558545" xlink:href="#m7dade45064" y="105.923722"/>
     <use style="fill:#ff0000;stroke:#000000;" x="100.4544" xlink:href="#m7dade45064" y="127.828904"/>
     <use style="fill:#ff0000;stroke:#000000;" x="104.350255" xlink:href="#m7dade45064" y="144.812659"/>
     <use style="fill:#ff0000;stroke:#000000;" x="108.246109" xlink:href="#m7dade45064" y="158.661118"/>
     <use style="fill:#ff0000;stroke:#000000;" x="112.141964" xlink:href="#m7dade45064" y="170.339355"/>
     <use style="fill:#ff0000;stroke:#000000;" x="116.037818" xlink:href="#m7dade45064" y="180.411259"/>
     <use style="fill:#ff0000;stroke:#000000;" x="119.933673" xlink:href="#m7dade45064" y="189.227926"/>
     <use style="fill:#ff0000;stroke:#000000;" x="123.829527" xlink:href="#m7dade45064" y="197.046081"/>
     <use style="fill:#ff0000;stroke:#000000;" x="127.725382" xlink:href="#m7dade45064" y="204.067848"/>
     <use style="fill:#ff0000;stroke:#000000;" x="131.621236" xlink:href="#m7dade45064" y="210.404848"/>
     <use style="fill:#ff0000;stroke:#000000;" x="135.517091" xlink:href="#m7dade45064" y="216.163156"/>
     <use style="fill:#ff0000;stroke:#000000;" x="139.412945" xlink:href="#m7dade45064" y="221.425658"/>
     <use style="fill:#ff0000;stroke:#000000;" x="143.3088" xlink:href="#m7dade45064" y="226.277624"/>
     <use style="fill:#ff0000;stroke:#000000;" x="147.204655" xlink:href="#m7dade45064" y="230.754594"/>
     <use style="fill:#ff0000;stroke:#000000;" x="151.100509" xlink:href="#m7dade45064" y="234.898923"/>
     <use style="fill:#ff0000;stroke:#000000;" x="154.996364" xlink:href="#m7dade45064" y="238.749588"/>
     <use style="fill:#ff0000;stroke:#000000;" x="158.892218" xlink:href="#m7dade45064" y="242.33799"/>
     <use style="fill:#ff0000;stroke:#000000;" x="162.788073" xlink:href="#m7dade45064" y="245.693767"/>
     <use style="fill:#ff0000;stroke:#000000;" x="166.683927" xlink:href="#m7dade45064" y="248.845376"/>
     <use style="fill:#ff0000;stroke:#000000;" x="170.579782" xlink:href="#m7dade45064" y="251.802413"/>
     <use style="fill:#ff0000;stroke:#000000;" x="174.475636" xlink:href="#m7dade45064" y="254.582229"/>
     <use style="fill:#ff0000;stroke:#000000;" x="178.371491" xlink:href="#m7dade45064" y="257.201805"/>
     <use style="fill:#ff0000;stroke:#000000;" x="182.267345" xlink:href="#m7dade45064" y="259.674487"/>
     <use style="fill:#ff0000;stroke:#000000;" x="186.1632" xlink:href="#m7dade45064" y="262.00998"/>
     <use style="fill:#ff0000;stroke:#000000;" x="190.059055" xlink:href="#m7dade45064" y="264.219999"/>
     <use style="fill:#ff0000;stroke:#000000;" x="193.954909" xlink:href="#m7dade45064" y="266.319177"/>
     <use style="fill:#ff0000;stroke:#000000;" x="197.850764" xlink:href="#m7dade45064" y="268.312161"/>
     <use style="fill:#ff0000;stroke:#000000;" x="201.746618" xlink:href="#m7dade45064" y="270.20399"/>
     <use style="fill:#ff0000;stroke:#000000;" x="205.642473" xlink:href="#m7dade45064" y="272.002964"/>
     <use style="fill:#ff0000;stroke:#000000;" x="209.538327" xlink:href="#m7dade45064" y="273.714308"/>
     <use style="fill:#ff0000;stroke:#000000;" x="213.434182" xlink:href="#m7dade45064" y="275.343659"/>
     <use style="fill:#ff0000;stroke:#000000;" x="217.330036" xlink:href="#m7dade45064" y="276.896137"/>
     <use style="fill:#ff0000;stroke:#000000;" x="221.225891" xlink:href="#m7dade45064" y="278.3764"/>
     <use style="fill:#ff0000;stroke:#000000;" x="225.121745" xlink:href="#m7dade45064" y="279.78869"/>
     <use style="fill:#ff0000;stroke:#000000;" x="229.0176" xlink:href="#m7dade45064" y="281.136881"/>
     <use style="fill:#ff0000;stroke:#000000;" x="232.913455" xlink:href="#m7dade45064" y="282.425517"/>
     <use style="fill:#ff0000;stroke:#000000;" x="236.809309" xlink:href="#m7dade45064" y="283.655622"/>
     <use style="fill:#ff0000;stroke:#000000;" x="240.705164" xlink:href="#m7dade45064" y="284.834878"/>
     <use style="fill:#ff0000;stroke:#000000;" x="244.601018" xlink:href="#m7dade45064" y="285.960744"/>
     <use style="fill:#ff0000;stroke:#000000;" x="248.496873" xlink:href="#m7dade45064" y="287.038177"/>
     <use style="fill:#ff0000;stroke:#000000;" x="252.392727" xlink:href="#m7dade45064" y="288.068455"/>
     <use style="fill:#ff0000;stroke:#000000;" x="256.288582" xlink:href="#m7dade45064" y="289.05369"/>
     <use style="fill:#ff0000;stroke:#000000;" x="260.184436" xlink:href="#m7dade45064" y="289.996962"/>
     <use style="fill:#ff0000;stroke:#000000;" x="264.080291" xlink:href="#m7dade45064" y="290.897786"/>
     <use style="fill:#ff0000;stroke:#000000;" x="267.976145" xlink:href="#m7dade45064" y="291.758898"/>
     <use style="fill:#ff0000;stroke:#000000;" x="271.872" xlink:href="#m7dade45064" y="292.581782"/>
     <use style="fill:#ff0000;stroke:#000000;" x="275.767855" xlink:href="#m7dade45064" y="293.367786"/>
     <use style="fill:#ff0000;stroke:#000000;" x="279.663709" xlink:href="#m7dade45064" y="294.118136"/>
     <use style="fill:#ff0000;stroke:#000000;" x="283.559564" xlink:href="#m7dade45064" y="294.833948"/>
     <use style="fill:#ff0000;stroke:#000000;" x="287.455418" xlink:href="#m7dade45064" y="295.516235"/>
     <use style="fill:#ff0000;stroke:#000000;" x="291.351273" xlink:href="#m7dade45064" y="296.165917"/>
     <use style="fill:#ff0000;stroke:#000000;" x="295.247127" xlink:href="#m7dade45064" y="296.783832"/>
     <use style="fill:#ff0000;stroke:#000000;" x="299.142982" xlink:href="#m7dade45064" y="297.370749"/>
     <use style="fill:#ff0000;stroke:#000000;" x="303.038836" xlink:href="#m7dade45064" y="297.927381"/>
     <use style="fill:#ff0000;stroke:#000000;" x="306.934691" xlink:href="#m7dade45064" y="298.4544"/>
     <use style="fill:#ff0000;stroke:#000000;" x="310.830545" xlink:href="#m7dade45064" y="298.952455"/>
     <use style="fill:#ff0000;stroke:#000000;" x="314.7264" xlink:href="#m7dade45064" y="299.421171"/>
     <use style="fill:#ff0000;stroke:#000000;" x="318.622255" xlink:href="#m7dade45064" y="299.863317"/>
     <use style="fill:#ff0000;stroke:#000000;" x="322.518109" xlink:href="#m7dade45064" y="300.278521"/>
     <use style="fill:#ff0000;stroke:#000000;" x="326.413964" xlink:href="#m7dade45064" y="300.67165"/>
     <use style="fill:#ff0000;stroke:#000000;" x="330.309818" xlink:href="#m7dade45064" y="301.038787"/>
     <use style="fill:#ff0000;stroke:#000000;" x="334.205673" xlink:href="#m7dade45064" y="301.38298"/>
     <use style="fill:#ff0000;stroke:#000000;" x="338.101527" xlink:href="#m7dade45064" y="301.705473"/>
     <use style="fill:#ff0000;stroke:#000000;" x="341.997382" xlink:href="#m7dade45064" y="302.007057"/>
     <use style="fill:#ff0000;stroke:#000000;" x="345.893236" xlink:href="#m7dade45064" y="302.289038"/>
     <use style="fill:#ff0000;stroke:#000000;" x="349.789091" xlink:href="#m7dade45064" y="302.551563"/>
     <use style="fill:#ff0000;stroke:#000000;" x="353.684945" xlink:href="#m7dade45064" y="302.795627"/>
     <use style="fill:#ff0000;stroke:#000000;" x="357.5808" xlink:href="#m7dade45064" y="303.021299"/>
     <use style="fill:#ff0000;stroke:#000000;" x="361.476655" xlink:href="#m7dade45064" y="303.229494"/>
     <use style="fill:#ff0000;stroke:#000000;" x="365.372509" xlink:href="#m7dade45064" y="303.420785"/>
     <use style="fill:#ff0000;stroke:#000000;" x="369.268364" xlink:href="#m7dade45064" y="303.595881"/>
     <use style="fill:#ff0000;stroke:#000000;" x="373.164218" xlink:href="#m7dade45064" y="303.756055"/>
     <use style="fill:#ff0000;stroke:#000000;" x="377.060073" xlink:href="#m7dade45064" y="303.902334"/>
     <use style="fill:#ff0000;stroke:#000000;" x="380.955927" xlink:href="#m7dade45064" y="304.035618"/>
     <use style="fill:#ff0000;stroke:#000000;" x="384.851782" xlink:href="#m7dade45064" y="304.157172"/>
     <use style="fill:#ff0000;stroke:#000000;" x="388.747636" xlink:href="#m7dade45064" y="304.26795"/>
     <use style="fill:#ff0000;stroke:#000000;" x="392.643491" xlink:href="#m7dade45064" y="304.368917"/>
     <use style="fill:#ff0000;stroke:#000000;" x="396.539345" xlink:href="#m7dade45064" y="304.46111"/>
     <use style="fill:#ff0000;stroke:#000000;" x="400.4352" xlink:href="#m7dade45064" y="304.545306"/>
     <use style="fill:#ff0000;stroke:#000000;" x="404.331055" xlink:href="#m7dade45064" y="304.622317"/>
     <use style="fill:#ff0000;stroke:#000000;" x="408.226909" xlink:href="#m7dade45064" y="304.692803"/>
    </g>
   </g>
   <g id="line2d_30">
    <path clip-path="url(#p7759dcbb43)" d="M 57.6 307.584 
L 61.495855 275.650528 
L 65.391709 243.717056 
L 69.287564 211.783584 
L 73.183418 179.850112 
L 77.079273 147.91664 
L 80.975127 115.983168 
L 84.870982 84.049696 
L 88.766836 52.116225 
L 92.662691 74.854845 
L 96.558545 106.121704 
L 100.4544 128.005094 
L 104.350255 144.958417 
L 108.246109 158.796847 
L 112.141964 170.467119 
L 116.037818 180.527359 
L 119.933673 189.339116 
L 123.829527 197.165278 
L 127.725382 204.170555 
L 131.621236 210.508191 
L 135.517091 216.265064 
L 139.412945 221.538478 
L 143.3088 226.382912 
L 147.204655 230.854311 
L 151.100509 235.001368 
L 154.996364 238.853789 
L 158.892218 242.448054 
L 162.788073 245.809198 
L 166.683927 248.956871 
L 170.579782 251.912983 
L 174.475636 254.697256 
L 178.371491 257.319117 
L 182.267345 259.794538 
L 186.1632 262.136031 
L 190.059055 264.354774 
L 193.954909 266.457385 
L 197.850764 268.45239 
L 201.746618 270.347428 
L 205.642473 272.151553 
L 209.538327 273.869415 
L 213.434182 275.505762 
L 217.330036 277.065755 
L 221.225891 278.554089 
L 225.121745 279.975038 
L 229.0176 281.334032 
L 232.913455 282.634478 
L 236.809309 283.876987 
L 240.705164 285.065758 
L 244.601018 286.203584 
L 248.496873 287.293035 
L 252.392727 288.336473 
L 256.288582 289.336067 
L 260.184436 290.294565 
L 264.080291 291.213102 
L 267.976145 292.093208 
L 271.872 292.936433 
L 275.767855 293.745318 
L 279.663709 294.518951 
L 283.559564 295.259556 
L 287.455418 295.968171 
L 291.351273 296.645716 
L 295.247127 297.292995 
L 299.142982 297.910703 
L 303.038836 298.49943 
L 306.934691 299.059663 
L 310.830545 299.591991 
L 314.7264 300.097648 
L 318.622255 300.574675 
L 322.518109 301.024346 
L 326.413964 301.445821 
L 330.309818 301.841447 
L 334.205673 302.210445 
L 338.101527 302.553185 
L 341.997382 302.870181 
L 345.893236 303.162117 
L 349.789091 303.428992 
L 353.684945 303.673748 
L 357.5808 303.895702 
L 361.476655 304.098236 
L 365.372509 304.280797 
L 369.268364 304.446978 
L 373.164218 304.597176 
L 377.060073 304.732118 
L 380.955927 304.854918 
L 384.851782 304.965167 
L 388.747636 305.065855 
L 392.643491 305.157116 
L 396.539345 305.239227 
L 400.4352 305.314669 
L 404.331055 305.38337 
L 408.226909 305.445312 
" style="fill:none;stroke:#000000;stroke-linecap:square;stroke-width:2;"/>
    <defs>
     <path d="M 0 -2.5 
L -2.5 2.5 
L 2.5 2.5 
z
" id="m93e05f4c86" style="stroke:#000000;stroke-linejoin:miter;"/>
    </defs>
    <g clip-path="url(#p7759dcbb43)">
     <use style="fill:#ff0000;stroke:#000000;stroke-linejoin:miter;" x="57.6" xlink:href="#m93e05f4c86" y="307.584"/>
     <use style="fill:#ff0000;stroke:#000000;stroke-linejoin:miter;" x="61.495855" xlink:href="#m93e05f4c86" y="275.650528"/>
     <use style="fill:#ff0000;stroke:#000000;stroke-linejoin:miter;" x="65.391709" xlink:href="#m93e05f4c86" y="243.717056"/>
     <use style="fill:#ff0000;stroke:#000000;stroke-linejoin:miter;" x="69.287564" xlink:href="#m93e05f4c86" y="211.783584"/>
     <use style="fill:#ff0000;stroke:#000000;stroke-linejoin:miter;" x="73.183418" xlink:href="#m93e05f4c86" y="179.850112"/>
     <use style="fill:#ff0000;stroke:#000000;stroke-linejoin:miter;" x="77.079273" xlink:href="#m93e05f4c86" y="147.91664"/>
     <use style="fill:#ff0000;stroke:#000000;stroke-linejoin:miter;" x="80.975127" xlink:href="#m93e05f4c86" y="115.983168"/>
     <use style="fill:#ff0000;stroke:#000000;stroke-linejoin:miter;" x="84.870982" xlink:href="#m93e05f4c86" y="84.049696"/>
     <use style="fill:#ff0000;stroke:#000000;stroke-linejoin:miter;" x="88.766836" xlink:href="#m93e05f4c86" y="52.116225"/>
     <use style="fill:#ff0000;stroke:#000000;stroke-linejoin:miter;" x="92.662691" xlink:href="#m93e05f4c86" y="74.854845"/>
     <use style="fill:#ff0000;stroke:#000000;stroke-linejoin:miter;" x="96.558545" xlink:href="#m93e05f4c86" y="106.121704"/>
     <use style="fill:#ff0000;stroke:#000000;stroke-linejoin:miter;" x="100.4544" xlink:href="#m93e05f4c86" y="128.005094"/>
     <use style="fill:#ff0000;stroke:#000000;stroke-linejoin:miter;" x="104.350255" xlink:href="#m93e05f4c86" y="144.958417"/>
     <use style="fill:#ff0000;stroke:#000000;stroke-linejoin:miter;" x="108.246109" xlink:href="#m93e05f4c86" y="158.796847"/>
     <use style="fill:#ff0000;stroke:#000000;stroke-linejoin:miter;" x="112.141964" xlink:href="#m93e05f4c86" y="170.467119"/>
     <use style="fill:#ff0000;stroke:#000000;stroke-linejoin:miter;" x="116.037818" xlink:href="#m93e05f4c86" y="180.527359"/>
     <use style="fill:#ff0000;stroke:#000000;stroke-linejoin:miter;" x="119.933673" xlink:href="#m93e05f4c86" y="189.339116"/>
     <use style="fill:#ff0000;stroke:#000000;stroke-linejoin:miter;" x="123.829527" xlink:href="#m93e05f4c86" y="197.165278"/>
     <use style="fill:#ff0000;stroke:#000000;stroke-linejoin:miter;" x="127.725382" xlink:href="#m93e05f4c86" y="204.170555"/>
     <use style="fill:#ff0000;stroke:#000000;stroke-linejoin:miter;" x="131.621236" xlink:href="#m93e05f4c86" y="210.508191"/>
     <use style="fill:#ff0000;stroke:#000000;stroke-linejoin:miter;" x="135.517091" xlink:href="#m93e05f4c86" y="216.265064"/>
     <use style="fill:#ff0000;stroke:#000000;stroke-linejoin:miter;" x="139.412945" xlink:href="#m93e05f4c86" y="221.538478"/>
     <use style="fill:#ff0000;stroke:#000000;stroke-linejoin:miter;" x="143.3088" xlink:href="#m93e05f4c86" y="226.382912"/>
     <use style="fill:#ff0000;stroke:#000000;stroke-linejoin:miter;" x="147.204655" xlink:href="#m93e05f4c86" y="230.854311"/>
     <use style="fill:#ff0000;stroke:#000000;stroke-linejoin:miter;" x="151.100509" xlink:href="#m93e05f4c86" y="235.001368"/>
     <use style="fill:#ff0000;stroke:#000000;stroke-linejoin:miter;" x="154.996364" xlink:href="#m93e05f4c86" y="238.853789"/>
     <use style="fill:#ff0000;stroke:#000000;stroke-linejoin:miter;" x="158.892218" xlink:href="#m93e05f4c86" y="242.448054"/>
     <use style="fill:#ff0000;stroke:#000000;stroke-linejoin:miter;" x="162.788073" xlink:href="#m93e05f4c86" y="245.809198"/>
     <use style="fill:#ff0000;stroke:#000000;stroke-linejoin:miter;" x="166.683927" xlink:href="#m93e05f4c86" y="248.956871"/>
     <use style="fill:#ff0000;stroke:#000000;stroke-linejoin:miter;" x="170.579782" xlink:href="#m93e05f4c86" y="251.912983"/>
     <use style="fill:#ff0000;stroke:#000000;stroke-linejoin:miter;" x="174.475636" xlink:href="#m93e05f4c86" y="254.697256"/>
     <use style="fill:#ff0000;stroke:#000000;stroke-linejoin:miter;" x="178.371491" xlink:href="#m93e05f4c86" y="257.319117"/>
     <use style="fill:#ff0000;stroke:#000000;stroke-linejoin:miter;" x="182.267345" xlink:href="#m93e05f4c86" y="259.794538"/>
     <use style="fill:#ff0000;stroke:#000000;stroke-linejoin:miter;" x="186.1632" xlink:href="#m93e05f4c86" y="262.136031"/>
     <use style="fill:#ff0000;stroke:#000000;stroke-linejoin:miter;" x="190.059055" xlink:href="#m93e05f4c86" y="264.354774"/>
     <use style="fill:#ff0000;stroke:#000000;stroke-linejoin:miter;" x="193.954909" xlink:href="#m93e05f4c86" y="266.457385"/>
     <use style="fill:#ff0000;stroke:#000000;stroke-linejoin:miter;" x="197.850764" xlink:href="#m93e05f4c86" y="268.45239"/>
     <use style="fill:#ff0000;stroke:#000000;stroke-linejoin:miter;" x="201.746618" xlink:href="#m93e05f4c86" y="270.347428"/>
     <use style="fill:#ff0000;stroke:#000000;stroke-linejoin:miter;" x="205.642473" xlink:href="#m93e05f4c86" y="272.151553"/>
     <use style="fill:#ff0000;stroke:#000000;stroke-linejoin:miter;" x="209.538327" xlink:href="#m93e05f4c86" y="273.869415"/>
     <use style="fill:#ff0000;stroke:#000000;stroke-linejoin:miter;" x="213.434182" xlink:href="#m93e05f4c86" y="275.505762"/>
     <use style="fill:#ff0000;stroke:#000000;stroke-linejoin:miter;" x="217.330036" xlink:href="#m93e05f4c86" y="277.065755"/>
     <use style="fill:#ff0000;stroke:#000000;stroke-linejoin:miter;" x="221.225891" xlink:href="#m93e05f4c86" y="278.554089"/>
     <use style="fill:#ff0000;stroke:#000000;stroke-linejoin:miter;" x="225.121745" xlink:href="#m93e05f4c86" y="279.975038"/>
     <use style="fill:#ff0000;stroke:#000000;stroke-linejoin:miter;" x="229.0176" xlink:href="#m93e05f4c86" y="281.334032"/>
     <use style="fill:#ff0000;stroke:#000000;stroke-linejoin:miter;" x="232.913455" xlink:href="#m93e05f4c86" y="282.634478"/>
     <use style="fill:#ff0000;stroke:#000000;stroke-linejoin:miter;" x="236.809309" xlink:href="#m93e05f4c86" y="283.876987"/>
     <use style="fill:#ff0000;stroke:#000000;stroke-linejoin:miter;" x="240.705164" xlink:href="#m93e05f4c86" y="285.065758"/>
     <use style="fill:#ff0000;stroke:#000000;stroke-linejoin:miter;" x="244.601018" xlink:href="#m93e05f4c86" y="286.203584"/>
     <use style="fill:#ff0000;stroke:#000000;stroke-linejoin:miter;" x="248.496873" xlink:href="#m93e05f4c86" y="287.293035"/>
     <use style="fill:#ff0000;stroke:#000000;stroke-linejoin:miter;" x="252.392727" xlink:href="#m93e05f4c86" y="288.336473"/>
     <use style="fill:#ff0000;stroke:#000000;stroke-linejoin:miter;" x="256.288582" xlink:href="#m93e05f4c86" y="289.336067"/>
     <use style="fill:#ff0000;stroke:#000000;stroke-linejoin:miter;" x="260.184436" xlink:href="#m93e05f4c86" y="290.294565"/>
     <use style="fill:#ff0000;stroke:#000000;stroke-linejoin:miter;" x="264.080291" xlink:href="#m93e05f4c86" y="291.213102"/>
     <use style="fill:#ff0000;stroke:#000000;stroke-linejoin:miter;" x="267.976145" xlink:href="#m93e05f4c86" y="292.093208"/>
     <use style="fill:#ff0000;stroke:#000000;stroke-linejoin:miter;" x="271.872" xlink:href="#m93e05f4c86" y="292.936433"/>
     <use style="fill:#ff0000;stroke:#000000;stroke-linejoin:miter;" x="275.767855" xlink:href="#m93e05f4c86" y="293.745318"/>
     <use style="fill:#ff0000;stroke:#000000;stroke-linejoin:miter;" x="279.663709" xlink:href="#m93e05f4c86" y="294.518951"/>
     <use style="fill:#ff0000;stroke:#000000;stroke-linejoin:miter;" x="283.559564" xlink:href="#m93e05f4c86" y="295.259556"/>
     <use style="fill:#ff0000;stroke:#000000;stroke-linejoin:miter;" x="287.455418" xlink:href="#m93e05f4c86" y="295.968171"/>
     <use style="fill:#ff0000;stroke:#000000;stroke-linejoin:miter;" x="291.351273" xlink:href="#m93e05f4c86" y="296.645716"/>
     <use style="fill:#ff0000;stroke:#000000;stroke-linejoin:miter;" x="295.247127" xlink:href="#m93e05f4c86" y="297.292995"/>
     <use style="fill:#ff0000;stroke:#000000;stroke-linejoin:miter;" x="299.142982" xlink:href="#m93e05f4c86" y="297.910703"/>
     <use style="fill:#ff0000;stroke:#000000;stroke-linejoin:miter;" x="303.038836" xlink:href="#m93e05f4c86" y="298.49943"/>
     <use style="fill:#ff0000;stroke:#000000;stroke-linejoin:miter;" x="306.934691" xlink:href="#m93e05f4c86" y="299.059663"/>
     <use style="fill:#ff0000;stroke:#000000;stroke-linejoin:miter;" x="310.830545" xlink:href="#m93e05f4c86" y="299.591991"/>
     <use style="fill:#ff0000;stroke:#000000;stroke-linejoin:miter;" x="314.7264" xlink:href="#m93e05f4c86" y="300.097648"/>
     <use style="fill:#ff0000;stroke:#000000;stroke-linejoin:miter;" x="318.622255" xlink:href="#m93e05f4c86" y="300.574675"/>
     <use style="fill:#ff0000;stroke:#000000;stroke-linejoin:miter;" x="322.518109" xlink:href="#m93e05f4c86" y="301.024346"/>
     <use style="fill:#ff0000;stroke:#000000;stroke-linejoin:miter;" x="326.413964" xlink:href="#m93e05f4c86" y="301.445821"/>
     <use style="fill:#ff0000;stroke:#000000;stroke-linejoin:miter;" x="330.309818" xlink:href="#m93e05f4c86" y="301.841447"/>
     <use style="fill:#ff0000;stroke:#000000;stroke-linejoin:miter;" x="334.205673" xlink:href="#m93e05f4c86" y="302.210445"/>
     <use style="fill:#ff0000;stroke:#000000;stroke-linejoin:miter;" x="338.101527" xlink:href="#m93e05f4c86" y="302.553185"/>
     <use style="fill:#ff0000;stroke:#000000;stroke-linejoin:miter;" x="341.997382" xlink:href="#m93e05f4c86" y="302.870181"/>
     <use style="fill:#ff0000;stroke:#000000;stroke-linejoin:miter;" x="345.893236" xlink:href="#m93e05f4c86" y="303.162117"/>
     <use style="fill:#ff0000;stroke:#000000;stroke-linejoin:miter;" x="349.789091" xlink:href="#m93e05f4c86" y="303.428992"/>
     <use style="fill:#ff0000;stroke:#000000;stroke-linejoin:miter;" x="353.684945" xlink:href="#m93e05f4c86" y="303.673748"/>
     <use style="fill:#ff0000;stroke:#000000;stroke-linejoin:miter;" x="357.5808" xlink:href="#m93e05f4c86" y="303.895702"/>
     <use style="fill:#ff0000;stroke:#000000;stroke-linejoin:miter;" x="361.476655" xlink:href="#m93e05f4c86" y="304.098236"/>
     <use style="fill:#ff0000;stroke:#000000;stroke-linejoin:miter;" x="365.372509" xlink:href="#m93e05f4c86" y="304.280797"/>
     <use style="fill:#ff0000;stroke:#000000;stroke-linejoin:miter;" x="369.268364" xlink:href="#m93e05f4c86" y="304.446978"/>
     <use style="fill:#ff0000;stroke:#000000;stroke-linejoin:miter;" x="373.164218" xlink:href="#m93e05f4c86" y="304.597176"/>
     <use style="fill:#ff0000;stroke:#000000;stroke-linejoin:miter;" x="377.060073" xlink:href="#m93e05f4c86" y="304.732118"/>
     <use style="fill:#ff0000;stroke:#000000;stroke-linejoin:miter;" x="380.955927" xlink:href="#m93e05f4c86" y="304.854918"/>
     <use style="fill:#ff0000;stroke:#000000;stroke-linejoin:miter;" x="384.851782" xlink:href="#m93e05f4c86" y="304.965167"/>
     <use style="fill:#ff0000;stroke:#000000;stroke-linejoin:miter;" x="388.747636" xlink:href="#m93e05f4c86" y="305.065855"/>
     <use style="fill:#ff0000;stroke:#000000;stroke-linejoin:miter;" x="392.643491" xlink:href="#m93e05f4c86" y="305.157116"/>
     <use style="fill:#ff0000;stroke:#000000;stroke-linejoin:miter;" x="396.539345" xlink:href="#m93e05f4c86" y="305.239227"/>
     <use style="fill:#ff0000;stroke:#000000;stroke-linejoin:miter;" x="400.4352" xlink:href="#m93e05f4c86" y="305.314669"/>
     <use style="fill:#ff0000;stroke:#000000;stroke-linejoin:miter;" x="404.331055" xlink:href="#m93e05f4c86" y="305.38337"/>
     <use style="fill:#ff0000;stroke:#000000;stroke-linejoin:miter;" x="408.226909" xlink:href="#m93e05f4c86" y="305.445312"/>
    </g>
   </g>
   <g id="line2d_31">
    <path clip-path="url(#p7759dcbb43)" d="M 57.6 307.584 
L 61.495855 275.650528 
L 65.391709 243.717056 
L 69.287564 211.783584 
L 73.183418 179.850112 
L 77.079273 147.91664 
L 80.975127 115.983168 
L 84.870982 84.049696 
L 88.766836 52.116225 
L 92.662691 74.924458 
L 96.558545 106.172436 
L 100.4544 128.046642 
L 104.350255 144.997373 
L 108.246109 158.83551 
L 112.141964 170.500839 
L 116.037818 180.55929 
L 119.933673 189.37332 
L 123.829527 197.195344 
L 127.725382 204.20394 
L 131.621236 210.537492 
L 135.517091 216.297292 
L 139.412945 221.567711 
L 143.3088 226.412658 
L 147.204655 230.885607 
L 151.100509 235.031732 
L 154.996364 238.886089 
L 158.892218 242.480573 
L 162.788073 245.841648 
L 166.683927 248.990672 
L 170.579782 251.949314 
L 174.475636 254.7327 
L 178.371491 257.355908 
L 182.267345 259.833643 
L 186.1632 262.177177 
L 190.059055 264.395891 
L 193.954909 266.500345 
L 197.850764 268.497313 
L 201.746618 270.395899 
L 205.642473 272.201626 
L 209.538327 273.920831 
L 213.434182 275.559833 
L 217.330036 277.122679 
L 221.225891 278.614365 
L 225.121745 280.040805 
L 229.0176 281.402784 
L 232.913455 282.705076 
L 236.809309 283.951666 
L 240.705164 285.144986 
L 244.601018 286.287748 
L 248.496873 287.382557 
L 252.392727 288.432252 
L 256.288582 289.438661 
L 260.184436 290.40374 
L 264.080291 291.32939 
L 267.976145 292.218518 
L 271.872 293.070784 
L 275.767855 293.888512 
L 279.663709 294.673016 
L 283.559564 295.425551 
L 287.455418 296.147264 
L 291.351273 296.840311 
L 295.247127 297.503469 
L 299.142982 298.138716 
L 303.038836 298.746591 
L 306.934691 299.327684 
L 310.830545 299.883586 
L 314.7264 300.412494 
L 318.622255 300.915659 
L 322.518109 301.393179 
L 326.413964 301.845023 
L 330.309818 302.271048 
L 334.205673 302.671022 
L 338.101527 303.044662 
L 341.997382 303.391726 
L 345.893236 303.712003 
L 349.789091 304.005487 
L 353.684945 304.272459 
L 357.5808 304.512675 
L 361.476655 304.729084 
L 365.372509 304.921267 
L 369.268364 305.091825 
L 373.164218 305.243682 
L 377.060073 305.37698 
L 380.955927 305.494561 
L 384.851782 305.599271 
L 388.747636 305.691054 
L 392.643491 305.77314 
L 396.539345 305.845321 
L 400.4352 305.910327 
L 404.331055 305.967691 
L 408.226909 306.019807 
" style="fill:none;stroke:#000000;stroke-linecap:square;stroke-width:2;"/>
    <defs>
     <path d="M -2.5 2.5 
L 2.5 2.5 
L 2.5 -2.5 
L -2.5 -2.5 
z
" id="ma58e855391" style="stroke:#000000;stroke-linejoin:miter;"/>
    </defs>
    <g clip-path="url(#p7759dcbb43)">
     <use style="fill:#ff0000;stroke:#000000;stroke-linejoin:miter;" x="57.6" xlink:href="#ma58e855391" y="307.584"/>
     <use style="fill:#ff0000;stroke:#000000;stroke-linejoin:miter;" x="61.495855" xlink:href="#ma58e855391" y="275.650528"/>
     <use style="fill:#ff0000;stroke:#000000;stroke-linejoin:miter;" x="65.391709" xlink:href="#ma58e855391" y="243.717056"/>
     <use style="fill:#ff0000;stroke:#000000;stroke-linejoin:miter;" x="69.287564" xlink:href="#ma58e855391" y="211.783584"/>
     <use style="fill:#ff0000;stroke:#000000;stroke-linejoin:miter;" x="73.183418" xlink:href="#ma58e855391" y="179.850112"/>
     <use style="fill:#ff0000;stroke:#000000;stroke-linejoin:miter;" x="77.079273" xlink:href="#ma58e855391" y="147.91664"/>
     <use style="fill:#ff0000;stroke:#000000;stroke-linejoin:miter;" x="80.975127" xlink:href="#ma58e855391" y="115.983168"/>
     <use style="fill:#ff0000;stroke:#000000;stroke-linejoin:miter;" x="84.870982" xlink:href="#ma58e855391" y="84.049696"/>
     <use style="fill:#ff0000;stroke:#000000;stroke-linejoin:miter;" x="88.766836" xlink:href="#ma58e855391" y="52.116225"/>
     <use style="fill:#ff0000;stroke:#000000;stroke-linejoin:miter;" x="92.662691" xlink:href="#ma58e855391" y="74.924458"/>
     <use style="fill:#ff0000;stroke:#000000;stroke-linejoin:miter;" x="96.558545" xlink:href="#ma58e855391" y="106.172436"/>
     <use style="fill:#ff0000;stroke:#000000;stroke-linejoin:miter;" x="100.4544" xlink:href="#ma58e855391" y="128.046642"/>
     <use style="fill:#ff0000;stroke:#000000;stroke-linejoin:miter;" x="104.350255" xlink:href="#ma58e855391" y="144.997373"/>
     <use style="fill:#ff0000;stroke:#000000;stroke-linejoin:miter;" x="108.246109" xlink:href="#ma58e855391" y="158.83551"/>
     <use style="fill:#ff0000;stroke:#000000;stroke-linejoin:miter;" x="112.141964" xlink:href="#ma58e855391" y="170.500839"/>
     <use style="fill:#ff0000;stroke:#000000;stroke-linejoin:miter;" x="116.037818" xlink:href="#ma58e855391" y="180.55929"/>
     <use style="fill:#ff0000;stroke:#000000;stroke-linejoin:miter;" x="119.933673" xlink:href="#ma58e855391" y="189.37332"/>
     <use style="fill:#ff0000;stroke:#000000;stroke-linejoin:miter;" x="123.829527" xlink:href="#ma58e855391" y="197.195344"/>
     <use style="fill:#ff0000;stroke:#000000;stroke-linejoin:miter;" x="127.725382" xlink:href="#ma58e855391" y="204.20394"/>
     <use style="fill:#ff0000;stroke:#000000;stroke-linejoin:miter;" x="131.621236" xlink:href="#ma58e855391" y="210.537492"/>
     <use style="fill:#ff0000;stroke:#000000;stroke-linejoin:miter;" x="135.517091" xlink:href="#ma58e855391" y="216.297292"/>
     <use style="fill:#ff0000;stroke:#000000;stroke-linejoin:miter;" x="139.412945" xlink:href="#ma58e855391" y="221.567711"/>
     <use style="fill:#ff0000;stroke:#000000;stroke-linejoin:miter;" x="143.3088" xlink:href="#ma58e855391" y="226.412658"/>
     <use style="fill:#ff0000;stroke:#000000;stroke-linejoin:miter;" x="147.204655" xlink:href="#ma58e855391" y="230.885607"/>
     <use style="fill:#ff0000;stroke:#000000;stroke-linejoin:miter;" x="151.100509" xlink:href="#ma58e855391" y="235.031732"/>
     <use style="fill:#ff0000;stroke:#000000;stroke-linejoin:miter;" x="154.996364" xlink:href="#ma58e855391" y="238.886089"/>
     <use style="fill:#ff0000;stroke:#000000;stroke-linejoin:miter;" x="158.892218" xlink:href="#ma58e855391" y="242.480573"/>
     <use style="fill:#ff0000;stroke:#000000;stroke-linejoin:miter;" x="162.788073" xlink:href="#ma58e855391" y="245.841648"/>
     <use style="fill:#ff0000;stroke:#000000;stroke-linejoin:miter;" x="166.683927" xlink:href="#ma58e855391" y="248.990672"/>
     <use style="fill:#ff0000;stroke:#000000;stroke-linejoin:miter;" x="170.579782" xlink:href="#ma58e855391" y="251.949314"/>
     <use style="fill:#ff0000;stroke:#000000;stroke-linejoin:miter;" x="174.475636" xlink:href="#ma58e855391" y="254.7327"/>
     <use style="fill:#ff0000;stroke:#000000;stroke-linejoin:miter;" x="178.371491" xlink:href="#ma58e855391" y="257.355908"/>
     <use style="fill:#ff0000;stroke:#000000;stroke-linejoin:miter;" x="182.267345" xlink:href="#ma58e855391" y="259.833643"/>
     <use style="fill:#ff0000;stroke:#000000;stroke-linejoin:miter;" x="186.1632" xlink:href="#ma58e855391" y="262.177177"/>
     <use style="fill:#ff0000;stroke:#000000;stroke-linejoin:miter;" x="190.059055" xlink:href="#ma58e855391" y="264.395891"/>
     <use style="fill:#ff0000;stroke:#000000;stroke-linejoin:miter;" x="193.954909" xlink:href="#ma58e855391" y="266.500345"/>
     <use style="fill:#ff0000;stroke:#000000;stroke-linejoin:miter;" x="197.850764" xlink:href="#ma58e855391" y="268.497313"/>
     <use style="fill:#ff0000;stroke:#000000;stroke-linejoin:miter;" x="201.746618" xlink:href="#ma58e855391" y="270.395899"/>
     <use style="fill:#ff0000;stroke:#000000;stroke-linejoin:miter;" x="205.642473" xlink:href="#ma58e855391" y="272.201626"/>
     <use style="fill:#ff0000;stroke:#000000;stroke-linejoin:miter;" x="209.538327" xlink:href="#ma58e855391" y="273.920831"/>
     <use style="fill:#ff0000;stroke:#000000;stroke-linejoin:miter;" x="213.434182" xlink:href="#ma58e855391" y="275.559833"/>
     <use style="fill:#ff0000;stroke:#000000;stroke-linejoin:miter;" x="217.330036" xlink:href="#ma58e855391" y="277.122679"/>
     <use style="fill:#ff0000;stroke:#000000;stroke-linejoin:miter;" x="221.225891" xlink:href="#ma58e855391" y="278.614365"/>
     <use style="fill:#ff0000;stroke:#000000;stroke-linejoin:miter;" x="225.121745" xlink:href="#ma58e855391" y="280.040805"/>
     <use style="fill:#ff0000;stroke:#000000;stroke-linejoin:miter;" x="229.0176" xlink:href="#ma58e855391" y="281.402784"/>
     <use style="fill:#ff0000;stroke:#000000;stroke-linejoin:miter;" x="232.913455" xlink:href="#ma58e855391" y="282.705076"/>
     <use style="fill:#ff0000;stroke:#000000;stroke-linejoin:miter;" x="236.809309" xlink:href="#ma58e855391" y="283.951666"/>
     <use style="fill:#ff0000;stroke:#000000;stroke-linejoin:miter;" x="240.705164" xlink:href="#ma58e855391" y="285.144986"/>
     <use style="fill:#ff0000;stroke:#000000;stroke-linejoin:miter;" x="244.601018" xlink:href="#ma58e855391" y="286.287748"/>
     <use style="fill:#ff0000;stroke:#000000;stroke-linejoin:miter;" x="248.496873" xlink:href="#ma58e855391" y="287.382557"/>
     <use style="fill:#ff0000;stroke:#000000;stroke-linejoin:miter;" x="252.392727" xlink:href="#ma58e855391" y="288.432252"/>
     <use style="fill:#ff0000;stroke:#000000;stroke-linejoin:miter;" x="256.288582" xlink:href="#ma58e855391" y="289.438661"/>
     <use style="fill:#ff0000;stroke:#000000;stroke-linejoin:miter;" x="260.184436" xlink:href="#ma58e855391" y="290.40374"/>
     <use style="fill:#ff0000;stroke:#000000;stroke-linejoin:miter;" x="264.080291" xlink:href="#ma58e855391" y="291.32939"/>
     <use style="fill:#ff0000;stroke:#000000;stroke-linejoin:miter;" x="267.976145" xlink:href="#ma58e855391" y="292.218518"/>
     <use style="fill:#ff0000;stroke:#000000;stroke-linejoin:miter;" x="271.872" xlink:href="#ma58e855391" y="293.070784"/>
     <use style="fill:#ff0000;stroke:#000000;stroke-linejoin:miter;" x="275.767855" xlink:href="#ma58e855391" y="293.888512"/>
     <use style="fill:#ff0000;stroke:#000000;stroke-linejoin:miter;" x="279.663709" xlink:href="#ma58e855391" y="294.673016"/>
     <use style="fill:#ff0000;stroke:#000000;stroke-linejoin:miter;" x="283.559564" xlink:href="#ma58e855391" y="295.425551"/>
     <use style="fill:#ff0000;stroke:#000000;stroke-linejoin:miter;" x="287.455418" xlink:href="#ma58e855391" y="296.147264"/>
     <use style="fill:#ff0000;stroke:#000000;stroke-linejoin:miter;" x="291.351273" xlink:href="#ma58e855391" y="296.840311"/>
     <use style="fill:#ff0000;stroke:#000000;stroke-linejoin:miter;" x="295.247127" xlink:href="#ma58e855391" y="297.503469"/>
     <use style="fill:#ff0000;stroke:#000000;stroke-linejoin:miter;" x="299.142982" xlink:href="#ma58e855391" y="298.138716"/>
     <use style="fill:#ff0000;stroke:#000000;stroke-linejoin:miter;" x="303.038836" xlink:href="#ma58e855391" y="298.746591"/>
     <use style="fill:#ff0000;stroke:#000000;stroke-linejoin:miter;" x="306.934691" xlink:href="#ma58e855391" y="299.327684"/>
     <use style="fill:#ff0000;stroke:#000000;stroke-linejoin:miter;" x="310.830545" xlink:href="#ma58e855391" y="299.883586"/>
     <use style="fill:#ff0000;stroke:#000000;stroke-linejoin:miter;" x="314.7264" xlink:href="#ma58e855391" y="300.412494"/>
     <use style="fill:#ff0000;stroke:#000000;stroke-linejoin:miter;" x="318.622255" xlink:href="#ma58e855391" y="300.915659"/>
     <use style="fill:#ff0000;stroke:#000000;stroke-linejoin:miter;" x="322.518109" xlink:href="#ma58e855391" y="301.393179"/>
     <use style="fill:#ff0000;stroke:#000000;stroke-linejoin:miter;" x="326.413964" xlink:href="#ma58e855391" y="301.845023"/>
     <use style="fill:#ff0000;stroke:#000000;stroke-linejoin:miter;" x="330.309818" xlink:href="#ma58e855391" y="302.271048"/>
     <use style="fill:#ff0000;stroke:#000000;stroke-linejoin:miter;" x="334.205673" xlink:href="#ma58e855391" y="302.671022"/>
     <use style="fill:#ff0000;stroke:#000000;stroke-linejoin:miter;" x="338.101527" xlink:href="#ma58e855391" y="303.044662"/>
     <use style="fill:#ff0000;stroke:#000000;stroke-linejoin:miter;" x="341.997382" xlink:href="#ma58e855391" y="303.391726"/>
     <use style="fill:#ff0000;stroke:#000000;stroke-linejoin:miter;" x="345.893236" xlink:href="#ma58e855391" y="303.712003"/>
     <use style="fill:#ff0000;stroke:#000000;stroke-linejoin:miter;" x="349.789091" xlink:href="#ma58e855391" y="304.005487"/>
     <use style="fill:#ff0000;stroke:#000000;stroke-linejoin:miter;" x="353.684945" xlink:href="#ma58e855391" y="304.272459"/>
     <use style="fill:#ff0000;stroke:#000000;stroke-linejoin:miter;" x="357.5808" xlink:href="#ma58e855391" y="304.512675"/>
     <use style="fill:#ff0000;stroke:#000000;stroke-linejoin:miter;" x="361.476655" xlink:href="#ma58e855391" y="304.729084"/>
     <use style="fill:#ff0000;stroke:#000000;stroke-linejoin:miter;" x="365.372509" xlink:href="#ma58e855391" y="304.921267"/>
     <use style="fill:#ff0000;stroke:#000000;stroke-linejoin:miter;" x="369.268364" xlink:href="#ma58e855391" y="305.091825"/>
     <use style="fill:#ff0000;stroke:#000000;stroke-linejoin:miter;" x="373.164218" xlink:href="#ma58e855391" y="305.243682"/>
     <use style="fill:#ff0000;stroke:#000000;stroke-linejoin:miter;" x="377.060073" xlink:href="#ma58e855391" y="305.37698"/>
     <use style="fill:#ff0000;stroke:#000000;stroke-linejoin:miter;" x="380.955927" xlink:href="#ma58e855391" y="305.494561"/>
     <use style="fill:#ff0000;stroke:#000000;stroke-linejoin:miter;" x="384.851782" xlink:href="#ma58e855391" y="305.599271"/>
     <use style="fill:#ff0000;stroke:#000000;stroke-linejoin:miter;" x="388.747636" xlink:href="#ma58e855391" y="305.691054"/>
     <use style="fill:#ff0000;stroke:#000000;stroke-linejoin:miter;" x="392.643491" xlink:href="#ma58e855391" y="305.77314"/>
     <use style="fill:#ff0000;stroke:#000000;stroke-linejoin:miter;" x="396.539345" xlink:href="#ma58e855391" y="305.845321"/>
     <use style="fill:#ff0000;stroke:#000000;stroke-linejoin:miter;" x="400.4352" xlink:href="#ma58e855391" y="305.910327"/>
     <use style="fill:#ff0000;stroke:#000000;stroke-linejoin:miter;" x="404.331055" xlink:href="#ma58e855391" y="305.967691"/>
     <use style="fill:#ff0000;stroke:#000000;stroke-linejoin:miter;" x="408.226909" xlink:href="#ma58e855391" y="306.019807"/>
    </g>
   </g>
   <g id="line2d_32">
    <path clip-path="url(#p7759dcbb43)" d="M 57.6 307.584 
L 61.495855 275.650528 
L 65.391709 243.717056 
L 69.287564 211.783584 
L 73.183418 179.850112 
L 77.079273 147.91664 
L 80.975127 115.983168 
L 84.870982 84.049696 
L 88.766836 52.116225 
L 92.662691 74.957261 
L 96.558545 106.19011 
L 100.4544 128.061245 
L 104.350255 145.011018 
L 108.246109 158.845867 
L 112.141964 170.512413 
L 116.037818 180.569849 
L 119.933673 189.384709 
L 123.829527 197.204769 
L 127.725382 204.214539 
L 131.621236 210.546755 
L 135.517091 216.308129 
L 139.412945 221.578856 
L 143.3088 226.42312 
L 147.204655 230.897153 
L 151.100509 235.043318 
L 154.996364 238.898289 
L 158.892218 242.49318 
L 162.788073 245.854376 
L 166.683927 249.004403 
L 170.579782 251.96306 
L 174.475636 254.746072 
L 178.371491 257.370856 
L 182.267345 259.849491 
L 186.1632 262.193562 
L 190.059055 264.413413 
L 193.954909 266.518331 
L 197.850764 268.516644 
L 201.746618 270.415839 
L 205.642473 272.222671 
L 209.538327 273.94326 
L 213.434182 275.58316 
L 217.330036 277.147426 
L 221.225891 278.640722 
L 225.121745 280.068489 
L 229.0176 281.432193 
L 232.913455 282.736547 
L 236.809309 283.984938 
L 240.705164 285.180326 
L 244.601018 286.325455 
L 248.496873 287.423074 
L 252.392727 288.475407 
L 256.288582 289.484794 
L 260.184436 290.453213 
L 264.080291 291.382649 
L 267.976145 292.276006 
L 271.872 293.132705 
L 275.767855 293.955299 
L 279.663709 294.745315 
L 283.559564 295.503999 
L 287.455418 296.233711 
L 291.351273 296.933465 
L 295.247127 297.605262 
L 299.142982 298.250052 
L 303.038836 298.869861 
L 306.934691 299.463271 
L 310.830545 300.031948 
L 314.7264 300.576456 
L 318.622255 301.098478 
L 322.518109 301.596032 
L 326.413964 302.071472 
L 330.309818 302.522762 
L 334.205673 302.950726 
L 338.101527 303.356128 
L 341.997382 303.736314 
L 345.893236 304.091499 
L 349.789091 304.420758 
L 353.684945 304.723087 
L 357.5808 304.997569 
L 361.476655 305.242591 
L 365.372509 305.460325 
L 369.268364 305.649565 
L 373.164218 305.81301 
L 377.060073 305.953049 
L 380.955927 306.072451 
L 384.851782 306.174083 
L 388.747636 306.260676 
L 392.643491 306.334673 
L 396.539345 306.398171 
L 400.4352 306.452916 
L 404.331055 306.501285 
L 408.226909 306.542742 
" style="fill:none;stroke:#000000;stroke-linecap:square;stroke-width:2;"/>
    <defs>
     <path d="M -2.5 2.5 
L 2.5 -2.5 
M -2.5 -2.5 
L 2.5 2.5 
" id="m5842c59753" style="stroke:#000000;"/>
    </defs>
    <g clip-path="url(#p7759dcbb43)">
     <use style="fill:#ff0000;stroke:#000000;" x="57.6" xlink:href="#m5842c59753" y="307.584"/>
     <use style="fill:#ff0000;stroke:#000000;" x="61.495855" xlink:href="#m5842c59753" y="275.650528"/>
     <use style="fill:#ff0000;stroke:#000000;" x="65.391709" xlink:href="#m5842c59753" y="243.717056"/>
     <use style="fill:#ff0000;stroke:#000000;" x="69.287564" xlink:href="#m5842c59753" y="211.783584"/>
     <use style="fill:#ff0000;stroke:#000000;" x="73.183418" xlink:href="#m5842c59753" y="179.850112"/>
     <use style="fill:#ff0000;stroke:#000000;" x="77.079273" xlink:href="#m5842c59753" y="147.91664"/>
     <use style="fill:#ff0000;stroke:#000000;" x="80.975127" xlink:href="#m5842c59753" y="115.983168"/>
     <use style="fill:#ff0000;stroke:#000000;" x="84.870982" xlink:href="#m5842c59753" y="84.049696"/>
     <use style="fill:#ff0000;stroke:#000000;" x="88.766836" xlink:href="#m5842c59753" y="52.116225"/>
     <use style="fill:#ff0000;stroke:#000000;" x="92.662691" xlink:href="#m5842c59753" y="74.957261"/>
     <use style="fill:#ff0000;stroke:#000000;" x="96.558545" xlink:href="#m5842c59753" y="106.19011"/>
     <use style="fill:#ff0000;stroke:#000000;" x="100.4544" xlink:href="#m5842c59753" y="128.061245"/>
     <use style="fill:#ff0000;stroke:#000000;" x="104.350255" xlink:href="#m5842c59753" y="145.011018"/>
     <use style="fill:#ff0000;stroke:#000000;" x="108.246109" xlink:href="#m5842c59753" y="158.845867"/>
     <use style="fill:#ff0000;stroke:#000000;" x="112.141964" xlink:href="#m5842c59753" y="170.512413"/>
     <use style="fill:#ff0000;stroke:#000000;" x="116.037818" xlink:href="#m5842c59753" y="180.569849"/>
     <use style="fill:#ff0000;stroke:#000000;" x="119.933673" xlink:href="#m5842c59753" y="189.384709"/>
     <use style="fill:#ff0000;stroke:#000000;" x="123.829527" xlink:href="#m5842c59753" y="197.204769"/>
     <use style="fill:#ff0000;stroke:#000000;" x="127.725382" xlink:href="#m5842c59753" y="204.214539"/>
     <use style="fill:#ff0000;stroke:#000000;" x="131.621236" xlink:href="#m5842c59753" y="210.546755"/>
     <use style="fill:#ff0000;stroke:#000000;" x="135.517091" xlink:href="#m5842c59753" y="216.308129"/>
     <use style="fill:#ff0000;stroke:#000000;" x="139.412945" xlink:href="#m5842c59753" y="221.578856"/>
     <use style="fill:#ff0000;stroke:#000000;" x="143.3088" xlink:href="#m5842c59753" y="226.42312"/>
     <use style="fill:#ff0000;stroke:#000000;" x="147.204655" xlink:href="#m5842c59753" y="230.897153"/>
     <use style="fill:#ff0000;stroke:#000000;" x="151.100509" xlink:href="#m5842c59753" y="235.043318"/>
     <use style="fill:#ff0000;stroke:#000000;" x="154.996364" xlink:href="#m5842c59753" y="238.898289"/>
     <use style="fill:#ff0000;stroke:#000000;" x="158.892218" xlink:href="#m5842c59753" y="242.49318"/>
     <use style="fill:#ff0000;stroke:#000000;" x="162.788073" xlink:href="#m5842c59753" y="245.854376"/>
     <use style="fill:#ff0000;stroke:#000000;" x="166.683927" xlink:href="#m5842c59753" y="249.004403"/>
     <use style="fill:#ff0000;stroke:#000000;" x="170.579782" xlink:href="#m5842c59753" y="251.96306"/>
     <use style="fill:#ff0000;stroke:#000000;" x="174.475636" xlink:href="#m5842c59753" y="254.746072"/>
     <use style="fill:#ff0000;stroke:#000000;" x="178.371491" xlink:href="#m5842c59753" y="257.370856"/>
     <use style="fill:#ff0000;stroke:#000000;" x="182.267345" xlink:href="#m5842c59753" y="259.849491"/>
     <use style="fill:#ff0000;stroke:#000000;" x="186.1632" xlink:href="#m5842c59753" y="262.193562"/>
     <use style="fill:#ff0000;stroke:#000000;" x="190.059055" xlink:href="#m5842c59753" y="264.413413"/>
     <use style="fill:#ff0000;stroke:#000000;" x="193.954909" xlink:href="#m5842c59753" y="266.518331"/>
     <use style="fill:#ff0000;stroke:#000000;" x="197.850764" xlink:href="#m5842c59753" y="268.516644"/>
     <use style="fill:#ff0000;stroke:#000000;" x="201.746618" xlink:href="#m5842c59753" y="270.415839"/>
     <use style="fill:#ff0000;stroke:#000000;" x="205.642473" xlink:href="#m5842c59753" y="272.222671"/>
     <use style="fill:#ff0000;stroke:#000000;" x="209.538327" xlink:href="#m5842c59753" y="273.94326"/>
     <use style="fill:#ff0000;stroke:#000000;" x="213.434182" xlink:href="#m5842c59753" y="275.58316"/>
     <use style="fill:#ff0000;stroke:#000000;" x="217.330036" xlink:href="#m5842c59753" y="277.147426"/>
     <use style="fill:#ff0000;stroke:#000000;" x="221.225891" xlink:href="#m5842c59753" y="278.640722"/>
     <use style="fill:#ff0000;stroke:#000000;" x="225.121745" xlink:href="#m5842c59753" y="280.068489"/>
     <use style="fill:#ff0000;stroke:#000000;" x="229.0176" xlink:href="#m5842c59753" y="281.432193"/>
     <use style="fill:#ff0000;stroke:#000000;" x="232.913455" xlink:href="#m5842c59753" y="282.736547"/>
     <use style="fill:#ff0000;stroke:#000000;" x="236.809309" xlink:href="#m5842c59753" y="283.984938"/>
     <use style="fill:#ff0000;stroke:#000000;" x="240.705164" xlink:href="#m5842c59753" y="285.180326"/>
     <use style="fill:#ff0000;stroke:#000000;" x="244.601018" xlink:href="#m5842c59753" y="286.325455"/>
     <use style="fill:#ff0000;stroke:#000000;" x="248.496873" xlink:href="#m5842c59753" y="287.423074"/>
     <use style="fill:#ff0000;stroke:#000000;" x="252.392727" xlink:href="#m5842c59753" y="288.475407"/>
     <use style="fill:#ff0000;stroke:#000000;" x="256.288582" xlink:href="#m5842c59753" y="289.484794"/>
     <use style="fill:#ff0000;stroke:#000000;" x="260.184436" xlink:href="#m5842c59753" y="290.453213"/>
     <use style="fill:#ff0000;stroke:#000000;" x="264.080291" xlink:href="#m5842c59753" y="291.382649"/>
     <use style="fill:#ff0000;stroke:#000000;" x="267.976145" xlink:href="#m5842c59753" y="292.276006"/>
     <use style="fill:#ff0000;stroke:#000000;" x="271.872" xlink:href="#m5842c59753" y="293.132705"/>
     <use style="fill:#ff0000;stroke:#000000;" x="275.767855" xlink:href="#m5842c59753" y="293.955299"/>
     <use style="fill:#ff0000;stroke:#000000;" x="279.663709" xlink:href="#m5842c59753" y="294.745315"/>
     <use style="fill:#ff0000;stroke:#000000;" x="283.559564" xlink:href="#m5842c59753" y="295.503999"/>
     <use style="fill:#ff0000;stroke:#000000;" x="287.455418" xlink:href="#m5842c59753" y="296.233711"/>
     <use style="fill:#ff0000;stroke:#000000;" x="291.351273" xlink:href="#m5842c59753" y="296.933465"/>
     <use style="fill:#ff0000;stroke:#000000;" x="295.247127" xlink:href="#m5842c59753" y="297.605262"/>
     <use style="fill:#ff0000;stroke:#000000;" x="299.142982" xlink:href="#m5842c59753" y="298.250052"/>
     <use style="fill:#ff0000;stroke:#000000;" x="303.038836" xlink:href="#m5842c59753" y="298.869861"/>
     <use style="fill:#ff0000;stroke:#000000;" x="306.934691" xlink:href="#m5842c59753" y="299.463271"/>
     <use style="fill:#ff0000;stroke:#000000;" x="310.830545" xlink:href="#m5842c59753" y="300.031948"/>
     <use style="fill:#ff0000;stroke:#000000;" x="314.7264" xlink:href="#m5842c59753" y="300.576456"/>
     <use style="fill:#ff0000;stroke:#000000;" x="318.622255" xlink:href="#m5842c59753" y="301.098478"/>
     <use style="fill:#ff0000;stroke:#000000;" x="322.518109" xlink:href="#m5842c59753" y="301.596032"/>
     <use style="fill:#ff0000;stroke:#000000;" x="326.413964" xlink:href="#m5842c59753" y="302.071472"/>
     <use style="fill:#ff0000;stroke:#000000;" x="330.309818" xlink:href="#m5842c59753" y="302.522762"/>
     <use style="fill:#ff0000;stroke:#000000;" x="334.205673" xlink:href="#m5842c59753" y="302.950726"/>
     <use style="fill:#ff0000;stroke:#000000;" x="338.101527" xlink:href="#m5842c59753" y="303.356128"/>
     <use style="fill:#ff0000;stroke:#000000;" x="341.997382" xlink:href="#m5842c59753" y="303.736314"/>
     <use style="fill:#ff0000;stroke:#000000;" x="345.893236" xlink:href="#m5842c59753" y="304.091499"/>
     <use style="fill:#ff0000;stroke:#000000;" x="349.789091" xlink:href="#m5842c59753" y="304.420758"/>
     <use style="fill:#ff0000;stroke:#000000;" x="353.684945" xlink:href="#m5842c59753" y="304.723087"/>
     <use style="fill:#ff0000;stroke:#000000;" x="357.5808" xlink:href="#m5842c59753" y="304.997569"/>
     <use style="fill:#ff0000;stroke:#000000;" x="361.476655" xlink:href="#m5842c59753" y="305.242591"/>
     <use style="fill:#ff0000;stroke:#000000;" x="365.372509" xlink:href="#m5842c59753" y="305.460325"/>
     <use style="fill:#ff0000;stroke:#000000;" x="369.268364" xlink:href="#m5842c59753" y="305.649565"/>
     <use style="fill:#ff0000;stroke:#000000;" x="373.164218" xlink:href="#m5842c59753" y="305.81301"/>
     <use style="fill:#ff0000;stroke:#000000;" x="377.060073" xlink:href="#m5842c59753" y="305.953049"/>
     <use style="fill:#ff0000;stroke:#000000;" x="380.955927" xlink:href="#m5842c59753" y="306.072451"/>
     <use style="fill:#ff0000;stroke:#000000;" x="384.851782" xlink:href="#m5842c59753" y="306.174083"/>
     <use style="fill:#ff0000;stroke:#000000;" x="388.747636" xlink:href="#m5842c59753" y="306.260676"/>
     <use style="fill:#ff0000;stroke:#000000;" x="392.643491" xlink:href="#m5842c59753" y="306.334673"/>
     <use style="fill:#ff0000;stroke:#000000;" x="396.539345" xlink:href="#m5842c59753" y="306.398171"/>
     <use style="fill:#ff0000;stroke:#000000;" x="400.4352" xlink:href="#m5842c59753" y="306.452916"/>
     <use style="fill:#ff0000;stroke:#000000;" x="404.331055" xlink:href="#m5842c59753" y="306.501285"/>
     <use style="fill:#ff0000;stroke:#000000;" x="408.226909" xlink:href="#m5842c59753" y="306.542742"/>
    </g>
   </g>
   <g id="patch_3">
    <path d="M 57.6 307.584 
L 57.6 41.472 
" style="fill:none;stroke:#000000;stroke-linecap:square;stroke-linejoin:miter;stroke-width:0.8;"/>
   </g>
   <g id="patch_4">
    <path d="M 414.72 307.584 
L 414.72 41.472 
" style="fill:none;stroke:#000000;stroke-linecap:square;stroke-linejoin:miter;stroke-width:0.8;"/>
   </g>
   <g id="patch_5">
    <path d="M 57.6 307.584 
L 414.72 307.584 
" style="fill:none;stroke:#000000;stroke-linecap:square;stroke-linejoin:miter;stroke-width:0.8;"/>
   </g>
   <g id="patch_6">
    <path d="M 57.6 41.472 
L 414.72 41.472 
" style="fill:none;stroke:#000000;stroke-linecap:square;stroke-linejoin:miter;stroke-width:0.8;"/>
   </g>
   <g id="text_17">
    <!-- b/h = 20 -->
    <defs>
     <path d="M 48.6875 27.296875 
Q 48.6875 37.203125 44.609375 42.84375 
Q 40.53125 48.484375 33.40625 48.484375 
Q 26.265625 48.484375 22.1875 42.84375 
Q 18.109375 37.203125 18.109375 27.296875 
Q 18.109375 17.390625 22.1875 11.75 
Q 26.265625 6.109375 33.40625 6.109375 
Q 40.53125 6.109375 44.609375 11.75 
Q 48.6875 17.390625 48.6875 27.296875 
z
M 18.109375 46.390625 
Q 20.953125 51.265625 25.265625 53.625 
Q 29.59375 56 35.59375 56 
Q 45.5625 56 51.78125 48.09375 
Q 58.015625 40.1875 58.015625 27.296875 
Q 58.015625 14.40625 51.78125 6.484375 
Q 45.5625 -1.421875 35.59375 -1.421875 
Q 29.59375 -1.421875 25.265625 0.953125 
Q 20.953125 3.328125 18.109375 8.203125 
L 18.109375 0 
L 9.078125 0 
L 9.078125 75.984375 
L 18.109375 75.984375 
z
" id="DejaVuSans-98"/>
     <path d="M 25.390625 72.90625 
L 33.6875 72.90625 
L 8.296875 -9.28125 
L 0 -9.28125 
z
" id="DejaVuSans-47"/>
     <path d="M 54.890625 33.015625 
L 54.890625 0 
L 45.90625 0 
L 45.90625 32.71875 
Q 45.90625 40.484375 42.875 44.328125 
Q 39.84375 48.1875 33.796875 48.1875 
Q 26.515625 48.1875 22.3125 43.546875 
Q 18.109375 38.921875 18.109375 30.90625 
L 18.109375 0 
L 9.078125 0 
L 9.078125 75.984375 
L 18.109375 75.984375 
L 18.109375 46.1875 
Q 21.34375 51.125 25.703125 53.5625 
Q 30.078125 56 35.796875 56 
Q 45.21875 56 50.046875 50.171875 
Q 54.890625 44.34375 54.890625 33.015625 
z
" id="DejaVuSans-104"/>
     <path d="M 10.59375 45.40625 
L 73.1875 45.40625 
L 73.1875 37.203125 
L 10.59375 37.203125 
z
M 10.59375 25.484375 
L 73.1875 25.484375 
L 73.1875 17.1875 
L 10.59375 17.1875 
z
" id="DejaVuSans-61"/>
    </defs>
    <g transform="translate(210.050625 35.472)scale(0.12 -0.12)">
     <use xlink:href="#DejaVuSans-98"/>
     <use x="63.476562" xlink:href="#DejaVuSans-47"/>
     <use x="97.167969" xlink:href="#DejaVuSans-104"/>
     <use x="160.546875" xlink:href="#DejaVuSans-32"/>
     <use x="192.333984" xlink:href="#DejaVuSans-61"/>
     <use x="276.123047" xlink:href="#DejaVuSans-32"/>
     <use x="307.910156" xlink:href="#DejaVuSans-50"/>
     <use x="371.533203" xlink:href="#DejaVuSans-48"/>
    </g>
   </g>
   <g id="legend_1">
    <g id="patch_7">
     <path d="M 333.287188 109.297 
L 407.72 109.297 
Q 409.72 109.297 409.72 107.297 
L 409.72 48.472 
Q 409.72 46.472 407.72 46.472 
L 333.287188 46.472 
Q 331.287188 46.472 331.287188 48.472 
L 331.287188 107.297 
Q 331.287188 109.297 333.287188 109.297 
z
" style="fill:#ffffff;opacity:0.8;stroke:#cccccc;stroke-linejoin:miter;"/>
    </g>
    <g id="line2d_33">
     <path d="M 335.287188 54.570437 
L 355.287188 54.570437 
" style="fill:none;stroke:#000000;stroke-linecap:square;stroke-width:2;"/>
    </g>
    <g id="line2d_34">
     <g>
      <use style="fill:#ff0000;stroke:#000000;" x="345.287188" xlink:href="#m7dade45064" y="54.570437"/>
     </g>
    </g>
    <g id="text_18">
     <!-- C_20_5 -->
     <defs>
      <path d="M 64.40625 67.28125 
L 64.40625 56.890625 
Q 59.421875 61.53125 53.78125 63.8125 
Q 48.140625 66.109375 41.796875 66.109375 
Q 29.296875 66.109375 22.65625 58.46875 
Q 16.015625 50.828125 16.015625 36.375 
Q 16.015625 21.96875 22.65625 14.328125 
Q 29.296875 6.6875 41.796875 6.6875 
Q 48.140625 6.6875 53.78125 8.984375 
Q 59.421875 11.28125 64.40625 15.921875 
L 64.40625 5.609375 
Q 59.234375 2.09375 53.4375 0.328125 
Q 47.65625 -1.421875 41.21875 -1.421875 
Q 24.65625 -1.421875 15.125 8.703125 
Q 5.609375 18.84375 5.609375 36.375 
Q 5.609375 53.953125 15.125 64.078125 
Q 24.65625 74.21875 41.21875 74.21875 
Q 47.75 74.21875 53.53125 72.484375 
Q 59.328125 70.75 64.40625 67.28125 
z
" id="DejaVuSans-67"/>
      <path d="M 50.984375 -16.609375 
L 50.984375 -23.578125 
L -0.984375 -23.578125 
L -0.984375 -16.609375 
z
" id="DejaVuSans-95"/>
     </defs>
     <g transform="translate(363.287188 58.070437)scale(0.1 -0.1)">
      <use xlink:href="#DejaVuSans-67"/>
      <use x="69.824219" xlink:href="#DejaVuSans-95"/>
      <use x="119.824219" xlink:href="#DejaVuSans-50"/>
      <use x="183.447266" xlink:href="#DejaVuSans-48"/>
      <use x="247.070312" xlink:href="#DejaVuSans-95"/>
      <use x="297.070312" xlink:href="#DejaVuSans-53"/>
     </g>
    </g>
    <g id="line2d_35">
     <path d="M 335.287188 69.526687 
L 355.287188 69.526687 
" style="fill:none;stroke:#000000;stroke-linecap:square;stroke-width:2;"/>
    </g>
    <g id="line2d_36">
     <g>
      <use style="fill:#ff0000;stroke:#000000;stroke-linejoin:miter;" x="345.287188" xlink:href="#m93e05f4c86" y="69.526687"/>
     </g>
    </g>
    <g id="text_19">
     <!-- C_20_10 -->
     <g transform="translate(363.287188 73.026687)scale(0.1 -0.1)">
      <use xlink:href="#DejaVuSans-67"/>
      <use x="69.824219" xlink:href="#DejaVuSans-95"/>
      <use x="119.824219" xlink:href="#DejaVuSans-50"/>
      <use x="183.447266" xlink:href="#DejaVuSans-48"/>
      <use x="247.070312" xlink:href="#DejaVuSans-95"/>
      <use x="297.070312" xlink:href="#DejaVuSans-49"/>
      <use x="360.693359" xlink:href="#DejaVuSans-48"/>
     </g>
    </g>
    <g id="line2d_37">
     <path d="M 335.287188 84.482937 
L 355.287188 84.482937 
" style="fill:none;stroke:#000000;stroke-linecap:square;stroke-width:2;"/>
    </g>
    <g id="line2d_38">
     <g>
      <use style="fill:#ff0000;stroke:#000000;stroke-linejoin:miter;" x="345.287188" xlink:href="#ma58e855391" y="84.482937"/>
     </g>
    </g>
    <g id="text_20">
     <!-- C_20_20 -->
     <g transform="translate(363.287188 87.982937)scale(0.1 -0.1)">
      <use xlink:href="#DejaVuSans-67"/>
      <use x="69.824219" xlink:href="#DejaVuSans-95"/>
      <use x="119.824219" xlink:href="#DejaVuSans-50"/>
      <use x="183.447266" xlink:href="#DejaVuSans-48"/>
      <use x="247.070312" xlink:href="#DejaVuSans-95"/>
      <use x="297.070312" xlink:href="#DejaVuSans-50"/>
      <use x="360.693359" xlink:href="#DejaVuSans-48"/>
     </g>
    </g>
    <g id="line2d_39">
     <path d="M 335.287188 99.439187 
L 355.287188 99.439187 
" style="fill:none;stroke:#000000;stroke-linecap:square;stroke-width:2;"/>
    </g>
    <g id="line2d_40">
     <g>
      <use style="fill:#ff0000;stroke:#000000;" x="345.287188" xlink:href="#m5842c59753" y="99.439187"/>
     </g>
    </g>
    <g id="text_21">
     <!-- C_20_50 -->
     <g transform="translate(363.287188 102.939187)scale(0.1 -0.1)">
      <use xlink:href="#DejaVuSans-67"/>
      <use x="69.824219" xlink:href="#DejaVuSans-95"/>
      <use x="119.824219" xlink:href="#DejaVuSans-50"/>
      <use x="183.447266" xlink:href="#DejaVuSans-48"/>
      <use x="247.070312" xlink:href="#DejaVuSans-95"/>
      <use x="297.070312" xlink:href="#DejaVuSans-53"/>
      <use x="360.693359" xlink:href="#DejaVuSans-48"/>
     </g>
    </g>
   </g>
  </g>
 </g>
 <defs>
  <clipPath id="p7759dcbb43">
   <rect height="266.112" width="357.12" x="57.6" y="41.472"/>
  </clipPath>
 </defs>
</svg>
