<?xml version="1.0" encoding="utf-8" standalone="no"?>
<!DOCTYPE svg PUBLIC "-//W3C//DTD SVG 1.1//EN"
  "http://www.w3.org/Graphics/SVG/1.1/DTD/svg11.dtd">
<!-- Created with matplotlib (https://matplotlib.org/) -->
<svg height="345.6pt" version="1.1" viewBox="0 0 460.8 345.6" width="460.8pt" xmlns="http://www.w3.org/2000/svg" xmlns:xlink="http://www.w3.org/1999/xlink">
 <defs>
  <style type="text/css">
*{stroke-linecap:butt;stroke-linejoin:round;}
  </style>
 </defs>
 <g id="figure_1">
  <g id="patch_1">
   <path d="M 0 345.6 
L 460.8 345.6 
L 460.8 0 
L 0 0 
z
" style="fill:#ffffff;"/>
  </g>
  <g id="axes_1">
   <g id="patch_2">
    <path d="M 57.6 307.584 
L 414.72 307.584 
L 414.72 41.472 
L 57.6 41.472 
z
" style="fill:#ffffff;"/>
   </g>
   <g id="matplotlib.axis_1">
    <g id="xtick_1">
     <g id="line2d_1">
      <path clip-path="url(#p35c6fc10e4)" d="M 57.6 307.584 
L 57.6 41.472 
" style="fill:none;stroke:#b0b0b0;stroke-linecap:square;stroke-width:0.8;"/>
     </g>
     <g id="line2d_2">
      <defs>
       <path d="M 0 0 
L 0 3.5 
" id="m9d618be9b7" style="stroke:#000000;stroke-width:0.8;"/>
      </defs>
      <g>
       <use style="stroke:#000000;stroke-width:0.8;" x="57.6" xlink:href="#m9d618be9b7" y="307.584"/>
      </g>
     </g>
     <g id="text_1">
      <!-- 0.00 -->
      <defs>
       <path d="M 31.78125 66.40625 
Q 24.171875 66.40625 20.328125 58.90625 
Q 16.5 51.421875 16.5 36.375 
Q 16.5 21.390625 20.328125 13.890625 
Q 24.171875 6.390625 31.78125 6.390625 
Q 39.453125 6.390625 43.28125 13.890625 
Q 47.125 21.390625 47.125 36.375 
Q 47.125 51.421875 43.28125 58.90625 
Q 39.453125 66.40625 31.78125 66.40625 
z
M 31.78125 74.21875 
Q 44.046875 74.21875 50.515625 64.515625 
Q 56.984375 54.828125 56.984375 36.375 
Q 56.984375 17.96875 50.515625 8.265625 
Q 44.046875 -1.421875 31.78125 -1.421875 
Q 19.53125 -1.421875 13.0625 8.265625 
Q 6.59375 17.96875 6.59375 36.375 
Q 6.59375 54.828125 13.0625 64.515625 
Q 19.53125 74.21875 31.78125 74.21875 
z
" id="DejaVuSans-48"/>
       <path d="M 10.6875 12.40625 
L 21 12.40625 
L 21 0 
L 10.6875 0 
z
" id="DejaVuSans-46"/>
      </defs>
      <g transform="translate(46.467188 322.182437)scale(0.1 -0.1)">
       <use xlink:href="#DejaVuSans-48"/>
       <use x="63.623047" xlink:href="#DejaVuSans-46"/>
       <use x="95.410156" xlink:href="#DejaVuSans-48"/>
       <use x="159.033203" xlink:href="#DejaVuSans-48"/>
      </g>
     </g>
    </g>
    <g id="xtick_2">
     <g id="line2d_3">
      <path clip-path="url(#p35c6fc10e4)" d="M 116.628099 307.584 
L 116.628099 41.472 
" style="fill:none;stroke:#b0b0b0;stroke-linecap:square;stroke-width:0.8;"/>
     </g>
     <g id="line2d_4">
      <g>
       <use style="stroke:#000000;stroke-width:0.8;" x="116.628099" xlink:href="#m9d618be9b7" y="307.584"/>
      </g>
     </g>
     <g id="text_2">
      <!-- 0.02 -->
      <defs>
       <path d="M 19.1875 8.296875 
L 53.609375 8.296875 
L 53.609375 0 
L 7.328125 0 
L 7.328125 8.296875 
Q 12.9375 14.109375 22.625 23.890625 
Q 32.328125 33.6875 34.8125 36.53125 
Q 39.546875 41.84375 41.421875 45.53125 
Q 43.3125 49.21875 43.3125 52.78125 
Q 43.3125 58.59375 39.234375 62.25 
Q 35.15625 65.921875 28.609375 65.921875 
Q 23.96875 65.921875 18.8125 64.3125 
Q 13.671875 62.703125 7.8125 59.421875 
L 7.8125 69.390625 
Q 13.765625 71.78125 18.9375 73 
Q 24.125 74.21875 28.421875 74.21875 
Q 39.75 74.21875 46.484375 68.546875 
Q 53.21875 62.890625 53.21875 53.421875 
Q 53.21875 48.921875 51.53125 44.890625 
Q 49.859375 40.875 45.40625 35.40625 
Q 44.1875 33.984375 37.640625 27.21875 
Q 31.109375 20.453125 19.1875 8.296875 
z
" id="DejaVuSans-50"/>
      </defs>
      <g transform="translate(105.495287 322.182437)scale(0.1 -0.1)">
       <use xlink:href="#DejaVuSans-48"/>
       <use x="63.623047" xlink:href="#DejaVuSans-46"/>
       <use x="95.410156" xlink:href="#DejaVuSans-48"/>
       <use x="159.033203" xlink:href="#DejaVuSans-50"/>
      </g>
     </g>
    </g>
    <g id="xtick_3">
     <g id="line2d_5">
      <path clip-path="url(#p35c6fc10e4)" d="M 175.656198 307.584 
L 175.656198 41.472 
" style="fill:none;stroke:#b0b0b0;stroke-linecap:square;stroke-width:0.8;"/>
     </g>
     <g id="line2d_6">
      <g>
       <use style="stroke:#000000;stroke-width:0.8;" x="175.656198" xlink:href="#m9d618be9b7" y="307.584"/>
      </g>
     </g>
     <g id="text_3">
      <!-- 0.04 -->
      <defs>
       <path d="M 37.796875 64.3125 
L 12.890625 25.390625 
L 37.796875 25.390625 
z
M 35.203125 72.90625 
L 47.609375 72.90625 
L 47.609375 25.390625 
L 58.015625 25.390625 
L 58.015625 17.1875 
L 47.609375 17.1875 
L 47.609375 0 
L 37.796875 0 
L 37.796875 17.1875 
L 4.890625 17.1875 
L 4.890625 26.703125 
z
" id="DejaVuSans-52"/>
      </defs>
      <g transform="translate(164.523386 322.182437)scale(0.1 -0.1)">
       <use xlink:href="#DejaVuSans-48"/>
       <use x="63.623047" xlink:href="#DejaVuSans-46"/>
       <use x="95.410156" xlink:href="#DejaVuSans-48"/>
       <use x="159.033203" xlink:href="#DejaVuSans-52"/>
      </g>
     </g>
    </g>
    <g id="xtick_4">
     <g id="line2d_7">
      <path clip-path="url(#p35c6fc10e4)" d="M 234.684298 307.584 
L 234.684298 41.472 
" style="fill:none;stroke:#b0b0b0;stroke-linecap:square;stroke-width:0.8;"/>
     </g>
     <g id="line2d_8">
      <g>
       <use style="stroke:#000000;stroke-width:0.8;" x="234.684298" xlink:href="#m9d618be9b7" y="307.584"/>
      </g>
     </g>
     <g id="text_4">
      <!-- 0.06 -->
      <defs>
       <path d="M 33.015625 40.375 
Q 26.375 40.375 22.484375 35.828125 
Q 18.609375 31.296875 18.609375 23.390625 
Q 18.609375 15.53125 22.484375 10.953125 
Q 26.375 6.390625 33.015625 6.390625 
Q 39.65625 6.390625 43.53125 10.953125 
Q 47.40625 15.53125 47.40625 23.390625 
Q 47.40625 31.296875 43.53125 35.828125 
Q 39.65625 40.375 33.015625 40.375 
z
M 52.59375 71.296875 
L 52.59375 62.3125 
Q 48.875 64.0625 45.09375 64.984375 
Q 41.3125 65.921875 37.59375 65.921875 
Q 27.828125 65.921875 22.671875 59.328125 
Q 17.53125 52.734375 16.796875 39.40625 
Q 19.671875 43.65625 24.015625 45.921875 
Q 28.375 48.1875 33.59375 48.1875 
Q 44.578125 48.1875 50.953125 41.515625 
Q 57.328125 34.859375 57.328125 23.390625 
Q 57.328125 12.15625 50.6875 5.359375 
Q 44.046875 -1.421875 33.015625 -1.421875 
Q 20.359375 -1.421875 13.671875 8.265625 
Q 6.984375 17.96875 6.984375 36.375 
Q 6.984375 53.65625 15.1875 63.9375 
Q 23.390625 74.21875 37.203125 74.21875 
Q 40.921875 74.21875 44.703125 73.484375 
Q 48.484375 72.75 52.59375 71.296875 
z
" id="DejaVuSans-54"/>
      </defs>
      <g transform="translate(223.551485 322.182437)scale(0.1 -0.1)">
       <use xlink:href="#DejaVuSans-48"/>
       <use x="63.623047" xlink:href="#DejaVuSans-46"/>
       <use x="95.410156" xlink:href="#DejaVuSans-48"/>
       <use x="159.033203" xlink:href="#DejaVuSans-54"/>
      </g>
     </g>
    </g>
    <g id="xtick_5">
     <g id="line2d_9">
      <path clip-path="url(#p35c6fc10e4)" d="M 293.712397 307.584 
L 293.712397 41.472 
" style="fill:none;stroke:#b0b0b0;stroke-linecap:square;stroke-width:0.8;"/>
     </g>
     <g id="line2d_10">
      <g>
       <use style="stroke:#000000;stroke-width:0.8;" x="293.712397" xlink:href="#m9d618be9b7" y="307.584"/>
      </g>
     </g>
     <g id="text_5">
      <!-- 0.08 -->
      <defs>
       <path d="M 31.78125 34.625 
Q 24.75 34.625 20.71875 30.859375 
Q 16.703125 27.09375 16.703125 20.515625 
Q 16.703125 13.921875 20.71875 10.15625 
Q 24.75 6.390625 31.78125 6.390625 
Q 38.8125 6.390625 42.859375 10.171875 
Q 46.921875 13.96875 46.921875 20.515625 
Q 46.921875 27.09375 42.890625 30.859375 
Q 38.875 34.625 31.78125 34.625 
z
M 21.921875 38.8125 
Q 15.578125 40.375 12.03125 44.71875 
Q 8.5 49.078125 8.5 55.328125 
Q 8.5 64.0625 14.71875 69.140625 
Q 20.953125 74.21875 31.78125 74.21875 
Q 42.671875 74.21875 48.875 69.140625 
Q 55.078125 64.0625 55.078125 55.328125 
Q 55.078125 49.078125 51.53125 44.71875 
Q 48 40.375 41.703125 38.8125 
Q 48.828125 37.15625 52.796875 32.3125 
Q 56.78125 27.484375 56.78125 20.515625 
Q 56.78125 9.90625 50.3125 4.234375 
Q 43.84375 -1.421875 31.78125 -1.421875 
Q 19.734375 -1.421875 13.25 4.234375 
Q 6.78125 9.90625 6.78125 20.515625 
Q 6.78125 27.484375 10.78125 32.3125 
Q 14.796875 37.15625 21.921875 38.8125 
z
M 18.3125 54.390625 
Q 18.3125 48.734375 21.84375 45.5625 
Q 25.390625 42.390625 31.78125 42.390625 
Q 38.140625 42.390625 41.71875 45.5625 
Q 45.3125 48.734375 45.3125 54.390625 
Q 45.3125 60.0625 41.71875 63.234375 
Q 38.140625 66.40625 31.78125 66.40625 
Q 25.390625 66.40625 21.84375 63.234375 
Q 18.3125 60.0625 18.3125 54.390625 
z
" id="DejaVuSans-56"/>
      </defs>
      <g transform="translate(282.579584 322.182437)scale(0.1 -0.1)">
       <use xlink:href="#DejaVuSans-48"/>
       <use x="63.623047" xlink:href="#DejaVuSans-46"/>
       <use x="95.410156" xlink:href="#DejaVuSans-48"/>
       <use x="159.033203" xlink:href="#DejaVuSans-56"/>
      </g>
     </g>
    </g>
    <g id="xtick_6">
     <g id="line2d_11">
      <path clip-path="url(#p35c6fc10e4)" d="M 352.740496 307.584 
L 352.740496 41.472 
" style="fill:none;stroke:#b0b0b0;stroke-linecap:square;stroke-width:0.8;"/>
     </g>
     <g id="line2d_12">
      <g>
       <use style="stroke:#000000;stroke-width:0.8;" x="352.740496" xlink:href="#m9d618be9b7" y="307.584"/>
      </g>
     </g>
     <g id="text_6">
      <!-- 0.10 -->
      <defs>
       <path d="M 12.40625 8.296875 
L 28.515625 8.296875 
L 28.515625 63.921875 
L 10.984375 60.40625 
L 10.984375 69.390625 
L 28.421875 72.90625 
L 38.28125 72.90625 
L 38.28125 8.296875 
L 54.390625 8.296875 
L 54.390625 0 
L 12.40625 0 
z
" id="DejaVuSans-49"/>
      </defs>
      <g transform="translate(341.607683 322.182437)scale(0.1 -0.1)">
       <use xlink:href="#DejaVuSans-48"/>
       <use x="63.623047" xlink:href="#DejaVuSans-46"/>
       <use x="95.410156" xlink:href="#DejaVuSans-49"/>
       <use x="159.033203" xlink:href="#DejaVuSans-48"/>
      </g>
     </g>
    </g>
    <g id="xtick_7">
     <g id="line2d_13">
      <path clip-path="url(#p35c6fc10e4)" d="M 411.768595 307.584 
L 411.768595 41.472 
" style="fill:none;stroke:#b0b0b0;stroke-linecap:square;stroke-width:0.8;"/>
     </g>
     <g id="line2d_14">
      <g>
       <use style="stroke:#000000;stroke-width:0.8;" x="411.768595" xlink:href="#m9d618be9b7" y="307.584"/>
      </g>
     </g>
     <g id="text_7">
      <!-- 0.12 -->
      <g transform="translate(400.635783 322.182437)scale(0.1 -0.1)">
       <use xlink:href="#DejaVuSans-48"/>
       <use x="63.623047" xlink:href="#DejaVuSans-46"/>
       <use x="95.410156" xlink:href="#DejaVuSans-49"/>
       <use x="159.033203" xlink:href="#DejaVuSans-50"/>
      </g>
     </g>
    </g>
    <g id="text_8">
     <!-- Displacement (mm) -->
     <defs>
      <path d="M 19.671875 64.796875 
L 19.671875 8.109375 
L 31.59375 8.109375 
Q 46.6875 8.109375 53.6875 14.9375 
Q 60.6875 21.78125 60.6875 36.53125 
Q 60.6875 51.171875 53.6875 57.984375 
Q 46.6875 64.796875 31.59375 64.796875 
z
M 9.8125 72.90625 
L 30.078125 72.90625 
Q 51.265625 72.90625 61.171875 64.09375 
Q 71.09375 55.28125 71.09375 36.53125 
Q 71.09375 17.671875 61.125 8.828125 
Q 51.171875 0 30.078125 0 
L 9.8125 0 
z
" id="DejaVuSans-68"/>
      <path d="M 9.421875 54.6875 
L 18.40625 54.6875 
L 18.40625 0 
L 9.421875 0 
z
M 9.421875 75.984375 
L 18.40625 75.984375 
L 18.40625 64.59375 
L 9.421875 64.59375 
z
" id="DejaVuSans-105"/>
      <path d="M 44.28125 53.078125 
L 44.28125 44.578125 
Q 40.484375 46.53125 36.375 47.5 
Q 32.28125 48.484375 27.875 48.484375 
Q 21.1875 48.484375 17.84375 46.4375 
Q 14.5 44.390625 14.5 40.28125 
Q 14.5 37.15625 16.890625 35.375 
Q 19.28125 33.59375 26.515625 31.984375 
L 29.59375 31.296875 
Q 39.15625 29.25 43.1875 25.515625 
Q 47.21875 21.78125 47.21875 15.09375 
Q 47.21875 7.46875 41.1875 3.015625 
Q 35.15625 -1.421875 24.609375 -1.421875 
Q 20.21875 -1.421875 15.453125 -0.5625 
Q 10.6875 0.296875 5.421875 2 
L 5.421875 11.28125 
Q 10.40625 8.6875 15.234375 7.390625 
Q 20.0625 6.109375 24.8125 6.109375 
Q 31.15625 6.109375 34.5625 8.28125 
Q 37.984375 10.453125 37.984375 14.40625 
Q 37.984375 18.0625 35.515625 20.015625 
Q 33.0625 21.96875 24.703125 23.78125 
L 21.578125 24.515625 
Q 13.234375 26.265625 9.515625 29.90625 
Q 5.8125 33.546875 5.8125 39.890625 
Q 5.8125 47.609375 11.28125 51.796875 
Q 16.75 56 26.8125 56 
Q 31.78125 56 36.171875 55.265625 
Q 40.578125 54.546875 44.28125 53.078125 
z
" id="DejaVuSans-115"/>
      <path d="M 18.109375 8.203125 
L 18.109375 -20.796875 
L 9.078125 -20.796875 
L 9.078125 54.6875 
L 18.109375 54.6875 
L 18.109375 46.390625 
Q 20.953125 51.265625 25.265625 53.625 
Q 29.59375 56 35.59375 56 
Q 45.5625 56 51.78125 48.09375 
Q 58.015625 40.1875 58.015625 27.296875 
Q 58.015625 14.40625 51.78125 6.484375 
Q 45.5625 -1.421875 35.59375 -1.421875 
Q 29.59375 -1.421875 25.265625 0.953125 
Q 20.953125 3.328125 18.109375 8.203125 
z
M 48.6875 27.296875 
Q 48.6875 37.203125 44.609375 42.84375 
Q 40.53125 48.484375 33.40625 48.484375 
Q 26.265625 48.484375 22.1875 42.84375 
Q 18.109375 37.203125 18.109375 27.296875 
Q 18.109375 17.390625 22.1875 11.75 
Q 26.265625 6.109375 33.40625 6.109375 
Q 40.53125 6.109375 44.609375 11.75 
Q 48.6875 17.390625 48.6875 27.296875 
z
" id="DejaVuSans-112"/>
      <path d="M 9.421875 75.984375 
L 18.40625 75.984375 
L 18.40625 0 
L 9.421875 0 
z
" id="DejaVuSans-108"/>
      <path d="M 34.28125 27.484375 
Q 23.390625 27.484375 19.1875 25 
Q 14.984375 22.515625 14.984375 16.5 
Q 14.984375 11.71875 18.140625 8.90625 
Q 21.296875 6.109375 26.703125 6.109375 
Q 34.1875 6.109375 38.703125 11.40625 
Q 43.21875 16.703125 43.21875 25.484375 
L 43.21875 27.484375 
z
M 52.203125 31.203125 
L 52.203125 0 
L 43.21875 0 
L 43.21875 8.296875 
Q 40.140625 3.328125 35.546875 0.953125 
Q 30.953125 -1.421875 24.3125 -1.421875 
Q 15.921875 -1.421875 10.953125 3.296875 
Q 6 8.015625 6 15.921875 
Q 6 25.140625 12.171875 29.828125 
Q 18.359375 34.515625 30.609375 34.515625 
L 43.21875 34.515625 
L 43.21875 35.40625 
Q 43.21875 41.609375 39.140625 45 
Q 35.0625 48.390625 27.6875 48.390625 
Q 23 48.390625 18.546875 47.265625 
Q 14.109375 46.140625 10.015625 43.890625 
L 10.015625 52.203125 
Q 14.9375 54.109375 19.578125 55.046875 
Q 24.21875 56 28.609375 56 
Q 40.484375 56 46.34375 49.84375 
Q 52.203125 43.703125 52.203125 31.203125 
z
" id="DejaVuSans-97"/>
      <path d="M 48.78125 52.59375 
L 48.78125 44.1875 
Q 44.96875 46.296875 41.140625 47.34375 
Q 37.3125 48.390625 33.40625 48.390625 
Q 24.65625 48.390625 19.8125 42.84375 
Q 14.984375 37.3125 14.984375 27.296875 
Q 14.984375 17.28125 19.8125 11.734375 
Q 24.65625 6.203125 33.40625 6.203125 
Q 37.3125 6.203125 41.140625 7.25 
Q 44.96875 8.296875 48.78125 10.40625 
L 48.78125 2.09375 
Q 45.015625 0.34375 40.984375 -0.53125 
Q 36.96875 -1.421875 32.421875 -1.421875 
Q 20.0625 -1.421875 12.78125 6.34375 
Q 5.515625 14.109375 5.515625 27.296875 
Q 5.515625 40.671875 12.859375 48.328125 
Q 20.21875 56 33.015625 56 
Q 37.15625 56 41.109375 55.140625 
Q 45.0625 54.296875 48.78125 52.59375 
z
" id="DejaVuSans-99"/>
      <path d="M 56.203125 29.59375 
L 56.203125 25.203125 
L 14.890625 25.203125 
Q 15.484375 15.921875 20.484375 11.0625 
Q 25.484375 6.203125 34.421875 6.203125 
Q 39.59375 6.203125 44.453125 7.46875 
Q 49.3125 8.734375 54.109375 11.28125 
L 54.109375 2.78125 
Q 49.265625 0.734375 44.1875 -0.34375 
Q 39.109375 -1.421875 33.890625 -1.421875 
Q 20.796875 -1.421875 13.15625 6.1875 
Q 5.515625 13.8125 5.515625 26.8125 
Q 5.515625 40.234375 12.765625 48.109375 
Q 20.015625 56 32.328125 56 
Q 43.359375 56 49.78125 48.890625 
Q 56.203125 41.796875 56.203125 29.59375 
z
M 47.21875 32.234375 
Q 47.125 39.59375 43.09375 43.984375 
Q 39.0625 48.390625 32.421875 48.390625 
Q 24.90625 48.390625 20.390625 44.140625 
Q 15.875 39.890625 15.1875 32.171875 
z
" id="DejaVuSans-101"/>
      <path d="M 52 44.1875 
Q 55.375 50.25 60.0625 53.125 
Q 64.75 56 71.09375 56 
Q 79.640625 56 84.28125 50.015625 
Q 88.921875 44.046875 88.921875 33.015625 
L 88.921875 0 
L 79.890625 0 
L 79.890625 32.71875 
Q 79.890625 40.578125 77.09375 44.375 
Q 74.3125 48.1875 68.609375 48.1875 
Q 61.625 48.1875 57.5625 43.546875 
Q 53.515625 38.921875 53.515625 30.90625 
L 53.515625 0 
L 44.484375 0 
L 44.484375 32.71875 
Q 44.484375 40.625 41.703125 44.40625 
Q 38.921875 48.1875 33.109375 48.1875 
Q 26.21875 48.1875 22.15625 43.53125 
Q 18.109375 38.875 18.109375 30.90625 
L 18.109375 0 
L 9.078125 0 
L 9.078125 54.6875 
L 18.109375 54.6875 
L 18.109375 46.1875 
Q 21.1875 51.21875 25.484375 53.609375 
Q 29.78125 56 35.6875 56 
Q 41.65625 56 45.828125 52.96875 
Q 50 49.953125 52 44.1875 
z
" id="DejaVuSans-109"/>
      <path d="M 54.890625 33.015625 
L 54.890625 0 
L 45.90625 0 
L 45.90625 32.71875 
Q 45.90625 40.484375 42.875 44.328125 
Q 39.84375 48.1875 33.796875 48.1875 
Q 26.515625 48.1875 22.3125 43.546875 
Q 18.109375 38.921875 18.109375 30.90625 
L 18.109375 0 
L 9.078125 0 
L 9.078125 54.6875 
L 18.109375 54.6875 
L 18.109375 46.1875 
Q 21.34375 51.125 25.703125 53.5625 
Q 30.078125 56 35.796875 56 
Q 45.21875 56 50.046875 50.171875 
Q 54.890625 44.34375 54.890625 33.015625 
z
" id="DejaVuSans-110"/>
      <path d="M 18.3125 70.21875 
L 18.3125 54.6875 
L 36.8125 54.6875 
L 36.8125 47.703125 
L 18.3125 47.703125 
L 18.3125 18.015625 
Q 18.3125 11.328125 20.140625 9.421875 
Q 21.96875 7.515625 27.59375 7.515625 
L 36.8125 7.515625 
L 36.8125 0 
L 27.59375 0 
Q 17.1875 0 13.234375 3.875 
Q 9.28125 7.765625 9.28125 18.015625 
L 9.28125 47.703125 
L 2.6875 47.703125 
L 2.6875 54.6875 
L 9.28125 54.6875 
L 9.28125 70.21875 
z
" id="DejaVuSans-116"/>
      <path id="DejaVuSans-32"/>
      <path d="M 31 75.875 
Q 24.46875 64.65625 21.28125 53.65625 
Q 18.109375 42.671875 18.109375 31.390625 
Q 18.109375 20.125 21.3125 9.0625 
Q 24.515625 -2 31 -13.1875 
L 23.1875 -13.1875 
Q 15.875 -1.703125 12.234375 9.375 
Q 8.59375 20.453125 8.59375 31.390625 
Q 8.59375 42.28125 12.203125 53.3125 
Q 15.828125 64.359375 23.1875 75.875 
z
" id="DejaVuSans-40"/>
      <path d="M 8.015625 75.875 
L 15.828125 75.875 
Q 23.140625 64.359375 26.78125 53.3125 
Q 30.421875 42.28125 30.421875 31.390625 
Q 30.421875 20.453125 26.78125 9.375 
Q 23.140625 -1.703125 15.828125 -13.1875 
L 8.015625 -13.1875 
Q 14.5 -2 17.703125 9.0625 
Q 20.90625 20.125 20.90625 31.390625 
Q 20.90625 42.671875 17.703125 53.65625 
Q 14.5 64.65625 8.015625 75.875 
z
" id="DejaVuSans-41"/>
     </defs>
     <g transform="translate(186.556094 335.860562)scale(0.1 -0.1)">
      <use xlink:href="#DejaVuSans-68"/>
      <use x="77.001953" xlink:href="#DejaVuSans-105"/>
      <use x="104.785156" xlink:href="#DejaVuSans-115"/>
      <use x="156.884766" xlink:href="#DejaVuSans-112"/>
      <use x="220.361328" xlink:href="#DejaVuSans-108"/>
      <use x="248.144531" xlink:href="#DejaVuSans-97"/>
      <use x="309.423828" xlink:href="#DejaVuSans-99"/>
      <use x="364.404297" xlink:href="#DejaVuSans-101"/>
      <use x="425.927734" xlink:href="#DejaVuSans-109"/>
      <use x="523.339844" xlink:href="#DejaVuSans-101"/>
      <use x="584.863281" xlink:href="#DejaVuSans-110"/>
      <use x="648.242188" xlink:href="#DejaVuSans-116"/>
      <use x="687.451172" xlink:href="#DejaVuSans-32"/>
      <use x="719.238281" xlink:href="#DejaVuSans-40"/>
      <use x="758.251953" xlink:href="#DejaVuSans-109"/>
      <use x="855.664062" xlink:href="#DejaVuSans-109"/>
      <use x="953.076172" xlink:href="#DejaVuSans-41"/>
     </g>
    </g>
   </g>
   <g id="matplotlib.axis_2">
    <g id="ytick_1">
     <g id="line2d_15">
      <path clip-path="url(#p35c6fc10e4)" d="M 57.6 307.584 
L 414.72 307.584 
" style="fill:none;stroke:#b0b0b0;stroke-linecap:square;stroke-width:0.8;"/>
     </g>
     <g id="line2d_16">
      <defs>
       <path d="M 0 0 
L -3.5 0 
" id="mf1ddb8bfdf" style="stroke:#000000;stroke-width:0.8;"/>
      </defs>
      <g>
       <use style="stroke:#000000;stroke-width:0.8;" x="57.6" xlink:href="#mf1ddb8bfdf" y="307.584"/>
      </g>
     </g>
     <g id="text_9">
      <!-- 0.0 -->
      <g transform="translate(34.696875 311.383219)scale(0.1 -0.1)">
       <use xlink:href="#DejaVuSans-48"/>
       <use x="63.623047" xlink:href="#DejaVuSans-46"/>
       <use x="95.410156" xlink:href="#DejaVuSans-48"/>
      </g>
     </g>
    </g>
    <g id="ytick_2">
     <g id="line2d_17">
      <path clip-path="url(#p35c6fc10e4)" d="M 57.6 263.232 
L 414.72 263.232 
" style="fill:none;stroke:#b0b0b0;stroke-linecap:square;stroke-width:0.8;"/>
     </g>
     <g id="line2d_18">
      <g>
       <use style="stroke:#000000;stroke-width:0.8;" x="57.6" xlink:href="#mf1ddb8bfdf" y="263.232"/>
      </g>
     </g>
     <g id="text_10">
      <!-- 0.5 -->
      <defs>
       <path d="M 10.796875 72.90625 
L 49.515625 72.90625 
L 49.515625 64.59375 
L 19.828125 64.59375 
L 19.828125 46.734375 
Q 21.96875 47.46875 24.109375 47.828125 
Q 26.265625 48.1875 28.421875 48.1875 
Q 40.625 48.1875 47.75 41.5 
Q 54.890625 34.8125 54.890625 23.390625 
Q 54.890625 11.625 47.5625 5.09375 
Q 40.234375 -1.421875 26.90625 -1.421875 
Q 22.3125 -1.421875 17.546875 -0.640625 
Q 12.796875 0.140625 7.71875 1.703125 
L 7.71875 11.625 
Q 12.109375 9.234375 16.796875 8.0625 
Q 21.484375 6.890625 26.703125 6.890625 
Q 35.15625 6.890625 40.078125 11.328125 
Q 45.015625 15.765625 45.015625 23.390625 
Q 45.015625 31 40.078125 35.4375 
Q 35.15625 39.890625 26.703125 39.890625 
Q 22.75 39.890625 18.8125 39.015625 
Q 14.890625 38.140625 10.796875 36.28125 
z
" id="DejaVuSans-53"/>
      </defs>
      <g transform="translate(34.696875 267.031219)scale(0.1 -0.1)">
       <use xlink:href="#DejaVuSans-48"/>
       <use x="63.623047" xlink:href="#DejaVuSans-46"/>
       <use x="95.410156" xlink:href="#DejaVuSans-53"/>
      </g>
     </g>
    </g>
    <g id="ytick_3">
     <g id="line2d_19">
      <path clip-path="url(#p35c6fc10e4)" d="M 57.6 218.88 
L 414.72 218.88 
" style="fill:none;stroke:#b0b0b0;stroke-linecap:square;stroke-width:0.8;"/>
     </g>
     <g id="line2d_20">
      <g>
       <use style="stroke:#000000;stroke-width:0.8;" x="57.6" xlink:href="#mf1ddb8bfdf" y="218.88"/>
      </g>
     </g>
     <g id="text_11">
      <!-- 1.0 -->
      <g transform="translate(34.696875 222.679219)scale(0.1 -0.1)">
       <use xlink:href="#DejaVuSans-49"/>
       <use x="63.623047" xlink:href="#DejaVuSans-46"/>
       <use x="95.410156" xlink:href="#DejaVuSans-48"/>
      </g>
     </g>
    </g>
    <g id="ytick_4">
     <g id="line2d_21">
      <path clip-path="url(#p35c6fc10e4)" d="M 57.6 174.528 
L 414.72 174.528 
" style="fill:none;stroke:#b0b0b0;stroke-linecap:square;stroke-width:0.8;"/>
     </g>
     <g id="line2d_22">
      <g>
       <use style="stroke:#000000;stroke-width:0.8;" x="57.6" xlink:href="#mf1ddb8bfdf" y="174.528"/>
      </g>
     </g>
     <g id="text_12">
      <!-- 1.5 -->
      <g transform="translate(34.696875 178.327219)scale(0.1 -0.1)">
       <use xlink:href="#DejaVuSans-49"/>
       <use x="63.623047" xlink:href="#DejaVuSans-46"/>
       <use x="95.410156" xlink:href="#DejaVuSans-53"/>
      </g>
     </g>
    </g>
    <g id="ytick_5">
     <g id="line2d_23">
      <path clip-path="url(#p35c6fc10e4)" d="M 57.6 130.176 
L 414.72 130.176 
" style="fill:none;stroke:#b0b0b0;stroke-linecap:square;stroke-width:0.8;"/>
     </g>
     <g id="line2d_24">
      <g>
       <use style="stroke:#000000;stroke-width:0.8;" x="57.6" xlink:href="#mf1ddb8bfdf" y="130.176"/>
      </g>
     </g>
     <g id="text_13">
      <!-- 2.0 -->
      <g transform="translate(34.696875 133.975219)scale(0.1 -0.1)">
       <use xlink:href="#DejaVuSans-50"/>
       <use x="63.623047" xlink:href="#DejaVuSans-46"/>
       <use x="95.410156" xlink:href="#DejaVuSans-48"/>
      </g>
     </g>
    </g>
    <g id="ytick_6">
     <g id="line2d_25">
      <path clip-path="url(#p35c6fc10e4)" d="M 57.6 85.824 
L 414.72 85.824 
" style="fill:none;stroke:#b0b0b0;stroke-linecap:square;stroke-width:0.8;"/>
     </g>
     <g id="line2d_26">
      <g>
       <use style="stroke:#000000;stroke-width:0.8;" x="57.6" xlink:href="#mf1ddb8bfdf" y="85.824"/>
      </g>
     </g>
     <g id="text_14">
      <!-- 2.5 -->
      <g transform="translate(34.696875 89.623219)scale(0.1 -0.1)">
       <use xlink:href="#DejaVuSans-50"/>
       <use x="63.623047" xlink:href="#DejaVuSans-46"/>
       <use x="95.410156" xlink:href="#DejaVuSans-53"/>
      </g>
     </g>
    </g>
    <g id="ytick_7">
     <g id="line2d_27">
      <path clip-path="url(#p35c6fc10e4)" d="M 57.6 41.472 
L 414.72 41.472 
" style="fill:none;stroke:#b0b0b0;stroke-linecap:square;stroke-width:0.8;"/>
     </g>
     <g id="line2d_28">
      <g>
       <use style="stroke:#000000;stroke-width:0.8;" x="57.6" xlink:href="#mf1ddb8bfdf" y="41.472"/>
      </g>
     </g>
     <g id="text_15">
      <!-- 3.0 -->
      <defs>
       <path d="M 40.578125 39.3125 
Q 47.65625 37.796875 51.625 33 
Q 55.609375 28.21875 55.609375 21.1875 
Q 55.609375 10.40625 48.1875 4.484375 
Q 40.765625 -1.421875 27.09375 -1.421875 
Q 22.515625 -1.421875 17.65625 -0.515625 
Q 12.796875 0.390625 7.625 2.203125 
L 7.625 11.71875 
Q 11.71875 9.328125 16.59375 8.109375 
Q 21.484375 6.890625 26.8125 6.890625 
Q 36.078125 6.890625 40.9375 10.546875 
Q 45.796875 14.203125 45.796875 21.1875 
Q 45.796875 27.640625 41.28125 31.265625 
Q 36.765625 34.90625 28.71875 34.90625 
L 20.21875 34.90625 
L 20.21875 43.015625 
L 29.109375 43.015625 
Q 36.375 43.015625 40.234375 45.921875 
Q 44.09375 48.828125 44.09375 54.296875 
Q 44.09375 59.90625 40.109375 62.90625 
Q 36.140625 65.921875 28.71875 65.921875 
Q 24.65625 65.921875 20.015625 65.03125 
Q 15.375 64.15625 9.8125 62.3125 
L 9.8125 71.09375 
Q 15.4375 72.65625 20.34375 73.4375 
Q 25.25 74.21875 29.59375 74.21875 
Q 40.828125 74.21875 47.359375 69.109375 
Q 53.90625 64.015625 53.90625 55.328125 
Q 53.90625 49.265625 50.4375 45.09375 
Q 46.96875 40.921875 40.578125 39.3125 
z
" id="DejaVuSans-51"/>
      </defs>
      <g transform="translate(34.696875 45.271219)scale(0.1 -0.1)">
       <use xlink:href="#DejaVuSans-51"/>
       <use x="63.623047" xlink:href="#DejaVuSans-46"/>
       <use x="95.410156" xlink:href="#DejaVuSans-48"/>
      </g>
     </g>
    </g>
    <g id="text_16">
     <!-- Load (N) -->
     <defs>
      <path d="M 9.8125 72.90625 
L 19.671875 72.90625 
L 19.671875 8.296875 
L 55.171875 8.296875 
L 55.171875 0 
L 9.8125 0 
z
" id="DejaVuSans-76"/>
      <path d="M 30.609375 48.390625 
Q 23.390625 48.390625 19.1875 42.75 
Q 14.984375 37.109375 14.984375 27.296875 
Q 14.984375 17.484375 19.15625 11.84375 
Q 23.34375 6.203125 30.609375 6.203125 
Q 37.796875 6.203125 41.984375 11.859375 
Q 46.1875 17.53125 46.1875 27.296875 
Q 46.1875 37.015625 41.984375 42.703125 
Q 37.796875 48.390625 30.609375 48.390625 
z
M 30.609375 56 
Q 42.328125 56 49.015625 48.375 
Q 55.71875 40.765625 55.71875 27.296875 
Q 55.71875 13.875 49.015625 6.21875 
Q 42.328125 -1.421875 30.609375 -1.421875 
Q 18.84375 -1.421875 12.171875 6.21875 
Q 5.515625 13.875 5.515625 27.296875 
Q 5.515625 40.765625 12.171875 48.375 
Q 18.84375 56 30.609375 56 
z
" id="DejaVuSans-111"/>
      <path d="M 45.40625 46.390625 
L 45.40625 75.984375 
L 54.390625 75.984375 
L 54.390625 0 
L 45.40625 0 
L 45.40625 8.203125 
Q 42.578125 3.328125 38.25 0.953125 
Q 33.9375 -1.421875 27.875 -1.421875 
Q 17.96875 -1.421875 11.734375 6.484375 
Q 5.515625 14.40625 5.515625 27.296875 
Q 5.515625 40.1875 11.734375 48.09375 
Q 17.96875 56 27.875 56 
Q 33.9375 56 38.25 53.625 
Q 42.578125 51.265625 45.40625 46.390625 
z
M 14.796875 27.296875 
Q 14.796875 17.390625 18.875 11.75 
Q 22.953125 6.109375 30.078125 6.109375 
Q 37.203125 6.109375 41.296875 11.75 
Q 45.40625 17.390625 45.40625 27.296875 
Q 45.40625 37.203125 41.296875 42.84375 
Q 37.203125 48.484375 30.078125 48.484375 
Q 22.953125 48.484375 18.875 42.84375 
Q 14.796875 37.203125 14.796875 27.296875 
z
" id="DejaVuSans-100"/>
      <path d="M 9.8125 72.90625 
L 23.09375 72.90625 
L 55.421875 11.921875 
L 55.421875 72.90625 
L 64.984375 72.90625 
L 64.984375 0 
L 51.703125 0 
L 19.390625 60.984375 
L 19.390625 0 
L 9.8125 0 
z
" id="DejaVuSans-78"/>
     </defs>
     <g transform="translate(28.617187 195.842062)rotate(-90)scale(0.1 -0.1)">
      <use xlink:href="#DejaVuSans-76"/>
      <use x="55.697266" xlink:href="#DejaVuSans-111"/>
      <use x="116.878906" xlink:href="#DejaVuSans-97"/>
      <use x="178.158203" xlink:href="#DejaVuSans-100"/>
      <use x="241.634766" xlink:href="#DejaVuSans-32"/>
      <use x="273.421875" xlink:href="#DejaVuSans-40"/>
      <use x="312.435547" xlink:href="#DejaVuSans-78"/>
      <use x="387.240234" xlink:href="#DejaVuSans-41"/>
     </g>
    </g>
   </g>
   <g id="line2d_29">
    <path clip-path="url(#p35c6fc10e4)" d="M 57.6 307.584 
L 64.683372 275.650528 
L 71.766744 243.717056 
L 78.850116 211.783584 
L 85.933488 179.850112 
L 93.01686 147.91664 
L 100.100231 115.983168 
L 107.183603 84.049696 
L 114.266975 52.116225 
L 121.350347 48.324987 
L 128.433719 59.093386 
L 135.517091 69.730909 
L 142.600463 80.370368 
L 149.683835 91.009961 
L 156.767207 101.649569 
L 163.850579 112.288636 
L 170.93395 122.928285 
L 178.017322 133.566185 
L 185.100694 144.201997 
L 192.184066 154.83656 
L 199.267438 165.467716 
L 206.35081 176.093807 
L 213.434182 186.713276 
L 220.517554 197.324346 
L 227.600926 207.923318 
L 234.684298 218.504072 
L 241.767669 229.056873 
L 248.851041 239.563195 
L 255.934413 249.992509 
L 263.017785 260.27343 
L 270.101157 270.251712 
L 277.184529 279.587653 
L 284.267901 287.602228 
L 291.351273 293.636228 
L 298.434645 298.037474 
L 305.518017 300.987733 
L 312.601388 302.630779 
L 319.68476 303.535467 
L 326.768132 304.095005 
L 333.851504 304.478913 
L 340.934876 304.759466 
L 348.018248 304.972123 
L 355.10162 305.138139 
L 362.184992 305.270157 
L 369.268364 305.3795 
L 376.351736 305.468898 
L 383.435107 305.540911 
L 390.518479 305.602625 
L 397.601851 305.653963 
L 404.685223 305.696717 
L 411.768595 305.732292 
" style="fill:none;stroke:#000000;stroke-linecap:square;stroke-width:2;"/>
    <defs>
     <path d="M 0 2.5 
C 0.663008 2.5 1.29895 2.236584 1.767767 1.767767 
C 2.236584 1.29895 2.5 0.663008 2.5 0 
C 2.5 -0.663008 2.236584 -1.29895 1.767767 -1.767767 
C 1.29895 -2.236584 0.663008 -2.5 0 -2.5 
C -0.663008 -2.5 -1.29895 -2.236584 -1.767767 -1.767767 
C -2.236584 -1.29895 -2.5 -0.663008 -2.5 0 
C -2.5 0.663008 -2.236584 1.29895 -1.767767 1.767767 
C -1.29895 2.236584 -0.663008 2.5 0 2.5 
z
" id="m685e94e082" style="stroke:#000000;"/>
    </defs>
    <g clip-path="url(#p35c6fc10e4)">
     <use style="fill:#ff0000;stroke:#000000;" x="57.6" xlink:href="#m685e94e082" y="307.584"/>
     <use style="fill:#ff0000;stroke:#000000;" x="64.683372" xlink:href="#m685e94e082" y="275.650528"/>
     <use style="fill:#ff0000;stroke:#000000;" x="71.766744" xlink:href="#m685e94e082" y="243.717056"/>
     <use style="fill:#ff0000;stroke:#000000;" x="78.850116" xlink:href="#m685e94e082" y="211.783584"/>
     <use style="fill:#ff0000;stroke:#000000;" x="85.933488" xlink:href="#m685e94e082" y="179.850112"/>
     <use style="fill:#ff0000;stroke:#000000;" x="93.01686" xlink:href="#m685e94e082" y="147.91664"/>
     <use style="fill:#ff0000;stroke:#000000;" x="100.100231" xlink:href="#m685e94e082" y="115.983168"/>
     <use style="fill:#ff0000;stroke:#000000;" x="107.183603" xlink:href="#m685e94e082" y="84.049696"/>
     <use style="fill:#ff0000;stroke:#000000;" x="114.266975" xlink:href="#m685e94e082" y="52.116225"/>
     <use style="fill:#ff0000;stroke:#000000;" x="121.350347" xlink:href="#m685e94e082" y="48.324987"/>
     <use style="fill:#ff0000;stroke:#000000;" x="128.433719" xlink:href="#m685e94e082" y="59.093386"/>
     <use style="fill:#ff0000;stroke:#000000;" x="135.517091" xlink:href="#m685e94e082" y="69.730909"/>
     <use style="fill:#ff0000;stroke:#000000;" x="142.600463" xlink:href="#m685e94e082" y="80.370368"/>
     <use style="fill:#ff0000;stroke:#000000;" x="149.683835" xlink:href="#m685e94e082" y="91.009961"/>
     <use style="fill:#ff0000;stroke:#000000;" x="156.767207" xlink:href="#m685e94e082" y="101.649569"/>
     <use style="fill:#ff0000;stroke:#000000;" x="163.850579" xlink:href="#m685e94e082" y="112.288636"/>
     <use style="fill:#ff0000;stroke:#000000;" x="170.93395" xlink:href="#m685e94e082" y="122.928285"/>
     <use style="fill:#ff0000;stroke:#000000;" x="178.017322" xlink:href="#m685e94e082" y="133.566185"/>
     <use style="fill:#ff0000;stroke:#000000;" x="185.100694" xlink:href="#m685e94e082" y="144.201997"/>
     <use style="fill:#ff0000;stroke:#000000;" x="192.184066" xlink:href="#m685e94e082" y="154.83656"/>
     <use style="fill:#ff0000;stroke:#000000;" x="199.267438" xlink:href="#m685e94e082" y="165.467716"/>
     <use style="fill:#ff0000;stroke:#000000;" x="206.35081" xlink:href="#m685e94e082" y="176.093807"/>
     <use style="fill:#ff0000;stroke:#000000;" x="213.434182" xlink:href="#m685e94e082" y="186.713276"/>
     <use style="fill:#ff0000;stroke:#000000;" x="220.517554" xlink:href="#m685e94e082" y="197.324346"/>
     <use style="fill:#ff0000;stroke:#000000;" x="227.600926" xlink:href="#m685e94e082" y="207.923318"/>
     <use style="fill:#ff0000;stroke:#000000;" x="234.684298" xlink:href="#m685e94e082" y="218.504072"/>
     <use style="fill:#ff0000;stroke:#000000;" x="241.767669" xlink:href="#m685e94e082" y="229.056873"/>
     <use style="fill:#ff0000;stroke:#000000;" x="248.851041" xlink:href="#m685e94e082" y="239.563195"/>
     <use style="fill:#ff0000;stroke:#000000;" x="255.934413" xlink:href="#m685e94e082" y="249.992509"/>
     <use style="fill:#ff0000;stroke:#000000;" x="263.017785" xlink:href="#m685e94e082" y="260.27343"/>
     <use style="fill:#ff0000;stroke:#000000;" x="270.101157" xlink:href="#m685e94e082" y="270.251712"/>
     <use style="fill:#ff0000;stroke:#000000;" x="277.184529" xlink:href="#m685e94e082" y="279.587653"/>
     <use style="fill:#ff0000;stroke:#000000;" x="284.267901" xlink:href="#m685e94e082" y="287.602228"/>
     <use style="fill:#ff0000;stroke:#000000;" x="291.351273" xlink:href="#m685e94e082" y="293.636228"/>
     <use style="fill:#ff0000;stroke:#000000;" x="298.434645" xlink:href="#m685e94e082" y="298.037474"/>
     <use style="fill:#ff0000;stroke:#000000;" x="305.518017" xlink:href="#m685e94e082" y="300.987733"/>
     <use style="fill:#ff0000;stroke:#000000;" x="312.601388" xlink:href="#m685e94e082" y="302.630779"/>
     <use style="fill:#ff0000;stroke:#000000;" x="319.68476" xlink:href="#m685e94e082" y="303.535467"/>
     <use style="fill:#ff0000;stroke:#000000;" x="326.768132" xlink:href="#m685e94e082" y="304.095005"/>
     <use style="fill:#ff0000;stroke:#000000;" x="333.851504" xlink:href="#m685e94e082" y="304.478913"/>
     <use style="fill:#ff0000;stroke:#000000;" x="340.934876" xlink:href="#m685e94e082" y="304.759466"/>
     <use style="fill:#ff0000;stroke:#000000;" x="348.018248" xlink:href="#m685e94e082" y="304.972123"/>
     <use style="fill:#ff0000;stroke:#000000;" x="355.10162" xlink:href="#m685e94e082" y="305.138139"/>
     <use style="fill:#ff0000;stroke:#000000;" x="362.184992" xlink:href="#m685e94e082" y="305.270157"/>
     <use style="fill:#ff0000;stroke:#000000;" x="369.268364" xlink:href="#m685e94e082" y="305.3795"/>
     <use style="fill:#ff0000;stroke:#000000;" x="376.351736" xlink:href="#m685e94e082" y="305.468898"/>
     <use style="fill:#ff0000;stroke:#000000;" x="383.435107" xlink:href="#m685e94e082" y="305.540911"/>
     <use style="fill:#ff0000;stroke:#000000;" x="390.518479" xlink:href="#m685e94e082" y="305.602625"/>
     <use style="fill:#ff0000;stroke:#000000;" x="397.601851" xlink:href="#m685e94e082" y="305.653963"/>
     <use style="fill:#ff0000;stroke:#000000;" x="404.685223" xlink:href="#m685e94e082" y="305.696717"/>
     <use style="fill:#ff0000;stroke:#000000;" x="411.768595" xlink:href="#m685e94e082" y="305.732292"/>
    </g>
   </g>
   <g id="line2d_30">
    <path clip-path="url(#p35c6fc10e4)" d="M 57.6 307.584 
L 64.683372 275.650528 
L 71.766744 243.717056 
L 78.850116 211.783584 
L 85.933488 179.850112 
L 93.01686 147.91664 
L 100.100231 115.983168 
L 107.183603 84.049696 
L 114.266975 52.116225 
L 121.350347 48.52151 
L 128.433719 59.174137 
L 135.517091 69.819157 
L 142.600463 80.46293 
L 149.683835 91.106453 
L 156.767207 101.748801 
L 163.850579 112.392196 
L 170.93395 123.034487 
L 178.017322 133.675694 
L 185.100694 144.317408 
L 192.184066 154.957993 
L 199.267438 165.59909 
L 206.35081 176.236766 
L 213.434182 186.874243 
L 220.517554 197.508876 
L 227.600926 208.13946 
L 234.684298 218.766328 
L 241.767669 229.381742 
L 248.851041 239.987106 
L 255.934413 250.566131 
L 263.017785 261.096567 
L 270.101157 271.518999 
L 277.184529 281.649353 
L 284.267901 290.854232 
L 291.351273 297.52103 
L 298.434645 300.940509 
L 305.518017 302.597261 
L 312.601388 303.541371 
L 319.68476 304.55407 
L 326.768132 305.186936 
L 333.851504 305.51099 
L 340.934876 305.708034 
L 348.018248 305.841059 
L 355.10162 305.937485 
L 362.184992 306.009306 
L 369.268364 306.063809 
L 376.351736 306.108244 
L 383.435107 306.142372 
L 390.518479 306.170663 
L 397.601851 306.192853 
L 404.685223 306.2101 
L 411.768595 306.223296 
" style="fill:none;stroke:#000000;stroke-linecap:square;stroke-width:2;"/>
    <defs>
     <path d="M 0 -2.5 
L -2.5 2.5 
L 2.5 2.5 
z
" id="m112d909394" style="stroke:#000000;stroke-linejoin:miter;"/>
    </defs>
    <g clip-path="url(#p35c6fc10e4)">
     <use style="fill:#ff0000;stroke:#000000;stroke-linejoin:miter;" x="57.6" xlink:href="#m112d909394" y="307.584"/>
     <use style="fill:#ff0000;stroke:#000000;stroke-linejoin:miter;" x="64.683372" xlink:href="#m112d909394" y="275.650528"/>
     <use style="fill:#ff0000;stroke:#000000;stroke-linejoin:miter;" x="71.766744" xlink:href="#m112d909394" y="243.717056"/>
     <use style="fill:#ff0000;stroke:#000000;stroke-linejoin:miter;" x="78.850116" xlink:href="#m112d909394" y="211.783584"/>
     <use style="fill:#ff0000;stroke:#000000;stroke-linejoin:miter;" x="85.933488" xlink:href="#m112d909394" y="179.850112"/>
     <use style="fill:#ff0000;stroke:#000000;stroke-linejoin:miter;" x="93.01686" xlink:href="#m112d909394" y="147.91664"/>
     <use style="fill:#ff0000;stroke:#000000;stroke-linejoin:miter;" x="100.100231" xlink:href="#m112d909394" y="115.983168"/>
     <use style="fill:#ff0000;stroke:#000000;stroke-linejoin:miter;" x="107.183603" xlink:href="#m112d909394" y="84.049696"/>
     <use style="fill:#ff0000;stroke:#000000;stroke-linejoin:miter;" x="114.266975" xlink:href="#m112d909394" y="52.116225"/>
     <use style="fill:#ff0000;stroke:#000000;stroke-linejoin:miter;" x="121.350347" xlink:href="#m112d909394" y="48.52151"/>
     <use style="fill:#ff0000;stroke:#000000;stroke-linejoin:miter;" x="128.433719" xlink:href="#m112d909394" y="59.174137"/>
     <use style="fill:#ff0000;stroke:#000000;stroke-linejoin:miter;" x="135.517091" xlink:href="#m112d909394" y="69.819157"/>
     <use style="fill:#ff0000;stroke:#000000;stroke-linejoin:miter;" x="142.600463" xlink:href="#m112d909394" y="80.46293"/>
     <use style="fill:#ff0000;stroke:#000000;stroke-linejoin:miter;" x="149.683835" xlink:href="#m112d909394" y="91.106453"/>
     <use style="fill:#ff0000;stroke:#000000;stroke-linejoin:miter;" x="156.767207" xlink:href="#m112d909394" y="101.748801"/>
     <use style="fill:#ff0000;stroke:#000000;stroke-linejoin:miter;" x="163.850579" xlink:href="#m112d909394" y="112.392196"/>
     <use style="fill:#ff0000;stroke:#000000;stroke-linejoin:miter;" x="170.93395" xlink:href="#m112d909394" y="123.034487"/>
     <use style="fill:#ff0000;stroke:#000000;stroke-linejoin:miter;" x="178.017322" xlink:href="#m112d909394" y="133.675694"/>
     <use style="fill:#ff0000;stroke:#000000;stroke-linejoin:miter;" x="185.100694" xlink:href="#m112d909394" y="144.317408"/>
     <use style="fill:#ff0000;stroke:#000000;stroke-linejoin:miter;" x="192.184066" xlink:href="#m112d909394" y="154.957993"/>
     <use style="fill:#ff0000;stroke:#000000;stroke-linejoin:miter;" x="199.267438" xlink:href="#m112d909394" y="165.59909"/>
     <use style="fill:#ff0000;stroke:#000000;stroke-linejoin:miter;" x="206.35081" xlink:href="#m112d909394" y="176.236766"/>
     <use style="fill:#ff0000;stroke:#000000;stroke-linejoin:miter;" x="213.434182" xlink:href="#m112d909394" y="186.874243"/>
     <use style="fill:#ff0000;stroke:#000000;stroke-linejoin:miter;" x="220.517554" xlink:href="#m112d909394" y="197.508876"/>
     <use style="fill:#ff0000;stroke:#000000;stroke-linejoin:miter;" x="227.600926" xlink:href="#m112d909394" y="208.13946"/>
     <use style="fill:#ff0000;stroke:#000000;stroke-linejoin:miter;" x="234.684298" xlink:href="#m112d909394" y="218.766328"/>
     <use style="fill:#ff0000;stroke:#000000;stroke-linejoin:miter;" x="241.767669" xlink:href="#m112d909394" y="229.381742"/>
     <use style="fill:#ff0000;stroke:#000000;stroke-linejoin:miter;" x="248.851041" xlink:href="#m112d909394" y="239.987106"/>
     <use style="fill:#ff0000;stroke:#000000;stroke-linejoin:miter;" x="255.934413" xlink:href="#m112d909394" y="250.566131"/>
     <use style="fill:#ff0000;stroke:#000000;stroke-linejoin:miter;" x="263.017785" xlink:href="#m112d909394" y="261.096567"/>
     <use style="fill:#ff0000;stroke:#000000;stroke-linejoin:miter;" x="270.101157" xlink:href="#m112d909394" y="271.518999"/>
     <use style="fill:#ff0000;stroke:#000000;stroke-linejoin:miter;" x="277.184529" xlink:href="#m112d909394" y="281.649353"/>
     <use style="fill:#ff0000;stroke:#000000;stroke-linejoin:miter;" x="284.267901" xlink:href="#m112d909394" y="290.854232"/>
     <use style="fill:#ff0000;stroke:#000000;stroke-linejoin:miter;" x="291.351273" xlink:href="#m112d909394" y="297.52103"/>
     <use style="fill:#ff0000;stroke:#000000;stroke-linejoin:miter;" x="298.434645" xlink:href="#m112d909394" y="300.940509"/>
     <use style="fill:#ff0000;stroke:#000000;stroke-linejoin:miter;" x="305.518017" xlink:href="#m112d909394" y="302.597261"/>
     <use style="fill:#ff0000;stroke:#000000;stroke-linejoin:miter;" x="312.601388" xlink:href="#m112d909394" y="303.541371"/>
     <use style="fill:#ff0000;stroke:#000000;stroke-linejoin:miter;" x="319.68476" xlink:href="#m112d909394" y="304.55407"/>
     <use style="fill:#ff0000;stroke:#000000;stroke-linejoin:miter;" x="326.768132" xlink:href="#m112d909394" y="305.186936"/>
     <use style="fill:#ff0000;stroke:#000000;stroke-linejoin:miter;" x="333.851504" xlink:href="#m112d909394" y="305.51099"/>
     <use style="fill:#ff0000;stroke:#000000;stroke-linejoin:miter;" x="340.934876" xlink:href="#m112d909394" y="305.708034"/>
     <use style="fill:#ff0000;stroke:#000000;stroke-linejoin:miter;" x="348.018248" xlink:href="#m112d909394" y="305.841059"/>
     <use style="fill:#ff0000;stroke:#000000;stroke-linejoin:miter;" x="355.10162" xlink:href="#m112d909394" y="305.937485"/>
     <use style="fill:#ff0000;stroke:#000000;stroke-linejoin:miter;" x="362.184992" xlink:href="#m112d909394" y="306.009306"/>
     <use style="fill:#ff0000;stroke:#000000;stroke-linejoin:miter;" x="369.268364" xlink:href="#m112d909394" y="306.063809"/>
     <use style="fill:#ff0000;stroke:#000000;stroke-linejoin:miter;" x="376.351736" xlink:href="#m112d909394" y="306.108244"/>
     <use style="fill:#ff0000;stroke:#000000;stroke-linejoin:miter;" x="383.435107" xlink:href="#m112d909394" y="306.142372"/>
     <use style="fill:#ff0000;stroke:#000000;stroke-linejoin:miter;" x="390.518479" xlink:href="#m112d909394" y="306.170663"/>
     <use style="fill:#ff0000;stroke:#000000;stroke-linejoin:miter;" x="397.601851" xlink:href="#m112d909394" y="306.192853"/>
     <use style="fill:#ff0000;stroke:#000000;stroke-linejoin:miter;" x="404.685223" xlink:href="#m112d909394" y="306.2101"/>
     <use style="fill:#ff0000;stroke:#000000;stroke-linejoin:miter;" x="411.768595" xlink:href="#m112d909394" y="306.223296"/>
    </g>
   </g>
   <g id="line2d_31">
    <path clip-path="url(#p35c6fc10e4)" d="M 57.6 307.584 
L 64.683372 275.650528 
L 71.766744 243.717056 
L 78.850116 211.783584 
L 85.933488 179.850112 
L 93.01686 147.91664 
L 100.100231 115.983168 
L 107.183603 84.049696 
L 114.266975 52.116225 
L 121.350347 48.542066 
L 128.433719 59.192851 
L 135.517091 69.840054 
L 142.600463 80.486207 
L 149.683835 91.130828 
L 156.767207 101.774788 
L 163.850579 112.418912 
L 170.93395 123.062047 
L 178.017322 133.706061 
L 185.100694 144.349404 
L 192.184066 154.99386 
L 199.267438 165.63598 
L 206.35081 176.279124 
L 213.434182 186.921384 
L 220.517554 197.562512 
L 227.600926 208.202032 
L 234.684298 218.839031 
L 241.767669 229.474904 
L 248.851041 240.107619 
L 255.934413 250.730617 
L 263.017785 261.337378 
L 270.101157 271.910237 
L 277.184529 282.372771 
L 284.267901 292.399871 
L 291.351273 300.13963 
L 298.434645 303.384315 
L 305.518017 304.578016 
L 312.601388 305.172023 
L 319.68476 305.531612 
L 326.768132 305.77665 
L 333.851504 305.955294 
L 340.934876 306.089952 
L 348.018248 306.196709 
L 355.10162 306.280254 
L 362.184992 306.349524 
L 369.268364 306.427172 
L 376.351736 306.484188 
L 383.435107 306.524531 
L 390.518479 306.554315 
L 397.601851 306.577015 
L 404.685223 306.592821 
L 411.768595 306.605041 
" style="fill:none;stroke:#000000;stroke-linecap:square;stroke-width:2;"/>
    <defs>
     <path d="M -2.5 2.5 
L 2.5 2.5 
L 2.5 -2.5 
L -2.5 -2.5 
z
" id="ma02cad8b63" style="stroke:#000000;stroke-linejoin:miter;"/>
    </defs>
    <g clip-path="url(#p35c6fc10e4)">
     <use style="fill:#ff0000;stroke:#000000;stroke-linejoin:miter;" x="57.6" xlink:href="#ma02cad8b63" y="307.584"/>
     <use style="fill:#ff0000;stroke:#000000;stroke-linejoin:miter;" x="64.683372" xlink:href="#ma02cad8b63" y="275.650528"/>
     <use style="fill:#ff0000;stroke:#000000;stroke-linejoin:miter;" x="71.766744" xlink:href="#ma02cad8b63" y="243.717056"/>
     <use style="fill:#ff0000;stroke:#000000;stroke-linejoin:miter;" x="78.850116" xlink:href="#ma02cad8b63" y="211.783584"/>
     <use style="fill:#ff0000;stroke:#000000;stroke-linejoin:miter;" x="85.933488" xlink:href="#ma02cad8b63" y="179.850112"/>
     <use style="fill:#ff0000;stroke:#000000;stroke-linejoin:miter;" x="93.01686" xlink:href="#ma02cad8b63" y="147.91664"/>
     <use style="fill:#ff0000;stroke:#000000;stroke-linejoin:miter;" x="100.100231" xlink:href="#ma02cad8b63" y="115.983168"/>
     <use style="fill:#ff0000;stroke:#000000;stroke-linejoin:miter;" x="107.183603" xlink:href="#ma02cad8b63" y="84.049696"/>
     <use style="fill:#ff0000;stroke:#000000;stroke-linejoin:miter;" x="114.266975" xlink:href="#ma02cad8b63" y="52.116225"/>
     <use style="fill:#ff0000;stroke:#000000;stroke-linejoin:miter;" x="121.350347" xlink:href="#ma02cad8b63" y="48.542066"/>
     <use style="fill:#ff0000;stroke:#000000;stroke-linejoin:miter;" x="128.433719" xlink:href="#ma02cad8b63" y="59.192851"/>
     <use style="fill:#ff0000;stroke:#000000;stroke-linejoin:miter;" x="135.517091" xlink:href="#ma02cad8b63" y="69.840054"/>
     <use style="fill:#ff0000;stroke:#000000;stroke-linejoin:miter;" x="142.600463" xlink:href="#ma02cad8b63" y="80.486207"/>
     <use style="fill:#ff0000;stroke:#000000;stroke-linejoin:miter;" x="149.683835" xlink:href="#ma02cad8b63" y="91.130828"/>
     <use style="fill:#ff0000;stroke:#000000;stroke-linejoin:miter;" x="156.767207" xlink:href="#ma02cad8b63" y="101.774788"/>
     <use style="fill:#ff0000;stroke:#000000;stroke-linejoin:miter;" x="163.850579" xlink:href="#ma02cad8b63" y="112.418912"/>
     <use style="fill:#ff0000;stroke:#000000;stroke-linejoin:miter;" x="170.93395" xlink:href="#ma02cad8b63" y="123.062047"/>
     <use style="fill:#ff0000;stroke:#000000;stroke-linejoin:miter;" x="178.017322" xlink:href="#ma02cad8b63" y="133.706061"/>
     <use style="fill:#ff0000;stroke:#000000;stroke-linejoin:miter;" x="185.100694" xlink:href="#ma02cad8b63" y="144.349404"/>
     <use style="fill:#ff0000;stroke:#000000;stroke-linejoin:miter;" x="192.184066" xlink:href="#ma02cad8b63" y="154.99386"/>
     <use style="fill:#ff0000;stroke:#000000;stroke-linejoin:miter;" x="199.267438" xlink:href="#ma02cad8b63" y="165.63598"/>
     <use style="fill:#ff0000;stroke:#000000;stroke-linejoin:miter;" x="206.35081" xlink:href="#ma02cad8b63" y="176.279124"/>
     <use style="fill:#ff0000;stroke:#000000;stroke-linejoin:miter;" x="213.434182" xlink:href="#ma02cad8b63" y="186.921384"/>
     <use style="fill:#ff0000;stroke:#000000;stroke-linejoin:miter;" x="220.517554" xlink:href="#ma02cad8b63" y="197.562512"/>
     <use style="fill:#ff0000;stroke:#000000;stroke-linejoin:miter;" x="227.600926" xlink:href="#ma02cad8b63" y="208.202032"/>
     <use style="fill:#ff0000;stroke:#000000;stroke-linejoin:miter;" x="234.684298" xlink:href="#ma02cad8b63" y="218.839031"/>
     <use style="fill:#ff0000;stroke:#000000;stroke-linejoin:miter;" x="241.767669" xlink:href="#ma02cad8b63" y="229.474904"/>
     <use style="fill:#ff0000;stroke:#000000;stroke-linejoin:miter;" x="248.851041" xlink:href="#ma02cad8b63" y="240.107619"/>
     <use style="fill:#ff0000;stroke:#000000;stroke-linejoin:miter;" x="255.934413" xlink:href="#ma02cad8b63" y="250.730617"/>
     <use style="fill:#ff0000;stroke:#000000;stroke-linejoin:miter;" x="263.017785" xlink:href="#ma02cad8b63" y="261.337378"/>
     <use style="fill:#ff0000;stroke:#000000;stroke-linejoin:miter;" x="270.101157" xlink:href="#ma02cad8b63" y="271.910237"/>
     <use style="fill:#ff0000;stroke:#000000;stroke-linejoin:miter;" x="277.184529" xlink:href="#ma02cad8b63" y="282.372771"/>
     <use style="fill:#ff0000;stroke:#000000;stroke-linejoin:miter;" x="284.267901" xlink:href="#ma02cad8b63" y="292.399871"/>
     <use style="fill:#ff0000;stroke:#000000;stroke-linejoin:miter;" x="291.351273" xlink:href="#ma02cad8b63" y="300.13963"/>
     <use style="fill:#ff0000;stroke:#000000;stroke-linejoin:miter;" x="298.434645" xlink:href="#ma02cad8b63" y="303.384315"/>
     <use style="fill:#ff0000;stroke:#000000;stroke-linejoin:miter;" x="305.518017" xlink:href="#ma02cad8b63" y="304.578016"/>
     <use style="fill:#ff0000;stroke:#000000;stroke-linejoin:miter;" x="312.601388" xlink:href="#ma02cad8b63" y="305.172023"/>
     <use style="fill:#ff0000;stroke:#000000;stroke-linejoin:miter;" x="319.68476" xlink:href="#ma02cad8b63" y="305.531612"/>
     <use style="fill:#ff0000;stroke:#000000;stroke-linejoin:miter;" x="326.768132" xlink:href="#ma02cad8b63" y="305.77665"/>
     <use style="fill:#ff0000;stroke:#000000;stroke-linejoin:miter;" x="333.851504" xlink:href="#ma02cad8b63" y="305.955294"/>
     <use style="fill:#ff0000;stroke:#000000;stroke-linejoin:miter;" x="340.934876" xlink:href="#ma02cad8b63" y="306.089952"/>
     <use style="fill:#ff0000;stroke:#000000;stroke-linejoin:miter;" x="348.018248" xlink:href="#ma02cad8b63" y="306.196709"/>
     <use style="fill:#ff0000;stroke:#000000;stroke-linejoin:miter;" x="355.10162" xlink:href="#ma02cad8b63" y="306.280254"/>
     <use style="fill:#ff0000;stroke:#000000;stroke-linejoin:miter;" x="362.184992" xlink:href="#ma02cad8b63" y="306.349524"/>
     <use style="fill:#ff0000;stroke:#000000;stroke-linejoin:miter;" x="369.268364" xlink:href="#ma02cad8b63" y="306.427172"/>
     <use style="fill:#ff0000;stroke:#000000;stroke-linejoin:miter;" x="376.351736" xlink:href="#ma02cad8b63" y="306.484188"/>
     <use style="fill:#ff0000;stroke:#000000;stroke-linejoin:miter;" x="383.435107" xlink:href="#ma02cad8b63" y="306.524531"/>
     <use style="fill:#ff0000;stroke:#000000;stroke-linejoin:miter;" x="390.518479" xlink:href="#ma02cad8b63" y="306.554315"/>
     <use style="fill:#ff0000;stroke:#000000;stroke-linejoin:miter;" x="397.601851" xlink:href="#ma02cad8b63" y="306.577015"/>
     <use style="fill:#ff0000;stroke:#000000;stroke-linejoin:miter;" x="404.685223" xlink:href="#ma02cad8b63" y="306.592821"/>
     <use style="fill:#ff0000;stroke:#000000;stroke-linejoin:miter;" x="411.768595" xlink:href="#ma02cad8b63" y="306.605041"/>
    </g>
   </g>
   <g id="line2d_32">
    <path clip-path="url(#p35c6fc10e4)" d="M 57.6 307.584 
L 64.683372 275.650528 
L 71.766744 243.717056 
L 78.850116 211.783584 
L 85.933488 179.850112 
L 93.01686 147.91664 
L 100.100231 115.983168 
L 107.183603 84.049696 
L 114.266975 52.116225 
L 121.350347 48.555334 
L 128.433719 59.203147 
L 135.517091 69.84861 
L 142.600463 80.493762 
L 149.683835 91.138706 
L 156.767207 101.78246 
L 163.850579 112.427252 
L 170.93395 123.071442 
L 178.017322 133.716986 
L 185.100694 144.360379 
L 192.184066 155.005194 
L 199.267438 165.647643 
L 206.35081 176.291709 
L 213.434182 186.935236 
L 220.517554 197.580389 
L 227.600926 208.222587 
L 234.684298 218.865889 
L 241.767669 229.507646 
L 248.851041 240.14687 
L 255.934413 250.787071 
L 263.017785 261.419958 
L 270.101157 272.045078 
L 277.184529 282.63753 
L 284.267901 293.09598 
L 291.351273 302.124329 
L 298.434645 305.202101 
L 305.518017 305.942511 
L 312.601388 306.265184 
L 319.68476 306.44908 
L 326.768132 306.570094 
L 333.851504 306.656308 
L 340.934876 306.71952 
L 348.018248 306.769408 
L 355.10162 306.806814 
L 362.184992 306.837982 
L 369.268364 306.861459 
L 376.351736 306.882195 
L 383.435107 306.899165 
L 390.518479 306.913072 
L 397.601851 306.924511 
L 404.685223 306.933934 
L 411.768595 306.941696 
" style="fill:none;stroke:#000000;stroke-linecap:square;stroke-width:2;"/>
    <defs>
     <path d="M -2.5 2.5 
L 2.5 -2.5 
M -2.5 -2.5 
L 2.5 2.5 
" id="m6229d21bda" style="stroke:#000000;"/>
    </defs>
    <g clip-path="url(#p35c6fc10e4)">
     <use style="fill:#ff0000;stroke:#000000;" x="57.6" xlink:href="#m6229d21bda" y="307.584"/>
     <use style="fill:#ff0000;stroke:#000000;" x="64.683372" xlink:href="#m6229d21bda" y="275.650528"/>
     <use style="fill:#ff0000;stroke:#000000;" x="71.766744" xlink:href="#m6229d21bda" y="243.717056"/>
     <use style="fill:#ff0000;stroke:#000000;" x="78.850116" xlink:href="#m6229d21bda" y="211.783584"/>
     <use style="fill:#ff0000;stroke:#000000;" x="85.933488" xlink:href="#m6229d21bda" y="179.850112"/>
     <use style="fill:#ff0000;stroke:#000000;" x="93.01686" xlink:href="#m6229d21bda" y="147.91664"/>
     <use style="fill:#ff0000;stroke:#000000;" x="100.100231" xlink:href="#m6229d21bda" y="115.983168"/>
     <use style="fill:#ff0000;stroke:#000000;" x="107.183603" xlink:href="#m6229d21bda" y="84.049696"/>
     <use style="fill:#ff0000;stroke:#000000;" x="114.266975" xlink:href="#m6229d21bda" y="52.116225"/>
     <use style="fill:#ff0000;stroke:#000000;" x="121.350347" xlink:href="#m6229d21bda" y="48.555334"/>
     <use style="fill:#ff0000;stroke:#000000;" x="128.433719" xlink:href="#m6229d21bda" y="59.203147"/>
     <use style="fill:#ff0000;stroke:#000000;" x="135.517091" xlink:href="#m6229d21bda" y="69.84861"/>
     <use style="fill:#ff0000;stroke:#000000;" x="142.600463" xlink:href="#m6229d21bda" y="80.493762"/>
     <use style="fill:#ff0000;stroke:#000000;" x="149.683835" xlink:href="#m6229d21bda" y="91.138706"/>
     <use style="fill:#ff0000;stroke:#000000;" x="156.767207" xlink:href="#m6229d21bda" y="101.78246"/>
     <use style="fill:#ff0000;stroke:#000000;" x="163.850579" xlink:href="#m6229d21bda" y="112.427252"/>
     <use style="fill:#ff0000;stroke:#000000;" x="170.93395" xlink:href="#m6229d21bda" y="123.071442"/>
     <use style="fill:#ff0000;stroke:#000000;" x="178.017322" xlink:href="#m6229d21bda" y="133.716986"/>
     <use style="fill:#ff0000;stroke:#000000;" x="185.100694" xlink:href="#m6229d21bda" y="144.360379"/>
     <use style="fill:#ff0000;stroke:#000000;" x="192.184066" xlink:href="#m6229d21bda" y="155.005194"/>
     <use style="fill:#ff0000;stroke:#000000;" x="199.267438" xlink:href="#m6229d21bda" y="165.647643"/>
     <use style="fill:#ff0000;stroke:#000000;" x="206.35081" xlink:href="#m6229d21bda" y="176.291709"/>
     <use style="fill:#ff0000;stroke:#000000;" x="213.434182" xlink:href="#m6229d21bda" y="186.935236"/>
     <use style="fill:#ff0000;stroke:#000000;" x="220.517554" xlink:href="#m6229d21bda" y="197.580389"/>
     <use style="fill:#ff0000;stroke:#000000;" x="227.600926" xlink:href="#m6229d21bda" y="208.222587"/>
     <use style="fill:#ff0000;stroke:#000000;" x="234.684298" xlink:href="#m6229d21bda" y="218.865889"/>
     <use style="fill:#ff0000;stroke:#000000;" x="241.767669" xlink:href="#m6229d21bda" y="229.507646"/>
     <use style="fill:#ff0000;stroke:#000000;" x="248.851041" xlink:href="#m6229d21bda" y="240.14687"/>
     <use style="fill:#ff0000;stroke:#000000;" x="255.934413" xlink:href="#m6229d21bda" y="250.787071"/>
     <use style="fill:#ff0000;stroke:#000000;" x="263.017785" xlink:href="#m6229d21bda" y="261.419958"/>
     <use style="fill:#ff0000;stroke:#000000;" x="270.101157" xlink:href="#m6229d21bda" y="272.045078"/>
     <use style="fill:#ff0000;stroke:#000000;" x="277.184529" xlink:href="#m6229d21bda" y="282.63753"/>
     <use style="fill:#ff0000;stroke:#000000;" x="284.267901" xlink:href="#m6229d21bda" y="293.09598"/>
     <use style="fill:#ff0000;stroke:#000000;" x="291.351273" xlink:href="#m6229d21bda" y="302.124329"/>
     <use style="fill:#ff0000;stroke:#000000;" x="298.434645" xlink:href="#m6229d21bda" y="305.202101"/>
     <use style="fill:#ff0000;stroke:#000000;" x="305.518017" xlink:href="#m6229d21bda" y="305.942511"/>
     <use style="fill:#ff0000;stroke:#000000;" x="312.601388" xlink:href="#m6229d21bda" y="306.265184"/>
     <use style="fill:#ff0000;stroke:#000000;" x="319.68476" xlink:href="#m6229d21bda" y="306.44908"/>
     <use style="fill:#ff0000;stroke:#000000;" x="326.768132" xlink:href="#m6229d21bda" y="306.570094"/>
     <use style="fill:#ff0000;stroke:#000000;" x="333.851504" xlink:href="#m6229d21bda" y="306.656308"/>
     <use style="fill:#ff0000;stroke:#000000;" x="340.934876" xlink:href="#m6229d21bda" y="306.71952"/>
     <use style="fill:#ff0000;stroke:#000000;" x="348.018248" xlink:href="#m6229d21bda" y="306.769408"/>
     <use style="fill:#ff0000;stroke:#000000;" x="355.10162" xlink:href="#m6229d21bda" y="306.806814"/>
     <use style="fill:#ff0000;stroke:#000000;" x="362.184992" xlink:href="#m6229d21bda" y="306.837982"/>
     <use style="fill:#ff0000;stroke:#000000;" x="369.268364" xlink:href="#m6229d21bda" y="306.861459"/>
     <use style="fill:#ff0000;stroke:#000000;" x="376.351736" xlink:href="#m6229d21bda" y="306.882195"/>
     <use style="fill:#ff0000;stroke:#000000;" x="383.435107" xlink:href="#m6229d21bda" y="306.899165"/>
     <use style="fill:#ff0000;stroke:#000000;" x="390.518479" xlink:href="#m6229d21bda" y="306.913072"/>
     <use style="fill:#ff0000;stroke:#000000;" x="397.601851" xlink:href="#m6229d21bda" y="306.924511"/>
     <use style="fill:#ff0000;stroke:#000000;" x="404.685223" xlink:href="#m6229d21bda" y="306.933934"/>
     <use style="fill:#ff0000;stroke:#000000;" x="411.768595" xlink:href="#m6229d21bda" y="306.941696"/>
    </g>
   </g>
   <g id="patch_3">
    <path d="M 57.6 307.584 
L 57.6 41.472 
" style="fill:none;stroke:#000000;stroke-linecap:square;stroke-linejoin:miter;stroke-width:0.8;"/>
   </g>
   <g id="patch_4">
    <path d="M 414.72 307.584 
L 414.72 41.472 
" style="fill:none;stroke:#000000;stroke-linecap:square;stroke-linejoin:miter;stroke-width:0.8;"/>
   </g>
   <g id="patch_5">
    <path d="M 57.6 307.584 
L 414.72 307.584 
" style="fill:none;stroke:#000000;stroke-linecap:square;stroke-linejoin:miter;stroke-width:0.8;"/>
   </g>
   <g id="patch_6">
    <path d="M 57.6 41.472 
L 414.72 41.472 
" style="fill:none;stroke:#000000;stroke-linecap:square;stroke-linejoin:miter;stroke-width:0.8;"/>
   </g>
   <g id="text_17">
    <!-- b/h = 20 -->
    <defs>
     <path d="M 48.6875 27.296875 
Q 48.6875 37.203125 44.609375 42.84375 
Q 40.53125 48.484375 33.40625 48.484375 
Q 26.265625 48.484375 22.1875 42.84375 
Q 18.109375 37.203125 18.109375 27.296875 
Q 18.109375 17.390625 22.1875 11.75 
Q 26.265625 6.109375 33.40625 6.109375 
Q 40.53125 6.109375 44.609375 11.75 
Q 48.6875 17.390625 48.6875 27.296875 
z
M 18.109375 46.390625 
Q 20.953125 51.265625 25.265625 53.625 
Q 29.59375 56 35.59375 56 
Q 45.5625 56 51.78125 48.09375 
Q 58.015625 40.1875 58.015625 27.296875 
Q 58.015625 14.40625 51.78125 6.484375 
Q 45.5625 -1.421875 35.59375 -1.421875 
Q 29.59375 -1.421875 25.265625 0.953125 
Q 20.953125 3.328125 18.109375 8.203125 
L 18.109375 0 
L 9.078125 0 
L 9.078125 75.984375 
L 18.109375 75.984375 
z
" id="DejaVuSans-98"/>
     <path d="M 25.390625 72.90625 
L 33.6875 72.90625 
L 8.296875 -9.28125 
L 0 -9.28125 
z
" id="DejaVuSans-47"/>
     <path d="M 54.890625 33.015625 
L 54.890625 0 
L 45.90625 0 
L 45.90625 32.71875 
Q 45.90625 40.484375 42.875 44.328125 
Q 39.84375 48.1875 33.796875 48.1875 
Q 26.515625 48.1875 22.3125 43.546875 
Q 18.109375 38.921875 18.109375 30.90625 
L 18.109375 0 
L 9.078125 0 
L 9.078125 75.984375 
L 18.109375 75.984375 
L 18.109375 46.1875 
Q 21.34375 51.125 25.703125 53.5625 
Q 30.078125 56 35.796875 56 
Q 45.21875 56 50.046875 50.171875 
Q 54.890625 44.34375 54.890625 33.015625 
z
" id="DejaVuSans-104"/>
     <path d="M 10.59375 45.40625 
L 73.1875 45.40625 
L 73.1875 37.203125 
L 10.59375 37.203125 
z
M 10.59375 25.484375 
L 73.1875 25.484375 
L 73.1875 17.1875 
L 10.59375 17.1875 
z
" id="DejaVuSans-61"/>
    </defs>
    <g transform="translate(210.050625 35.472)scale(0.12 -0.12)">
     <use xlink:href="#DejaVuSans-98"/>
     <use x="63.476562" xlink:href="#DejaVuSans-47"/>
     <use x="97.167969" xlink:href="#DejaVuSans-104"/>
     <use x="160.546875" xlink:href="#DejaVuSans-32"/>
     <use x="192.333984" xlink:href="#DejaVuSans-61"/>
     <use x="276.123047" xlink:href="#DejaVuSans-32"/>
     <use x="307.910156" xlink:href="#DejaVuSans-50"/>
     <use x="371.533203" xlink:href="#DejaVuSans-48"/>
    </g>
   </g>
   <g id="legend_1">
    <g id="patch_7">
     <path d="M 334.698125 109.297 
L 407.72 109.297 
Q 409.72 109.297 409.72 107.297 
L 409.72 48.472 
Q 409.72 46.472 407.72 46.472 
L 334.698125 46.472 
Q 332.698125 46.472 332.698125 48.472 
L 332.698125 107.297 
Q 332.698125 109.297 334.698125 109.297 
z
" style="fill:#ffffff;opacity:0.8;stroke:#cccccc;stroke-linejoin:miter;"/>
    </g>
    <g id="line2d_33">
     <path d="M 336.698125 54.570437 
L 356.698125 54.570437 
" style="fill:none;stroke:#000000;stroke-linecap:square;stroke-width:2;"/>
    </g>
    <g id="line2d_34">
     <g>
      <use style="fill:#ff0000;stroke:#000000;" x="346.698125" xlink:href="#m685e94e082" y="54.570437"/>
     </g>
    </g>
    <g id="text_18">
     <!-- L_20_5 -->
     <defs>
      <path d="M 50.984375 -16.609375 
L 50.984375 -23.578125 
L -0.984375 -23.578125 
L -0.984375 -16.609375 
z
" id="DejaVuSans-95"/>
     </defs>
     <g transform="translate(364.698125 58.070437)scale(0.1 -0.1)">
      <use xlink:href="#DejaVuSans-76"/>
      <use x="55.712891" xlink:href="#DejaVuSans-95"/>
      <use x="105.712891" xlink:href="#DejaVuSans-50"/>
      <use x="169.335938" xlink:href="#DejaVuSans-48"/>
      <use x="232.958984" xlink:href="#DejaVuSans-95"/>
      <use x="282.958984" xlink:href="#DejaVuSans-53"/>
     </g>
    </g>
    <g id="line2d_35">
     <path d="M 336.698125 69.526687 
L 356.698125 69.526687 
" style="fill:none;stroke:#000000;stroke-linecap:square;stroke-width:2;"/>
    </g>
    <g id="line2d_36">
     <g>
      <use style="fill:#ff0000;stroke:#000000;stroke-linejoin:miter;" x="346.698125" xlink:href="#m112d909394" y="69.526687"/>
     </g>
    </g>
    <g id="text_19">
     <!-- L_20_10 -->
     <g transform="translate(364.698125 73.026687)scale(0.1 -0.1)">
      <use xlink:href="#DejaVuSans-76"/>
      <use x="55.712891" xlink:href="#DejaVuSans-95"/>
      <use x="105.712891" xlink:href="#DejaVuSans-50"/>
      <use x="169.335938" xlink:href="#DejaVuSans-48"/>
      <use x="232.958984" xlink:href="#DejaVuSans-95"/>
      <use x="282.958984" xlink:href="#DejaVuSans-49"/>
      <use x="346.582031" xlink:href="#DejaVuSans-48"/>
     </g>
    </g>
    <g id="line2d_37">
     <path d="M 336.698125 84.482937 
L 356.698125 84.482937 
" style="fill:none;stroke:#000000;stroke-linecap:square;stroke-width:2;"/>
    </g>
    <g id="line2d_38">
     <g>
      <use style="fill:#ff0000;stroke:#000000;stroke-linejoin:miter;" x="346.698125" xlink:href="#ma02cad8b63" y="84.482937"/>
     </g>
    </g>
    <g id="text_20">
     <!-- L_20_20 -->
     <g transform="translate(364.698125 87.982937)scale(0.1 -0.1)">
      <use xlink:href="#DejaVuSans-76"/>
      <use x="55.712891" xlink:href="#DejaVuSans-95"/>
      <use x="105.712891" xlink:href="#DejaVuSans-50"/>
      <use x="169.335938" xlink:href="#DejaVuSans-48"/>
      <use x="232.958984" xlink:href="#DejaVuSans-95"/>
      <use x="282.958984" xlink:href="#DejaVuSans-50"/>
      <use x="346.582031" xlink:href="#DejaVuSans-48"/>
     </g>
    </g>
    <g id="line2d_39">
     <path d="M 336.698125 99.439187 
L 356.698125 99.439187 
" style="fill:none;stroke:#000000;stroke-linecap:square;stroke-width:2;"/>
    </g>
    <g id="line2d_40">
     <g>
      <use style="fill:#ff0000;stroke:#000000;" x="346.698125" xlink:href="#m6229d21bda" y="99.439187"/>
     </g>
    </g>
    <g id="text_21">
     <!-- L_20_50 -->
     <g transform="translate(364.698125 102.939187)scale(0.1 -0.1)">
      <use xlink:href="#DejaVuSans-76"/>
      <use x="55.712891" xlink:href="#DejaVuSans-95"/>
      <use x="105.712891" xlink:href="#DejaVuSans-50"/>
      <use x="169.335938" xlink:href="#DejaVuSans-48"/>
      <use x="232.958984" xlink:href="#DejaVuSans-95"/>
      <use x="282.958984" xlink:href="#DejaVuSans-53"/>
      <use x="346.582031" xlink:href="#DejaVuSans-48"/>
     </g>
    </g>
   </g>
  </g>
 </g>
 <defs>
  <clipPath id="p35c6fc10e4">
   <rect height="266.112" width="357.12" x="57.6" y="41.472"/>
  </clipPath>
 </defs>
</svg>
